<?xml version="1.0" encoding="UTF-8"?>
<svg id="Layer_2" data-name="Layer 2" xmlns="http://www.w3.org/2000/svg" viewBox="0 0 223.75 234.14">
  <defs>
    <style>
      .cls-1 {
        fill: none;
      }

      .cls-1, .cls-2, .cls-3, .cls-4, .cls-5, .cls-6, .cls-7, .cls-8, .cls-9, .cls-10, .cls-11 {
        stroke-width: 0px;
      }

      .cls-3 {
        fill: #592d31;
      }

      .cls-4 {
        fill: #2f0009;
      }

      .cls-5 {
        fill: #26292c;
      }

      .cls-6 {
        fill: #b5403e;
      }

      .cls-7 {
        fill: #fff;
      }

      .cls-8 {
        fill: #e65151;
      }

      .cls-9 {
        fill: #ee4138;
      }

      .cls-10 {
        fill: #f27c7b;
      }

      .cls-11 {
        fill: #674026;
      }
    </style>
  </defs>
  <g id="Layer_1-2" data-name="Layer 1">
    <g>
      <path class="cls-1" d="m68.82,170.26c-.02-.05-.02-.13-.15-.08.05.05.1.05.15.08Z"/>
      <path class="cls-1" d="m54.18,132.8s.05-.09.08-.13c-.05,0-.13,0-.08.13Z"/>
      <path class="cls-1" d="m68.25,174.98s.08.06.13.08c-.03-.05-.03-.13-.13-.08Z"/>
      <path class="cls-1" d="m68.66,179.55s-.08-.06-.13-.08c0,.05,0,.13.13.08Z"/>
      <path class="cls-1" d="m43.93,119.48c.09,0,.18,0,.27-.02v-.13c-.17,0-.27.02-.27.15Z"/>
      <path class="cls-1" d="m65.08,193.41c-.08.08-.15.13-.34.31.14.02.28.03.42.03-.03-.11-.05-.24-.08-.34Z"/>
      <path class="cls-1" d="m203.61,73.18c.05.02.08.05.13.08-.03-.05-.03-.13-.13-.08Z"/>
      <path class="cls-1" d="m135.5,4.19s-.09.08-.11.13c.08,0,.13,0,.11-.13Z"/>
      <path class="cls-8" d="m159.2,132.67c.32-.24.68-.42,1.06-.52.41-.08.86-.08,1.17-.23-.39-.52-.88-1.01-1.14-1.59-.34-.86-.88-.7-1.4-.36-.67.49-1.31,1.04-1.9,1.63-.18.21-.27.75-.13.93.42.63,1.74.61,2.34.14Zm-18.06-1.84c-.27-.15-.52-.28-.78-.44-.13.31-.36.6-.36.91-.08.91-.03,1.79-.03,2.91.34.26.67.65,1.06.75,1.35.31,2.23-.36,2.96-1.45.44-.67.49-.83-.34-1.17-.89-.37-1.67-1.01-2.52-1.51Zm10.66,6.56c-1.69.57-3.37,1.14-5.03,1.76-.27.08-.44.49-.65.75.39.13.86.47,1.25.39.91-.21,1.77-.65,2.67-.91,1.95-.57,3.71-.34,5.06,1.43,0,.03.36-.05.41-.15.96-1.87.99-3.89,1.04-5.92,0-.75-.27-1.27-.91-1.48-1.22-.36-2.47-.91-3.69-.83-1.9.13-3.79.75-5.71,1.14-1.17.21-1.84.96-1.92,2.08-.05,1.27.54,2.36,1.3,3.37.05.03.11.03.16.05.05-.13.02-.27.08-.27,1.61-1.04,3.32-1.84,5.27-2.08.28-.05.56-.12.83-.21-.34-.15-.65-.34-.96-.44-.28-.03-.57-.03-.86,0-1.45-.08-2.88-.13-4.31-.23-.23-.02-.41-.27-.65-.41.18-.11.37-.2.57-.27.75-.08,1.48-.13,2.23-.18,1.99-.18,3.99.13,5.84.88.47.21.91.49,1.38.75-.61.15-1.22.25-1.84.31-.52.17-1.04.3-1.56.47Zm-1.48,30.51c-2.02.23-4.06.49-6.12.65-1.56.08-3.12,0-4.67.02-.08,0-.21.29-.21.36,1.27,1.46,2.49,2.93,3.89,4.23,1.3,1.27,2.59.27,3.74-.42,1.92-1.14,3.79-2.36,5.61-3.61,1.45-1.06,2.86-2.18,3.22-4.1.15-.86.08-1.76.34-2.6.7-2.21.31-4.46.39-6.7,0-.21-.23-.57-.39-.6-1.53-.16-3.06-.08-4.57-.39-.96-.18-2.13-.27-2.85-1.14-.13-.13-.13-.31-.21-.47.08-.04.18-.06.27-.05.96.21,1.92.47,2.88.65,1.24.24,2.48.42,3.74.54.57.02,1.04-.31.93-1.08-.17-1.27-.24-2.56-.21-3.84.08-1.3-.49-2.47-.54-3.76s-.7-2.6-1.27-3.79c-.32-.56-.87-.96-1.51-1.08-.91-.21-1.9-.13-2.85-.05-1.69.13-2.83,1.27-3.01,2.96-.02.34-.15.83.54.75.15,0,.36.27.54.39-.17.1-.35.18-.54.23-1.12.13-1.51.93-1.87,1.85-.7,1.79-1.35,3.66-2.21,5.4-.44.93-.52,1.38.65,1.51.25.07.5.17.73.31,1.82.81,3.66,1.5,5.66,1.63.23.06.45.15.65.27-.23.11-.44.34-.67.36-2.39.27-4.47-.6-6.62-1.76-.81-.67-1.27-.54-1.66.47-.47,1.06-1.01,2.08-1.63,3.06-.75,1.27-1.53,2.54-2.26,3.84-.52.88-1.43,1.63-1.08,2.8.27.83.81,1.56,1.06,2.39s.83.78,1.43.75c.88-.05,1.74-.13,2.65-.21.27-.02.57,0,.83-.02,2.39-.16,4.78-.29,7.14-.41.13,0,.26.23.39.34-.1.12-.18.3-.31.33Zm-2.1,2.52c-.26.15-.55.26-.85.3-1.37.36-2.62.75-3.92,1.06-.23.08-.57-.18-.86-.27.24-.23.51-.42.81-.57,1.56-.44,3.11-.88,4.67-1.3.62-.18,1.25-.27,1.87-.39-.59.41-1.14.8-1.73,1.16Zm6.18-20.11c-1.43.67-2.8,1.3-4.18,1.9-.18.08-.47-.05-.7-.13-.16-.08-.3-.2-.41-.34.13-.08.27-.18.41-.26,1.01-.42,2.02-.81,3.06-1.22.49-.21.96-.47,1.45-.67.31-.13.65-.18.96-.28-.18.31-.36.64-.6,1.01Zm-9.16,1.24c-.21-1.04.73-1.17,1.27-1.24,1.35-.21,1.51-.96,1.56-2.13s.44-2.41.75-3.61c.13-.47.39-1.14.96-.18.13.18.65.13.96.21,1.01.29,2.02.57,3.01.88.15.02.27.21.39.34-.15.08-.31.31-.41.29-.99-.21-1.97-.36-2.88-.65-.7-.23-1.19-.44-1.33.57-.15.91-.44,1.76-.6,2.67-.05.18.13.47.21.67.24-.14.45-.32.62-.54.31-.57.57-1.19.88-1.82.05-.08.16-.15.23-.27.08.11.18.23.18.31,0,1.01.54,1.04,1.33.81.54-.19,1.1-.33,1.66-.44.24,0,.49.03.73.08-.18.27-.27.67-.49.73-.99.29-2,.49-2.98.7-.24.08-.52.05-.67.18-1.51,1.19-3.4,1.66-5.09,2.44-.08.05-.16,0-.29,0h0Zm9.21,12.17c-1.95-.31-3.84-.7-5.76-1.06-.13-.04-.24-.11-.34-.21-.21-.15-.36-.34-.54-.49.22-.08.44-.13.67-.16,1.17.16,2.36.27,3.5.44,1,.17,1.99.41,2.96.7-.13.31-.37.78-.5.78h0Zm-2.62-4.78c.96-.31,1.92-.75,2.91-1.12.17-.1.37-.15.57-.15.2.06.38.15.54.27-.13.13-.21.29-.37.34-2.1,1.17-4.15,2.47-6.8,2.18-.44-.34-.36-.47.23-.65.99-.25,1.95-.53,2.91-.87h0Zm-10.77.05c3.01-.42,6.05-.75,9.11-1.12.07-.03.14-.03.21,0,.37.1.75.23,1.08.36-.34.08-.7.21-1.06.27-2.62.44-5.22.88-7.84,1.3-.63.05-1.27.03-1.9-.05-.72-.74.27-.74.4-.76h0Zm5.84,5.81c-2.23-.96-4.34-2.17-6.46-3.32-.21-.1-.31-.44-.47-.65.29,0,.57,0,.91.02,3.07,1.86,6.39,3.27,9.86,4.21.2.04.38.11.54.23.24.31.47.63.67.96-.29-.12-.58-.22-.88-.31-1.4-.36-2.89-.57-4.18-1.14h0Z"/>
      <path class="cls-4" d="m142.43,65.23c-2.17.27-4.44.05-6.15,1.79-.15.1-.32.15-.49.16-2.75.54-5.48,1.06-8.25,1.63-1.84.4-3.73.83-5.61,1.2-.5.08-1.01.07-1.51-.03-1.61-.36-3.16-.21-4.75.24-1.71.41-3.48.7-5.22,1.11-1.19.31-2.39.68-3.56,1.08-.91.31-1.74.73-2.6,1.06-.52.23-1.12.31-1.46.67-.32.47-.52,1.02-.57,1.58-.29,1.63-.39,3.32-.7,4.93-.44,2.36-1.35,4.65-1.33,7.09.03.78.18,1.63-.13,2.28-.88,2.02-.67,4.21-.88,6.28-.21,2.13.05,4.26.02,6.41,0,.86-.21,1.76-.26,2.62,0,.08.34.29.41.24.3-.15.58-.34.83-.57,1.25-1.06,2.39-2.26,3.71-3.14,2.44-1.61,4.93-3.14,7.5-4.52,1.96-1.09,4.2-1.59,6.44-1.43,1.97.16,3.97.18,5.96.23.32-.04.63-.12.93-.23.11-.01.22-.01.34,0,.83.29,1.66.86,2.47.81.86-.02,1.63-.73,2.52-1.08,1.43-.54,2.91-1.04,4.39-1.56.81-.27,1.61-.7,2.41-.73,1.79-.03,3.58.18,5.35.18,1.25-.03,2.31.39,3.35.99.21.1.49.28.67.23,1.82-.34,3.61-.7,5.4-1.04,1.3-.28,2.57-.6,3.89-.81.94-.16,1.9.1,2.65.7,1.32.93,2.65-.11,3.97-.21,1.56-.1,3.12-.27,4.26,1.08.47.54.88.86,1.63.81.26-.02.53.06.73.24.96,1.06,1.84,2.13,2.73,3.22.41.52.77,1.08,1.08,1.66h.22c-.08-.02-.13-.08-.21-.23-.08-.57-.15-1.14-.21-1.74-.26-2.93-.86-5.82-1.79-8.62-.7-2.21-1.66-4.39-2.6-6.54-.75-1.71-1.79-3.3-2.49-5.06-1.53-3.79-3.95-7.01-6.38-10.18-1.19-1.56-2.86-2.77-4.31-4.13-.07-.07-.13-.13-.21-.18-.02-.2-.12-.38-.27-.52-.03-.05-.08-.08-.13-.1l.1-.11c-.12-.15-.26-.29-.41-.41-.21-.1-.47-.21-.62-.13-1.19.6-2.26,1.56-3.48,1.79-2.42.52-4.94.65-7.4.96Z"/>
      <path class="cls-10" d="m133.86,100.56c3.17-.99,6.39-1.9,9.58-2.85,1.04-.29,1.17-1.06,1.08-1.97s-.73-.57-1.19-.65c-.2-.05-.4-.1-.6-.13-2.15,0-4.36-.28-6.44.08-2.52.44-4.91,1.45-7.35,2.23-.54.18-.96.44-.67,1.08-1.63-.28-3.27-.47-4.86-.91-2.23-.57-4.44-.41-6.72-.18-3.27.31-6,1.87-8.64,3.52s-5.09,3.71-7.63,5.55c-1.19.86-1.46,2-1.22,3.32.08.39.47.96.81,1.06.62.16,1.33.05,1.61-.75.41-1.06,1.43-1.45,2.39-1.79,2.54-.96,5.15-1.82,7.66-2.86,1.97-.78,3.82-1.38,5.84-.03.47.31,1.27.23,1.95.23.59-.02,1.17-.1,1.74-.23,1.29-.09,2.57-.24,3.84-.47,2.15-.44,4.26-.99,6.36-1.46.23-.05.47.11.7.16l.23-.05c-.52-1.65.05-2.48,1.53-2.92Z"/>
      <path class="cls-3" d="m169.79,196.32c3.4-2.17,6.65-4.54,9.94-6.83,2.98-2.05,6.02-4.05,8.98-6.18,1.46-1.1,2.86-2.28,4.21-3.52,1.92-1.69,3.84-3.4,5.76-5.11,1.58-1.43,3.25-2.73,4.67-4.28,2.36-2.6,4.54-5.32,6.77-8.05.65-.81.99-1.76.23-2.73-.83-1.06-1.63-2.17-2.62-3.11-.73-.67-1.71-1.48-2.83-.78-.7.41-1.22,1.08-1.79,1.66s-1.12,1.14-1.79,1.79c-3.01,2.88-6.03,5.75-9.06,8.62-1.48,1.37-2.98,2.73-4.52,4.06-1.84,1.63-3.69,3.27-5.58,4.9-2.03,1.76-4,3.52-6.1,5.22-2,1.61-4.1,3.12-6.15,4.7-1.45,1.06-2.85,2.17-4.34,3.19-1.92,1.35-3.87,2.73-5.89,3.89-2.01,1.17-4.1,2.2-6.25,3.09-1.61.62-3.32.91-5.01,1.33-.34.08-1.01.13-1.01.21-.02.54-.05,1.17.18,1.63.45.73.95,1.42,1.51,2.08,1.84,2.31,2.31,3.01,5.15,2.15,2.34-.72,4.61-1.67,6.77-2.83,3.01-1.54,5.91-3.26,8.77-5.1Zm-20.14.31c1.9-.67,3.76-1.45,5.58-2.28,3.63-1.63,6.9-3.84,10.1-6.15,2.41-1.77,4.88-3.4,7.19-5.24,2.77-2.21,5.45-4.54,8.15-6.85,2.93-2.47,5.87-4.96,8.77-7.45,1.95-1.63,3.89-3.22,5.79-4.93,2.1-1.92,4.15-3.95,6.18-5.96.49-.49.67-1.25.13-1.82-1.69-1.84-2.77-4.05-4.06-6.15-1.43-2.35-3.19-4.48-5.22-6.33-.96-.83-1.69-1.92-1.5-3.38.1-.81.1-1.63.13-2.47.05-2.54-.81-4.9-1.63-7.24-.28-.78-.65-1.56-1.61-1.48-1.12.13-2.15,1.06-2.08,1.97.1,1.14-.52,1.97-1.06,2.86-.13.21-.27.41-.39.6.29-.05.67-.03.88-.21.6-.54,1.19-1.14,1.76-1.76.91-.96,1.63-.83,2.03.47.34,1.04.81,2.08.81,3.14,0,2.05.91,4.36-1.27,6-.73.54-1.3,1.25-1.92,1.9-1.92,1.97-4.18,3.48-6.49,4.91-.6.36-1.51.54-1.38,1.61.03.23-.27.52-.39.75-.19-.24-.34-.52-.44-.81-.13-.7-.1-1.43-.27-2.1-.39-1.66-.86-3.32-1.25-5.01-.09-.55-.1-1.11-.05-1.66-.04-.03-.04-.09,0-.12h0v-.04c.22-.25.45-.48.7-.7.62-.52,1.33-.99,1.97-1.51.13-.1.16-.36.24-.52-.2-.01-.4,0-.6.05-1.25.7-2.41,1.53-3.71,2.13-1.53.7-3.19,1.19-4.8,1.79-1.3.49-2.54,1.12-3.84,1.51-2.83.81-5.71,1.45-8.57,2.23-.31.08-.52.49-.78.73.29.1.54.31.83.31.31-.04.61-.13.88-.29,2.08-.73,2.8-.67,2.88,1.84.02,1.4.23,2.78.15,4.15-.02,1.22-.36,2.44-.62,3.63-.02.13-.39.29-.57.27-1.12-.1-2.17.54-2.23,1.4-.23,1.92-.39,3.89-.67,5.82-.42,2.71-1.95,4.67-4.21,6.07-2.08,1.33-4.18,2.57-6.26,3.84-1.84,1.08-3.87,1.06-5.61-.54-1.97-1.9-3.66-4.08-5.01-6.46-.86-1.48-1.25-3.25,0-4.86.13-.18.27-.39.39-.6.44-.7.08-.83-.54-.73-2.41.39-4.7,1.17-7.22.91-1.63-.18-3.35.05-5.01.21-.73.05-1.01-.36-1.17-.81-.18-.62-.25-1.26-.21-1.9.08-1.9.23-3.84.41-5.76.1-.41.39-.75.78-.91.86-.17,1.74-.26,2.62-.27,1.08-.03,2.21.08,3.3,0,2.44-.27,4.88-.6,7.32-.86.34-.03.67.15,1.01.23h.23v-.99c-.52.03-.99.05-1.48.1-1.82.13-3.66.31-5.48.42-3.48.15-6.96.39-10.43.39-2.13,0-4.26-.44-6.39-.6-3.32-.27-6.67-.41-9.99-.67-1.53-.13-3.01-.41-4.54-.65-1.43-.21-2.86-.44-4.28-.65-1.82-.23-3.61-.41-5.42-.67-2.34-.31-4.67-.88-7.05-1.01-1.9-.1-3.84.18-5.74.39-2.32.24-4.49,1.27-6.15,2.91-.93.88-1.51,2.36-1.84,3.63-.57,2,.21,4.1.6,6.13.03.23.49.41.75.6.13-.22.22-.47.27-.73,0-.35-.05-.7-.13-1.04-.18-1.51-.36-2.98-.47-4.49-.03-.27.34-.6.54-.93.11.28.21.56.27.86.31,1.82.65,3.61.88,5.42.14.84.13,1.7-.02,2.54-.18.93-.65,1.82-.93,2.75-.76,2.72-1.15,5.53-1.17,8.36-.1,6.31-.03,12.56-.05,18.85,0,.89-.07,1.77-.21,2.65-.23,1.37.18,2.1,1.48,2.17,2.39.05,4.8.13,7.16.03,2.8-.13,5.55-.44,8.33-.67,1.43-.11,2.86-.27,4.28-.44,2.67-.34,5.29-.75,8-1.06,1.63-.21,3.32-.27,5.01-.36,3.17-.18,6.39-.49,9.58-.49,3.4,0,6.8.23,10.2.49,1.5.15,2.98.43,4.44.81,1.3.31,2.57.81,3.87,1.14.49.13,1.01.06,1.45-.18.86-.57,1.53-1.35,2.34-2.05,2.67-2.31,5.37-4.65,8.07-6.96.24-.17.5-.3.78-.39-.11.31-.11.73-.29.96-.7.67-1.48,1.35-2.21,2-.78.67-.78,1.14.05,1.79,1.66,1.32,3.3,2.65,5.04,3.92.62.49,1.46.93,2.28.59Zm18.05-52.04c.91-.34,1.84-.62,2.77-.99.73-.31,1.12-.02,1.33.65.31,1.12.62,2.23.86,3.37.14.87.21,1.74.21,2.62.05,1.92-.47,2.57-2.36,3.25-.44.18-1.06.18-1.4.49-.39.34-.57.88-.81,1.37-.13.37-.18.78-.27,1.17-.21-.37-.52-.7-.54-1.12-.13-1.22-.18-2.49-.27-3.87-.21-1.71-.39-3.35-.67-4.96-.18-.87.32-1.74,1.17-2.01Zm-84,15.52c0,.18-.21.39-.31.6-.13-.16-.24-.35-.31-.54-.27-.91-.91-1.08-1.74-.99-1.06.1-2.13.15-3.27.21-1.17.21-2.23.31-3.27.57-.54.15-.54.05-.7-.44-1.04-2.67-.99-5.42-.6-8.18.15-1.12,1.3-1.51,2.13-1.69,2.18-.47,4.47-.65,6.7-.91,1.01-.13,1.46.41,1.4,1.4-.08,2.71-.18,5.4-.21,8.1,0,.59.15,1.24.18,1.86Zm32.11,1.3c-.18.27-.31.6-.44.57-2.98-.1-5.99-.13-8.94-.44-3.35-.34-6.7-1.01-10.04-1.45-1.14-.16-2.31,0-3.48-.05-.81.04-1.63-.05-2.41-.27-.41-.13-1.04-.75-1.04-1.14.05-2.54.21-5.11.41-7.65.05-.73.52-1.01,1.3-.96,2.71.23,5.4.36,8.07.86,2.56.43,5.13.73,7.72.89,2.52.23,5.06.31,7.59.44,1.56.08,1.95.41,1.87,1.95-.14,2.42-.37,4.8-.6,7.27h0Zm26.92-11.71c-.54.41-.88,1.69-.39,2.15.08.03.31-.13.47-.41.11-.47.24-.93.31-1.4,0-.03.34-.78-.39-.34Zm-9.4,48.72c-2.05-.49-4.15-.93-6.23-1.3-1.68-.3-3.38-.5-5.09-.62-3.12-.21-6.18-.62-9.29-.31-4.02.41-8.1.47-12.12.73-.99.05-1.97.21-2.93.31-2.73.34-5.42.7-8.15.96-3.56.36-7.16.62-10.75.91-.96.1-1.92.41-2.91.39-1.4-.02-2.8-.17-4.18-.44-2.21-.41-3.19-2.1-2.83-4.31.1-.49-.13-1.08-.36-1.56-.08-.1-.81.15-1.46.21-.65.7-1.61,1.08-1.63,2.28-.03,2.13-.18,4.25-.18,6.41,0,1.08-.57,2.34.6,3.25.11.05-.02.31.03.44.27.44.44,1.17.83,1.32,1.19.49,2.26,1.25,3.66,1.46,3.09.47,6.1.36,9.11.13s6.02-.44,9.03-.67c1.63-.11,3.27-.21,4.88-.44,2.31-.31,4.62-.91,6.96-1.01,3.01-.18,5.96-.81,9.01-.52,1.58.13,3.22,0,4.83.02,2.34.05,4.67,0,6.98.27,2.25.28,4.47.68,6.67,1.22,1.84.41,2.1.1,2.62-.75,1.17-1.9,2.36-3.76,3.63-5.58.77-1.14.54-2.46-.73-2.8Zm-4.52-43.17c0,.34.03.67.03.99,0,.18.04.36.13.52h1.08c0-.36.13-.86-.08-1.06-.25-.26-.77-.28-1.16-.44Z"/>
      <path class="cls-5" d="m217.73,164.52c-1.91-.56-3.85-1.02-5.82-1.38-.34-.08-.83.21-1.06.49-1.4,1.61-2.71,3.35-4.13,4.93-1.14,1.27-2.36,2.39-3.58,3.58-1.24,1.27-2.36,2.65-3.69,3.82-3.11,2.65-6.25,5.29-9.48,7.81-3.63,2.8-7.4,5.45-11.13,8.1-3.06,2.15-6.21,4.26-9.35,6.31-2.49,1.58-5.06,3.06-7.61,4.57-1.01.57-1.22,1.01-.54,1.97.81,1.19,1.74,2.31,2.65,3.45,1.3,1.61,2.98,2.62,4.98,1.95,3.04-.99,5.95-2.34,9.01-3.66,1.63-1.08,3.32-2.13,4.93-3.3.34-.26.55-.66.57-1.08-.02-.29-.52-.54-.86-.81-.08-.11-.27-.11-.39-.13.13-.11.24-.27.39-.31,1.58-.67,3.22-1.22,4.72-2.02,2.96-1.51,5.87-3.12,8.72-4.78,2.21-1.3,4.34-2.71,6.46-4.13,1.27-.86,2.48-1.76,3.66-2.73,1.3-1.06,2.52-2.23,3.82-3.32,1.25-1.06,2.62-1.97,3.82-3.06,1.25-1.14,2.34-2.41,3.5-3.61,2.26-2.34,3.76-4.93,3.76-8.33,0-1.35-1.78-3.83-3.37-4.33Zm-97.81,42.85c-2.88-.05-5.76-.05-8.62,0-1.5.02-3.04.1-4.54.21s-3.09.29-4.85.42l-2.31.23c-2.36.27-4.77.44-7.14.75s-4.75.75-7.11.96-4.8.21-7.22.23-4.9.08-7.35-.05c-1.11-.08-2.1-.44-2.71.93-.7,1.62-1.08,3.35-1.14,5.11-.06,1.11.11,2.23.5,3.27.7,1.76,1.69,3.32,3.4,4.46,1.66,1.08,3.3,2.13,5.15,2.86.91.36,1.84.7,2.75,1.04,1.32.44,2.59.96,3.95,1.35,1.48.39,2.98.67,4.49.96,1.76.27,3.5.7,5.27.75,3.14.09,6.27.01,9.4-.24,1.69-.15,3.32-.83,4.96-1.37,1.06-.36,2.18-.78,3.12-1.46,1.45-1.01,2.88-2.08,4.06-3.4,1.01-1.08,1.5-2.65,2.47-3.84,1.58-2,1.79-4.57,2.98-6.72.73-1.4,1.01-3.04,1.56-4.57.4-1.07.04-1.88-1.05-1.9Z"/>
      <path class="cls-6" d="m136.59,37.54c1.43,1.12,2.98,1.27,4.41.34s1.97-2.83,1.35-4.61c-.6-.75-1.14-1.61-1.87-2.26-1.53-1.35-4.73-.7-5.29,1.08-.63,1.99-.5,3.95,1.4,5.45Zm.13-5.32c.52-.33,1.15-.46,1.76-.36,1.46.36,2.34,1.79,2.34,3.5-.44,1.12-1.22,1.82-2.31,1.71-1.25-.15-2.08-1.19-2.41-2.26-.28-.83-.34-2.03.62-2.6Zm-25.64,9.01c.4.4.83.76,1.3,1.08,1.22.78,3.35.13,4-1.14s.6-2.52.08-3.89c-1.08-2.8-3.92-4-6.46-2.57-.78.44-1.46,1.79-1.17,2.65.41,1.4.8,2.89,2.26,3.87Zm-.34-4.85c.27-.99,1.56-1.4,2.8-.93,1.14.44,2.21,2.05,2.21,3.3,0,1.14-.41,1.61-1.74,1.84-2.23-.13-3.82-2.21-3.27-4.2Z"/>
      <path class="cls-11" d="m179.73,139.37c-.89,1.08-2.11,1.85-3.48,2.17.21.34.52,1.08.62,1.27.24.36.43.75.54,1.17.36,1.18.65,2.37.88,3.58.18,1.17.83.52,1.14.27,2.1-1.56,4.15-3.19,6.18-4.83.91-.73,1.71-1.5,2.54-2.31.29-.28.5-.64.6-1.04.17-2-.05-4.01-.65-5.92-.15-.62-.39-.81-1.04-.27-2.02,1.69-4.13,3.32-6.2,4.96-.38.34-.85.59-1.14.94Zm-11.45,12.54c.1,1.27.05,1.4,1.19.91.86-.36,2.17-1.04,2.21-1.63.1-1.79-.36-3.58-.54-5.4-.08-.78-.49-1.14-1.17-.96-.88.24-1.69.67-2.54,1.06.08.25.15.5.21.75.23,1.75.49,3.49.65,5.26Zm-10.2,3.79c.13.27.73.47,1.06.39.39-.08.96-.42,1.04-.73.21-.83.18-1.71.16-2.72-.05-1.59-.08-3.17-.13-4.75,0-.11-.31-.23-.47-.23-1.74.02-2.62,1.35-2.26,3.06.23,1.08.18,2.26.27,3.4.07.54.09,1.14.33,1.58Zm-18.57.8s.18.03.21,0c.49-.78.93-1.56,1.53-2.47-.08-.78-.13-1.58-.21-2.39-.27-1.82.31-2.49,2.1-2.98.47-.1.88-.73,1.12-1.22s-.08-.81-.62-.7c-.72.11-1.43.27-2.13.47-.7.27-1.82.6-1.92,1.06-.27,1.3-.08,2.71-.08,4.06-.02.62-.08,1.22-.08,1.82,0,.76.06,1.54.08,2.34Zm-2.53-4.08c-.29.08-.65-.03-.96,0-1.43.13-2.83.34-4.28.47-1.61.13-3.25.21-4.86.29-.65.02-1.27-.18-1.87-.08-.47.1-.96.34-.99,1.06-.16,1.97-.41,3.97-.57,5.96-.03.31.08.86.83.83,1.69-.16,3.43-.11,5.11-.27,2.67-.27,5.29-.54,7.94-.91.65-.08,1.14-.52,1.12-1.4-.13-2.02-.18-4.02-.24-6.05v-.54h-.23c-.32.24-.66.46-1.01.64Zm-6.44,5.09c-.52.31-1.58.39-1.97.08-.41-.41-.44-1.35-.52-2.05-.05-.27.36-.54.62-.88.86,0,1.82-.34,2.34.67.39.88.26,1.71-.47,2.18Zm-17.34-4.44c-.34,0-.7.03-1.06,0-1.87-.08-3.74-.02-5.58-.26-2.17-.24-4.34-.78-6.5-1.01-2.8-.34-5.63-.44-8.44-.73-.67-.05-.91.08-.91.75-.08,1.95-.13,3.92-.27,5.89-.03.78.21,1.06,1.04,1.06,1.63-.03,3.26.03,4.88.18,2,.23,4,.57,6.2.86.26.11.53.18.81.21,1.35.15,2.71.34,4.05.44,2.15.18,4.34.34,6.49.44.75.03,1.22-.27,1.22-1.17-.02-1.48.13-2.98.21-4.46.08-2.21.06-2.21-2.13-2.21Zm-37.61-2.36c-.49.21-.85.64-.96,1.17-.1,1.9-.1,3.79-.05,5.69.05.93.78,1.06,1.61.96,1.79-.15,3.61-.27,5.4-.47.29-.03.75-.34.78-.54.13-1.12.1-2.23.18-3.32.05-1.22.18-2.41.28-3.84-.13-.31-.28-.88-.39-.88-2.27.35-4.59.75-6.85,1.24Z"/>
      <path class="cls-7" d="m181.18,73.88c-.27-.15-.67-.1-1.04-.13-.06.31-.09.62-.08.93.62,2.96,1.32,5.92,1.97,8.88.65,3.12,1.01,6.3,1.08,9.48,0,1.38-.08,2.75,0,4.13.02.65.21,1.28.54,1.85,1.43,2.02,2.17,4.28,2.52,6.72.05.44.36.88.54,1.32.18-.49.47-.93.49-1.45.21-2.48-.32-4.96-1.5-7.14-.27-.65-.62-1.32-.91-2-.05-.15-.09-.31-.11-.47.16.08.34.08.44.16.44.57.91,1.14,1.3,1.74,1.17,1.84,1.95,3.79,1.87,5.96-.03,1.08-.41,2.17-.54,3.25,0,.5.03.99.1,1.48.36-.34.75-.67,1.12-1.06.02,0-.03-.05,0-.08.67-1.59.7-3.19.65-4.86.02-.24.05-.49.11-.73.18.16.31.39.47.42.23-.02.43-.16.52-.37.15-.67.28-1.37.41-2.1.44-2.21,1.14-4.41,1.27-6.62.21-3.52-.78-6.83-2.49-9.97-2.01-3.85-5.03-7.09-8.74-9.36Zm3.24,53.78c.13-.81.34-1.61.41-2.41.05-.36-.1-.78-.18-1.17-.36.28-.75.57-1.12.86-.09.14-.16.3-.21.47-.39.73-.75,1.43-1.17,2.1-1.35,2.15-2.73,4.28-4.15,6.36-1.12,1.56-2.02,3.32-3.74,4.41-.27.18-.29.68-.44,1.06.33.03.66.03.99,0,.38-.14.75-.32,1.08-.54,1.71-1.12,3.52-2.1,5.09-3.4,1.45-1.22,3.06-2.49,3.35-4.61.11-.95.06-1.94.08-3.13Zm1.27-14.9c-.28-3.11-.65-6.23-1.08-9.34-.13-.99-.6-1.92-.96-2.86-.08-.18-.29-.28-.44-.41-.11.18-.31.41-.29.62.03.7.18,1.4.18,2.1.05,2.98-.39,5.87-1.63,8.67-1.38,3.06-2.93,5.95-5.24,8.4-1.43,1.53-3.27,2.41-5.16,3.3-2.47,1.12-5.07,1.91-7.74,2.36-1.84.34-3.63.81-5.16,1.95-1.17.88-2.26,1.77-3.45,2.54-.52.34-1.01.67-.73,1.25.08.21.99-.03,1.53-.08.1,0,.16-.15.27-.21,1.01-.67,2.1-1.25,3.06-2.03.75-.6,1.25-.49,1.82.16,1.37,1.58,2.75,3.22,4.26,4.9.01.1.05.2.1.29,2.05,1.27,4.06,2.57,6.15,3.76.61.39,1.43.23,1.84-.37.62-.88,1.3-1.71,1.95-2.57,2-2.8,4.06-5.53,5.94-8.44,1.35-2.13,2.49-4.38,3.43-6.73.93-2.3,1.64-4.74,1.35-7.28Zm-27.49,32.16c3.71-1.08,7.4-2.26,11.11-3.4,1.01-.27,2.02-.57,3.04-.88.18-.09.35-.2.52-.31-.18-.1-.36-.23-.52-.31-.62-.18-1.3-.27-1.84-.54-.99-.49-1.87-1.12-2.8-1.63-1.86-1.1-3.52-2.52-4.89-4.19-.42-.44-.7-.75-1.27-.62-.88.21-1.74.57-2.65.73s-1.14.83-1.25,1.5c-.15.88-.15,1.77-.23,2.65-.13,1.27-.41,2.47-1.5,3.32-.3.27-.46.66-.42,1.06.16.73.54,1.46.83,2.36.61.13,1.31.41,1.88.26Zm-22.14-16.12c-3.22-.18-6.44-.36-9.68-.6-1.19-.05-2.39-.1-3.58-.27-1.87-.21-3.69-.54-5.55-.83-1.66-.24-3.35-.42-5.01-.81-1.76-.42-3.43-1.12-5.19-1.56-3.19-.78-6.05-2.28-8.93-3.71-5.19-2.61-10.18-5.6-14.93-8.96-1.56-1.12-3.01-2.41-4.49-3.61-.36-.28-.73-.57-1.06-.86.04.5.09,1.01.18,1.5.08.23.21.44.36.62.47.67.96,1.35,1.4,2.05,1.17,1.87,2.31,3.74,3.48,5.84,1.06.57,2.13,1.14,3.22,1.69,2.8,1.5,5.58,3.01,8.38,4.49,2.52,1.3,5.03,2.54,7.55,3.84,3.38,1.76,6.7,3.66,10.12,5.32,3.89,1.92,7.89,3.76,11.89,5.45,2.27.93,4.6,1.74,6.96,2.41,1.6.45,3.23.82,4.88,1.08,1.35.29,1.9-.23,1.92-1.63.05-1.97.08-3.95.23-5.92.13-1.43.39-2.88.65-4.28.15-.99.03-1.22-1.06-1.25-.6.02-1.17.02-1.74-.04Zm33.54-30.78c-.36-.42-.7-.88-1.08-1.27-.21-.18-.54-.21-.81-.31,0,.3.03.6.1.88.47,1.14,1.08,2.26,1.4,3.43.27,1.12.73,1.97,1.71,2.54.36.21.78.34,1.17.52,0-.44.13-.96-.03-1.33-.75-1.48-1.58-2.88-2.46-4.46Zm-3.3-1.64c-.54-1.22-1.48-1.92-2.91-1.74-.67.08-1.33.16-2.17.21-.28.1-.54.15-.81.23-.75.21-1.17.39-.91,1.46.44,1.79.47,3.66.75,5.5.08.5.27.97.57,1.38.39.47.83.91,1.3,1.3.18.18.39.39.57.39,1.48.02,2.96.05,4.41-.05.36,0,1.04-.36,1.06-.67.21-.96.41-2.05.15-2.96-.5-1.74-1.28-3.37-2.03-5.03Zm-33.54-62.68c.23,1.14.44,2.36,1.08,3.25,1.57,2.14,3.3,4.16,5.16,6.05,2.31,2.3,5.13,4.02,8.23,5.01,2.6.83,5.19,1.27,7.97.91,5.03-.67,6.75-2.67,6.93-6.96,0-1.5-.24-2.98-.67-4.41-.67-2.44-1.35-4.93-2.41-7.24-1.51-3.18-3.7-5.99-6.41-8.23-1-.81-2.11-1.46-3.3-1.95-1.35-.52-2.83-.78-4.23-1.08-1.87-.47-3.69-.31-5.61.28-.65.39-1.45.6-1.92,1.12-1.01,1.14-1.79,2.52-2.83,3.61-1.71,1.79-2.49,3.82-2.23,6.28.1,1.1.02,2.28.23,3.37Zm1.38-1.33c.91-2.96,4.46-4,6.98-2.02.78.65,1.4,1.51,2.1,2.39,1.3,3.03-.67,6.38-3.79,6.72-1.82.21-3.14-.96-4.1-2.34s-1.71-3.03-1.19-4.75Zm25.41,70.97c-.39-2.47-.88-4.93-1.3-7.4-.22-1.15-1.31-1.92-2.47-1.74-2.26.47-4.54.91-6.83,1.33-.93.15-1.9.21-2.78.44-.34.1-.52.62-.78.91.31.08.7.27.96.16.96-.39,1.51.23,1.82.86.34.7.57,1.46.67,2.23.23,1.24.23,2.57.52,3.82.27,1.04-.02,1.87-.6,2.71-.1-.49-.31-.99-.34-1.48-.02-2.12-.37-4.22-1.04-6.23-.27-.88-.65-1.17-1.56-.81-.52.23-1.12.28-1.66.47-3.27,1.01-6.54,2.03-9.84,3.04-.78.23-1.14.75-.91,1.43.73,2.36.65,4.75.6,7.16,0,.81.16.91.96.65,2.71-.91,5.48-1.74,8.2-2.57,1.84-.54,3.66-1.06,5.61-1.61.05-.03.13-.03.18-.05.44.03.88.03,1.32,0,2.21-.27,4.47-.54,6.67-.88.88-.13,1.74-.44,2.6-.54h.1c-.02-.08-.05-.15-.1-.21.03-.56.02-1.11-.03-1.66Zm-86.46,44.13c1.43-.52,2.93-.88,4.34-1.37,2.67-.88,5.37-.34,8.02-.18,2.13.15,4.21.73,6.31,1.06,2.91.44,5.82.88,8.72,1.3,2.98.47,5.94,1.01,8.94,1.27,3.06.27,6.18.39,9.29.47,2.98.08,5.96.05,8.98,0s6.07-.13,9.14-.21c.81-.03,1.37-.31,1.37-1.35.05-.67.29-1.27.83-1.63.2-.12.42-.21.65-.27,1.02-.29,2.06-.51,3.12-.65,1.82-.16,2.47-.52,2.8-1.74.11-.53.25-1.05.44-1.56.31-.81.05-1.32-.49-1.92-.82-.93-1.53-1.96-2.1-3.06-.7-1.43-1.84-1.95-3.27-1.12-.24.18-.39.44-.44.73-.11,1.43-.18,2.83-.24,4.26s-.81,2.21-2.21,2.21c-.81,0-1.62-.08-2.41-.24-2.23-.47-4.57-.75-6.62-1.61-5.22-2.17-10.36-4.51-15.47-6.9-2.93-1.4-5.79-2.98-8.67-4.57-5.24-2.83-10.43-5.71-15.62-8.59-1.25-.67-2.47-1.38-3.71-2.18h-.21c.08.03.13.08.21.21.09.44.22.86.39,1.27.73,1.19,1.5,2.34,2.23,3.56,1.85,3.15,3.7,6.29,5.54,9.45.44.72.84,1.46,1.19,2.23.1.34.14.69.11,1.04-.27-.21-.6-.34-.81-.62-.37-.49-.71-1-1.01-1.53-2.54-4.1-5.11-8.2-7.63-12.33-2.34-3.82-4.62-7.66-6.93-11.5-.26-.42-.57-.81-.86-1.22-.08.57-.23,1.14-.26,1.71,0,.31.23.65.36.93.96,2.21,2,4.41,2.85,6.67,1.04,2.62,1.92,5.29,2.86,7.97.31.88.6,1.79.86,2.71.05.13-.05.31-.1.47-.18-.11-.44-.18-.49-.34-.91-2.05-1.82-4.13-2.65-6.2-1.22-3.12-2.36-6.23-3.56-9.32-.08-.18-.34-.31-.54-.49-.15.18-.41.36-.47.57-.31,1.08-.57,2.17-.88,3.25-1.19,4.06-3.16,7.79-5.35,11.39-1.38,2.34-3.25,4.26-6.1,4.86-.67.15-.6.67-.18,1.11.65.65,1.4,1.19,1.9,1.95,2.13,3.14,4.21,6.31,6.23,9.52.44.71.86.81,1.61.53Zm59.88-37.66c-.05-2.08.08-4.18-.62-6.25t-.03-.05l-.23.05c-.16.18-.23.49-.41.54-1.08.41-2.15.78-3.27,1.08-3.63,1.06-7.4,1.38-11.16,1.66-.83.05-1.22.37-1.51,1.14-.78,2.02-.31,4.1-.41,6.15-.08,1.4.27,1.71,1.69,1.66,1.14-.08,2.28-.23,3.4-.44,1.9-.39,3.82-.78,5.69-1.32,1.97-.54,3.89-1.25,5.84-1.95.65-.26,1.38-.62,1.04-1.61-.04-.22-.04-.44,0-.67ZM94.8,25.78c-1.92.57-4,.91-5.74,1.85-2.6,1.35-5.01,3.11-6.72,5.58-1.27,1.76-2.28,3.66-3.43,5.53-1.38,2.21-1.27,4.65-1.33,7.09-.08,3.4,1.48,5.82,4.21,7.63,2.52,1.69,5.45,2.17,8.38,2.36,3.56.28,7.15-.01,10.62-.86,2.85-.73,5.71-1.48,8.36-2.73,3.69-1.76,7.09-4.05,9.89-7.16,2.54-2.78,3.19-6.83,1.27-9.99-1.38-2.28-3.18-4.26-5.32-5.84-2.8-2.08-5.87-3.71-9.32-4.05-2.98-.27-6.07.13-9.21.36-.56.04-1.11.12-1.66.23Zm14.63,8.05c1.69-1.27,2.62-1.04,4.57-.18,1.84.81,3.04,2.28,3.58,4.31.49,1.79-.13,4.23-1.69,5.16-1.22.75-2.76.75-3.97,0-1.66-1.06-3.11-2.39-3.82-4.36s-.39-3.58,1.32-4.93Zm8.88,27.83c-.49.05-1.01.15-1.5.26-1.97.39-3.74,1.25-5.53,2.18-3.14,1.58-5.61,3.82-7.29,6.9-.18.35-.32.73-.41,1.12.42-.04.83-.11,1.24-.21,1.59-.54,3.17-1.17,4.78-1.66,1.58-.44,3.22-.78,4.88-1.08,1.5-.29,3.06-.73,4.51-.6.05,0,.13.03.18.03,1.77.23,3.43-.08,5.09-.34,3.5-.62,6.96-1.43,10.44-2.13,1.61-.34,1.74-.54,1.35-2.21-.03-.15-.03-.3,0-.44.01-.43.04-.87.1-1.3.16.41.44.83.52,1.27.1.78.31,1.33,1.27,1.12.65-.13,1.33-.34,2-.41,2.65-.23,5.35-.41,7.99-.7.71-.06,1.39-.31,1.97-.73.23-.15,0-.91.08-1.37.1-.32.22-.63.36-.93.16.28.33.55.52.81.24.31.44.78.78.91.21.08.62-.31.96-.49-.23-.39-.39-.93-.73-1.06-.88-.39-1.9-.78-2.83-.75-3.79.13-7.59.39-11.6.6-2.57.39-5.15.93-7.71,1.06-3.37.18-6.77.03-10.15.05-.43,0-.86.04-1.28.12Zm.93,5.29s-.08-.05-.13-.11c-.13-.06-.24-.16-.31-.28-.23-.93-.47-1.9-.62-2.86-.05-.28.15-.57.23-.88.21.25.41.51.6.78.05.1,0,.27,0,.52.23.78.49,1.45.62,2.13.05.21-.23.47-.39.7Zm-4.77,46.98c-.08-.93.15-1.95-.08-2.83-.39-1.69.05-3.16.91-4.59.13-.23-.08-.65-.31-.96-.41.13-.86.24-1.27.39-3.19,1.17-6.41,2.39-9.63,3.52-1.53.57-1.66,1.22-1.61,3.25.03,1.06,1.04,1.3,1.84,1.56,1.12.34,2.28.73,3.45.83,2.41.23,4.83.31,7.24.47.08.03.15-.05.27-.08-.05-.08-.08-.1-.11-.1-.92-.16-.69-.93-.71-1.45Zm-47.16,15.55c1.53-2.36,2.86-4.83,4.18-7.32,1.9-3.58,2.71-7.53,3.95-11.5.05-.27.1-.52.15-.81.16-1.3.57-2.67.42-3.95-.16-1.17-1.01-2.23-1.53-3.38-.81-1.74-1.63-3.48-2.39-5.24-.7-1.69-1.27-3.45-1.92-5.16-.09-.18-.2-.35-.31-.52-.12.21-.22.43-.31.65-.03.18-.03.36,0,.54-.08,3.25.21,6.49-.42,9.73-.47,2.23-.73,4.49-1.12,6.72-.13.67-.28,1.35-.44,2-.05.15-.29.27-.44.39-.08-.13-.21-.27-.21-.39.23-1.48.47-2.93.65-4.44.39-3.25.83-6.5,1.06-9.78.13-1.77-.26-3.56-.15-5.32.21-3.4-1.56-5.87-3.52-8.25-.31-.39-.91-.54-1.4-.81.1.54.08,1.17.36,1.61,1.51,2.34,2.98,4.62,3.04,7.59.02,2.05.41,4.1.36,6.12-.03,2.17-.36,4.26-.62,6.41-.23,2.03-.36,4.06-.88,6.02-.93,3.52-1.48,7.16-2.98,10.54-.91,2-1.79,3.97-3.52,5.4-.99.83-2.1,1.74-3.5,1.43-1.08-.29-2.1-.78-3.01-1.43-2.15-1.53-4.49-2.85-6.05-5.09-.24-.29-.78-.36-1.19-.52,0,.41-.1.88.05,1.22.23.57.75,1.01,1.04,1.56,1.22,2.34,2.8,4.39,5.01,5.84,2.93,1.95,6.05,3.56,9.78,3.48,2.6-.04,4.55-1.24,5.87-3.34Z"/>
      <path class="cls-2" d="m223.67,168.36c-.31-2.52-1.48-4.61-3.82-5.66-1.49-.66-3.12-.96-4.7-1.32-.88-.21-1.56-.47-1.56-1.53-.01-.44-.17-.87-.44-1.22-1.08-1.45-2.13-2.96-3.4-4.23-1.58-1.58-3.37-2.78-5.82-1.4-.54.31-1.22.18-1.66-.57-1.28-2.22-2.68-4.38-4.18-6.46-1.27-1.71-2.86-3.27-4.39-4.8-.75-.73-1.61-1.27-1.45-2.47.46-2.77.37-5.6-.23-8.33-.47-2.02-1.35-3.89-3.69-4.28-1.08-.18-1.3-.73-1.3-1.56.03-1.35.13-2.71.21-4.05.02-.1.04-.19.08-.28.84-2.01,1.26-4.18,1.22-6.36-.03-.98.26-1.93.83-2.73.73-1.01,1.45-2.1,1.76-3.3.54-2.25,1.3-4.45,2.26-6.57,1.03-2.15,1.67-4.47,1.87-6.85.1-1.27.23-2.39.88-3.58,2.13-3.84,4.1-7.81,6.15-11.73.86-1.63,1.76-3.25,2.67-4.88,1.38-2.49,2.8-4.93,4.05-7.48,1.95-4.02,3.8-8.08,5.55-12.17,1.04-2.39,1.82-4.88,2.75-7.27.44-1.06.75-2.41,1.58-3.01,3.12-2.34,4.1-5.63,4.47-9.16s-1.4-6.23-4.54-7.97c-.43-.23-.79-.56-1.06-.96-.92-1.37-2.08-2.56-3.43-3.52-1.61-1.12-3.09-2.36-4.67-3.52-.59-.46-1.22-.85-1.9-1.17-1.53-.75-3.3-.89-4.77-1.97-.6-.44-1.5-.57-2.31-.67-2.98-.39-5.29,1.08-7.05,3.14-2.88,3.37-5.06,7.27-7.05,11.24-1.79,3.52-3.48,7.14-5.01,10.77-1.63,3.95-3.06,7.97-4.61,11.92-.15.41-.6.73-.91,1.06-.27-.34-.67-.65-.81-1.01-.78-2.36-1.32-4.83-2.23-7.14-1.66-4.21-3.43-8.4-5.32-12.51-1.33-2.91-2.96-5.69-4.34-8.57-.73-1.51-1.38-3.06-.81-4.86.25-.9.4-1.82.44-2.75.21-2.96-1.3-5.35-2.57-7.86-1.64-3.28-4.21-5.38-7.66-6.44-2.47-.73-4.9-1.51-7.45-2.02-2.36-.47-4.7-.44-7.05.57-1.92.81-3.51,2-5.09,3.25-1.26.98-2.46,2.04-3.58,3.17-2.44,2.49-4.75,5.06-7.19,7.55-.75.81-1.69,1.14-2.88.67-3.47-1.33-6.9-2.77-10.43-3.82-3.41-.98-6.89-1.72-10.41-2.2-3.11-.44-6.33-.05-9.39.65-2.98.65-5.95,1.63-8.85,2.57-2.28.73-4.49,1.61-6.77,2.39-4.49,1.53-8.7,3.58-11.89,7.21-1.04,1.22-2.08,2.49-2.67,3.92-1.58,3.61-1.35,7.59-1.97,11.38-.34,2.13-.21,4.31-.27,6.46-.03,1.84.05,3.71-.03,5.55-.05,1.43-.44,2.86-.36,4.28.05,2.05.47,4.1.6,6.15.13,3.25.16,6.49.24,9.73-.03.23-.08.46-.16.67-.27-.13-.62-.21-.78-.42-.81-.99-1.59-2.02-2.34-3.06-1.9-2.6-3.76-5.19-5.71-7.76-.86-1.12-1.58-2.17-1.3-3.63.08-.25.07-.51-.02-.75-1.08-2.98-2.31-5.94-5.04-7.89-1.43-1.01-2.93-1.95-4.75-1.71-.83.1-1.17-.18-1.5-.75-.44-.81-.83-1.61-1.3-2.41-2.08-3.37-5.01-5.24-9.09-4.93-1.38.1-2.75.32-4.1.65-2.9.7-5.57,2.15-7.74,4.21-1.32,1.18-2.82,2.14-4.45,2.84-2.26,1.01-4.1,2.71-4.83,5.19-.31,1.06-.52,2.08-1.25,2.98-.83.97-1.53,2.04-2.08,3.19-.54,1.19-.93,2.44-.75,3.87.21,1.66.08,3.37.05,5.06-.02.75-.31,1.56-.18,2.28.6,3.27,2.34,5.96,4.54,8.36,1.37,1.46,2.88,2.82,4.36,4.17,1.08.96,2.26,1.82,3.32,2.75,1.58,1.38,3.19,2.75,4.67,4.21.65.62,1.08,1.51,1.63,2.26l8.57,11.37c1.48,2,3.03,3.97,4.44,6.02,2.59,3.72,5.5,7.2,8.7,10.41,1.61,1.45,2.21,3.25,2.67,5.24.36,1.47.91,2.89,1.61,4.23,1.19,2.36,3.06,4.21,5.24,5.71,2.57,1.77,5.45,3.05,8.49,3.76,1.53.36,3.45.08,4.26,2,.28.54.59,1.07.93,1.58,1.54,2.64,3.07,5.28,4.52,7.93.31.57.46,1.22.41,1.87-.15.83-.67,1.63-.88,2.44-.34,1.27-.91,2.6-.75,3.82.36,2.31.31,4.75,1.5,6.88.23.41.16,1.01.08,1.53-.14.73-.32,1.46-.54,2.17-1.01,3.63-1.25,7.35-1.12,11.08.05.73-.16,1.48-.1,2.23.15,1.92.41,3.84.54,5.76.08,1.22-.08,2.47.05,3.71.08,1.3-.31,2.08-1.63,2.57-1.43.54-2.31,1.66-2.83,3.25-.57,1.77-.62,3.56-.78,5.32-.13,1.45.03,2.91-.05,4.36-.08,2.18.67,3.84,2.6,5.01.65.41,1.06,1.04.7,1.92-1.12,2.64-1.42,5.57-.86,8.38.36,1.95,1.43,3.58,2.71,4.98,1.01,1.14,2.52,1.87,3.79,2.8,2.8,2.08,6.15,2.88,9.34,4,2.21.81,4.57,1.14,6.88,1.59,2.47.44,4.9.99,7.4,1.04,2.61.06,5.22-.16,7.79-.65,2.9-.59,5.72-1.56,8.36-2.9,3.89-1.84,6.62-4.67,8.13-8.64,1.4-3.63,2.57-7.35,3.79-11.08.21-.7.57-.93,1.19-.86,1.66.21,3.32.36,4.98.67,2.23.41,3.76-.44,4.52-2.6.61-1.63,1.48-3.16,2.57-4.52.99-1.33,1.92-2.86,1.01-4.72-.11-.42-.02-.87.23-1.22.91-.96,1.9-1.76,2.83-2.65.75-.73,1.25-.62,1.87.21.42.58.93,1.08,1.53,1.48.78.54,1.04,1.25,1.08,2.13.03.67.05,1.43.34,2.03.51,1.11,1.12,2.17,1.84,3.16,1.06,1.43,2.23,2.8,4,3.4,2.1.67,4.13.1,6.08-.65,1.66-.6,2.52-.47,3.4,1.06,1.09,1.85,2.58,3.44,4.34,4.66,1.08.75,2.28,1.27,3.61.99.83-.16,1.59-.57,2.39-.81,3.49-1.04,6.83-2.52,9.94-4.41,1.79-1.06,3.48-2.21,4.44-4.23.7-1.65,2.17-2.85,3.92-3.22,1.62-.43,3.18-1.08,4.62-1.95,3.76-2.23,7.48-4.52,11.08-6.96,2.92-1.95,5.7-4.09,8.34-6.41,2.73-2.41,5.22-5.16,7.73-7.86,2.35-2.57,3.68-5.58,3.26-9.22Zm-32.52-68.56c-.13.73-.27,1.43-.41,2.1-.09.21-.29.35-.52.37-.15-.03-.28-.27-.47-.42-.05.24-.09.48-.11.73.05,1.66.03,3.27-.65,4.86-.03.02.02.08,0,.08-.36.39-.75.73-1.12,1.06-.08-.49-.11-.98-.1-1.48.13-1.08.52-2.15.54-3.25.08-2.17-.7-4.13-1.87-5.96-.39-.6-.86-1.17-1.3-1.74-.1-.08-.27-.08-.44-.16.02.16.05.32.11.47.27.67.62,1.35.91,2,1.19,2.18,1.71,4.66,1.5,7.14-.02.52-.31.96-.49,1.45-.18-.44-.49-.88-.54-1.32-.34-2.44-1.08-4.7-2.52-6.72-.33-.56-.52-1.19-.54-1.85-.08-1.37,0-2.75,0-4.13-.08-3.19-.44-6.36-1.08-9.48-.65-2.96-1.35-5.92-1.97-8.88-.01-.31.01-.63.08-.93.37.03.78-.02,1.04.13,3.71,2.27,6.73,5.5,8.75,9.35,1.71,3.14,2.71,6.44,2.49,9.97-.14,2.22-.84,4.43-1.28,6.64h0Zm-10.15,35.59c-1.56,1.3-3.38,2.28-5.09,3.4-.34.22-.7.4-1.08.54-.33.03-.66.03-.99,0,.15-.39.18-.88.44-1.06,1.71-1.08,2.62-2.85,3.74-4.41,1.43-2.08,2.8-4.21,4.15-6.36.41-.67.78-1.37,1.17-2.1.04-.17.11-.32.21-.47.36-.28.75-.57,1.12-.86.08.39.23.81.18,1.17-.08.81-.27,1.61-.41,2.41-.03,1.19.03,2.17-.08,3.14-.29,2.11-1.9,3.38-3.35,4.6Zm6.07-1.9c.65-.54.88-.36,1.04.27.6,1.91.82,3.92.65,5.92-.1.39-.31.75-.6,1.04-.83.81-1.63,1.58-2.54,2.31-2.03,1.63-4.06,3.27-6.18,4.83-.31.23-.96.88-1.14-.27-.23-1.21-.52-2.4-.88-3.58-.12-.42-.3-.81-.54-1.17-.1-.18-.41-.93-.62-1.27,1.37-.32,2.59-1.08,3.48-2.17.29-.36.75-.6,1.14-.91,2.07-1.67,4.17-3.3,6.2-4.99h0Zm-2.73-13.46c-.94,2.35-2.1,4.61-3.45,6.75-1.87,2.91-3.95,5.63-5.94,8.44-.65.86-1.33,1.69-1.95,2.57-.42.6-1.23.76-1.84.37-2.08-1.19-4.1-2.49-6.15-3.76-.05-.09-.09-.18-.1-.29-1.51-1.69-2.88-3.32-4.26-4.9-.57-.65-1.06-.75-1.82-.16-.96.78-2.05,1.35-3.06,2.03-.1.05-.16.21-.27.21-.54.05-1.45.29-1.53.08-.27-.57.21-.91.73-1.25,1.19-.78,2.28-1.66,3.45-2.54,1.53-1.14,3.32-1.61,5.16-1.95,2.67-.45,5.27-1.24,7.74-2.36,1.9-.88,3.74-1.76,5.16-3.3,2.31-2.47,3.87-5.35,5.24-8.4,1.25-2.8,1.69-5.69,1.63-8.67,0-.7-.15-1.4-.18-2.1-.02-.21.18-.44.29-.62.15.13.36.23.44.41.36.93.83,1.87.96,2.86.44,3.11.8,6.23,1.08,9.34.31,2.53-.39,4.97-1.33,7.26Zm-34.1,47.2c-2.36.13-4.75.26-7.14.41-.27.02-.54,0-.83.02-.91.08-1.77.16-2.65.21-.6.03-1.19.08-1.43-.75s-.81-1.56-1.06-2.39c-.34-1.17.57-1.92,1.08-2.8.73-1.3,1.51-2.57,2.26-3.84.61-.98,1.15-2.01,1.63-3.06.39-1.01.86-1.14,1.66-.47,2.17,1.17,4.23,2.02,6.62,1.76.23-.02.44-.27.67-.36-.2-.12-.42-.21-.65-.27-2-.13-3.84-.83-5.66-1.63-.22-.14-.47-.24-.73-.31-1.17-.13-1.08-.57-.65-1.51.86-1.74,1.5-3.61,2.21-5.4.36-.91.75-1.72,1.87-1.85.19-.05.37-.13.54-.23-.18-.13-.39-.39-.54-.39-.7.08-.57-.42-.54-.75.18-1.69,1.33-2.83,3.01-2.96.96-.08,1.95-.16,2.85.05.63.13,1.18.52,1.51,1.08.57,1.19,1.22,2.49,1.27,3.79s.62,2.47.54,3.76c-.03,1.28.04,2.57.21,3.84.1.78-.36,1.12-.93,1.08-1.25-.12-2.5-.3-3.74-.54-.96-.18-1.92-.44-2.88-.65-.09,0-.19.01-.27.05.08.16.08.34.21.47.73.88,1.9.96,2.85,1.14,1.51.31,3.04.23,4.57.39.16.02.39.39.39.6-.08,2.23.31,4.49-.39,6.7-.27.83-.18,1.74-.34,2.6-.36,1.92-1.77,3.04-3.22,4.1-1.82,1.25-3.69,2.47-5.61,3.61-1.14.67-2.44,1.69-3.74.42-1.4-1.3-2.62-2.78-3.89-4.23,0-.08.13-.36.21-.36,1.56-.02,3.12.05,4.67-.02,2.05-.16,4.1-.42,6.12-.65.13-.02.21-.21.31-.31-.13-.12-.26-.35-.39-.35Zm-10.64-18.97c.1-.47,1.22-.81,1.92-1.06.7-.2,1.41-.35,2.13-.47.54-.1.86.23.62.7s-.65,1.12-1.12,1.22c-1.79.49-2.36,1.17-2.1,2.98.08.81.13,1.61.21,2.39-.6.91-1.04,1.69-1.53,2.47-.03.03-.21,0-.21,0-.02-.81-.08-1.58-.08-2.36,0-.6.05-1.19.08-1.82,0-1.35-.18-2.74.08-4.05h0Zm3.5,1.77c-.08.47-.21.93-.31,1.4-.15.27-.39.44-.47.41-.49-.47-.16-1.74.39-2.15.73-.45.39.3.39.33h0Zm10.72-14.17c-1.85-.76-3.85-1.06-5.84-.88-.75.05-1.48.1-2.23.18-.2.07-.39.17-.57.27.23.15.41.39.65.41,1.43.1,2.86.16,4.31.23.28-.03.57-.03.86,0,.31.11.62.29.96.44-.27.09-.55.16-.83.21-1.95.23-3.66,1.04-5.27,2.08-.05.03-.03.16-.08.27-.05-.02-.1-.02-.16-.05-.75-1.01-1.35-2.1-1.3-3.37.08-1.12.75-1.87,1.92-2.08,1.92-.39,3.82-1.01,5.71-1.14,1.22-.08,2.47.47,3.69.83.62.21.91.73.91,1.48-.05,2.02-.08,4.05-1.04,5.92-.05.1-.41.18-.41.15-1.35-1.76-3.12-2-5.06-1.43-.91.27-1.77.7-2.67.91-.39.08-.86-.27-1.25-.39.21-.27.37-.67.65-.75,1.66-.62,3.35-1.19,5.03-1.76.52-.18,1.04-.31,1.56-.47.62-.06,1.24-.17,1.84-.31-.47-.26-.91-.55-1.38-.76h0Zm2.49,8.8c-.27-.91-.67-1.63-.83-2.36-.04-.4.11-.8.42-1.06,1.08-.86,1.37-2.05,1.5-3.32.08-.88.08-1.76.23-2.65.11-.67.37-1.32,1.25-1.5s1.77-.52,2.65-.73c.57-.13.86.18,1.27.62,1.38,1.67,3.04,3.09,4.9,4.18.93.52,1.82,1.14,2.8,1.63.54.27,1.22.36,1.84.54.15.08.34.21.52.31-.16.12-.34.22-.52.31-1.01.31-2.02.6-3.04.88-3.71,1.14-7.4,2.31-11.11,3.4-.57.16-1.27-.13-1.9-.26h0Zm.67-13.06c.59-.59,1.22-1.13,1.9-1.63.52-.34,1.06-.49,1.4.36.27.57.75,1.06,1.14,1.59-.31.15-.75.15-1.17.23-.39.1-.75.27-1.06.52-.6.47-1.92.49-2.34-.13-.13-.2-.05-.75.13-.95h0Zm46.61-58.43c.1-.05.1.02.13.08-.04-.03-.07-.06-.12-.08h-.01Zm-25.91-13.97c.36-1.3.83-2.57,1.27-3.84.73-2.05,1.43-4.1,2.17-6.18.41-1.12.88-2.21,1.3-3.3.91-2.26,1.82-4.54,2.73-6.77.15-.39.31-.78.47-1.17.99-2.39,2.17-4.72,2.96-7.16.69-2.03,1.56-3.99,2.59-5.87.44-.88.93-1.74,1.46-2.6,1.19-1.97,2.93-3.63,5.19-4.34,1.08-.31,2.41.02,3.56.23s2.17.6,3.22.91l1.08.31c1.5.37,2.84,1.22,3.82,2.41.78.91,1.82,1.63,2.86,2.34.34.23.7.47,1.04.7,1.68,1.08,2.74,2.91,2.86,4.9.34,3.48-1.17,6.21-3.43,8.62-.99,1.08-2.52,1.14-3.76.34-.49-.31-1.01-.57-1.5-.86-.16-.08-.31-.18-.47-.27-.04.21-.04.43,0,.65.62,1.08,3.04,2.62,4.57,2.26,2-.47,2.96-1.95,3.82-3.48.77-1.53,1.41-3.12,1.92-4.75.18-.54-.02-1.24-.05-1.84-.03-.88.49-.96,1.08-.65,1.22.65,2.17,1.66,2.36,3.01.41,2.91-.05,5.69-1.74,8.18-.54.86-1.19,1.61-2.44,1.12-.21-.1-.54.05-.81.1-.15.11-.3.22-.44.34.13.08.27.14.41.18.99.39,1.17.75.67,1.74-1.19,2.49-2.44,4.96-3.61,7.48-1.82,3.87-3.52,7.81-5.4,11.68-1.19,2.44-2.54,4.78-3.84,7.11-.88,1.76-1.79,3.27-2.62,4.83-1.32,2.49-2.62,5.01-3.92,7.53-.88,1.66-1.69,3.35-2.57,5.04-.15.24-.36.44-.6.6-.18-.19-.33-.41-.44-.65-.6-2.38-1.56-4.66-2.85-6.75-1.22-2.02-2.52-3.92-4.41-5.4-1.61-1.25-3.14-2.62-5.15-3.06-1.59-.36-1.77-1.5-2.08-2.67-.65-2.6-1.43-5.12-1.9-7.71-.15-1.03.37-2.22.65-3.29h-.01ZM135.5,4.19c.02.13-.03.13-.11.13.02-.05.06-.1.11-.13ZM59.73,71.88c.05-1.17.21-2.36.21-3.56,0-1.5-.18-3.01-.18-4.54-.02-1.3.21-2.54.18-3.84-.02-2.23-.23-4.46-.18-6.7.05-2.65.29-5.29.39-7.94.05-.99-.08-2-.1-2.98,0-.62.1-1.22.15-1.87.05-1.11.1-2.21.18-3.32.13-1.24.27-2.52.44-3.74.27-1.56.49-3.09.88-4.61,0-.05.02-.1.02-.16.52-2.26,1.92-3.89,3.66-5.48,1.63-1.48,3.52-2.54,5.37-3.66.86-.52,1.84-.78,2.8-1.12,3.84-1.33,7.71-2.65,11.58-3.92,2.23-.73,4.46-1.56,6.88-1.56.91,0,1.82-.49,2.78-.54,1.14-.05,2.29,0,3.43.15.97.09,1.93.22,2.88.41,2.41.52,4.83.96,7.16,1.61,3.52.93,6.96,1.97,10.46,2.98,1.22.34,2.44.73,3.69,1.06-.78-1.01-.7-1.14.47-2.02s2.39-1.84,3.48-2.83c1.4-1.3,2.71-2.67,4.02-3.97.23-.26.54-.45.88-.54.94-.2,1.77-.76,2.31-1.56,1.37-1.87,3.4-2.85,5.42-3.92s4.05-1.16,6.21-.51c1.84.54,3.76.91,5.63,1.4,1.87.49,3.71,1.06,5.06,2.44,1.06.99,1.87,2.31,2.54,3.61.99,1.85,2.08,3.74,1.79,6.02-.47,3.5.88,6.64,2.13,9.78.81,2.02,1.84,3.97,2.65,6,1.22,2.98,2.39,6,3.48,9.01,1.43,3.95,2.8,7.92,4.18,11.89.96,2.83,1.97,5.69,2.8,8.54,1.12,3.95,2.1,7.92,3.04,11.94.78,3.27,1.4,6.57,1.97,9.84.39,2.31.49,4.67.91,6.98.75,4.1.47,8.23.36,12.3,0,.6-.02,1.19-.02,1.79-.03,2.02-.83,4.06-1.59,6-1.24,3.32-3.01,6.41-5.74,8.85-1.66,1.51-3.66,2.44-5.76,3.14-2.65.83-5.37,1.43-8.02,2.21-2.1.62-3.87,1.87-5.53,3.27-.93.81-1.77,1.79-2.78,2.49-.65.47-1.58.62-2.41.75-2.1.34-4.18.41-6.28-.36-1.46-.57-1.87-2-2.98-2.75-.6-.36-1.19-.81-1.87-.99-.78-.21-1.61-.18-2.41-.23-2.28-.15-4.61-.27-6.9-.44-3.06-.28-6.1-.54-9.16-.88-2.57-.31-5.16-.6-7.71-1.12-1.92-.42-3.79-1.17-5.69-1.74-3.52-1.08-6.77-2.8-10.07-4.36-.67-.31-1.32-.65-1.97-.99-4.59-2.36-8.85-5.22-13.21-7.94-.86-.54-1.56-1.25-2.36-1.9-.08-.08-.16-.23-.24-.23-1.56,0-1.69-1.27-2.08-2.34-.88-2.28-1.63-4.65-2.65-6.85-2.18-4.67-3.84-9.6-6.83-13.86-.99-1.4-2.23-2.86-4.39-2.73-.28,0-.67-.39-.88-.67-.78-1.04-1.49-2.14-2.13-3.27-.31-.54-.31-1.27-.36-1.95-.05-1.33-.02-2.67,0-4Zm84.25,61.62c-.73,1.08-1.61,1.76-2.96,1.45-.39-.1-.73-.49-1.06-.75,0-1.12-.05-2,.03-2.91,0-.31.23-.6.36-.91.27.15.52.28.78.44.86.49,1.63,1.14,2.52,1.51.83.34.78.49.34,1.17h0Zm-5.11-3.4c-.27,1.4-.52,2.86-.65,4.28-.15,1.97-.18,3.95-.23,5.92-.02,1.4-.57,1.92-1.92,1.63-1.64-.27-3.27-.63-4.88-1.08-2.36-.67-4.69-1.48-6.96-2.41-4-1.69-7.99-3.52-11.89-5.45-3.43-1.66-6.75-3.56-10.12-5.32-2.52-1.3-5.03-2.54-7.55-3.84-2.8-1.48-5.58-2.98-8.38-4.49-1.08-.54-2.15-1.12-3.22-1.69-1.17-2.1-2.31-3.97-3.48-5.84-.44-.7-.93-1.38-1.4-2.05-.16-.18-.28-.4-.36-.62-.09-.5-.15-1-.18-1.5.34.28.7.57,1.06.86,1.48,1.19,2.93,2.49,4.49,3.61,4.74,3.35,9.73,6.35,14.93,8.96,2.88,1.43,5.74,2.93,8.93,3.71,1.77.44,3.43,1.14,5.19,1.56,1.66.39,3.35.57,5.01.81,1.87.28,3.69.62,5.55.83,1.19.16,2.39.21,3.58.27,3.25.23,6.47.41,9.68.6.57.05,1.14.05,1.74.05,1.09.01,1.22.24,1.06,1.23ZM16.57,84.5c.13-.03.13.03.13.1-.05-.03-.09-.07-.13-.1Zm27.62,34.96c-.09.02-.18.03-.27.02,0-.13.11-.15.27-.15v.13Zm-6.64-10.46c-.57-.67-1.25-1.27-1.9-1.92-1.19-1.4-2.31-2.67-3.32-4-1.58-2-3.11-4.02-4.61-6.05-1.35-1.79-2.62-3.63-3.87-5.48-1.51-2.21-2.86-4.51-4.46-6.64-.91-1.19-2.13-2.1-3.27-3.11-1.04-.93-2.17-1.79-3.22-2.73-.67-.57-1.38-1.22-2.05-1.82-1.69-1.53-3.63-2.88-4.98-4.67-.6-.78-1.14-1.6-1.61-2.47-.9-1.59-1.32-3.4-1.19-5.22.16-2.05-.05-4.18.29-6.18.41-2.34,1.01-4.65,2.75-6.49,1.08-1.22,1.84-2.72,2.8-4.05,1.4-1.9,3.52-2.78,5.48-3.87.7-.39,1.4-.75,2.1-1.14,1.27-.65,2.54-1.3,3.87-1.82,1.34-.52,2.75-.84,4.18-.93,1.3-.13,2.71-.16,3.95.23,1.51.44,3.06,1.01,3.95,2.54.76,1.3,1.6,2.56,2.5,3.77.21.31.81.65,1.08.57,2.52-.81,4.13.52,5.37,2.34.97,1.39,1.77,2.89,2.39,4.46.7,1.77.27,3.38-1.25,4.73-1.58,1.35-4.78,2.17-6.46,1.35-2.41-1.14-3.56-3.63-3.06-6.26.16-.93.39-1.82.57-2.73.01-.18,0-.37-.05-.54-.13.11-.28.16-.36.29-.47.65-.62.18-.86-.18-1.04-1.61-1.95-3.32-3.12-4.8-.93-1.19-2.05-2.41-3.37-3.09-1.53-.78-3.37-1.19-5.16-.34-1.19.57-2.41,1.01-3.61,1.56-.23.1-.41.39-.62.6.27-.05.52-.13.75-.18,1.79-.44,3.56-.88,5.42-.91,1.65-.05,3.24.63,4.34,1.87,1.74,1.87,3.3,3.92,4.88,5.92.23.29.27.81.23,1.19-.1.93-.05,1.97-.49,2.73s-1.35,1.38-2.18,1.76c-.27.13-1.06-.6-1.43-1.08-2.36-2.88-5.06-5.32-8.7-6.5-1.79-.57-3.52-.29-5.27.18-.99.27-1.95.6-2.88.91-.16.08-.27.27-.39.39.18,0,.39.1.57.05,1.43-.27,2.83-.6,4.28-.81,2.67-.41,4.93.7,6.85,2.31,1.75,1.41,3.34,3,4.75,4.75,1.56,1.92.78,4.98-1.37,6.46-.21.13-.39.27-.6.42-.88.7-1.66.54-2.28-.36-2.6-3.69-6.07-5.71-10.67-5.5-.71.07-1.4.21-2.08.44-.16.05-.23.34-.34.52.16.03.34.13.47.11.83-.05,1.63-.11,2.44-.24,1.82-.21,3.3.73,4.8,1.53,2.26,1.19,3.74,3.06,4.99,5.19.49.86.36,1.95-.75,2.98-2.21,2.1-5.71,3.95-9.29,2.28-.18-.08-.31-.36-.47-.54.21-.18.44-.36.65-.52.21-.12.43-.22.65-.31-.18-.07-.38-.11-.57-.13-1.19,0-2.36.05-3.52,0-.81-.08-1.63-.31-2.44-.41-.34-.03-.67-.03-1.01,0,.09.27.23.53.41.75.86.96,1.97,1.14,3.22,1.01.49-.08,1.24.03,1.56.37,2.23,2.44,4.86,2.52,7.59,1.19,1.58-.75,3.04-1.72,4.34-2.88.7-.6,1.04-1.71,1.33-2.67.17-.66.69-1.17,1.35-1.32.51-.13,1.05-.05,1.5.21.67.43,1.25,1,1.69,1.66,1.3,2.23.6,4.49-.27,6.62-.66,1.77-1.67,3.4-2.96,4.78-.13.15-.1.44-.15.67.18-.08.47-.13.6-.29.75-.93,1.53-1.87,2.23-2.88,1.48-2.18,2.47-4.57,2.36-7.29-.07-1.43-.75-2.77-1.87-3.66-.91-.75-.93-1.43-.36-2.49.49-.91,1.01-1.92,1.06-2.91.08-1.04.7-1.48,1.3-1.97.62-.57,1.27-.23,1.82.65,1.82,2.85,3.95,3.71,7.35,3.01,1.55-.31,2.97-1.06,4.1-2.17.6-.57,1.08-.05,1.4.36,1.59,2.08,3.12,4.21,4.65,6.33s2.98,4.23,4.54,6.31c1.77,2.39,3.66,4.7,5.37,7.14,1.43,2,2.65,4.13,4,6.2,1.3,2.05,2.08,4.23,1.95,6.7-.16,3.14-.08,6.33-.47,9.45-.62,4.59-1.08,9.26-2.67,13.7-.67,1.97-1.22,4.02-2.15,5.87-.83,1.66-1.72,3.48-3.79,4-.62.16-1.5.21-1.95-.1-2.93-2.1-5.92-4.18-8.38-6.83-3-3.25-5.91-6.62-8.87-9.92h0s0,0,0,0Zm16.64,23.8c-.05-.13.02-.13.08-.13-.03.04-.06.09-.08.14h0Zm7.24.03c-3.74.08-6.85-1.53-9.78-3.48-2.21-1.45-3.79-3.5-5.01-5.84-.27-.54-.81-.99-1.04-1.56-.15-.34-.05-.81-.05-1.22.41.16.96.23,1.19.52,1.56,2.23,3.89,3.56,6.05,5.09.91.65,1.93,1.14,3.01,1.44,1.4.31,2.52-.6,3.5-1.43,1.74-1.43,2.62-3.4,3.52-5.4,1.5-3.37,2.05-7.01,2.98-10.54.52-1.95.65-4,.88-6.02.27-2.15.6-4.25.62-6.41.05-2.02-.34-4.06-.36-6.12-.04-2.96-1.51-5.24-3.02-7.57-.28-.44-.27-1.06-.36-1.61.49.27,1.08.41,1.4.81,1.97,2.39,3.74,4.85,3.52,8.25-.1,1.76.28,3.56.15,5.32-.23,3.27-.67,6.54-1.06,9.78-.18,1.5-.42,2.96-.65,4.44,0,.13.13.27.21.39.15-.13.39-.24.44-.39.15-.65.31-1.33.44-2,.39-2.23.65-4.49,1.12-6.72.62-3.25.34-6.49.42-9.73-.03-.18-.03-.36,0-.54.09-.22.2-.44.31-.65.11.17.22.34.31.52.65,1.71,1.22,3.48,1.92,5.16.77,1.75,1.59,3.49,2.4,5.22.52,1.14,1.37,2.21,1.53,3.38.15,1.27-.27,2.65-.42,3.95l-.15.81c-1.25,3.95-2.04,7.91-3.94,11.49-1.32,2.49-2.65,4.96-4.18,7.32-1.33,2.11-3.28,3.3-5.9,3.35h0Zm3.85,4.57c-.49-.75-1.25-1.3-1.9-1.95-.41-.44-.49-.96.18-1.11,2.86-.6,4.72-2.52,6.1-4.86,2.18-3.61,4.15-7.32,5.35-11.39.31-1.06.57-2.15.88-3.25.05-.21.31-.39.47-.57.21.18.47.31.54.49,1.19,3.09,2.34,6.2,3.56,9.32.83,2.08,1.74,4.15,2.65,6.2.05.16.31.23.49.34.05-.16.15-.34.1-.47-.27-.91-.54-1.82-.86-2.71-.93-2.67-1.82-5.35-2.86-7.97-.86-2.26-1.9-4.46-2.85-6.67-.13-.29-.36-.62-.36-.93.02-.57.18-1.14.26-1.71.29.41.6.81.86,1.22,2.31,3.84,4.61,7.68,6.93,11.5,2.52,4.13,5.09,8.23,7.63,12.33.3.53.64,1.04,1.01,1.53.21.29.54.42.81.62.03-.35,0-.7-.11-1.04-.35-.77-.75-1.51-1.19-2.23-1.85-3.15-3.69-6.28-5.54-9.42-.73-1.22-1.5-2.36-2.23-3.56-.17-.41-.3-.83-.39-1.27-.08-.13-.13-.18-.21-.21h.21c1.25.81,2.47,1.51,3.71,2.18,5.19,2.88,10.38,5.76,15.62,8.59,2.88,1.58,5.74,3.16,8.67,4.57,5.11,2.39,10.25,4.75,15.47,6.9,2.05.86,4.39,1.14,6.62,1.61.8.16,1.6.24,2.41.24,1.4,0,2.13-.78,2.21-2.21s.13-2.83.24-4.26c.05-.29.2-.55.44-.73,1.43-.83,2.57-.31,3.27,1.12.58,1.1,1.28,2.13,2.1,3.06.54.6.81,1.12.49,1.92-.19.51-.33,1.03-.44,1.56-.34,1.22-.99,1.58-2.8,1.74-1.05.14-2.09.35-3.12.65-.23.06-.45.15-.65.27-.54.36-.78.96-.83,1.63,0,1.04-.57,1.33-1.37,1.35-3.06.08-6.13.15-9.14.21s-6,.08-8.98,0c-3.12-.08-6.23-.18-9.29-.47-3.01-.27-5.96-.81-8.94-1.27-2.91-.41-5.82-.86-8.72-1.3-2.1-.34-4.18-.91-6.31-1.06-2.65-.16-5.35-.7-8.02.18-1.4.49-2.91.86-4.34,1.37-.75.29-1.17.18-1.61-.54-2.03-3.22-4.11-6.4-6.24-9.54Zm3.55,32.87c-.05-.03-.1-.03-.15-.08.13-.05.13.03.15.08Zm-.15,9.29c-.13.05-.13-.03-.13-.08.05.02.09.05.13.08Zm-.27-4.49s-.09-.05-.13-.08c.09-.05.09.03.12.07h.01Zm-3.65,18.66c.18-.18.27-.23.34-.31.03.1.05.23.08.34-.14,0-.28,0-.42-.03Zm56.25,15.55c-.54,1.53-.83,3.17-1.56,4.57-1.19,2.17-1.4,4.72-2.98,6.72-.96,1.19-1.46,2.75-2.47,3.84-1.19,1.33-2.62,2.39-4.06,3.4-.93.67-2.05,1.08-3.12,1.46-1.63.54-3.27,1.22-4.96,1.37-3.13.25-6.26.33-9.4.24-1.76-.05-3.5-.47-5.27-.75-1.51-.29-3.01-.57-4.49-.96-1.35-.39-2.62-.91-3.95-1.35-.91-.34-1.85-.67-2.75-1.04-1.84-.73-3.48-1.76-5.15-2.86-1.72-1.14-2.71-2.71-3.4-4.46-.39-1.05-.56-2.16-.49-3.27.06-1.76.44-3.5,1.14-5.11.6-1.38,1.59-1.01,2.71-.93,2.44.13,4.91.08,7.35.05s4.83-.02,7.22-.23,4.73-.67,7.11-.96,4.77-.49,7.14-.75l2.31-.23c1.76-.13,3.32-.31,4.85-.42s3.04-.18,4.54-.21c2.86-.05,5.74-.05,8.62,0,1.08.03,1.44.83,1.05,1.9Zm13.06-8.07c-1.27,1.82-2.47,3.69-3.63,5.58-.52.86-.78,1.17-2.62.75-2.2-.54-4.42-.94-6.67-1.22-2.31-.27-4.65-.21-6.98-.27-1.61-.02-3.25.1-4.83-.02-3.04-.29-6,.34-9.01.52-2.34.1-4.65.7-6.96,1.01-1.61.23-3.25.34-4.88.44-3.01.23-6.02.41-9.03.67s-6.02.34-9.11-.13c-1.4-.21-2.47-.96-3.66-1.46-.39-.15-.57-.88-.83-1.32-.05-.13.08-.39-.03-.44-1.17-.91-.6-2.17-.6-3.25,0-2.17.15-4.28.18-6.41.03-1.19.99-1.59,1.63-2.28.65-.05,1.38-.31,1.46-.21.23.47.47,1.06.36,1.56-.36,2.21.62,3.89,2.83,4.31,1.38.28,2.77.42,4.18.44.99.02,1.95-.29,2.91-.39,3.58-.28,7.19-.54,10.75-.91,2.73-.27,5.42-.62,8.15-.96.96-.1,1.95-.27,2.93-.31,4.02-.26,8.1-.31,12.12-.73,3.12-.31,6.18.1,9.29.31,1.7.12,3.4.33,5.09.62,2.08.36,4.18.81,6.23,1.3,1.28.35,1.51,1.68.73,2.8h0Zm8.25-9.06c-.83-.65-.83-1.12-.05-1.79.73-.65,1.51-1.33,2.21-2,.18-.23.18-.65.29-.96-.28.09-.54.22-.78.39-2.71,2.31-5.4,4.64-8.07,6.96-.81.7-1.48,1.48-2.34,2.05-.44.24-.96.31-1.45.18-1.3-.34-2.57-.83-3.87-1.14-1.46-.38-2.94-.66-4.44-.81-3.4-.27-6.8-.49-10.2-.49-3.19,0-6.41.31-9.58.49-1.69.1-3.37.16-5.01.36-2.71.31-5.32.73-8,1.06-1.43.18-2.85.34-4.28.44-2.78.23-5.53.54-8.33.67-2.36.1-4.78.02-7.16-.03-1.3-.08-1.71-.81-1.48-2.17.14-.88.21-1.76.21-2.65.02-6.28-.05-12.54.05-18.85.01-2.83.41-5.64,1.17-8.36.28-.93.75-1.82.93-2.75.15-.84.16-1.7.02-2.54-.23-1.82-.57-3.61-.88-5.42-.07-.29-.16-.58-.27-.86-.21.34-.57.65-.54.93.1,1.51.28,2.98.47,4.49.08.34.12.69.13,1.04-.05.25-.14.5-.27.73-.27-.18-.73-.36-.75-.6-.39-2.02-1.17-4.13-.6-6.13.34-1.27.91-2.75,1.84-3.63,1.66-1.64,3.83-2.67,6.15-2.91,1.9-.21,3.84-.49,5.74-.39,2.39.13,4.72.7,7.05,1.01,1.82.27,3.61.44,5.42.67,1.43.21,2.86.44,4.28.65,1.53.23,3.01.52,4.54.65,3.32.27,6.67.41,9.99.67,2.13.16,4.26.6,6.39.6,3.48,0,6.96-.23,10.43-.39,1.82-.11,3.66-.29,5.48-.42.49-.05.96-.08,1.48-.1v1.53c.05,2.02.11,4.02.24,6.05.02.88-.47,1.33-1.12,1.4-2.65.37-5.27.65-7.94.91-1.69.15-3.43.1-5.11.27-.75.02-.86-.52-.83-.83.16-2,.41-4,.57-5.96.02-.73.52-.96.99-1.06.6-.1,1.22.1,1.87.08,1.61-.08,3.25-.16,4.86-.29,1.45-.13,2.85-.34,4.28-.47.31-.03.67.08.96,0,.35-.18.69-.38,1.01-.62-.34-.08-.67-.27-1.01-.23-2.44.27-4.88.6-7.32.86-1.08.08-2.21-.03-3.3,0-.88.01-1.76.1-2.62.27-.39.16-.68.5-.78.91-.18,1.92-.34,3.87-.41,5.76-.05.64.02,1.28.21,1.9.16.44.44.86,1.17.81,1.66-.16,3.38-.39,5.01-.21,2.52.27,4.8-.52,7.22-.91.62-.1.99.03.54.73-.13.21-.27.41-.39.6-1.25,1.61-.86,3.38,0,4.86,1.35,2.38,3.04,4.56,5.01,6.46,1.74,1.61,3.76,1.63,5.61.54,2.08-1.27,4.18-2.52,6.26-3.84,2.26-1.4,3.79-3.37,4.21-6.07.27-1.92.44-3.89.67-5.82.08-.86,1.12-1.5,2.23-1.4.18.03.54-.13.57-.27.27-1.19.6-2.41.62-3.63.08-1.38-.13-2.75-.15-4.15-.08-2.52-.81-2.57-2.88-1.84-.27.15-.57.25-.88.29-.29,0-.54-.21-.83-.31.27-.23.47-.65.78-.73,2.85-.78,5.74-1.43,8.57-2.23,1.3-.39,2.54-1.01,3.84-1.51,1.61-.6,3.27-1.08,4.8-1.79,1.3-.6,2.47-1.43,3.71-2.13.2-.05.4-.06.6-.05-.08.15-.11.41-.24.52-.65.52-1.35.99-1.97,1.51-.25.22-.48.45-.7.7v.03s-.04.09,0,.12h0c-.05.56-.04,1.12.05,1.67.39,1.69.86,3.35,1.25,5.01.15.67.13,1.4.27,2.1.1.29.25.57.44.81.13-.23.42-.52.39-.75-.13-1.06.78-1.25,1.38-1.61,2.31-1.43,4.57-2.93,6.49-4.91.62-.65,1.19-1.35,1.92-1.9,2.18-1.63,1.27-3.95,1.27-6,0-1.06-.47-2.1-.81-3.14-.39-1.3-1.12-1.43-2.03-.47-.57.62-1.17,1.22-1.76,1.76-.21.18-.6.16-.88.21.13-.18.27-.39.39-.6.54-.88,1.17-1.72,1.06-2.86-.08-.91.96-1.84,2.08-1.97.96-.08,1.33.7,1.61,1.48.83,2.34,1.69,4.7,1.63,7.24-.03.83-.03,1.66-.13,2.47-.18,1.46.54,2.54,1.5,3.38,2.03,1.85,3.79,3.98,5.22,6.33,1.3,2.1,2.39,4.31,4.06,6.15.54.57.37,1.33-.13,1.82-2.03,2.02-4.06,4.05-6.18,5.96-1.9,1.71-3.84,3.3-5.79,4.93-2.91,2.49-5.84,4.98-8.77,7.45-2.71,2.31-5.37,4.65-8.15,6.85-2.31,1.84-4.77,3.48-7.19,5.24-3.17,2.27-6.44,4.48-10.07,6.12-1.82.83-3.69,1.61-5.58,2.28-.83.34-1.66-.1-2.31-.57-1.74-1.27-3.38-2.6-5.04-3.92h0Zm17.44-44.49c.16,0,.47.13.47.23.05,1.58.08,3.16.13,4.75.02,1.01.05,1.9-.16,2.72-.08.31-.65.65-1.04.73-.34.08-.93-.13-1.06-.39-.23-.44-.26-1.04-.31-1.58-.1-1.14-.05-2.31-.27-3.4-.37-1.71.51-3.03,2.24-3.06h0Zm-5.5,56.61c-2.83.86-3.3.16-5.15-2.15-.55-.65-1.06-1.35-1.51-2.08-.23-.47-.21-1.08-.18-1.63,0-.08.67-.13,1.01-.21,1.69-.42,3.4-.7,5.01-1.33,2.15-.89,4.24-1.92,6.25-3.09,2.02-1.17,3.97-2.54,5.89-3.89,1.48-1.01,2.88-2.13,4.34-3.19,2.05-1.58,4.15-3.09,6.15-4.7,2.1-1.69,4.06-3.45,6.1-5.22,1.9-1.63,3.74-3.27,5.58-4.9,1.53-1.35,3.04-2.71,4.52-4.06,3.04-2.86,6.06-5.73,9.06-8.62.67-.65,1.22-1.22,1.79-1.79s1.08-1.25,1.79-1.66c1.12-.7,2.1.1,2.83.78.99.93,1.79,2.05,2.62,3.11.75.96.42,1.92-.23,2.73-2.23,2.73-4.41,5.45-6.77,8.05-1.43,1.56-3.09,2.85-4.67,4.28-1.92,1.71-3.84,3.43-5.76,5.11-1.34,1.24-2.74,2.42-4.21,3.52-2.96,2.13-5.99,4.13-8.98,6.18-3.3,2.28-6.54,4.67-9.94,6.83-2.85,1.84-5.76,3.56-8.77,5.11-2.16,1.16-4.42,2.1-6.77,2.82h0Zm63.1-27.07c-1.17,1.19-2.26,2.47-3.5,3.61-1.19,1.08-2.57,2-3.82,3.06-1.3,1.08-2.52,2.26-3.82,3.32-1.17.96-2.39,1.87-3.66,2.73-2.13,1.43-4.26,2.83-6.46,4.13-2.86,1.66-5.76,3.27-8.72,4.78-1.5.81-3.14,1.35-4.72,2.02-.15.05-.27.21-.39.31.13.02.31.02.39.13.34.27.83.52.86.81-.02.43-.23.83-.57,1.08-1.61,1.17-3.3,2.21-4.93,3.3-3.06,1.33-5.96,2.67-9.01,3.66-2,.67-3.69-.34-4.98-1.95-.91-1.14-1.84-2.26-2.65-3.45-.67-.96-.47-1.4.54-1.97,2.54-1.51,5.12-2.98,7.61-4.57,3.14-2.05,6.28-4.15,9.35-6.31,3.74-2.65,7.5-5.29,11.13-8.1,3.22-2.52,6.36-5.16,9.48-7.81,1.33-1.17,2.44-2.54,3.69-3.82,1.22-1.19,2.44-2.31,3.58-3.58,1.43-1.58,2.73-3.32,4.13-4.93.24-.27.73-.57,1.06-.49,1.96.35,3.9.81,5.82,1.38,1.58.49,3.37,2.98,3.37,4.34,0,3.4-1.51,5.99-3.77,8.33Zm-23.7-133.31c1.51-.31,2.96-1.06,4.44-1.19,1.43-.13,2.6-.49,3.35-1.61.47-.82.79-1.72.93-2.65.21-1.01.67-1.08,1.51-.73,1.14.49,2.17.34,3.01-.36.22-.16.43-.35.6-.57.83-.96,1.45-2.08,2.1-3.14,1.35-2.23,1.84-4.64,1.08-7.22-.05-.15-.1-.27-.15-.41-.15.12-.27.27-.36.44-.16,1.22-.21,2.44-.47,3.63-.37,2.09-1.33,4.02-2.78,5.58-1.22,1.3-2.91,1.35-4.39.13-.18-.54-.23-1.17-.57-1.48-1.33-1.27-.78-2.39.21-3.48l.24-.23c1.37-1.98,1.66-4.23,1.84-6.52.02-.15-.21-.31-.34-.49-.08.11-.27.23-.28.34-.25,2.12-.99,4.16-2.17,5.94-.75,1.14-1.43,2.39-3.09,2-1.27-.27-2.6-.57-3.79-1.12s-1.56-2-1.22-3.32c.13-.47.02-.99,0-1.46,0-.13-.11-.27-.16-.41-.13.06-.25.13-.36.21-.03.03-.05.07-.05.1-.27.65-.51,1.32-.7,2-.41,1.53.73,3.56,2.28,4,1.04.31,2.15.41,3.22.67,1.01.27,2.02.39,2.83,1.38,1.22,1.48,1.14,3.09.78,4.72-.23.99-.6,2.21-1.82,2.57-.91.29-1.9.31-2.83.49-.57.11-1.3.13-1.59.49-.4.53-1.04.84-1.71.81-2.34,0-4.49-.41-5.87-2.6-.2-.25-.43-.48-.67-.67-.02.42-.08.81-.08,1.19,0,.1.15.21.21.34,1.61,2.74,3.64,3.24,6.82,2.61Zm-77.45,16.69c-2,.67-3.95,1.53-5.87,2.36-2.47,1.04-4.23,2.93-5.92,4.9-.88,1.07-1.52,2.3-1.9,3.63-.81,2.71-1.56,5.37-1.87,8.2-.44,3.84-1.5,7.61-2.05,11.42-.44,2.93-.57,5.92-.67,8.88-.13,2.78-.08,5.53-.02,8.28.05,1.9.62,3.61,2.08,4.93.31.28.62.54.93.78,2.28,1.61,5.03,2.17,7.73,2.67,1.64.27,3.3.43,4.96.47,2.1.08,4.26.27,6.33-.08,2.41-.36,4.8-1.17,7.14-1.9,2.57-.75,5.09-1.58,7.6-2.44,3.01-1.01,5.96-2.13,9.09-2.83,2.85-.65,5.61-1.74,8.57-1.95,3.32-.21,6.57-.7,9.86-1.04,1.66-.19,3.34-.3,5.01-.31,1.83-.02,3.66-.3,5.42-.81,1.63-.47,3.35-.83,4.61-2.15.15-.21.26-.45.31-.7-.27.05-.52.11-.78.18-.75.31-1.56.6-2.31.96-.65.31-.73,0-.7-.52s.27-1.08.21-1.63c-.08-1.51-.39-3.01-.39-4.52-.02-2.67-.93-5.15-1.76-7.61-1.33-3.94-2.88-7.84-4.93-11.47-1.32-2.36-2.57-4.78-4.02-7.05-1.9-3-4.25-5.7-6.96-8-.75-.78-1.48-1.45-2.23-2.13-.27-.27-.54-.54-.83-.83.47-.1.93-.21,1.4-.27.15-.02.31-.02.47,0h.54c-.13-.15-.29-.41-.42-.44-1.95-.39-3.89-.88-5.86-1.06-1.96-.14-3.93-.15-5.89-.02-1.56.05-3.09.27-4.64.44-3.19.34-6.39.83-9.58,1.04-2.98.18-5.96-.03-8.96.05-1.25.01-2.49.2-3.69.54Zm-1.17,55.01c-2.41-.16-4.83-.23-7.24-.47-1.17-.11-2.34-.49-3.45-.83-.81-.27-1.82-.49-1.84-1.56-.05-2.02.08-2.67,1.61-3.25,3.22-1.14,6.44-2.36,9.63-3.52.41-.15.86-.27,1.27-.39.24.31.44.73.31.96-.86,1.43-1.3,2.91-.91,4.59.23.88,0,1.9.08,2.83.02.52-.21,1.3.7,1.45.03,0,.05.02.11.1-.11.02-.18.1-.26.07h0Zm16.92-3.48c-1.95.7-3.87,1.4-5.84,1.95-1.87.54-3.79.93-5.69,1.32-1.12.21-2.25.35-3.39.44-1.43.05-1.76-.27-1.69-1.66.1-2.05-.36-4.13.41-6.15.27-.78.67-1.08,1.51-1.14,3.76-.28,7.53-.6,11.16-1.66,1.12-.31,2.17-.67,3.27-1.08.18-.05.26-.36.41-.54-.23-.05-.47-.21-.7-.16-2.1.47-4.21,1.01-6.36,1.46-1.27.22-2.55.38-3.84.47-.57.13-1.15.21-1.74.23-.67,0-1.48.08-1.95-.23-2.02-1.35-3.87-.75-5.84.03-2.52,1.04-5.11,1.9-7.66,2.86-.96.34-1.97.73-2.39,1.79-.28.81-.99.91-1.61.75-.34-.1-.73-.67-.81-1.06-.23-1.33.03-2.47,1.22-3.32,2.54-1.84,4.98-3.89,7.63-5.55s5.37-3.22,8.64-3.52c2.28-.23,4.49-.39,6.72.18,1.59.44,3.22.62,4.86.91-.29-.65.13-.91.67-1.08,2.44-.78,4.83-1.79,7.35-2.23,2.08-.36,4.28-.08,6.44-.08.2.03.4.08.6.13.47.08,1.14-.27,1.19.65s-.05,1.69-1.08,1.97c-3.19.96-6.41,1.87-9.58,2.85-1.48.44-2.05,1.27-1.53,2.93t.03.05c.7,2.08.57,4.18.62,6.25-.04.22-.04.45,0,.67.34.96-.39,1.33-1.04,1.59h0Zm27.64-6.88c-.86.1-1.71.41-2.6.54-2.21.34-4.47.62-6.67.88-.44.03-.88.03-1.32,0-.05.02-.13.02-.18.05-1.95.54-3.76,1.06-5.61,1.61-2.73.83-5.48,1.66-8.2,2.57-.81.27-.96.16-.96-.65.05-2.41.13-4.8-.6-7.16-.23-.67.13-1.19.91-1.43,3.3-1.01,6.57-2.02,9.84-3.04.54-.18,1.14-.23,1.66-.47.91-.36,1.27-.08,1.56.81.67,2.01,1.02,4.11,1.04,6.23.02.49.23.99.34,1.48.57-.83.86-1.66.6-2.71-.27-1.25-.27-2.57-.52-3.82-.1-.77-.33-1.53-.67-2.23-.31-.62-.86-1.25-1.82-.86-.27.1-.65-.08-.96-.16.27-.28.44-.81.78-.91.88-.23,1.84-.29,2.78-.44,2.28-.41,4.57-.86,6.83-1.33,1.16-.18,2.25.59,2.47,1.74.42,2.47.91,4.93,1.3,7.4.05.55.06,1.11.03,1.66.05.06.08.13.1.21h-.1Zm8.59-.83c-.03.31-.7.67-1.06.67-1.46.11-2.93.08-4.41.05-.18,0-.39-.21-.57-.39-.47-.39-.91-.83-1.3-1.3-.3-.41-.49-.88-.57-1.38-.28-1.84-.31-3.71-.75-5.5-.27-1.06.16-1.25.91-1.46.27-.08.52-.13.81-.23.86-.05,1.51-.13,2.17-.21,1.43-.18,2.36.52,2.91,1.74.75,1.66,1.53,3.3,2.02,5.03.27.91.06,1.99-.14,2.95h0Zm3.92-.57c-.39-.18-.81-.31-1.17-.52-.99-.57-1.43-1.43-1.71-2.54-.31-1.17-.93-2.28-1.4-3.43-.08-.29-.11-.59-.1-.88.27.11.6.13.81.31.39.39.73.86,1.08,1.27.88,1.58,1.72,2.98,2.47,4.46.16.36.03.88.03,1.32h0Zm-18.79-41.33c.15-.08.41.03.62.13.15.12.29.26.41.41l-.1.11c.05.02.1.06.13.1.15.13.25.32.27.52.08.05.14.11.21.18,1.45,1.35,3.11,2.57,4.31,4.13,2.44,3.17,4.85,6.39,6.38,10.18.7,1.77,1.74,3.35,2.49,5.06.93,2.15,1.9,4.34,2.6,6.54.93,2.79,1.53,5.69,1.79,8.62.05.6.13,1.17.21,1.74.08.16.13.21.21.23h-.21c-.31-.58-.67-1.14-1.08-1.66-.88-1.08-1.77-2.15-2.73-3.22-.2-.17-.46-.26-.73-.24-.75.05-1.17-.26-1.63-.81-1.14-1.35-2.71-1.19-4.26-1.08-1.32.1-2.65,1.14-3.97.21-.74-.6-1.7-.86-2.65-.7-1.33.21-2.6.52-3.89.81-1.79.34-3.58.7-5.4,1.04-.18.05-.47-.13-.67-.23-1.04-.6-2.1-1.01-3.35-.99-1.77,0-3.56-.21-5.35-.18-.81.03-1.61.47-2.41.73-1.48.52-2.96,1.01-4.39,1.56-.88.36-1.66,1.06-2.52,1.08-.81.05-1.63-.52-2.47-.81-.11-.01-.22-.01-.34,0-.3.11-.62.19-.93.23-2-.05-4-.08-5.96-.23-2.24-.16-4.48.33-6.44,1.43-2.58,1.38-5.07,2.92-7.51,4.53-1.32.88-2.47,2.08-3.71,3.14-.25.23-.53.42-.84.57-.08.05-.41-.16-.41-.24.05-.86.26-1.76.26-2.62.03-2.17-.23-4.28-.02-6.41.21-2.08,0-4.26.88-6.28.31-.65.15-1.51.13-2.28-.02-2.44.88-4.72,1.33-7.09.31-1.61.41-3.3.7-4.93.05-.57.25-1.11.57-1.58.34-.37.93-.44,1.46-.67.86-.34,1.69-.75,2.6-1.06,1.17-.41,2.36-.78,3.56-1.08,1.74-.41,3.5-.7,5.22-1.11,1.59-.44,3.14-.6,4.75-.24.5.1,1.01.11,1.51.03,1.87-.36,3.76-.81,5.61-1.19,2.78-.57,5.5-1.08,8.25-1.63.18,0,.35-.06.49-.16,1.71-1.74,4-1.53,6.15-1.79,2.47-.31,4.98-.44,7.4-.96,1.23-.25,2.3-1.21,3.49-1.81Zm-23.57-1.01c2.57-.13,5.15-.67,7.71-1.06,4.02-.21,7.81-.47,11.6-.6.93-.02,1.95.37,2.83.75.34.13.49.67.73,1.06-.34.18-.75.57-.96.49-.34-.13-.54-.6-.78-.91-.19-.26-.36-.53-.52-.81-.14.3-.27.62-.36.93-.08.47.15,1.22-.08,1.37-.58.41-1.26.67-1.97.73-2.65.29-5.35.47-7.99.7-.67.08-1.35.28-2,.41-.96.21-1.17-.34-1.27-1.12-.08-.44-.36-.86-.52-1.27-.06.43-.09.86-.1,1.3-.03.15-.03.3,0,.44.39,1.66.27,1.87-1.35,2.21-3.48.7-6.93,1.51-10.44,2.13-1.66.26-3.32.57-5.09.34-.05,0-.13-.03-.18-.03-1.45-.13-3.01.31-4.51.6-1.66.31-3.3.65-4.88,1.08-1.61.49-3.19,1.12-4.78,1.66-.41.1-.82.17-1.24.21.1-.38.24-.76.42-1.11,1.69-3.09,4.15-5.32,7.29-6.9,1.79-.93,3.56-1.79,5.53-2.18.49-.1,1.01-.21,1.5-.26.42-.08.85-.12,1.27-.13,3.37-.01,6.77.13,10.15-.05h0Zm37.72,93.94c.03.41.34.75.54,1.12.1-.39.15-.81.27-1.17.23-.49.41-1.04.81-1.37.34-.31.96-.31,1.4-.49,1.9-.67,2.41-1.33,2.36-3.25,0-.88-.07-1.75-.21-2.62-.23-1.14-.54-2.26-.86-3.37-.21-.67-.6-.96-1.33-.65-.93.36-1.87.65-2.77.99-.85.27-1.35,1.13-1.17,2,.28,1.61.47,3.25.67,4.96.09,1.38.14,2.65.27,3.87Zm2.52-10.59c.68-.18,1.08.18,1.17.96.18,1.82.65,3.61.54,5.4-.05.6-1.35,1.27-2.21,1.63-1.14.49-1.08.36-1.19-.91-.16-1.76-.41-3.5-.65-5.27-.05-.25-.12-.51-.21-.75.86-.38,1.66-.82,2.54-1.05h0Zm-39.4-116.08c.23-.2.47-.39.73-.57.08.3.12.6.13.91-.03,2.78.13,5.55,1.56,8.07,1.69,2.96,3.74,5.63,6.5,7.61,1.81,1.34,3.72,2.53,5.72,3.56,2.53,1.25,5.32,1.89,8.15,1.87,1.27-.02,2.53-.18,3.77-.47,1.82-.44,3.5-1.19,4.65-2.83,1.61-2.31,1.76-4.93,1.24-7.55-.35-1.89-.83-3.75-1.43-5.58-.96-2.97-2.4-5.76-4.24-8.28-1.43-1.84-3.05-3.53-4.83-5.04-1.74-1.53-3.97-2.17-6.23-2.49-1.31-.21-2.64-.36-3.97-.44-.7-.03-1.45.15-2.21.18-.03,0-.21-.36-.16-.41.93-1.01,1.84-2.03,3.38-2.17,3.3-.31,6.25.73,9.11,2.17.31.13.6.28.91.41.08-.13.14-.27.18-.41-.73-.44-1.43-.93-2.17-1.3-2.23-1.12-4.47-2.23-7.09-1.77-.23-.01-.45-.08-.65-.18.16-.23.29-.6.52-.65,1.35-.42,2.73-1.04,4.13-1.04,1.82,0,3.66.49,5.5.78.47.08.93.08,1.4.13-.44-.27-.86-.52-1.27-.75-.08-.08-.18-.13-.29-.15-2.67-.57-5.32-1.59-8.2-.91-.7.34-1.4.54-1.97.93-2.78,2-4.88,4.65-7.01,7.29-1.76,2.21-3.48,4.41-5.22,6.64-.88,1.14-1.82,2.23-2.71,3.35-.08.14-.13.29-.16.44-.03.15-.08.31-.1.47.28-.16.65-.23.88-.47.53-.42.94-.91,1.44-1.35Zm4.2-4.7c1.04-1.08,1.82-2.47,2.83-3.61.47-.52,1.27-.73,1.92-1.12,1.92-.6,3.74-.75,5.61-.28,1.4.31,2.88.57,4.23,1.08,1.19.49,2.3,1.14,3.3,1.95,2.71,2.24,4.9,5.05,6.41,8.23,1.06,2.31,1.74,4.8,2.41,7.24.44,1.43.67,2.92.67,4.41-.18,4.28-1.9,6.28-6.93,6.96-2.78.36-5.37-.08-7.97-.91-3.1-.99-5.92-2.71-8.23-5.01-1.87-1.89-3.59-3.91-5.16-6.05-.65-.88-.86-2.1-1.08-3.25-.21-1.08-.13-2.26-.23-3.37-.27-2.45.51-4.48,2.22-6.27Zm13.91,136.43c2.65.27,4.7-1.01,6.8-2.18.16-.05.24-.21.37-.34-.17-.12-.35-.21-.54-.27-.2,0-.4.06-.57.15-.99.37-1.95.81-2.91,1.12s-1.92.62-2.91.88c-.6.17-.68.31-.24.64Zm3.89-10.23c-1.04.42-2.05.81-3.06,1.22-.15.08-.27.18-.41.26.11.14.25.26.41.34.23.08.52.21.7.13,1.38-.6,2.75-1.22,4.18-1.9.23-.37.41-.7.6-1.01-.31.1-.65.15-.96.28-.49.21-.97.47-1.45.68Zm-4.1,11.55c-.23.03-.46.08-.67.16.18.15.34.34.54.49.09.09.21.17.34.21,1.92.36,3.82.75,5.76,1.06.13,0,.36-.47.49-.78-.97-.29-1.96-.53-2.96-.7-1.14-.19-2.33-.28-3.5-.44Zm2.8-12.87c.99-.21,2-.41,2.98-.7.21-.05.31-.47.49-.73-.24-.05-.48-.08-.73-.08-.56.11-1.12.25-1.66.44-.78.23-1.33.21-1.33-.81,0-.08-.1-.21-.18-.31-.08.11-.18.18-.23.27-.31.62-.57,1.25-.88,1.82-.17.22-.38.4-.62.54-.08-.21-.27-.49-.21-.67.15-.91.44-1.77.6-2.67.13-1.01.62-.81,1.33-.57.91.29,1.9.44,2.88.65.1.02.27-.21.41-.29-.13-.13-.23-.31-.39-.34-.99-.31-2-.6-3.01-.88-.31-.08-.83-.02-.96-.21-.57-.96-.83-.29-.96.18-.31,1.19-.7,2.41-.75,3.61s-.21,1.92-1.56,2.13c-.54.08-1.48.21-1.27,1.24.13,0,.21.05.27,0,1.69-.78,3.58-1.24,5.09-2.44.17-.13.46-.1.69-.18Zm.67,17.34c-.2-.33-.43-.66-.67-.96-.16-.12-.35-.2-.54-.23-3.47-.93-6.8-2.35-9.87-4.21-.34-.02-.62-.02-.91-.02.16.21.27.54.47.65,2.13,1.14,4.23,2.36,6.46,3.32,1.3.57,2.78.78,4.18,1.14.3.09.6.19.89.31Zm-9.4-6.44c2.62-.41,5.22-.86,7.84-1.3.36-.08.73-.21,1.06-.27-.34-.13-.73-.27-1.08-.36-.07-.03-.14-.03-.21,0-3.07.36-6.11.69-9.12,1.1-.13.02-1.12.02-.39.78.63.08,1.26.1,1.89.05Zm.83,11.13c-.3.15-.57.34-.81.57.27.08.62.34.86.27,1.3-.31,2.54-.7,3.92-1.06.3-.05.59-.15.86-.31.6-.36,1.14-.75,1.72-1.14-.62.13-1.25.21-1.87.39-1.55.41-3.11.85-4.66,1.29Zm-3.95-131.49c3.11-.34,5.09-3.69,3.79-6.72-.7-.88-1.32-1.74-2.1-2.39-2.52-1.97-6.07-.93-6.98,2.02-.52,1.72.21,3.38,1.19,4.75s2.27,2.54,4.1,2.34Zm-4.27-7.35c.57-1.79,3.76-2.44,5.29-1.08.73.65,1.27,1.51,1.87,2.26.62,1.76.08,3.69-1.35,4.61s-2.98.78-4.41-.34c-1.88-1.52-2.01-3.47-1.4-5.45Zm3.33,4.96c1.08.11,1.87-.6,2.31-1.71,0-1.71-.88-3.14-2.34-3.5-.61-.1-1.24.03-1.76.36-.96.57-.91,1.76-.62,2.6.34,1.06,1.17,2.1,2.41,2.26Zm-9.84,117.58c-.27.34-.68.61-.62.88.08.7.1,1.63.52,2.05.39.31,1.46.23,1.97-.08.73-.47.86-1.3.47-2.17-.52-1.03-1.48-.69-2.34-.69Zm1.38,2.1h-1.08c-.09-.16-.14-.34-.13-.52,0-.31-.03-.65-.03-.99.39.16.91.18,1.17.44.2.21.07.7.07,1.06h0Zm-54.69-123.84c2.13-1.4,4.23-2.8,6.36-4.18,3.43-2.21,6.88-4.34,10.98-5.06,1.35-.24,2.75-.21,4.13-.29.13,0,.28.18.41.29-.12.12-.25.24-.39.34-.21.12-.44.19-.67.21-3.07.38-6.04,1.34-8.75,2.83-5.4,2.85-8.36,7.55-10.46,12.95-.86,2.31-.81,4.8-.47,7.27.29,2.64,1.7,5.03,3.87,6.57,2.88,2.1,6.38,2.86,9.91,3.06,1.95.1,3.95-.05,5.89-.18,2.93-.21,5.74-.88,8.57-1.69,3.8-1.15,7.39-2.91,10.61-5.22,2.04-1.37,3.82-3.08,5.27-5.06,1.35-1.9,2.28-4.02,1.84-6.39-.57-3.11-2.17-5.76-4.39-7.97-.96-.91-2.08-1.63-3.14-2.47-.13-.13-.28-.31-.41-.47,0,0,.08-.15.1-.15,1.25.02,2.52-.16,3.71.1,1.76.39,3.45,1.06,5.19,1.61h.05c.16-.04.32-.1.47-.18-.13-.01-.26-.04-.39-.08-.81-.34-1.59-.75-2.39-1.06-1.37-.52-2.78-1.04-4.15-1.48-2.02-.65-4.05-1.19-6.15-1.76-.42-.08-.7-.16-1.01-.21-1.38-.31-2.78-.6-4.13-.86-2.34-.47-4.65-1.08-7.01-1.27-2.2-.12-4.41.02-6.57.44-3.84.7-7.35,2.44-10.62,4.57-2.49,1.61-4.77,3.56-7.14,5.37-.3.25-.57.53-.81.83.39-.05.78-.08,1.12-.16.2-.05.38-.14.55-.26Zm30.32-7.74c3.45.34,6.52,1.97,9.32,4.05,2.14,1.58,3.95,3.57,5.32,5.84,1.92,3.16,1.27,7.22-1.27,9.99-2.8,3.11-6.21,5.4-9.89,7.16-2.65,1.25-5.5,2-8.36,2.73-3.47.85-7.05,1.14-10.62.86-2.93-.21-5.87-.67-8.38-2.36-2.73-1.82-4.28-4.23-4.21-7.63.05-2.44-.05-4.88,1.33-7.09,1.14-1.87,2.15-3.76,3.43-5.53,1.71-2.47,4.13-4.23,6.72-5.58,1.74-.93,3.82-1.27,5.74-1.85.55-.11,1.1-.19,1.66-.23,3.14-.24,6.23-.63,9.21-.37Zm13.34,38.42c-.18-.27-.38-.53-.6-.78-.08.31-.29.6-.23.88.15.96.39,1.92.62,2.86.07.13.18.22.31.28.05.05.11.08.13.11.16-.24.44-.49.39-.7-.13-.67-.39-1.35-.62-2.13,0-.24.05-.42,0-.52Zm-7.09-20.48c1.22.75,2.76.75,3.97,0,1.56-.93,2.17-3.37,1.69-5.16-.54-2.02-1.74-3.5-3.58-4.31-1.95-.86-2.88-1.08-4.57.18-1.71,1.35-2,2.96-1.32,4.93s2.15,3.3,3.82,4.36Zm-1.95-8.4c2.54-1.43,5.37-.24,6.46,2.57.52,1.38.54,2.62-.08,3.89s-2.78,1.92-4,1.14c-.46-.32-.9-.69-1.3-1.08-1.46-.99-1.84-2.47-2.26-3.87-.29-.87.39-2.22,1.16-2.66h0Zm4.54,117.47c-2.52-.13-5.06-.21-7.59-.44-2.59-.16-5.17-.46-7.74-.88-2.67-.49-5.37-.62-8.07-.86-.78-.05-1.25.23-1.3.96-.21,2.54-.36,5.11-.41,7.65,0,.39.62,1.01,1.04,1.14.79.22,1.6.31,2.41.27,1.17.05,2.34-.11,3.48.05,3.35.44,6.7,1.12,10.04,1.45,2.96.31,5.96.34,8.94.44.13.03.27-.31.44-.57.23-2.47.47-4.85.6-7.27.1-1.54-.29-1.88-1.85-1.96Zm.81,3.09c-.08,1.48-.23,2.98-.21,4.46,0,.91-.47,1.19-1.22,1.17-2.15-.1-4.34-.27-6.49-.44-1.35-.11-2.71-.29-4.05-.44-.28-.03-.55-.1-.81-.21-2.21-.27-4.21-.62-6.2-.86-1.62-.15-3.25-.21-4.88-.18-.83,0-1.06-.28-1.04-1.06.13-1.97.18-3.95.27-5.89,0-.67.24-.81.91-.75,2.8.28,5.63.39,8.44.73,2.17.23,4.34.78,6.5,1.01,1.84.23,3.71.18,5.58.26.36.03.73,0,1.06,0,2.19,0,2.2,0,2.12,2.2h0Zm-1.33-114.7c1.33-.23,1.74-.7,1.74-1.84,0-1.24-1.06-2.85-2.21-3.3-1.25-.47-2.54-.05-2.8.93-.54,2,1.04,4.07,3.27,4.2Zm-31.69,108.16c-2.23.27-4.51.44-6.7.91-.83.18-1.97.57-2.13,1.69-.39,2.75-.44,5.5.6,8.18.15.49.15.6.7.44,1.04-.27,2.1-.36,3.27-.57,1.14-.05,2.21-.1,3.27-.21.83-.11,1.48.08,1.74.99.07.2.18.38.31.54.1-.21.31-.42.31-.6-.02-.62-.18-1.27-.18-1.87.03-2.71.13-5.4.21-8.1.05-.98-.39-1.53-1.4-1.4Zm.24,5.45c-.08,1.08-.05,2.21-.18,3.32-.03.21-.49.52-.78.54-1.79.21-3.61.31-5.4.47-.83.1-1.56-.02-1.61-.96-.05-1.9-.05-3.79.05-5.69.11-.52.47-.96.96-1.17,2.26-.49,4.57-.88,6.85-1.25.11,0,.27.57.39.88-.1,1.44-.22,2.63-.28,3.85h0Zm-15.71-112.86c.96,1.46,2,3.01,2.39,4.65.73,2.96,1.3,6,1.35,9.03.13,7.27-.11,14.54-.16,21.81-.04.72-.03,1.45.03,2.17,0,.29.34.57.52.83.03-.23.08-.49.11-.75.15-1.48.39-2.93.41-4.39.05-5.01.03-9.97,0-14.95,0-1.22-.23-2.44-.18-3.63.08-2.78-.41-5.45-.78-8.18-.05-.36-.08-.73-.13-1.08-.23-2-1.04-3.82-2.18-5.53-.83-1.27-1.71-2.57-2.1-4.02-.65-2.39-.93-4.91-1.38-7.37-.05-.39.13-.91-.41-1.04-.05.16-.1.29-.15.42-.06.13-.09.27-.08.41.21,2.13.27,4.31.7,6.36.38,1.85.95,3.66,2.04,5.27Z"/>
      <path class="cls-9" d="m178.98,70.22c.31,1.17.49,2.31,2.08,2.67,2,.44,3.52,1.82,5.15,3.06,1.9,1.48,3.19,3.37,4.41,5.4,1.3,2.09,2.26,4.37,2.85,6.75.11.24.26.46.44.65.24-.15.45-.35.6-.6.88-1.69,1.69-3.38,2.57-5.04,1.3-2.52,2.6-5.03,3.92-7.53.83-1.56,1.74-3.06,2.62-4.83,1.3-2.34,2.65-4.67,3.84-7.11,1.87-3.87,3.58-7.81,5.4-11.68,1.17-2.52,2.41-4.99,3.61-7.48.49-.99.31-1.35-.67-1.74-.15-.04-.28-.11-.41-.18.14-.12.29-.23.44-.34.27-.05.6-.21.81-.1,1.25.49,1.9-.27,2.44-1.12,1.69-2.49,2.17-5.27,1.74-8.18-.18-1.35-1.14-2.36-2.36-3.01-.6-.31-1.12-.23-1.08.65.03.6.23,1.3.05,1.84-.51,1.63-1.15,3.22-1.92,4.75-.86,1.53-1.82,3.01-3.82,3.48-1.53.36-3.95-1.17-4.57-2.26-.04-.21-.04-.43,0-.65.16.08.31.18.47.27.49.28,1.01.54,1.5.86,1.25.81,2.78.75,3.76-.34,2.26-2.41,3.76-5.15,3.43-8.62-.11-2-1.18-3.82-2.86-4.9-.34-.23-.7-.47-1.04-.7-1.04-.7-2.08-1.43-2.86-2.34-.98-1.19-2.32-2.04-3.82-2.41l-1.08-.31c-1.06-.31-2.1-.67-3.22-.91s-2.47-.54-3.56-.23c-2.26.7-4,2.36-5.19,4.34-.52.86-1.01,1.72-1.46,2.6-1.03,1.88-1.89,3.84-2.57,5.87-.81,2.44-1.97,4.78-2.96,7.16-.15.39-.31.78-.47,1.17-.91,2.23-1.82,4.52-2.73,6.77-.41,1.08-.88,2.18-1.3,3.3-.75,2.08-1.45,4.13-2.17,6.18-.44,1.27-.91,2.54-1.27,3.84-.28,1.06-.81,2.26-.62,3.3.43,2.58,1.2,5.1,1.85,7.7Zm7.71-30.5c.25.2.48.43.67.67,1.38,2.18,3.52,2.6,5.87,2.6.67.02,1.31-.28,1.71-.81.29-.36,1.01-.39,1.59-.49.93-.18,1.92-.21,2.83-.49,1.22-.36,1.58-1.58,1.82-2.57.36-1.63.44-3.25-.78-4.72-.81-.99-1.82-1.12-2.83-1.38-1.06-.27-2.18-.36-3.22-.67-1.56-.44-2.71-2.47-2.28-4,.2-.68.43-1.35.7-2,0-.04.02-.08.05-.1.11-.08.24-.15.36-.21.05.16.16.29.16.41.02.47.13.99,0,1.46-.34,1.32.02,2.78,1.22,3.32s2.52.83,3.79,1.12c1.66.39,2.34-.86,3.09-2,1.18-1.78,1.92-3.82,2.17-5.94.02-.11.21-.23.28-.34.13.18.36.34.34.49-.18,2.28-.47,4.54-1.84,6.52l-.24.23c-.99,1.08-1.53,2.21-.21,3.48.34.31.39.93.57,1.48,1.48,1.22,3.17,1.17,4.39-.13,1.45-1.54,2.42-3.47,2.8-5.56.27-1.19.31-2.41.47-3.63.08-.17.2-.33.34-.46.05.13.1.27.15.41.75,2.57.27,4.98-1.08,7.22-.65,1.06-1.27,2.18-2.1,3.14-.17.22-.37.41-.6.57-.83.7-1.87.86-3.01.36-.83-.36-1.3-.28-1.51.73-.15.93-.47,1.83-.93,2.65-.75,1.12-1.92,1.48-3.35,1.61-1.48.13-2.93.88-4.44,1.19-3.19.62-5.22.13-6.83-2.62-.05-.13-.21-.23-.21-.34,0-.39.05-.78.08-1.19h0Zm-124.46,41.37c.21.28.6.67.88.67,2.17-.13,3.4,1.33,4.39,2.73,2.98,4.26,4.64,9.19,6.83,13.86,1.01,2.21,1.76,4.57,2.65,6.85.39,1.06.52,2.34,2.08,2.34.08,0,.16.16.24.23.81.65,1.5,1.35,2.36,1.9,4.36,2.72,8.62,5.58,13.21,7.94.65.34,1.3.67,1.97.99,3.3,1.56,6.54,3.27,10.07,4.36,1.9.57,3.76,1.32,5.69,1.74,2.54.52,5.15.81,7.71,1.12,3.06.34,6.1.6,9.16.88,2.31.18,4.61.29,6.9.44.81.05,1.63.03,2.41.23.67.18,1.27.62,1.87.99,1.12.75,1.53,2.18,2.98,2.75,2.1.78,4.18.7,6.28.36.83-.13,1.76-.29,2.41-.75,1.01-.7,1.84-1.69,2.78-2.49,1.66-1.4,3.43-2.65,5.53-3.27,2.65-.78,5.37-1.38,8.02-2.21,2.1-.7,4.1-1.63,5.76-3.14,2.73-2.44,4.49-5.53,5.74-8.85.75-1.92,1.56-3.97,1.59-6,0-.6.02-1.19.02-1.79.11-4.06.39-8.2-.36-12.3-.41-2.31-.52-4.67-.91-6.98-.57-3.27-1.19-6.57-1.97-9.84-.93-4.02-1.92-8-3.04-11.94-.83-2.85-1.84-5.71-2.8-8.54-1.38-3.97-2.75-7.94-4.18-11.89-1.08-3.01-2.26-6.02-3.48-9.01-.81-2.02-1.84-3.97-2.65-6-1.25-3.14-2.6-6.28-2.13-9.78.29-2.28-.81-4.18-1.79-6.02-.67-1.3-1.48-2.62-2.54-3.61-1.35-1.38-3.22-1.95-5.06-2.44s-3.79-.86-5.63-1.4c-2.17-.65-4.21-.54-6.2.52s-4.06,2.05-5.42,3.92c-.54.8-1.37,1.35-2.32,1.55-.34.09-.65.28-.88.54-1.33,1.3-2.62,2.67-4.02,3.97-1.08.99-2.28,1.92-3.48,2.83-1.19.91-1.25,1.01-.47,2.02-1.25-.34-2.47-.73-3.69-1.06-3.5-1.01-6.93-2.05-10.46-2.98-2.34-.65-4.75-1.08-7.16-1.61-.95-.19-1.92-.33-2.88-.41-1.13-.16-2.28-.22-3.42-.17-.96.05-1.87.54-2.78.54-2.41,0-4.65.83-6.88,1.56-3.87,1.27-7.74,2.6-11.58,3.92-.96.34-1.95.6-2.8,1.12-1.84,1.12-3.74,2.17-5.37,3.66-1.75,1.59-3.14,3.22-3.65,5.48,0,.05-.02.11-.02.16-.39,1.53-.62,3.06-.88,4.61-.18,1.22-.31,2.49-.44,3.74-.08,1.12-.13,2.21-.18,3.32-.05.65-.15,1.25-.15,1.87.02.99.15,2,.1,2.98-.1,2.65-.34,5.29-.39,7.94-.05,2.23.16,4.47.18,6.7.03,1.3-.21,2.54-.18,3.84,0,1.53.18,3.04.18,4.54,0,1.19-.15,2.39-.21,3.56-.03,1.32-.05,2.67,0,4,.05.67.05,1.4.36,1.95.63,1.14,1.34,2.24,2.11,3.29Zm66.16-51c.02-.15.08-.31.16-.44.88-1.12,1.82-2.21,2.71-3.35,1.74-2.23,3.45-4.44,5.22-6.64,2.13-2.65,4.23-5.29,7.01-7.29.57-.39,1.27-.6,1.97-.93,2.88-.67,5.53.34,8.2.91.11.02.21.08.29.15.41.23.83.49,1.27.75-.47-.05-.93-.05-1.4-.13-1.84-.27-3.69-.78-5.5-.78-1.4,0-2.78.62-4.13,1.04-.23.05-.36.41-.52.65.2.11.42.17.65.18,2.62-.47,4.85.65,7.09,1.77.73.36,1.43.86,2.17,1.3-.04.15-.1.29-.18.41-.31-.13-.6-.29-.91-.41-2.86-1.46-5.82-2.49-9.11-2.17-1.53.15-2.44,1.17-3.38,2.17-.05.05.13.41.16.41.75-.03,1.5-.21,2.21-.18,1.32.08,2.63.23,3.94.44,2.26.34,4.49.96,6.23,2.49,1.78,1.51,3.4,3.2,4.83,5.04,1.84,2.52,3.27,5.31,4.23,8.28.6,1.83,1.07,3.69,1.43,5.58.52,2.62.36,5.24-1.24,7.55-1.14,1.63-2.83,2.39-4.65,2.83-1.24.28-2.5.44-3.76.47-2.83.02-5.62-.62-8.15-1.87-2.01-1.03-3.92-2.22-5.74-3.56-2.75-1.97-4.8-4.65-6.5-7.61-1.43-2.52-1.58-5.29-1.56-8.07,0-.31-.05-.61-.13-.91-.25.18-.5.37-.73.57-.49.44-.91.93-1.4,1.35-.23.23-.6.31-.88.47.04-.16.09-.32.12-.47Zm.44,29.87c3.19-.21,6.38-.7,9.58-1.04,1.56-.18,3.09-.39,4.64-.44,1.96-.12,3.93-.11,5.89.02,1.97.18,3.92.68,5.86,1.06.13.03.29.29.42.44h-.54c-.15-.02-.31-.02-.47,0-.47.08-.93.18-1.4.27.27.29.54.57.83.83.75.67,1.48,1.35,2.23,2.13,2.71,2.31,5.06,5.01,6.95,8.02,1.46,2.26,2.71,4.67,4.02,7.05,2.05,3.63,3.61,7.53,4.93,11.47.83,2.47,1.74,4.93,1.76,7.61,0,1.51.31,3.01.39,4.52.05.54-.15,1.08-.21,1.63s.05.83.7.52c.75-.36,1.56-.65,2.31-.96.27-.08.52-.13.78-.18-.05.25-.16.49-.31.7-1.25,1.33-2.96,1.69-4.61,2.15-1.76.52-3.58.79-5.42.81-1.67.01-3.35.12-5.01.31-3.3.34-6.54.83-9.86,1.04-2.96.21-5.71,1.3-8.57,1.95-3.12.7-6.08,1.82-9.09,2.83-2.52.86-5.03,1.69-7.6,2.44-2.34.73-4.73,1.53-7.14,1.9-2.08.34-4.23.16-6.33.08-1.66-.04-3.32-.19-4.96-.47-2.71-.49-5.45-1.06-7.73-2.67-.31-.23-.62-.49-.93-.78-1.45-1.33-2.02-3.04-2.08-4.93-.05-2.75-.11-5.5.02-8.28.11-2.96.24-5.95.67-8.88.54-3.82,1.61-7.59,2.05-11.42.31-2.83,1.06-5.5,1.87-8.2.37-1.33,1.02-2.57,1.9-3.63,1.69-1.97,3.45-3.87,5.92-4.9,1.92-.83,3.87-1.69,5.87-2.36,1.2-.35,2.44-.53,3.69-.54,2.99-.1,5.97.11,8.96-.08Zm-54.33-27.45c2.36-1.82,4.65-3.76,7.14-5.37,3.27-2.13,6.77-3.87,10.62-4.57,2.16-.42,4.37-.57,6.57-.44,2.36.18,4.67.81,7.01,1.27,1.35.27,2.75.54,4.13.86.31.05.6.13,1.01.21,2.1.57,4.13,1.12,6.15,1.76,1.37.44,2.78.96,4.15,1.48.81.31,1.59.73,2.39,1.06.13.04.26.07.39.08-.15.08-.3.14-.47.18h-.06c-1.74-.54-3.43-1.22-5.19-1.61-1.19-.27-2.47-.08-3.71-.1-.02,0-.1.15-.1.15.13.16.27.34.41.47,1.06.83,2.18,1.56,3.14,2.47,2.23,2.21,3.82,4.86,4.39,7.97.44,2.36-.49,4.49-1.84,6.39-1.45,1.98-3.24,3.69-5.27,5.06-3.23,2.31-6.81,4.07-10.61,5.22-2.83.81-5.63,1.48-8.57,1.69-1.95.13-3.95.29-5.89.18-3.52-.21-7.05-.96-9.91-3.06-2.17-1.54-3.57-3.93-3.87-6.57-.34-2.47-.39-4.96.47-7.27,2.1-5.4,5.06-10.1,10.46-12.95,2.71-1.5,5.69-2.46,8.76-2.84.24-.02.47-.09.67-.21.14-.1.27-.21.39-.34-.13-.11-.28-.29-.41-.29-1.38.08-2.78.05-4.13.29-4.1.73-7.55,2.85-10.98,5.06-2.13,1.38-4.23,2.78-6.36,4.18-.16.12-.35.21-.54.27-.34.08-.73.11-1.12.16.24-.3.51-.58.8-.83Zm-10.32-3.23c.05-.13.1-.27.15-.42.54.13.36.65.41,1.04.44,2.47.73,4.99,1.38,7.37.39,1.45,1.27,2.75,2.1,4.02,1.14,1.71,1.95,3.52,2.18,5.53.05.36.08.73.13,1.08.36,2.73.86,5.4.78,8.18-.05,1.19.18,2.41.18,3.63.03,4.98.05,9.94,0,14.95-.03,1.46-.27,2.91-.41,4.39-.03.27-.08.52-.11.75-.18-.27-.52-.54-.52-.83-.06-.72-.07-1.44-.03-2.17.05-7.27.29-14.54.16-21.81-.05-3.03-.62-6.07-1.35-9.03-.39-1.63-1.43-3.19-2.39-4.65-1.08-1.61-1.66-3.43-2.05-5.27-.44-2.05-.49-4.23-.7-6.36,0-.14.02-.29.08-.42Zm-9.38,96.44c.44.31,1.32.27,1.95.1,2.08-.52,2.96-2.34,3.79-4,.93-1.84,1.48-3.89,2.15-5.87,1.58-4.44,2.05-9.11,2.67-13.7.39-3.12.31-6.31.47-9.45.13-2.47-.65-4.65-1.95-6.7-1.35-2.08-2.57-4.2-4-6.2-1.71-2.44-3.61-4.75-5.37-7.14-1.56-2.08-3.01-4.21-4.54-6.31s-3.06-4.26-4.65-6.33c-.31-.41-.81-.93-1.4-.36-1.13,1.1-2.55,1.86-4.1,2.17-3.4.7-5.53-.16-7.35-3.01-.54-.88-1.19-1.22-1.82-.65-.6.49-1.22.93-1.3,1.97-.05.99-.57,2-1.06,2.91-.57,1.06-.54,1.74.36,2.49,1.12.89,1.8,2.23,1.87,3.66.11,2.73-.88,5.11-2.36,7.29-.7,1.01-1.48,1.95-2.23,2.88-.13.16-.41.21-.6.29.05-.24.02-.52.15-.67,1.29-1.38,2.3-3.01,2.96-4.78.86-2.13,1.56-4.39.27-6.62-.44-.66-1.02-1.23-1.69-1.66-.46-.26-.99-.33-1.5-.21-.66.15-1.18.66-1.35,1.32-.29.96-.62,2.08-1.33,2.67-1.3,1.17-2.76,2.14-4.34,2.88-2.71,1.33-5.35,1.25-7.59-1.19-.31-.34-1.06-.44-1.56-.37-1.25.13-2.36-.05-3.22-1.01-.18-.22-.33-.48-.41-.75.34-.03.67-.03,1.01,0,.81.1,1.63.34,2.44.41,1.17.05,2.34,0,3.52,0,.2.02.39.07.57.13-.22.09-.44.2-.65.31-.21.16-.44.34-.65.52.16.18.27.47.47.54,3.58,1.66,7.09-.18,9.29-2.28,1.12-1.04,1.25-2.13.75-2.98-1.25-2.13-2.73-4-4.99-5.19-1.5-.81-2.98-1.74-4.8-1.53-.81.13-1.61.18-2.44.24-.13.02-.31-.08-.47-.11.11-.18.18-.47.34-.52.67-.23,1.37-.38,2.08-.44,4.61-.21,8.07,1.82,10.67,5.5.62.91,1.4,1.06,2.28.36.21-.16.39-.29.6-.42,2.15-1.48,2.93-4.54,1.37-6.46-1.41-1.75-3-3.34-4.75-4.75-1.92-1.61-4.18-2.71-6.85-2.31-1.45.21-2.85.54-4.28.81-.18.05-.39-.05-.57-.05.13-.13.23-.31.39-.39.93-.31,1.9-.65,2.88-.91,1.74-.47,3.48-.75,5.27-.18,3.63,1.19,6.33,3.63,8.7,6.5.36.49,1.17,1.22,1.43,1.08.83-.39,1.74-.99,2.18-1.76s.39-1.79.49-2.73c.03-.39,0-.91-.23-1.19-1.58-2-3.14-4.05-4.88-5.92-1.1-1.23-2.69-1.92-4.34-1.87-1.87.02-3.63.47-5.42.91-.23.05-.49.13-.75.18.21-.21.39-.49.62-.6,1.19-.54,2.41-.99,3.61-1.56,1.79-.86,3.63-.44,5.16.34,1.33.67,2.44,1.9,3.37,3.09,1.17,1.48,2.08,3.19,3.12,4.8.23.36.39.83.86.18.08-.13.23-.18.36-.29.04.18.06.36.05.54-.18.91-.41,1.79-.57,2.73-.49,2.62.65,5.11,3.06,6.26,1.69.83,4.88,0,6.46-1.35,1.51-1.35,1.95-2.96,1.25-4.73-.62-1.58-1.42-3.08-2.39-4.47-1.24-1.82-2.85-3.14-5.37-2.34-.29.08-.88-.27-1.08-.57-.91-1.21-1.75-2.46-2.52-3.76-.88-1.53-2.44-2.1-3.95-2.54-1.25-.39-2.65-.36-3.95-.23-1.43.1-2.84.41-4.18.93-1.33.52-2.6,1.17-3.87,1.82-.7.39-1.4.75-2.1,1.14-1.95,1.08-4.06,1.97-5.48,3.87-.96,1.33-1.72,2.83-2.8,4.05-1.74,1.84-2.34,4.15-2.75,6.49-.34,2-.13,4.13-.29,6.18-.12,1.82.3,3.63,1.19,5.22.47.86,1.01,1.69,1.61,2.47,1.35,1.79,3.3,3.14,4.98,4.67.67.6,1.38,1.25,2.05,1.82,1.06.93,2.17,1.79,3.22,2.73,1.14,1.01,2.36,1.92,3.27,3.11,1.61,2.13,2.96,4.44,4.46,6.64,1.25,1.85,2.52,3.69,3.87,5.48,1.51,2.02,3.04,4.05,4.61,6.05,1.01,1.33,2.13,2.6,3.32,4,.65.65,1.33,1.24,1.9,1.92,2.96,3.3,5.87,6.67,8.88,9.92,2.47,2.66,5.45,4.73,8.39,6.83Z"/>
    </g>
  </g>
</svg>