<?xml version="1.0" encoding="UTF-8"?>
<svg id="Layer_2" data-name="Layer 2" xmlns="http://www.w3.org/2000/svg" xmlns:xlink="http://www.w3.org/1999/xlink" viewBox="0 0 259.5 386.68">
  <defs>
    <style>
      .cls-1 {
        fill: url(#radial-gradient);
      }

      .cls-1, .cls-2, .cls-3, .cls-4, .cls-5, .cls-6, .cls-7, .cls-8, .cls-9 {
        stroke-width: 0px;
      }

      .cls-2 {
        fill: url(#radial-gradient-2);
      }

      .cls-4 {
        fill: #603813;
      }

      .cls-5 {
        fill: #5a4a42;
      }

      .cls-6 {
        fill: #fff;
      }

      .cls-7 {
        fill: #f6921e;
      }

      .cls-8 {
        fill: #ec1c24;
      }

      .cls-9 {
        fill: #f16522;
      }
    </style>
    <radialGradient id="radial-gradient" cx="125.53" cy="141.86" fx="125.53" fy="141.86" r="4.83" gradientUnits="userSpaceOnUse">
      <stop offset="0" stop-color="#fff"/>
      <stop offset="1" stop-color="#f16522"/>
    </radialGradient>
    <radialGradient id="radial-gradient-2" cx="164.34" cy="146.89" fx="164.34" fy="146.89" r="5.05" xlink:href="#radial-gradient"/>
  </defs>
  <g id="Layer_1-2" data-name="Layer 1">
    <g>
      <path class="cls-3" d="m136.65,28.48c1.84,1.64,3.67,3.27,5.51,4.91-.18.24-.36.48-.54.72-.68-.42-1.38-.81-2.03-1.28-7.07-5.13-14.77-8.07-23.69-7.02-6.74.79-12.15,3.95-16.66,8.88-1.05,1.14-2.16,2.23-3.24,3.34-.1-.09-.21-.18-.31-.27.52-.97,1.05-1.93,1.57-2.9-.15-.1-.34-.33-.45-.3-11.9,3.2-22.88,8.16-31.41,17.37-2.63,2.84-4.67,6.22-6.98,9.36-.85,1.16-1.67,2.35-2.51,3.52-.14-.12-.28-.24-.42-.36,4.38-10.4,11.35-18.49,21.39-23.77,6.69-3.51,13.45-6.88,21.11-7.83.67-.08,1.37-.66,1.88-1.17,1.25-1.26,2.39-2.61,3.75-4.11-1.79,0-3.67-.05-5.54,0-11.45.35-21.33,4.73-30.13,11.85-.15-.17-.3-.33-.46-.5,1.65-1.68,3.31-3.36,4.96-5.04,2.42-1.34,4.76-2.89,7.29-3.99,7.6-3.28,15.58-4.4,23.82-3.8,1.31.1,2.78.25,3.94-.23,5.53-2.25,11.24-2.52,17.07-2.09.89.23,1.77.45,2.66.68.25.12.5.23.21.1.31.07.03,0-.25-.06-.89-.22-1.77-.45-2.66-.67-.39-.19-.76-.45-1.17-.55-11.23-2.68-22.45-2.44-33.55.63-6.6,1.83-12.48,5.1-17.47,9.86-3.33,2.69-6.66,5.38-9.98,8.09-1.1.9-2.15,1.87-3.23,2.8-.12-.12-.23-.23-.35-.35,5.71-6.54,11.69-12.82,19.03-17.55,9.93-6.4,21.14-7.68,32.63-7.38,9.49.25,18.4,2.75,26.83,7.08l.09.09-.11-.07c-8.95-7.71-19.15-12.65-30.89-14.62-11.13-1.87-20.8,1.85-30.24,6.95-2.05,1.11-4.14,2.14-6.2,3.21-.15-.17-.31-.35-.46-.52,5.35-3.15,10.54-6.63,16.09-9.37,6.9-3.42,14.35-3.45,21.87-2.27,4.49.71,9.01,1.25,13.54,1.65,8.2.74,14.91,4.17,19.88,10.76,1.54,2.04,2.86,4.24,4.2,6.42.54.87.83,1.9,1.23,2.85-.23.12-.46.25-.69.37-1.58-2.3-3.16-4.61-4.75-6.91-5.07-7.34-12.09-11.25-20.96-11.88-.32-.17-.63-.35-.95-.52-.04.12-.08.24-.12.35.37.04.74.08,1.11.12,4.73,2.81,9.58,5.46,14.16,8.5,2.74,1.82,5.15,4.17,7.58,6.42.89.82,1.41,2.04,2.11,3.08-.17.16-.33.32-.5.48-2.22-1.02-4.44-2.04-6.67-3.05-.44-.22-.89-.44-1.33-.67-.44-.22-.89-.45-1.33-.67-.44-.23-.89-.45-1.33-.68-.44-.23-.89-.45-1.33-.68-.14-.07-.29-.14-.43-.21.15.06.31.11.47.17.44.22.89.45,1.33.67.45.22.89.45,1.34.67l1.33.67c.44.22.89.44,1.33.67Z"/>
      <path class="cls-3" d="m185.99,46.41c3.48-2.66,7.66-3.48,11.8-4.24,10.26-1.88,20.56-2.45,30.89-.43,9.56,1.87,17.96,5.8,24.41,13.47-1.15-8.98-11.44-18.45-22.31-20.42.52,2.08,1.01,4.05,1.51,6.03-.17.06-.34.12-.51.17-.62-1.58-1.29-3.14-1.84-4.74-.61-1.8-1.84-2.6-3.68-2.87-13.18-1.94-25.48.39-36.81,7.51-.79.5-1.62.94-2.56,1.02,11.61-9.88,25.27-12.22,40.64-10.43-1.62-3.59-3.25-6.75-6.13-9.05-.66-.53-1.9-.51-2.86-.49-14.85.37-27.5,5.78-37.78,16.58-.34.36-.73.68-1.36.72,3.73-6.58,9.81-10.45,16.3-13.8,6.58-3.4,13.72-4.89,21.02-5.93-10.62-4.12-20.98-2.94-30.98,1.8-9.81,4.65-17.78,11.33-21.96,21.82.19-4.11,2.19-7.39,4.61-10.43,4.37-5.5,9.85-9.68,16.13-12.74,8.41-4.09,17.24-6.06,26.58-4.3,2.81.53,5.48,1.76,8.22,2.65,1.98.64,3.92,1.56,5.95,1.83,7.79,1.03,14.49,4.2,20.09,9.68,2.59,2.53,4.62,5.47,5.6,8.98,1.77,6.32,3.4,12.67,5.06,19.02.71,2.69,1.4,5.38,2.03,8.08.48,2.03.86,4.08,1.28,6.12-.21.06-.42.12-.62.19-.41-1.35-.82-2.69-1.34-4.44-.27,1.02-.44,1.64-.59,2.2-1.65-13.48-10.5-20.49-22.45-24.6-10.03-3.45-20.41-3.48-30.75-2.25-5.81.69-11.51,2.4-17.25,3.66-.11-.13-.23-.25-.34-.38Zm65.69-.54l.12.12-.16-.08c-3.11-13.83-14.46-22.57-26.88-23.55,1.29,2.43,2.76,4.76,3.79,7.28.72,1.74,1.73,2.66,3.49,3.15,7.96,2.21,14.58,6.48,19.63,13.07Z"/>
      <path class="cls-3" d="m259.08,87.32c-1.37-2.35-2.74-4.69-4.12-7.04-.19.05-.38.09-.57.14.21,4.6.43,9.19.64,13.79-.07,0-.14,0-.21,0-.78-2.79-1.43-5.63-2.38-8.37-2.94-8.51-9.04-14.12-16.97-17.91-9.42-4.51-19.46-6.16-29.82-6.11-8.19.04-16.19,1.25-23.81,4.39-2.35.97-4.59,2.21-6.89,3.32-.15-.15-.31-.31-.47-.46,1.93-1.27,3.74-2.81,5.82-3.76,9.95-4.52,20.49-6.03,31.29-5.12,5.51.46,11.06,1.41,16.38,2.91,10.93,3.08,20.28,8.54,25.59,19.99-.21-4.04-1.04-7.1-3.36-9.81-7.14-8.37-16.38-13.21-26.74-16.16-12.27-3.49-24.58-4.02-36.77.33-2.85,1.02-5.48,2.67-8.56,3.56,1.26-.96,2.44-2.07,3.8-2.87,7.44-4.35,15.65-5.7,24.1-5.5,14.25.34,27.42,4.24,38.96,12.89,1.59,1.19,3.12,2.48,4.68,3.72l-.04.04c-2.52-5.9-7.18-9.84-12.43-13.09-8-4.95-16.8-7.57-26.18-8.09-8.98-.5-17.78.26-26,4.46-.12-.2-.23-.41-.35-.61.84-.59,1.59-1.45,2.52-1.73,4.34-1.32,8.67-3.07,13.12-3.57,13.02-1.47,25.51.62,36.97,7.33,8.17,4.79,14.19,11.28,16.64,20.75.68,2.64,2.37,5.01,3.45,7.56.68,1.62,1.09,3.36,1.63,5.05l.04-.03Z"/>
      <path class="cls-3" d="m212.89,102.75c-1.19-.77-2.48-1.43-3.56-2.33-7.56-6.33-16.1-7.57-25.39-5.04-4.77,1.3-7.31,2.62-9.84,4.98,3.94,7.08,10.04,12.16,16.79,17.37-9.77,1.24-16.94-3.18-24.3-8.45-.76,1.5-1.45,2.8-2.08,4.13-.6,1.27-1.14,2.56-1.98,3.74-.22-2.55.92-4.64,2.04-6.75.51-.97,1.39-1.94-.23-2.72-.18-.16-.36-.32-.53-.48-1.25-1.41-2.59-2.76-3.71-4.26-.99-1.32-1.96-2.73-2.55-4.26-1.36-3.47-.19-6.05,3.18-7.62.7-.33,1.41-.62,2.03-.89,2.07-5.53,4.34-10.8,8.39-15.09.17.15.33.3.5.44-2.69,4.47-5.83,8.71-7.47,13.8,1.43.49,2.64.9,3.85,1.31l.19.21c.55.55,1.11,1.1,1.66,1.65.13.14.26.28.39.43.78,1.88,1.55,3.77,2.48,6.01,8.64-5.66,17.51-7.94,27.23-5.53,5.55,1.37,9.43,5.1,12.92,9.35h0Zm-27.68,12.95c-7.72-5.63-13.36-12.9-17.46-21.46-1.06-2.22-1.96-2.49-4.31-1.85-4.17,1.13-5.11,3.49-2.78,7.19.76,1.22,1.64,2.41,2.65,3.42,6.16,6.14,13.31,10.62,21.89,12.7Z"/>
      <path class="cls-3" d="m144.61,49.94c.95.98,2.41,1.8,2.78,2.96,1.53,4.86,3.03,9.77,3.96,14.78.89,4.79,1.07,9.72,1.56,14.59.1.97.23,1.94.38,3.12,5.98-7.36,12.02-19.44,6.79-35.9.5.93,1.13,1.82,1.48,2.81,3.02,8.65,2.05,17.1-1.47,25.37-.82,1.93-1.8,3.8-2.71,5.7l-.67.69-.13.09.09-.13c.23-.22.46-.45.69-.67,7.94-5.77,13.29-13.29,15.15-23.03.73-3.83-.3-7.49-1.81-11.02-.48-1.11-.85-2.27-1.27-3.41l-.02.02c4.17,3.25,5.26,7.77,5.02,12.72-.38,7.59-4.1,13.74-8.8,19.39-3.31,3.96-7.26,7.19-12.19,9.85.48,8.47,1.31,17.12-.44,25.36,0-3.06.11-6.46-.02-9.85-.32-7.99-.42-16-1.25-23.94-.78-7.38-2.21-14.7-3.73-21.97-.55-2.64-2.19-5.05-3.33-7.57l-.04.04Z"/>
      <path class="cls-3" d="m165.47,88.14c1.75-1.43,3.39-3.01,5.25-4.27,7.99-5.39,16.92-8.37,26.37-9.87,9.58-1.52,19.1-1.23,28.5,1.24,7.63,2,14.41,5.46,18.82,12.34,3.87,6.03,4.95,12.76,4.25,19.84-.25-1.82-.39-3.67-.79-5.45-.41-1.84-1.06-3.63-1.63-5.43-3.14-9.81-9.79-16.13-19.62-18.78-19.69-5.3-38.38-2.61-55.94,7.78-.86.51-1.65,1.14-2.44,1.75-.69.53-1.33,1.11-2,1.67-.25-.27-.51-.55-.76-.82Z"/>
      <path class="cls-3" d="m252.36,95.37c-1.15-2.64-2.15-5.36-3.48-7.91-5.05-9.62-13.61-14.46-23.82-16.61-18.18-3.82-35.61-1.78-52.01,7.32-.25.14-.55.16-1.16-.27,1.49-1.02,2.89-2.2,4.48-3.03,12.92-6.73,26.7-8.87,41.1-7.42,7.03.71,13.76,2.47,20.12,5.66,8.07,4.05,12.46,10.81,14.56,19.31.23.95.12,1.98.17,2.97l.04-.03Z"/>
      <path class="cls-3" d="m168.01,90.64c1.56-1.22,2.95-2.79,4.69-3.61,16.49-7.71,33.62-10.39,51.32-5.06,12.47,3.75,16.16,11.87,17.72,21.93.09.6-.1,1.24-.2,2.27-.91-2.74-1.57-5.08-2.45-7.33-3.41-8.66-9.78-13.96-18.83-15.86-17.32-3.62-33.87-1.22-49.67,6.66-.8.4-1.59.8-2.38,1.21l-.19-.21Z"/>
      <path class="cls-3" d="m127.95,74.66c-4.03-4.93-9.64-7.12-15.55-8.41-15.07-3.29-29.21-1.2-41.95,7.99-3.07,2.21-6.1,4.48-9.15,6.72-.18-.18-.35-.35-.53-.53,10.41-11.66,23.2-18.19,39.06-17.87,6.61.13,13.06,1.2,19.22,3.78,4.2,1.76,7.71,4.43,10.76,7.74.87.94,1.5,2.09,1.85,3.58l-1.09-.35.05.05c-.46-.46-.92-.92-1.39-1.38l.05.05-1.39-1.39.04.03Z"/>
      <path class="cls-3" d="m146.92,22.95c.97-2.86,1.73-5.66,2.87-8.29.69-1.59,1.77-3.13,3.02-4.33,3.07-2.95,6.32-2.55,8.76.92.66.94,1.13,2.03,1.22,3.33-.96-1.03-1.88-2.11-2.9-3.07-2.27-2.12-4.25-2.17-6.35.18-1.31,1.46-2.51,3.2-3.2,5.02-1.77,4.73-2.59,9.63-2.03,14.75.2,1.88-.24,3.84-.39,5.76-.33,0-.66,0-.98,0-.15-2.07-.39-4.15-.43-6.22-.22-11.87-11.86-26.92-24.54-28.71-4.71-.66-9.55-.44-14.33-.6-1.1-.04-2.2,0-4.08,0,19.78-4.76,33.78,0,43.36,21.26Z"/>
      <path class="cls-3" d="m169.86,92.5c4.74-4.02,10.45-5.77,16.38-6.93,9.68-1.89,19.29-1.55,28.67,1.62,7.68,2.6,14.27,6.83,18.54,13.96,2.63,4.39,3.38,9.32,3.58,15.12-1.11-3.58-1.81-6.5-2.92-9.25-4.56-11.29-13.71-16.95-25.03-19.38-13.15-2.82-25.9-1.5-37.88,5.04-.28.15-.64.17-.96.24-.13-.14-.26-.29-.39-.43Z"/>
      <path class="cls-3" d="m66.81,84.45c3.67-3.72,7.02-7.84,11.07-11.09,7.18-5.76,15.86-6.72,24.73-6.06,6.88.51,13.3,2.66,19.2,6.28,1.75,1.08,3.56,2.17,4.23,5.16-1.75-1.26-2.89-2.22-4.16-2.98-10.24-6.08-21.18-7.86-32.81-5.23-5.26,1.19-9.61,4.06-13.68,7.42-2.74,2.27-5.39,4.65-8.08,6.98-.16-.16-.33-.32-.49-.48Z"/>
      <path class="cls-3" d="m84.47,58.63c7.14-4.46,14.73-7.11,23.31-5.9.55.08,1.11.13,1.65.27,3.13.81,5.85.37,8.75-1.42,4.48-2.76,13.78-1.17,17.58,2.48.41.39.6,1.02.75,1.75-6.45-3.42-12.9-5.39-20.15-1.61,6.94,2.65,13.53,5.23,18.03,11.05l-.38.64c-.86-.57-1.77-1.07-2.58-1.71-9.06-7.16-19.44-10.26-30.85-9.33-4.26.35-8.41,1.93-12.62,2.94-1.17.28-2.35.52-3.53.78l.03.04Z"/>
      <path class="cls-3" d="m210.21,13.09c-.32-.1-.67-.14-.95-.31-11.96-7.14-23.68-5.44-35.09,1.24-10.21,5.98-17.29,14.54-20.39,26.14-.16.6-.4,1.19-.6,1.78-.24-.04-.47-.09-.71-.13.16-1.12.17-2.28.49-3.34,5.21-17.08,16.95-27.25,33.98-31.52,7.05-1.77,13.96-1.22,20.07,3.28,1.14.84,2.11,1.93,3.15,2.9l.04-.04Z"/>
      <path class="cls-3" d="m70.82,89.81c7.24-11.57,17.81-16.6,31.28-16.04,8.21.34,15.76,2.39,22.18,7.55-.12.31-.25.63-.37.94-.84-.38-1.71-.7-2.51-1.14-9.28-5.07-19.12-6.32-29.43-4.27-4.45.88-8.51,2.61-11.95,5.62-2.93,2.57-5.77,5.22-8.66,7.84l-.55-.5Z"/>
      <path class="cls-3" d="m222.91,111.21c-1.66-3.54-2.93-6.49-4.41-9.33-3.35-6.4-8.89-9.81-15.85-10.99-10.07-1.72-19.94-1.02-29.45,2.97-.17.07-.42-.02-1.1-.07.6-.68.93-1.38,1.47-1.63,1.61-.74,3.26-1.45,4.96-1.91,9.17-2.45,18.4-3.21,27.66-.52,8.98,2.6,14.76,8.14,16.71,21.48Z"/>
      <path class="cls-3" d="m79.51,91.81c10.99-11.85,24.51-12.77,39.04-8.89,2.28.61,4.64,1.54,6.19,4.37-.98-.17-1.57-.16-2.05-.38-11.79-5.42-23.48-5.2-35.01.69-2.67,1.36-5.14,3.1-7.71,4.66-.15-.15-.31-.31-.47-.46Z"/>
      <path class="cls-3" d="m96.28,43.7c4.61-5.54,10.22-8.64,17.71-8,5.31.45,10.68.2,15.98.67,2.36.21,4.62,1.44,6.92,2.23.72.25,1.41.58,2.11.87-.29.36-.58.72-.87,1.08-.59-.11-1.19-.19-1.77-.33-2.69-.65-5.37-1.83-8.08-1.89-6.99-.15-14.02-.09-20.99.46-2.48.2-4.86,2-7.24,3.17-1.19.59-2.26,1.41-3.38,2.13-.13-.13-.27-.27-.41-.4Z"/>
      <path class="cls-3" d="m96.91,39.63c8.77-11.94,23.56-12.02,33.08-8.9,3.34,1.1,6.23,2.92,8.48,5.67.51.62.81,1.4.72,2.49-.53-.45-1.09-.87-1.59-1.36-2.83-2.79-6.1-4.77-10.04-5.61-9.99-2.12-19.22-.85-27.24,5.99-.93.79-1.93,1.49-2.9,2.23-.17-.17-.34-.34-.51-.51Z"/>
      <path class="cls-3" d="m99.85,51.25c6.3-4.92,13.1-8.59,21.43-7.56,3.06.38,6.06,1.35,9.03,2.22.93.27,1.7,1.1,2.54,1.68-.12.23-.24.46-.36.69-.81-.16-1.65-.23-2.42-.5-8.43-3.06-16.62-2.28-24.69,1.37-1.8.82-3.72,1.38-5.58,2.07l.04.04Z"/>
      <path class="cls-3" d="m97.78,47.87c-2.67.67-5.31,1.49-8.01,1.99-11.33,2.1-20.02,8.11-26.44,17.59-.22.32-.5.59-.99,1.16,1.6-10.62,20.68-21.55,35.46-20.7l-.03-.04Z"/>
      <path class="cls-3" d="m155.98,51.07c.05,9.06,2.57,18.07.73,27.49-.24-4.84-.45-9.36-.69-13.88-.25-4.52-.53-9.05-.79-13.57.25-.01.5-.03.75-.04Z"/>
      <path class="cls-3" d="m146.69,85.37c-2.17-4.2-4.33-8.41-6.5-12.61.22-.12.44-.24.66-.36,3.54,3.83,5.61,8.51,7.07,13.67-.43-.25-.85-.5-1.28-.76l.05.05Z"/>
      <path class="cls-3" d="m164.33,107.68c-2.21,3.38-3.67,7.03-3.62,11.74-2.29-3.74-.79-8.69,3.09-12.22.18.16.36.32.53.48Z"/>
      <path class="cls-3" d="m157.34,105.43c-.04.76.02,1.55-.13,2.29-.81,4.11-1.67,8.21-2.54,12.31-.16.73-.46,1.43-.95,2.07.86-5.63.55-11.5,3.66-16.63l-.05-.04Z"/>
      <path class="cls-3" d="m149.37,81.98c-.37-1.55-.82-3.09-1.1-4.66-.58-3.33-1.07-6.68-1.59-10.02l-.05.04c1.86,4.72,2.77,9.61,2.69,14.68l.05-.04Z"/>
      <path class="cls-3" d="m149.32,82.02c.31,1.79.62,3.59.93,5.38l-.89.09v-5.51l-.05.04Z"/>
      <path class="cls-3" d="m67.96,39.45c-1.42,1.02-2.84,2.04-4.26,3.06l.03.03c1.26-1.2,2.51-2.39,3.77-3.59.15.17.3.33.46.5Z"/>
      <path class="cls-3" d="m137.99,90.68c-.67-1.33-1.34-2.66-2.01-3.99l-.05.04c.67,1.33,1.35,2.66,2.02,3.98l.04-.04Z"/>
      <path class="cls-3" d="m69.94,22.04c-1.15.63-2.3,1.27-3.45,1.9l-.2-.22c1.06-.73,2.13-1.47,3.19-2.2.15.17.31.35.46.52Z"/>
      <path class="cls-3" d="m146.68,67.3c-.45-1.33-.9-2.67-1.35-4l-.04.03c.45,1.34.9,2.67,1.34,4.01l.05-.04Z"/>
      <path class="cls-3" d="m71.37,90.31l-2.32,2.39.03.03c.58-.97,1.16-1.95,1.74-2.92l.55.5Z"/>
      <path class="cls-3" d="m79.13,92.75l-1.21,2.15c-.29-.32-.58-.64-.87-.97.66-.43,1.32-.86,1.97-1.29l.11.1Z"/>
      <path class="cls-3" d="m84.44,58.59l-1.38,1.38.07-.04c-.08-.34-.16-.69-.24-1.03.53-.09,1.06-.18,1.59-.27l-.03-.04Z"/>
      <path class="cls-3" d="m63.71,88.02c.62-.71,1.24-1.42,1.87-2.13.11.11.23.23.34.35-.75.58-1.5,1.16-2.25,1.74l.04.04Z"/>
      <path class="cls-3" d="m66.49,23.94c-.71.4-1.41.8-2.12,1.19l.04.04c.63-.48,1.26-.97,1.88-1.45l.2.22Z"/>
      <path class="cls-3" d="m93.84,43.89c.44-.66.88-1.33,1.33-1.99l-.05-.05c-.44.67-.87,1.34-1.31,2.01l.03.03Z"/>
      <path class="cls-3" d="m97.82,47.91c.49-.19.98-.38,1.47-.56l.08.39c-.53.05-1.06.09-1.59.14l.03.04Z"/>
      <path class="cls-3" d="m131.26,79.37c.44.67.88,1.33,1.32,2l.05-.05-1.32-2-.04.04Z"/>
      <path class="cls-3" d="m55.65,47.89c-.16.45-.33.9-.49,1.35-.13-.08-.27-.16-.4-.23.31-.36.62-.72.93-1.08l-.04-.04Z"/>
      <path class="cls-3" d="m133.92,83.38c.45.66.9,1.32,1.34,1.99l.05-.04c-.45-.66-.9-1.32-1.35-1.99l-.05.04Z"/>
      <path class="cls-3" d="m172.73,73.31c-.37.74-.74,1.48-1.1,2.22-.17-.15-.33-.3-.5-.44.54-.58,1.09-1.17,1.63-1.75l-.03-.03Z"/>
      <path class="cls-3" d="m259.04,87.36l.46.94c-.1.03-.2.06-.3.1l-.12-1.07-.04.03Z"/>
      <path class="cls-3" d="m223.29,112.88c-.02.16-.04.33-.06.49.02-.16.04-.33.06-.49Z"/>
      <path class="cls-3" d="m94.51,105.46c-.24.64-.49,1.29-.73,1.93l.04.04c.21-.67.43-1.34.64-2.01l.05.04Z"/>
      <path class="cls-3" d="m145.32,63.3c-.2-.34-.4-.68-.6-1.02.13-.05.27-.1.4-.14.05.4.1.8.15,1.2l.04-.03Z"/>
      <path class="cls-3" d="m157.39,105.47c.04-.39.08-.77.12-1.16.11.04.22.07.33.11-.17.34-.33.67-.5,1.01l.05.04Z"/>
      <path class="cls-3" d="m54.33,67.3l-.68,1.29.04.04c.23-.43.46-.86.69-1.29l-.05-.04Z"/>
      <path class="cls-3" d="m55.04,65.98c-.24.44-.47.88-.71,1.32l.05.04c.2-.47.4-.94.6-1.41l.06.05Z"/>
      <path class="cls-3" d="m54.98,65.93c.17-.49.35-.97.52-1.46.14.12.28.24.42.36-.29.39-.58.77-.88,1.16l-.06-.05Z"/>
      <path class="cls-3" d="m135.98,86.69c-.22-.45-.44-.9-.66-1.36l-.05.04c.22.45.44.91.66,1.36l.05-.04Z"/>
      <path class="cls-3" d="m74.44,63.95c.45-.21.9-.43,1.35-.64l-.04-.05c-.45.22-.9.43-1.35.65l.04.04Z"/>
      <path class="cls-3" d="m143.98,59.3c.11.17.23.33.34.5-.1-.18-.2-.36-.31-.54l-.04.04Z"/>
      <path class="cls-3" d="m63.07,89.38c.21-.45.43-.9.64-1.36l-.04-.04c-.21.45-.42.91-.63,1.36l.03.03Z"/>
      <path class="cls-3" d="m186.33,46.79c-.32.05-.63.1-.95.15.2-.17.4-.35.61-.53.11.13.23.25.34.38Z"/>
      <path class="cls-3" d="m137.95,90.71c.22.46.43.92.65,1.39l.04-.04c-.22-.46-.43-.93-.65-1.39l-.04.04Z"/>
      <path class="cls-3" d="m133.97,83.35c-.22-.45-.44-.9-.66-1.35l-.04.04.66,1.34.05-.04Z"/>
      <path class="cls-3" d="m130.59,77.31c0,.46-.01.92-.02,1.38l.04-.04-.65-1.33-.04.03c.24,0,.47,0,.71,0l-.05-.05Z"/>
      <path class="cls-3" d="m94.45,39.86c-.07.16-.14.33-.15.36.01-.02.1-.17.19-.32l-.04-.04Z"/>
      <path class="cls-3" d="m68.36,93.37c-.04.18-.09.36-.13.54.06-.16.12-.33.17-.49l-.04-.04Z"/>
      <path class="cls-3" d="m95.19,39.22l.51-1.46c.1.09.21.18.31.27-.29.38-.57.77-.86,1.15l.04.04Z"/>
      <path class="cls-3" d="m93.78,107.39c-.04.19-.09.38-.13.57.06-.18.12-.36.17-.54l-.04-.04Z"/>
      <path class="cls-3" d="m62.4,26.5c.44-.21.88-.43,1.32-.64l-.04-.04c-.44.21-.88.43-1.32.64l.04.04Z"/>
      <path class="cls-3" d="m53,69.99c-.08.17-.16.34-.18.37.02-.03.12-.18.22-.33l-.04-.04Z"/>
      <path class="cls-3" d="m53.65,68.6c-.22.47-.43.93-.65,1.4l.04.04c.21-.47.43-.93.64-1.4l-.04-.04Z"/>
      <path class="cls-3" d="m127.94,75.3c-.06-.15-.14-.29-.17-.44,0-.05.12-.13.18-.19l-.04-.03c0,.24,0,.47,0,.71l.03-.05Z"/>
      <path class="cls-3" d="m96.69,44.1l-.88.45.02.02c.15-.29.3-.58.45-.87.14.13.27.27.41.4Z"/>
      <path class="cls-3" d="m144.61,44.51c.11-.09.23-.17.34-.26-.08.12-.17.23-.25.35l-.09-.09Z"/>
      <path class="cls-3" d="m172.76,73.33l.67-.65-.04-.04c-.22.22-.44.44-.66.67l.03.03Z"/>
      <path class="cls-3" d="m58.18,45.06c.21-.24.41-.49.62-.73.12.12.23.23.35.35-.22.23-.43.46-.65.69-.11-.1-.21-.21-.32-.31Z"/>
      <path class="cls-3" d="m174.07,71.98c-.23.22-.45.44-.68.66l.04.04c.23-.22.45-.44.68-.66l-.04-.04Z"/>
      <polygon class="cls-3" points="174.1 72.02 174.17 71.88 174.07 71.98 174.1 72.02"/>
      <path class="cls-3" d="m144.7,44.61c-.16.28-.32.57-.48.85-.14-.14-.28-.28-.42-.42.27-.17.54-.35.81-.52l.09.09Z"/>
      <path class="cls-3" d="m57.67,45.87c.17-.27.34-.54.52-.81.11.1.21.21.32.31-.26.18-.53.36-.79.54l-.05-.05Z"/>
      <path class="cls-3" d="m95.12,45.22l.04.04-.04-.04Z"/>
      <path class="cls-3" d="m174.96,69.52c-.23.08-.46.15-.69.23.07-.23.15-.46.22-.69.16.15.31.3.47.46Z"/>
      <path class="cls-3" d="m214.89,104.79l.04-.04-.04.04Z"/>
      <path class="cls-3" d="m214.22,104.12c.22.22.45.45.67.67l.04-.04c-.22-.22-.45-.44-.67-.67l-.04.04Z"/>
      <path class="cls-3" d="m213.55,103.45c.22.22.45.45.67.67l.04-.04c-.22-.22-.45-.45-.67-.67l-.04.04Z"/>
      <polygon class="cls-3" points="74.4 63.91 74.31 64.08 74.44 63.95 74.4 63.91"/>
      <path class="cls-3" d="m212.88,102.76c.22.23.44.46.66.69l.04-.04c-.23-.22-.46-.44-.7-.66h0Z"/>
      <path class="cls-3" d="m252.32,95.4l.04-.03-.04.03Z"/>
      <path class="cls-3" d="m69.05,92.7c-.23.22-.46.45-.68.67l.04.04c.22-.23.45-.45.68-.68l-.03-.03Z"/>
      <path class="cls-3" d="m79.02,92.65c.16-.28.33-.56.49-.84.16.15.31.31.47.46-.28.16-.57.32-.85.48l-.11-.1Z"/>
      <path class="cls-3" d="m144.02,59.26l-.04.04.04-.04Z"/>
      <path class="cls-3" d="m63.04,89.34l.03.03-.03-.03Z"/>
      <polygon class="cls-3" points="55.65 86.02 55.56 86.17 55.69 86.06 55.65 86.02"/>
      <polygon class="cls-3" points="99.81 51.21 99.71 51.4 99.85 51.25 99.81 51.21"/>
      <path class="cls-3" d="m66.58,85.56c-.22.23-.44.45-.67.68-.11-.12-.22-.23-.34-.35.21-.24.42-.47.63-.71.12.12.25.25.37.37Z"/>
      <path class="cls-3" d="m55.69,86.06c.22-.22.45-.45.67-.67l-.04-.04c-.22.22-.45.45-.67.67l.04.04Z"/>
      <path class="cls-3" d="m95.16,45.26c.22-.23.44-.47.67-.7l-.02-.02c-.23.23-.46.45-.69.68l.04.04Z"/>
      <path class="cls-3" d="m55.69,47.93c.22-.22.45-.44.67-.67l-.04-.04c-.22.22-.45.45-.67.67l.04.04Z"/>
      <path class="cls-3" d="m66.21,85.18c.2-.24.4-.49.6-.73.16.16.33.32.49.48-.24.21-.48.41-.72.62-.12-.13-.25-.25-.37-.37Z"/>
      <path class="cls-3" d="m56.37,47.26c.22-.23.44-.46.66-.69h-.01c-.23.21-.46.43-.69.65l.04.04Z"/>
      <path class="cls-3" d="m57,84.68c-.22.22-.45.45-.67.67l.04.04c.23-.22.45-.45.68-.67l-.04-.04Z"/>
      <path class="cls-3" d="m146.64,45.9c-.22.22-.43.45-.65.67h0c.23-.21.45-.42.68-.64l-.03-.03Z"/>
      <path class="cls-3" d="m57.71,45.92c-.23.21-.47.43-.7.64h.01c.21-.22.43-.45.64-.68,0,0,.05.05.05.05Z"/>
      <path class="cls-3" d="m57.67,84.01l-.68.67.04.04c.22-.23.45-.45.67-.68l-.04-.04Z"/>
      <path class="cls-3" d="m58.48,83.48c-.27.18-.54.36-.81.53,0,0,.04.03.04.03.16-.28.33-.56.49-.85.1.09.19.19.29.28Z"/>
      <path class="cls-3" d="m59.19,82.85c-.24.21-.47.42-.71.63-.1-.09-.19-.19-.29-.28.2-.25.4-.49.59-.74.13.13.27.26.4.39Z"/>
      <path class="cls-3" d="m59.9,82.22c-.24.21-.47.42-.71.63-.13-.13-.27-.26-.4-.39.22-.23.43-.46.65-.69.15.15.31.3.46.46Z"/>
      <path class="cls-3" d="m95.96,41.35c-.28.17-.56.34-.84.51l.05.05c.19-.26.37-.53.56-.79l.23.24Z"/>
      <path class="cls-3" d="m169.41,45.89c-.06-.04-.13-.07-.19-.11.06.04.12.08.17.12l.02-.02Z"/>
      <path class="cls-3" d="m210.18,13.12l.04-.04-.04.04Z"/>
      <path class="cls-3" d="m133.31,82c-.23-.23-.45-.45-.68-.68l-.05.05c.23.22.45.45.68.67l.04-.04Z"/>
      <path class="cls-3" d="m59.44,81.77c.22-.23.44-.46.66-.68.18.18.36.36.54.54-.25.2-.49.4-.74.6-.15-.15-.31-.3-.46-.46Z"/>
      <path class="cls-3" d="m64.37,25.13c-.23.23-.46.46-.68.69l.04.04c.23-.23.46-.46.68-.69l-.04-.04Z"/>
      <path class="cls-3" d="m61.31,80.96c-.22.22-.45.44-.67.66-.18-.18-.36-.36-.54-.54.23-.22.46-.43.68-.65.18.18.35.35.53.53Z"/>
      <path class="cls-3" d="m61.73,27.17c.22-.23.44-.45.67-.68l-.04-.04c-.22.22-.45.45-.67.67l.04.04Z"/>
      <path class="cls-3" d="m146.67,45.93l-.03-.03.03.03Z"/>
      <path class="cls-3" d="m131.3,79.33c-.23-.23-.46-.45-.69-.68l-.04.04c.23.23.46.46.69.68l.04-.04Z"/>
      <path class="cls-3" d="m129.97,77.32c-.23-.22-.45-.45-.68-.67l-.05.03c.23.23.45.45.68.68l.04-.03Z"/>
      <polygon class="cls-3" points="61.69 27.13 61.58 27.28 61.73 27.17 61.69 27.13"/>
      <path class="cls-3" d="m95.15,39.18c-.23.23-.46.45-.7.68l.04.04c.23-.23.46-.45.7-.68l-.04-.04Z"/>
      <path class="cls-3" d="m97.42,40.14c-.24.21-.48.41-.72.62-.14-.14-.28-.28-.43-.42.21-.23.43-.47.64-.7.17.17.34.34.51.51Z"/>
      <path class="cls-3" d="m129.29,76.65c-.22-.22-.44-.44-.66-.66l-.04.03c.24,0,.47,0,.71,0l-.05-.05c0,.24,0,.47,0,.71l.05-.03Z"/>
      <path class="cls-3" d="m128.63,75.99c-.23-.23-.46-.46-.69-.69l-.03.05c.23.23.45.45.68.68l.04-.03Z"/>
      <path class="cls-3" d="m96.7,40.76c-.25.2-.49.4-.74.6l-.23-.24c.18-.26.36-.52.54-.78.14.14.28.28.43.42Z"/>
      <path class="cls-3" d="m63.7,42.51l.03.03-.03-.03Z"/>
      <path class="cls-3" d="m93.82,43.86l.03.03-.03-.03Z"/>
      <path class="cls-7" d="m101.17,140.23c-.22,3.93.03,7.79,1.67,11.45,3.62,8.09,10.42,11.63,18.71,12.67,5.34.66,10.67.02,15.86-1.56,3.45-1.06,6.61-2.61,9.31-5.6,1.98,4.36,4.88,7.55,8.95,9.7,11.53,6.07,25.92,2.87,34.36-4.56,1.3-1.15,1.87-3.12,2.77-4.71.18-.33.36-.67.54-1-.12-.04-.24-.09-.35-.13-.04.39-.09.78-.13,1.18-1.32,1.34-2.49,2.87-3.98,3.98-9.35,7-19.54,9.53-30.75,5.11-8.37-3.3-11.99-9.67-11.11-19.15.19-1.99.72-3.95.92-5.94.67-6.73,5.05-10.58,10.7-12.95,4.96-2.09,10.36-2.72,15.75-2.1,8.87,1.02,16.32,8.02,18.17,17.15.66,3.25.79,6.61,1.23,10.58,1.16-4.83,1.62-9.04.41-13.33-1.16-4.12-3.03-7.88-5.69-11.25-4.2-5.34-9.84-7.43-16.44-7.37-4.83.04-9.53.84-14.02,2.71-3.96,1.65-6.8,4.57-9.25,8.36-.41-.54-.81-.88-.99-1.32-3.7-9.06-11.15-12.62-20.22-13.49-5.98-.58-11.48.99-16.28,4.76-.43.34-.96.53-1.45.79h-.01c3.62-4.06,8.39-5.86,13.56-6.4,10.52-1.09,19.14,2.06,24.49,11.84.26.47.64.87,1,1.35.37-.27.7-.41.89-.66,7.22-9.86,17.14-12.35,28.44-9.76,8.21,1.88,13.61,7.57,16.21,15.46,2.94,8.95,2.73,17.95-1.16,26.71-.51,1.14-.8,2.38-1.19,3.57.3.13.6.27.9.4.63-1.07,1.24-2.15,1.88-3.21,3.84-6.32,9.2-10.64,16.65-11.61,7.95-1.04,14.77,3.63,17.47,11.48,3.41,9.91-.45,21.5-9.16,27.93-5.47,4.03-11.74,5.95-18.28,6.79-22.03,2.83-44.19,3.92-66.36,2.76-13.47-.71-26.8-2.91-39.57-7.58-9.07-3.32-17-8.34-23-16.04-5.12-6.57-7.87-13.98-6.79-22.4.3-2.37,1.07-4.83,2.26-6.9,4.71-8.19,15.06-9.77,21.99-3.32,2.42,2.25,4.28,5.11,6.37,7.71,2.16,2.68,4.13,5.55,6.49,8.05,2.91,3.07,6.53,4.22,10.35,3.44-.83-.32-1.69-.57-2.47-.99-2.23-1.2-4.54-2.31-6.59-3.77-2.5-1.79-3.65-4.45-3.54-7.55.13-3.74.35-7.47.52-11.21l-.04-.03Zm78.66,51.89c5.15-.26,11.38-.46,17.59-.93,5.13-.39,10.15-1.53,14.77-3.88,6.01-3.06,10.22-7.54,10.29-14.76.03-3.67-1.29-6.76-4.59-8.71-3.39-2.01-6.5-.74-9.37,1.14-2.13,1.39-4.12,3.05-6,4.78-5.09,4.7-10.97,7.47-17.94,7.96-3.32.24-6.64.75-9.93,1.28-6.35,1.03-12.61.37-18.93-.49-7.15-.98-14.37-1.5-21.58-2.01-4.44-.31-8.92,0-13.35-.37-10.32-.88-19.1-4.84-25.53-13.32-2.08-2.74-4.3-5.42-6.78-7.8-1.72-1.66-3.83-3.13-6.03-4.05-4.61-1.92-8.32.24-9.62,5.12-1.35,5.03.57,9.22,3.49,13.04,4.94,6.47,11.46,10.74,19.07,13.53,8.33,3.06,17.04,4.15,25.75,5.36,19.12,2.64,38.36,3.27,58.7,4.11Zm-15.36-51.77c-3.08-.03-5.85,2.96-5.96,6.41-.11,3.74,2.74,6.76,6.32,6.7,3.31-.06,5.99-2.85,6.05-6.29.06-3.47-3.06-6.79-6.42-6.81Z"/>
      <path class="cls-4" d="m139.79,252.61c2.07.21,3.91.4,5.87.61-.95,1.15-2.12,1.99-2.38,3.05-.25,1.01.19,2.44.81,3.36,1.06,1.59,3.66,1.68,5.06.45,1.83-1.59,1.61-4.11-.76-6.54.51-.05.86-.12,1.2-.1.43.02.85.12,1.38.2,0,6.75.23,13.41-.05,20.06-.76,18.16,3.46,34.65,15.55,48.68.94,1.09,1.84,2.24,2.6,3.47,1.4,2.25,1.26,3.79-1.05,5.06-2.7,1.48-5.63,2.66-8.6,3.5-2.52.71-5.24.73-7.71,1.04-2.24-13.44-4.42-26.52-6.61-39.61-.21.02-.41.04-.62.06.27,3.74.45,7.5.84,11.23.84,7.97,1.79,15.93,2.68,23.89.1.89.22,1.78.19,2.67-.09,2.92-1.3,4.6-4.13,5.36-6,1.59-11.93,1.2-17.69-1.07-1.31-.52-2.53-1.42-3.6-2.36-1.73-1.52-2.41-3.44-1.45-5.71.35-.82.58-1.71,1.04-2.46,6.32-10.23,9.36-21.64,11.62-33.25,2.03-10.37,3.54-20.85,5.12-31.3.49-3.27.44-6.62.67-10.3Z"/>
      <path class="cls-6" d="m147.89,137.88c-1.5,5.12-2.42,10.25-1.91,15.53.24,2.47-1.11,4.24-3.03,5.12-3.4,1.56-6.92,3.09-10.55,3.84-6.04,1.25-12.15,1.15-18.01-1.33-9.92-4.19-14.09-14.6-9.37-24.27,3.53-7.22,8.96-12.54,17.22-13.86,9.05-1.45,16.33,1.92,21.84,9.13,1.34,1.76,2.43,3.71,3.81,5.83Zm-28.1,4.19c-.06,3.45,2.48,6.05,6.03,6.17,3.21.1,6-2.3,6.15-5.3.17-3.35-3.02-6.91-6.24-6.97-3.61-.07-5.87,2.25-5.95,6.1Z"/>
      <path class="cls-7" d="m35.57,166.39c1.36-1.61,2.63-3.32,4.12-4.8,1.25-1.24,2.69-2.31,4.17-3.27,1.19-.77,2.81-.99,3.6.32.59.98.76,2.61.37,3.67-.46,1.27-1.63,2.35-2.67,3.32-1.14,1.07-1.76,2.13-1.51,3.79.34,2.31.23,4.69.69,6.96.24,1.15,1.15,2.32,2.06,3.14,1.3,1.17,2.88,2.03,4.54,3.15-.6,2.34-1.17,4.54-1.81,7.02-1.37-.41-2.49-.57-3.42-1.06-3.93-2.08-8.26-2.5-12.54-3.02-4.84-.6-9.52.03-13.97,2.23-2.09,1.03-4.27,1.93-6.5,2.59-1.63.48-3.41.46-5.08.66-1.13-2.35-.14-3.72,1.27-4.67,1.55-1.05,3.4-1.65,4.99-2.64,2.39-1.5,4.67-3.18,7-4.78.15-.1.3-.19.45-.29-.14.11-.27.22-.41.33-3.29.53-6.56,1.2-9.87,1.52-2.06.2-4.2.05-6.25-.3-1.53-.26-2.55-1.49-2.34-3.18.21-1.69,1.59-1.92,3.01-1.98,4.56-.21,9.12-.45,13.69-.68,1.2-.06,2.57.16,2.87-1.93-1.54-.64-3.15-1.31-4.77-1.97-2.77-1.15-5.59-2.2-8.3-3.48-1.17-.55-2.28-1.43-3.14-2.41-1.19-1.35-1.56-3.05-.38-4.6,1.07-1.4,2.55-1.01,3.97-.5,4.48,1.62,8.23,4.37,11.78,7.48,1.04.91,2.27,1.61,3.42,2.41.26-.21.52-.42.78-.63-1.81-3.33-3.62-6.66-5.42-10-1.81-3.35-4.02-6.59-3.34-10.78,2.64-.59,4.17.65,5.19,2.22,2.05,3.16,3.82,6.51,5.68,9.79.93,1.64,1.54,3.56,2.77,4.91,1.13,1.23,2.84,2.03,4.43,2.71.89.38,1.5-.23.92-1.3l-.03.06Z"/>
      <path class="cls-4" d="m162.21,364.59c.89,1.01,1.79,2.02,2.68,3.02.15-.08.3-.15.45-.23-.15-.66-.29-1.31-.45-2.01,2.66-.36.9,1.88,1.82,2.87.64.24,1.54.58,2.68,1.01.71-1.06,1.36-2.05,2.13-3.2,5.9,1.13,12.38.92,17.13,7.01-1.57.58-2.63,1.3-3.69,1.3-4.88,0-9.8.15-14.64-.38-7.3-.79-14.54-2.09-21.8-3.19-.32-.05-.61-.23-.61-.23-4.02-9.41-2.49-19.02-2.29-28.28,1.93-1.75,3.71-3.36,6.01-5.45.02,1.42.44,3.15,0,3.41-2.52,1.47-1.14,4.19-2.57,6.01.8.18,1.29.29,1.53.35-.51,2.09-1.01,4.12-1.51,6.16.19-.03.38-.07.58-.1.56,2.53,1.12,5.06,1.76,7.95.12,0,.74.03,1.46.07.11.71.22,1.44.3,1.96,2.35.74,4.49,1.42,7.06,2.23.19.61.54,1.79.9,2.96.24-.04.49-.08.73-.11-.07-.94-.15-1.88-.22-2.83.19-.1.38-.2.58-.3Z"/>
      <path class="cls-6" d="m135.41,215.21c.85,4.15,1.51,4.79,5.43,5.58,4.7.95,7.12-.01,9.79-3.97.57.19,1.2.36,1.8.59,4.29,1.66,4.98,2.97,4.03,7.54-1.06,5.09-3.32,7.25-8.49,6.95-3.95-.23-7.86-1.27-11.77-2.09-.79-.17-1.54-.84-2.15-1.45-2.73-2.73-5.4-5.51-8.27-8.46-.25-2.67-.55-5.82-.9-9.5,3.77,1.72,7.26,3.32,10.54,4.81Z"/>
      <path class="cls-4" d="m137.98,348.94c.48-.71.97-1.42,1.77-2.6-.48-.24-1.37-.68-2.05-1.02,1.74-2.19,3.3-3.67,5.93-2.63,0,2.13.24,4.35-.05,6.49-.8,5.91-.66,11.72.91,17.51.36,1.33.24,2.82.13,4.22-.04.58-.52,1.23-.97,1.66-1.67,1.58-3.43,3.06-5.11,4.62-5.1,4.73-10.98,7.51-18.07,7.07-1-.06-2.63-.6-2.79-1.22-.24-.94.22-2.53.97-3.17,3.17-2.75,6.55-5.26,9.72-7.76,1.55.85,2.75,1.5,3.95,2.15.14-.14.28-.28.42-.43-.26-.5-.52-1.01-.77-1.51l-.04.04c.74.13,1.48.26,2.52.44-.04-.78-.07-1.36-.07-1.41,1.41-1.22,2.56-2.21,3.88-3.35-1.05-.81-1.87-1.44-2.97-2.29,1.43.2,2.45.33,3.47.47l.2-.66c-.8-.75-1.61-1.5-2.74-2.56,1.65-.31,2.83-.53,4.65-.87-1.64-.99-2.72-1.64-3.8-2.29.09-.17.18-.34.27-.51.5.21,1,.42,1.6.68.31-.71.61-1.38.89-2.04-.93-.6-1.82-1.18-2.7-1.75.15-.22.3-.44.45-.66.5.4,1,.8,1.74,1.38.22-2.47.42-4.65.64-7.12-.45-.2-1.22-.56-2-.91l.03.03Z"/>
      <path class="cls-6" d="m54.2,181.4c3.51,1.76,6.97,3.49,10.65,5.34-.68,6.18-2.32,11.94-5.63,17.48-4.11-.53-8.22-1.07-12.12-1.58,2.39-7.16,4.69-14.04,7.1-21.25Z"/>
      <path class="cls-5" d="m114.73,108.58c10.74-3.06,20.65-7.57,28.1-16.69,1.01.63,1.9,1.05,2.63,1.67,3.27,2.76,3.27,4.25.22,7.37-5.22,5.34-11.45,8.38-19.01,8.43-3.97.03-7.95,0-11.92,0,0-.26-.01-.53-.02-.79Z"/>
      <path class="cls-9" d="m60.7,204.56c3.58-5.4,4.56-10.99,5.65-17.07,3.77,1.72,7.26,3.31,10.87,4.96-.06,4.65-1.17,8.88-3.23,13.39-4.2-.4-8.46-.81-13.29-1.28Z"/>
      <path class="cls-9" d="m139.25,244.62c-1.13-4.7-2.12-8.79-3.19-13.23,5.46,1.47,10.91,3.06,17.15,1.23-.53,4.24-1.02,8.12-1.54,12.29-4.23,1.37-8.39,1.04-12.42-.29Z"/>
      <path class="cls-7" d="m153.8,274.17c2.68.89,4.69,1.48,6.63,2.25.63.25,1.21.89,1.57,1.5,2.18,3.68,4.79,4.88,9.18,4.1,1.39-.25,2.77-.57,4.6-.95-2,4-6.06,3.94-8.77,6.18,2.19-.38,4.38-.77,6.79-1.19q-1.77,1.84-8.48,3.7c1.1.29,1.9.5,2.83.74-.25.28-.4.62-.64.71-3.34,1.12-7.67-.41-9.9-3.67-2.67-3.88-2.81-8.47-3.8-13.36Z"/>
      <path class="cls-9" d="m169.47,263.01c-5.37.58-9.45-1.51-13.57-3.67,1.84-3.77,3.53-7.24,5.22-10.7,3.39.97,6.84,1.95,10.65,3.04-.77,3.8-1.53,7.55-2.3,11.33Z"/>
      <path class="cls-6" d="m88.27,207.76c-4.2-.55-8.02-1.05-11.92-1.56.95-4.33,1.86-8.46,2.82-12.88,3.88,1.6,7.82,3.22,11.87,4.89.13,3.53-1.29,6.37-2.77,9.55Z"/>
      <path class="cls-6" d="m153.53,271.8c1.25-3.8-1.18-7.83.74-11.12,4.82,1.77,9.24,3.38,14.16,5.19-.88,2.24-1.84,5.01-3.1,7.63-.31.65-1.59,1.08-2.47,1.16-3.37.32-6.2-1.22-9.34-2.86Z"/>
      <path class="cls-9" d="m90.27,208.03c1-3.09,1.89-5.82,2.91-8.96,3.49,1.3,6.97,2.6,10.84,4.04-.52,2.55-.99,4.86-1.53,7.5-4.39-.93-8.26-1.74-12.23-2.58Z"/>
      <path class="cls-6" d="m161.48,246.74c.51-2.12.94-3.93,1.33-5.59,2.91-.49,5.59-.94,8.61-1.45.93,3.03.68,6.26.37,9.8-3.68-.08-7.05-.57-10.32-2.77Z"/>
      <path class="cls-6" d="m105.74,203.65c2.94.99,5.73,1.94,8.42,2.84,1.49,2.86.49,5.36-.23,8.31-3.36-1.22-6.53-2.37-9.82-3.56.54-2.51,1.04-4.84,1.63-7.59Z"/>
      <path class="cls-9" d="m115.54,215.59c.3-3.19.53-5.6.79-8.35,2.4.89,4.65,1.73,6.96,2.58.44,3.21.85,6.26,1.38,10.2-3.59-1.74-6.48-3.15-9.14-4.44Z"/>
      <path class="cls-9" d="m151.84,207.13c.6,2.48-.59,3.96-2.36,5.1-3.59,2.3-7.37,2.22-11.13.52-1.96-.89-2.66-2.49-1.92-4.79,5.23.56,10.38,1.71,15.42-.83Z"/>
      <path class="cls-9" d="m168.51,231.14c.21.3.49.55.57.84.51,1.84,2.37,3.46,1.21,5.56-.83,1.51-4.1,2.21-7.13,1.74-.4-1.76-.81-3.56-1.19-5.22,2.2-.99,4.27-1.91,6.54-2.93Z"/>
      <path class="cls-6" d="m151.73,246.87c-.19,1.48-.38,2.89-.59,4.55-4.01.89-7.67-.59-11.65-1.01-.07-1.43-.13-2.59-.17-3.54h12.41Z"/>
      <path class="cls-6" d="m167.48,228.64c-3.09,4.4-5.67,4.81-9.02,1.63,2.41-1.68,4.15-3.81,4.43-7.19,1.51,1.83,3.02,3.65,4.59,5.55Z"/>
      <path class="cls-6" d="m137.99,203.58h14.08c-1.37,2.29-2.86,3.44-5.18,3.41-2.42-.04-4.83,0-7.31,0-.58-1.25-1.08-2.32-1.58-3.4Z"/>
      <path class="cls-6" d="m148.18,216.14c-1.88,2.81-4.17,3.52-8.14,2.39-1.59-.45-3.02-1-2.36-3.04,3.49.22,6.94.43,10.51.66Z"/>
      <path class="cls-9" d="m156.81,229.2c.5-2.81,1.03-5.76,1.59-8.9,1.37.14,2.14,1.07,2.27,2.84.23,3.08-.53,4.32-3.86,6.06Z"/>
      <path class="cls-6" d="m149.3,257.33c-1.13.85-2.02,1.93-2.46,1.77-.84-.31-1.96-1.32-1.96-2.04,0-.71,1.19-1.89,1.96-1.98.61-.07,1.38,1.2,2.46,2.25Z"/>
      <path class="cls-6" d="m137.96,348.91c-.2.34-.4.69-.6,1.03-.11-.16-.23-.32-.34-.49.32-.17.65-.34.97-.51l-.03-.03Z"/>
      <path class="cls-6" d="m107.21,126.85c.66-.68,1.32-1.35,1.98-2.03l.02.02c-.68.65-1.36,1.31-2.04,1.96l.05.04Z"/>
      <path class="cls-6" d="m101.85,137.57c-.23.89-.45,1.77-.68,2.66l.04.03.68-2.66-.04-.04Z"/>
      <path class="cls-6" d="m134.14,367.82c.29.11.58.22.87.32-.05.13-.1.25-.16.38-.28-.13-.56-.26-.84-.39.04-.1.09-.21.13-.31Z"/>
      <path class="cls-6" d="m151.26,351.28l-.65.6c.05-.28.11-.56.16-.84.16.08.33.16.49.24Z"/>
      <path class="cls-6" d="m107.17,126.8c-.44.67-.88,1.35-1.31,2.02l.04.04c.44-.67.88-1.34,1.32-2.01l-.05-.04Z"/>
      <path class="cls-6" d="m132.06,369.7c.06.02.2.02.22.07.03.08-.03.19-.05.28-.14-.05-.28-.09-.42-.14.08-.07.15-.14.24-.21Z"/>
      <path class="cls-6" d="m101.89,137.61c.05-.36.1-.72.15-1.08.08.03.16.06.24.09-.15.32-.29.63-.44.95l.04.04Z"/>
      <path class="cls-6" d="m169.13,365.92c.09.04.21.05.25.11.03.05-.04.17-.07.25-.12-.05-.24-.1-.36-.16.06-.07.12-.14.18-.21Z"/>
      <path class="cls-6" d="m137.74,352.89c-.03.08-.07.15-.1.23l-.25-.32c.07-.04.16-.13.2-.11.07.03.1.13.15.2Z"/>
      <path class="cls-6" d="m105.14,129.49c-.22.44-.43.88-.65,1.32l.04.04.65-1.32-.04-.04Z"/>
      <path class="cls-6" d="m103.86,132.18c.22-.44.45-.89.67-1.33l-.04-.04c-.22.44-.45.88-.67,1.33l.04.04Z"/>
      <path class="cls-6" d="m138.6,57.22c-.07.17-.13.34-.14.37.01-.02.1-.18.18-.34l-.04-.04Z"/>
      <path class="cls-6" d="m103.82,132.14c-.23.44-.45.89-.68,1.33l.04.04c.23-.44.45-.89.68-1.33l-.04-.04Z"/>
      <polygon class="cls-6" points="137.28 343.28 137.05 343.15 137.3 343.07 137.28 343.28"/>
      <path class="cls-6" d="m103.14,133.47c-.04.17-.08.35-.12.52.05-.16.11-.32.16-.49l-.04-.04Z"/>
      <path class="cls-6" d="m105.85,128.82c-.24.22-.48.45-.71.67l.04.04c.24-.22.48-.45.71-.67l-.04-.04Z"/>
      <path class="cls-6" d="m109.87,124.17c-.22.22-.44.45-.67.67,0,0-.02-.02-.02-.02.22-.22.45-.44.67-.67h.01Z"/>
      <polygon class="cls-6" points="134.59 212.48 134.8 212.62 134.63 212.44 134.59 212.48"/>
      <path class="cls-6" d="m131.97,372.32c-.09-.03-.19-.07-.28-.1.08.05.16.09.24.14l.04-.04Z"/>
      <polygon class="cls-6" points="98.45 151.62 98.69 151.72 98.49 151.58 98.45 151.62"/>
      <polygon class="cls-6" points="137.27 26.5 137.38 26.57 137.29 26.49 137.27 26.5"/>
      <polygon class="cls-6" points="251.64 45.91 251.8 46 251.68 45.88 251.64 45.91"/>
      <path class="cls-6" d="m249.66,69.3l.04-.04-.04.04Z"/>
      <path class="cls-5" d="m185.21,115.7c-8.58-2.08-15.73-6.55-21.89-12.7-1.01-1.01-1.89-2.2-2.65-3.42-2.33-3.71-1.39-6.06,2.78-7.19,2.34-.64,3.25-.37,4.31,1.85,4.09,8.56,9.74,15.83,17.46,21.46Z"/>
      <polygon class="cls-6" points="156.66 84.02 156.57 84.15 156.7 84.06 156.66 84.02"/>
      <path class="cls-3" d="m179.83,192.12c-20.34-.84-39.58-1.47-58.7-4.11-8.72-1.21-17.42-2.3-25.75-5.36-7.61-2.79-14.13-7.07-19.07-13.53-2.92-3.82-4.83-8.01-3.49-13.04,1.31-4.88,5.02-7.04,9.62-5.12,2.2.92,4.31,2.38,6.03,4.05,2.47,2.38,4.7,5.06,6.78,7.8,6.43,8.48,15.22,12.44,25.53,13.32,4.43.38,8.91.06,13.35.37,7.21.51,14.43,1.03,21.58,2.01,6.33.86,12.58,1.52,18.93.49,3.29-.54,6.61-1.05,9.93-1.28,6.97-.49,12.85-3.26,17.94-7.96,1.88-1.73,3.87-3.39,6-4.78,2.87-1.88,5.98-3.15,9.37-1.14,3.29,1.96,4.62,5.04,4.59,8.71-.07,7.22-4.28,11.7-10.29,14.76-4.61,2.35-9.64,3.49-14.77,3.88-6.21.47-12.45.67-17.59.93Zm-55.24-13.07c-3.87-.56-7.74-1.12-12.19-1.76.71.83,1,1.29,1.39,1.61,3.55,2.83,7.16,2.24,10.78.13l.08-.08-.06.1Zm14.05,8.63l.06.1-.08-.07c-3.77-4.68-9.6-5.36-13.89-.99,4.96.35,9.44.66,13.91.97Zm46.63-7.55c-1.98,4.85-4.23,6.47-8.68,6.52-2.97.04-5.39-1.06-7.5-3.08-.68-.65-1.55-1.43-2.4-1.53-3.41-.41-6.85-.57-10.24-.82-5.76,6.52-13.81,6.29-19.03-.6-.91-1.21-1.84-1.78-3.32-1.72-1.89.08-3.79-.03-5.68.05-.75.03-1.74.1-2.18.56-2.29,2.47-5.3,2.94-8.42,3.16.55,2.99,2.37,3.71,4.86,3.39,5.88-6.1,12.99-5.32,18.55,2.05,3.37.24,6.82.46,10.25.75,1.86.16,3.25-.29,4.76-1.64,4.59-4.09,10.75-3.66,14.63.7,1.98,2.22,5.93,2.77,8.24.95,5.01-3.94,10.11-4.91,15.42-.79,6.24-4.83,8.55-5.11,14.26-1.73,3.4-.88,6.13-2.91,8.42-5.58,2.46-2.86,3.56-6.15,2.89-9.91-.53-2.99-2.12-5.04-5.63-5.71-1.23,4.09-2.28,8.42-7.36,8.91-2.7,7.9-6.95,9.5-14.23,5.72-.89-.46-2.1-.54-3.14-.47-1.43.1-2.84.5-4.49.82Zm-103.08-26.57c-5.31-2.03-7.98-.4-8.14,4.93-.1,3.36,1.31,6.29,3.37,8.85.45.56,1.52.85,2.31.88,4.63.16,7.77,2.3,9.41,6.65.18.48.49.92.64,1.2,2.89,0,5.6-.45,8.09.12,2.96.68,3.84,3.7,4.73,6.13,3.23-.91,6.26-1.77,9.32-2.64-1.08-4.32-5.54-4.36-8.59-6.42-3.05,2.04-6.09,2.02-9.02-.12-3.02-2.21-3.63-5.33-2.87-8.81-7.38-.06-9.48-2.52-9.26-10.78Zm129.68,11.97c-6.04,4.55-11.69,8.82-17.36,13.09,5.8,3.21,9.12,1.32,11.12-6.33,4.36-.43,5.75-1.8,6.24-6.76Zm-73.55,13.61c4.91,6.11,11.69,6.58,15.83,1.28-4.05-.44-7.91-.89-11.77-1.26-1.18-.11-2.39-.02-4.06-.02Zm31.86,2.87c4.73,4.45,10.86,3.59,12.7-1.69-4.18.56-8.21,1.09-12.7,1.69Zm-76.81-17.62c-1.11,2.91-.55,5.02,1.36,6.74,1.92,1.73,4.11,2.23,6.01,1.48-2.35-2.62-4.7-5.25-7.37-8.22Zm-9.09-9.37c-1.07,5.28,1.75,8.08,6.82,6.75-2.07-3.49-4.12-5.52-6.82-6.75Zm84.41,34.65c-3.46-4.24-8.55-4.31-11.38-.54,3.92.19,7.65.36,11.38.54Zm-68.16-7.19c-2.21-5.51-5.52-6.72-10.36-4.08,3.44,1.35,6.56,2.58,10.36,4.08Zm16.35,3.11c-3.49-4.1-7.6-4.73-11.22-1.96,3.68.64,7.13,1.25,11.22,1.96Zm75.95,4.02c-3.89-3.43-8.5-3.21-11.32,0h11.32Zm-105.77-12.95c.2-.24.39-.47.59-.71-1.29-3.55-3.5-5.95-7.98-5.54l7.39,6.25Zm118.84,10.97c-1.7-1.73-2.16-1.91-3.87-1.75-2.05.2-3.94,1.37-5.31,3.48,3.15-.6,6.05-1.14,9.18-1.74Z"/>
      <path class="cls-3" d="m192.85,157.65c.04-.39.09-.78.13-1.18.12.04.24.09.35.13-.18.33-.36.67-.54,1l.05.04Z"/>
      <path class="cls-3" d="m119.8,142.07c.07-3.85,2.33-6.17,5.95-6.1,3.22.06,6.41,3.63,6.24,6.97-.15,2.99-2.94,5.4-6.15,5.3-3.55-.11-6.09-2.72-6.03-6.17Zm9.11-2.59c-2.61-2.52-4.27-3.01-5.88-2.02-1.49.92-2.59,3.71-2.19,5.59.45,2.14,2.15,3.51,4.53,3.67,2.5.16,3.85-.78,4.96-3.98-1.31.61-2.17,1.2-3.11,1.39-.98.2-2.42.42-2.97-.1-.73-.7-1.2-2.18-1-3.16.15-.71,1.5-1.37,2.44-1.66.76-.23,1.71.11,3.22.27Zm.08,1.02c-.07.31-.17.6-.16.88,0,.08.49.23.51.2.14-.25.25-.53.3-.81,0-.04-.35-.15-.66-.27Z"/>
      <path class="cls-3" d="m20.91,179.04c.14-.11.27-.22.41-.33-.15.1-.3.19-.45.29l.04.05Z"/>
      <polygon class="cls-3" points="144.22 107.39 144.42 107.39 144.32 107.62 144.22 107.39"/>
      <path class="cls-8" d="m185.27,180.13c1.65-.32,3.06-.73,4.49-.82,1.04-.07,2.24,0,3.14.47,7.27,3.78,11.53,2.17,14.23-5.72,5.08-.48,6.13-4.82,7.36-8.91,3.51.67,5.1,2.73,5.63,5.71.67,3.76-.44,7.06-2.89,9.91-2.29,2.67-5.02,4.7-8.42,5.58-5.72-3.38-8.02-3.1-14.26,1.73-5.31-4.12-10.42-3.15-15.42.79-2.3,1.82-6.26,1.27-8.24-.95-3.88-4.35-10.04-4.78-14.63-.7-1.51,1.34-2.9,1.8-4.76,1.64-3.44-.29-6.88-.51-10.25-.75-5.56-7.37-12.67-8.15-18.55-2.05-2.49.33-4.31-.4-4.86-3.39,3.11-.22,6.13-.69,8.42-3.16.43-.47,1.43-.53,2.18-.56,1.89-.08,3.79.02,5.68-.05,1.48-.06,2.4.51,3.32,1.72,5.22,6.89,13.27,7.12,19.03.6,3.38.25,6.82.41,10.24.82.86.1,1.72.88,2.4,1.53,2.11,2.02,4.54,3.12,7.5,3.08,4.45-.05,6.7-1.67,8.68-6.52Z"/>
      <path class="cls-8" d="m82.19,153.55c-.21,8.26,1.88,10.72,9.26,10.78-.76,3.48-.16,6.61,2.87,8.81,2.93,2.14,5.97,2.16,9.02.12,3.05,2.06,7.52,2.1,8.59,6.42-3.06.87-6.09,1.72-9.32,2.64-.89-2.43-1.77-5.45-4.73-6.13-2.48-.57-5.2-.12-8.09-.12-.15-.28-.46-.72-.64-1.2-1.63-4.35-4.78-6.5-9.41-6.65-.8-.03-1.86-.32-2.31-.88-2.06-2.56-3.47-5.49-3.37-8.85.15-5.33,2.83-6.96,8.14-4.93Z"/>
      <path class="cls-6" d="m211.87,165.53c-.48,4.97-1.88,6.33-6.24,6.76-2,7.65-5.32,9.54-11.12,6.33,5.66-4.27,11.32-8.54,17.36-13.09Z"/>
      <path class="cls-6" d="m138.32,179.14c1.67,0,2.88-.1,4.06.02,3.86.37,7.72.82,11.77,1.26-4.14,5.3-10.92,4.83-15.83-1.28Z"/>
      <path class="cls-6" d="m170.17,182.01c4.49-.6,8.52-1.13,12.7-1.69-1.84,5.28-7.97,6.14-12.7,1.69Z"/>
      <path class="cls-6" d="m138.64,187.68c-4.47-.31-8.95-.62-13.91-.97,4.29-4.36,10.12-3.68,13.89.99l.02-.02Z"/>
      <path class="cls-6" d="m93.36,164.4c2.67,2.97,5.03,5.6,7.37,8.22-1.91.75-4.1.25-6.01-1.48-1.91-1.72-2.47-3.83-1.36-6.74Z"/>
      <path class="cls-6" d="m84.26,155.02c2.7,1.24,4.74,3.26,6.82,6.75-5.06,1.32-7.88-1.47-6.82-6.75Z"/>
      <path class="cls-6" d="m168.67,189.67c-3.73-.18-7.46-.36-11.38-.54,2.83-3.77,7.92-3.7,11.38.54Z"/>
      <path class="cls-6" d="m100.51,182.48c-3.8-1.49-6.92-2.72-10.36-4.08,4.84-2.64,8.15-1.44,10.36,4.08Z"/>
      <path class="cls-6" d="m124.58,179.03c-3.62,2.11-7.23,2.7-10.78-.13-.4-.31-.68-.77-1.39-1.61,4.45.64,8.32,1.2,12.19,1.76v-.02Z"/>
      <path class="cls-6" d="m116.86,185.59c-4.09-.72-7.54-1.32-11.22-1.96,3.61-2.76,7.73-2.14,11.22,1.96Z"/>
      <path class="cls-6" d="m192.81,189.61h-11.32c2.82-3.21,7.43-3.43,11.32,0Z"/>
      <path class="cls-6" d="m87.04,176.66l-7.39-6.25c4.47-.42,6.68,1.98,7.98,5.54-.2.24-.39.47-.59.71Z"/>
      <path class="cls-6" d="m205.88,187.63c-3.13.59-6.03,1.14-9.18,1.74,1.37-2.11,3.26-3.29,5.31-3.48,1.71-.16,2.17.02,3.87,1.75Z"/>
      <polygon class="cls-6" points="124.59 179.05 124.65 178.94 124.58 179.03 124.59 179.05"/>
      <polygon class="cls-6" points="138.62 187.7 138.7 187.78 138.64 187.68 138.62 187.7"/>
      <path class="cls-1" d="m128.9,139.48c-1.51-.16-2.45-.51-3.22-.27-.94.29-2.29.95-2.44,1.66-.2.98.27,2.46,1,3.16.54.52,1.99.3,2.97.1.94-.19,1.8-.78,3.11-1.39-1.11,3.19-2.46,4.14-4.96,3.98-2.38-.15-4.08-1.53-4.53-3.67-.39-1.87.7-4.67,2.19-5.59,1.61-.99,3.27-.51,5.88,2.02Z"/>
      <path class="cls-6" d="m128.98,140.5c.3.12.66.23.66.27-.05.28-.16.56-.3.81-.02.03-.51-.12-.51-.2-.01-.28.09-.57.16-.88Z"/>
      <path class="cls-6" d="m163.5,126s-9.85,1.74-13.53,7.67c-3.68,5.93-2.45,9.36-2.45,9.36l-1.31,3.17.11,5.68,1.7,6.84s4.31,8.84,14.04,10.11c0,0,10.33,1.68,16.91-.17l8.64-5.35,2.31-2.34s4.15.84,3.5-14.08c0,0-.96-9.53-4.49-13.26-3.53-3.74-7-7.94-12.32-8.63s-13.12,1-13.12,1Z"/>
      <path class="cls-3" d="m164.47,140.35c3.36.03,6.47,3.34,6.42,6.81-.06,3.44-2.74,6.23-6.05,6.29-3.58.06-6.44-2.96-6.32-6.7.1-3.45,2.88-6.43,5.96-6.41Zm4.65,6.21c-1.15-3.83-3.07-5.37-5.81-4.88-1.99.36-3.75,2.86-3.75,5.33,0,2.55,1.89,4.75,4.38,5.11,2.54.37,4.14-.73,5.16-4.01-1.56.76-2.7,1.67-3.95,1.85-3.08.44-4.95-3.83-2.58-5.78,1.79-1.46,3.48-.59,5.1.33,0,.99-.7,2.26,1.45,2.05Z"/>
      <path class="cls-2" d="m169.12,146.56c-2.15.22-1.44-1.06-1.45-2.05-1.62-.92-3.31-1.79-5.1-.33-2.38,1.95-.51,6.22,2.58,5.78,1.25-.18,2.39-1.09,3.95-1.85-1.02,3.27-2.63,4.38-5.16,4.01-2.5-.37-4.39-2.57-4.38-5.11,0-2.46,1.77-4.97,3.75-5.33,2.75-.49,4.66,1.05,5.81,4.88Z"/>
      <path class="cls-3" d="m83.06,59.97c3.81-.82,7.64-1.52,11.41-2.47,9.36-2.35,18.17-.47,26.54,3.7,4.55,2.27,8.75,5.22,13.46,8.08.42-1.99.92-4.09,1.29-6.21,1.17-6.69,3.44-12.88,8.04-18.03.14.14.28.28.42.42-1.86,3.93-3.72,7.87-5.58,11.8-.09.16-.17.31-.18.34.01-.03.08-.2.14-.37,1.31-2.27,2.51-4.61,3.96-6.78.95-1.42,2.27-2.59,3.43-3.87h0c-.46,1.13-.92,2.25-1.38,3.38l.04-.04c-.18.12-.44.19-.54.36-3.86,6.41-6.55,13.31-8.58,20.06,3.9,5.26,7.54,10.15,11.17,15.05l-.05-.05c.98,2.47,2.03,4.91,2.92,7.41.55,1.56,1.22,3.22,1.2,4.82-.08,8.89-.31,17.79-.63,26.68-.03.9-.98,1.76-1.5,2.64,1.04-8.67.12-17.33.61-26.49-2.93,2.62-5.31,4.74-7.42,6.62.32,4.11.68,7.96.9,11.81.09,1.59.84,2.35,2.27,2.72v-11.99c.71,3.13,1.22,6.32,1.01,9.46-.21,3.12.5,5.65,2.68,7.83.17.37.34.75.72,1.59,2.61-3.91,5.96-6.34,9.94-7.96,12.09-4.93,25.17-2.49,32.65,7.4,5.52,7.31,7.01,15.73,5.97,24.69-.14,1.19-.42,2.37-.6,3.34,2.81-1.66,5.53-3.67,8.55-4.95,10.09-4.28,20.56.23,24.73,10.4,4.86,11.85-.06,25.99-11.51,33.11-6.01,3.74-12.72,5.49-19.62,6.06-14.09,1.15-28.22,1.89-42.33,2.8-.89.06-1.92-.21-2.63.16-.71.37-1.69,1.76-1.52,2,2.74,4.05.4,6.64-2.83,9.27,1,.35,1.66.66,2.36.81,13.7,3.06,20.61,14.99,21.63,26.25.86,9.48-.73,18.66-5.01,27.27-.5,1-1.02,1.99-1.38,3.04-.78,2.23-1.39,4.56-4.45,4.79.98,2.84,2.87,3.65,5.09,3.53,1.98-.11,3.93-.75,5.91-.95.91-.09,2.22.02,2.71.59.45.52.17,1.8,0,2.71-.82,4.46-4.25,6.88-7.6,9.22-4.15,2.91-11.35.76-14.07-4.27-.92-1.69-1.2-3.77-1.54-5.71-.31-1.83-.31-3.71-.72-5.54-.57,5.76.12,11.42,1.45,16.99,2.49,10.45,6.75,20.03,14.27,27.93.84.88,1.6,1.87,2.26,2.89,2.31,3.6,1.81,6.49-1.67,8.95-3.91,2.77-8.41,3.99-13.13,4.47-.98.1-1.98.01-2.85.01,0,5.6-.09,10.9.03,16.19.08,3.33,1.88,5.87,4.99,6.84,3.79,1.18,7.74,1.88,11.65,2.64,4.04.79,8.2,1.08,12.13,2.2,2.47.7,4.9,2.2,6.84,3.92,3.22,2.85,2.34,5.98-1.78,7.12-1.38.38-2.85.54-4.28.58-11.68.3-23.1-1.31-34.23-4.89-.73-.23-1.47-.42-2.48-.7-1.49,1.79-2.98,3.57-4.47,5.35-5.56,6.69-12.69,9.93-21.39,9.67-.77-.02-1.56-.16-2.29-.39-3.1-.98-4.31-3.57-2.47-6.23,1.42-2.06,3.41-3.79,5.39-5.37,2.52-2.01,5.29-3.7,7.92-5.57,3.99-2.85,6.04-6.74,6.03-11.67,0-4.77,0-9.55,0-14.51-1.93-.41-3.74-.53-5.34-1.18-2.85-1.16-5.8-2.32-8.28-4.07-2.77-1.96-3.62-4.99-2.38-8.34.42-1.15.81-2.34,1.45-3.37,5.93-9.53,8.78-20.16,11.15-30.96,3.03-13.82,5.52-27.71,6.29-41.9.47-8.57-2.42-16.11-6.03-23.49-1.6-3.27-4.66-5.31-7.83-7.07-13.45-7.44-27.87-11.63-43.12-13.26-11.07-1.18-22.11-2.65-33.16-4-.66-.08-1.33-.18-1.95-.39-2.35-.82-2.66-1.81-1.48-4.01,1.05-1.96,2.03-3.96,2.98-5.97.37-.79.56-1.66.96-2.9-4.81-1.48-8.87-4.14-14.22-4.26-6.35-.15-12.07,1.16-17.75,3.7-2.19.98-4.66,1.39-7.05,1.84-1.59.3-3.17-.09-4.04-1.69-.95-1.75-.66-3.49.43-5.04.82-1.16,1.85-2.18,2.76-3.24-.93-.13-2.21-.03-3.21-.51-1.55-.74-3.3-1.59-4.28-2.91-2.27-3.06-.21-6.74,3.81-7.08,3.05-.25,6.12-.3,9.84-.46-3.11-1.58-5.63-2.73-8.02-4.1-2.09-1.19-3.66-2.89-3.98-5.46-.53-4.26,2.53-7.09,6.58-5.65,2.9,1.03,5.54,2.78,8.27,4.26.76.41,1.44.99,2.5,1.74-1.46-2.67-2.86-4.89-3.9-7.28-.84-1.91-1.54-3.98-1.76-6.04-.36-3.29,2.05-5.11,5.12-3.91,1.48.58,3.07,1.61,3.93,2.9,2.15,3.22,3.94,6.69,5.81,10.09.75,1.36,1.3,2.84,2.04,4.2.95,1.75,2.41,2.89,4.43,3.2.58,1.08-.03,1.69-.92,1.3-1.59-.68-3.3-1.48-4.43-2.71-1.24-1.35-1.84-3.27-2.77-4.91-1.86-3.28-3.63-6.63-5.68-9.79-1.01-1.56-2.55-2.81-5.19-2.22-.68,4.18,1.53,7.43,3.34,10.78,1.8,3.34,3.62,6.67,5.42,10-.26.21-.52.42-.78.63-1.14-.8-2.37-1.5-3.42-2.41-3.54-3.1-7.3-5.85-11.78-7.48-1.42-.51-2.9-.9-3.97.5-1.18,1.55-.81,3.25.38,4.6.86.98,1.97,1.86,3.14,2.41,2.71,1.28,5.53,2.34,8.3,3.48,1.61.67,3.23,1.34,4.77,1.97-.31,2.09-1.68,1.87-2.87,1.93-4.56.23-9.12.47-13.69.68-1.42.07-2.8.29-3.01,1.98-.21,1.69.8,2.91,2.34,3.18,2.05.35,4.19.5,6.25.3,3.31-.32,6.58-1,9.87-1.52l-.04-.05c-2.33,1.6-4.61,3.28-7,4.78-1.59,1-3.44,1.6-4.99,2.64-1.41.95-2.39,2.32-1.27,4.67,1.68-.2,3.45-.18,5.08-.66,2.23-.66,4.41-1.55,6.5-2.59,4.45-2.2,9.13-2.83,13.97-2.23,4.28.53,8.6.95,12.54,3.02.93.49,2.05.65,3.42,1.06.64-2.48,1.2-4.68,1.81-7.02-1.66-1.12-3.24-1.98-4.54-3.15-.91-.82-1.82-1.99-2.06-3.14-.47-2.27-.35-4.66-.69-6.96-.24-1.65.37-2.72,1.51-3.79,1.04-.97,2.21-2.05,2.67-3.32.39-1.07.22-2.7-.37-3.67-.79-1.3-2.41-1.09-3.6-.32-1.48.96-2.92,2.03-4.17,3.27-1.49,1.48-2.76,3.19-4.12,4.8.17-4.87,4.35-9.75,9.08-10.6,3.51-.64,6.55,2.52,5.46,5.92-.49,1.52-1.59,2.88-2.6,4.18-.66.85-1.65,1.45-2.41,2.08.49,2.91.57,5.77,1.54,8.28.6,1.55,2.55,2.57,3.86,3.79,2.43-2.16,2.41-2.1,5.11-.87,12.05,5.5,24,11.24,36.21,16.36,9.95,4.17,20.25,7.49,30.33,11.36,4.25,1.63,8.33,3.69,12.48,5.56l.16.18-.21-.13c-.06-.44-.07-.9-.18-1.32-.71-2.62.05-4.54,2.72-5.47-.95-2.69-3.21-2.66-5.26-2.95-6.72-.96-13.49-1.66-20.16-2.9-10.12-1.89-19.95-4.74-28.71-10.44-9.59-6.24-16.76-14.34-19.04-25.92-1.16-5.93-.9-11.78,2.43-17.12,5.42-8.68,16.54-10.58,24.26-3.84,2.98,2.6,5.24,6.02,7.83,9.06l.21.14-.25-.1c-.13-5.34-.03-10.61,1.58-15.83,5.86-19.01,24.65-24.11,39.32-17.67.49.22.98.45,2.12.97-.41-3.84-.76-7.17-1.15-10.86-1.26.37-1.99.51-2.66.79-7.39,2.99-14.98,2.93-22.63,1.38-1.02-.21-1.94-.94-3.66-1.8,7.33-4.37,14.99-6.13,21.19-10.8-1.49-2.51-3.59-4.03-6.02-4.81-4.12-1.31-8.3-2.53-12.54-3.33-6.7-1.25-13.11,2.32-15.75,8.42-1.09,2.52-2.48,4.92-3.73,7.37l-.05-.04c1.08-7.37,4.42-12.78,9.67-15.9-6.12,1.18-11.13,4.6-16.36,7.92.62-.67,1.17-1.43,1.86-2.01,1.7-1.43,3.58-2.66,5.2-4.18,4.43-4.16,9.83-5.15,15.5-4.48,4.61.54,9.21,1.52,13.68,2.77,3.98,1.12,7.67,3.05,10.12,6.86,2.03-1.1,3.67-2.28,4.51-4.34l-.04.04c.31-.13.7-.18.91-.4,1.96-2.1,4.07-3.17,6.87-.88-9.09-18.1-22.63-29.98-43.09-31.8-8.18-.73-16.42.86-24.33,3.45-1.04.34-2.13.53-3.2.8l.04.05c2.45-1.13,4.89-2.26,7.34-3.39l-.07.04Zm20.08,73.5c.23-.44.45-.89.68-1.33.22-.44.45-.88.67-1.33.22-.44.43-.88.65-1.32.24-.22.48-.45.71-.67.44-.67.88-1.35,1.31-2.02.68-.65,1.36-1.31,2.04-1.96.22-.22.44-.45.67-.67.49-.26,1.02-.46,1.45-.79,4.79-3.77,10.3-5.34,16.28-4.76,9.07.88,16.52,4.44,20.22,13.49.18.43.57.78.99,1.32,2.45-3.79,5.29-6.71,9.25-8.36,4.49-1.87,9.18-2.67,14.02-2.71,6.6-.06,12.24,2.04,16.44,7.37,2.66,3.38,4.53,7.13,5.69,11.25,1.21,4.29.75,8.5-.41,13.33-.44-3.97-.57-7.33-1.23-10.58-1.85-9.13-9.3-16.13-18.17-17.15-5.4-.62-10.79.01-15.75,2.1-5.65,2.38-10.03,6.22-10.7,12.95-.2,1.99-.73,3.95-.92,5.94-.88,9.48,2.74,15.85,11.11,19.15,11.21,4.42,21.4,1.89,30.75-5.11,1.49-1.11,2.66-2.64,3.98-3.98l-.05-.04c-.91,1.59-1.47,3.57-2.77,4.71-8.44,7.43-22.83,10.63-34.36,4.56-4.07-2.14-6.97-5.33-8.95-9.7-2.7,2.99-5.85,4.55-9.31,5.6-5.19,1.59-10.52,2.23-15.86,1.56-8.29-1.03-15.09-4.58-18.71-12.67-1.64-3.66-1.89-7.52-1.67-11.45.23-.89.45-1.77.68-2.66.15-.32.29-.63.44-.95-.08-.03-.16-.06-.24-.09-.05.36-.1.72-.15,1.08l-.68,2.66c-.18,3.74-.4,7.47-.52,11.21-.11,3.09,1.04,5.76,3.54,7.55,2.05,1.46,4.36,2.57,6.59,3.77.77.42,1.64.66,2.47.99-3.83.79-7.44-.37-10.35-3.44-2.36-2.49-4.33-5.36-6.49-8.05-2.09-2.6-3.95-5.45-6.37-7.71-6.93-6.45-17.28-4.88-21.99,3.32-1.18,2.06-1.96,4.53-2.26,6.9-1.07,8.42,1.67,15.84,6.79,22.4,6,7.69,13.93,12.72,23,16.04,12.77,4.67,26.11,6.88,39.57,7.58,22.18,1.16,44.33.07,66.36-2.76,6.54-.84,12.82-2.75,18.28-6.79,8.71-6.43,12.57-18.01,9.16-27.93-2.7-7.85-9.52-12.52-17.47-11.48-7.45.97-12.81,5.29-16.65,11.61-.64,1.06-1.26,2.14-1.88,3.21-.3-.13-.6-.27-.9-.4.39-1.19.68-2.43,1.19-3.57,3.89-8.76,4.1-17.76,1.16-26.71-2.59-7.89-7.99-13.58-16.21-15.46-11.3-2.59-21.23-.1-28.44,9.76-.18.25-.51.39-.89.66-.36-.48-.74-.88-1-1.35-5.35-9.78-13.98-12.93-24.49-11.84-5.17.54-9.94,2.34-13.56,6.39-.22.22-.45.44-.67.66-.66.68-1.32,1.35-1.98,2.03-.44.67-.88,1.34-1.32,2.01l-.71.67-.65,1.32c-.22.44-.45.89-.67,1.33-.23.44-.45.89-.68,1.33-.05.16-.11.32-.16.49.04-.17.08-.35.12-.52Zm28.79,238.9c-.08-.05-.16-.09-.24-.14.09.03.19.07.28.1.26.5.52,1.01.77,1.51-.14.14-.28.28-.42.43-1.2-.65-2.39-1.3-3.95-2.15-3.17,2.49-6.55,5-9.72,7.76-.74.65-1.21,2.23-.97,3.17.16.62,1.78,1.16,2.79,1.22,7.09.44,12.97-2.35,18.07-7.07,1.68-1.56,3.45-3.04,5.11-4.62.45-.43.93-1.08.97-1.66.1-1.4.22-2.89-.13-4.22-1.56-5.79-1.7-11.59-.91-17.51.29-2.14.05-4.36.05-6.49-2.63-1.04-4.18.44-5.93,2.63.69.34,1.57.78,2.05,1.02-.8,1.18-1.28,1.89-1.77,2.6-.32.17-.65.34-.97.51.11.16.23.32.34.49.2-.34.4-.69.6-1.03.78.35,1.55.71,2,.91-.22,2.47-.42,4.65-.64,7.12-.74-.59-1.24-.99-1.74-1.38-.15.22-.3.44-.45.66.88.57,1.77,1.15,2.7,1.75-.29.65-.58,1.33-.89,2.04-.61-.26-1.1-.47-1.6-.68-.09.17-.18.34-.27.51,1.08.65,2.16,1.3,3.8,2.29-1.82.34-3,.56-4.65.87,1.13,1.06,1.94,1.81,2.74,2.56l-.2.66c-1.02-.14-2.04-.28-3.47-.47,1.1.85,1.92,1.48,2.97,2.29-1.32,1.14-2.48,2.14-3.88,3.35,0,.05.03.63.07,1.41-1.03-.18-1.78-.31-2.52-.44Zm7.86-119.75c-.22,3.68-.17,7.03-.67,10.3-1.58,10.45-3.09,20.93-5.12,31.3-2.27,11.6-5.3,23.02-11.62,33.25-.46.75-.69,1.64-1.04,2.46-.96,2.27-.28,4.19,1.45,5.71,1.07.94,2.29,1.84,3.6,2.36,5.76,2.27,11.7,2.66,17.69,1.07,2.83-.75,4.04-2.44,4.13-5.36.03-.89-.09-1.78-.19-2.67-.89-7.96-1.84-15.92-2.68-23.89-.39-3.73-.57-7.49-.84-11.23.21-.02.41-.04.62-.06,2.18,13.08,4.37,26.17,6.61,39.61,2.47-.31,5.18-.33,7.71-1.04,2.97-.83,5.9-2.01,8.6-3.5,2.3-1.27,2.44-2.81,1.05-5.06-.76-1.22-1.66-2.38-2.6-3.47-12.08-14.03-16.31-30.52-15.55-48.68.28-6.65.05-13.31.05-20.06-.53-.08-.96-.18-1.38-.2-.34-.02-.69.05-1.2.1,2.36,2.43,2.59,4.95.76,6.54-1.4,1.23-4,1.13-5.06-.45-.62-.92-1.06-2.35-.81-3.36.26-1.06,1.43-1.9,2.38-3.05-1.96-.2-3.8-.39-5.87-.61Zm8.1-114.73c-1.38-2.12-2.47-4.08-3.81-5.83-5.51-7.22-12.79-10.58-21.84-9.13-8.26,1.32-13.7,6.63-17.22,13.86-4.72,9.67-.56,20.09,9.37,24.27,5.86,2.47,11.97,2.58,18.01,1.33,3.63-.75,7.16-2.28,10.55-3.84,1.92-.89,3.27-2.65,3.03-5.12-.5-5.28.41-10.41,1.91-15.53Zm14.32,226.71c-.19.1-.38.2-.58.3.07.94.15,1.88.22,2.83-.24.04-.49.08-.73.11-.36-1.17-.71-2.35-.9-2.96-2.56-.81-4.7-1.49-7.06-2.23-.08-.53-.19-1.25-.3-1.96-.72-.03-1.33-.06-1.46-.07-.64-2.89-1.2-5.42-1.76-7.95-.19.03-.38.07-.58.1.5-2.03,1-4.07,1.51-6.16-.24-.05-.73-.17-1.53-.35,1.44-1.82.06-4.54,2.57-6.01.44-.26.03-1.99,0-3.41-2.3,2.09-4.07,3.7-6.01,5.45-.21,9.26-1.73,18.87,2.29,28.28,0,0,.29.18.61.23,7.26,1.1,14.5,2.4,21.8,3.19,4.84.53,9.76.39,14.64.38,1.06,0,2.12-.73,3.69-1.3-4.76-6.08-11.23-5.88-17.13-7.01-.76,1.15-1.42,2.13-2.13,3.2-1.13-.43-2.04-.77-2.68-1.01-.91-.99.84-3.23-1.82-2.87.16.7.3,1.36.45,2.01-.15.08-.3.15-.45.23-.89-1.01-1.79-2.02-2.68-3.02Zm-26.8-149.38c-3.28-1.5-6.76-3.09-10.54-4.81.35,3.68.64,6.83.9,9.5,2.87,2.95,5.54,5.73,8.27,8.46.61.61,1.36,1.28,2.15,1.45,3.9.82,7.81,1.86,11.77,2.09,5.17.3,7.43-1.86,8.49-6.95.95-4.57.26-5.88-4.03-7.54-.6-.23-1.23-.4-1.8-.59-2.66,3.96-5.09,4.92-9.79,3.97-3.92-.79-4.57-1.43-5.43-5.58Zm-81.21-33.81c-2.41,7.21-4.71,14.09-7.1,21.25,3.9.51,8.01,1.04,12.12,1.58,3.31-5.55,4.95-11.3,5.63-17.48-3.69-1.85-7.14-3.58-10.65-5.34Zm60.53-72.82c0,.26.01.53.02.79,3.97,0,7.95.02,11.92,0,7.55-.05,13.78-3.1,19.01-8.43,3.05-3.11,3.05-4.6-.22-7.37-.73-.62-1.62-1.04-2.63-1.67-7.45,9.11-17.36,13.63-28.1,16.69Zm-54.03,95.97c4.83.46,9.09.87,13.29,1.28,2.06-4.51,3.18-8.74,3.23-13.39-3.61-1.65-7.1-3.24-10.87-4.96-1.09,6.08-2.06,11.66-5.65,17.07Zm78.55,40.06c4.02,1.34,8.18,1.67,12.42.29.52-4.17,1.01-8.05,1.54-12.29-6.24,1.83-11.7.23-17.15-1.23,1.07,4.44,2.06,8.53,3.19,13.23Zm14.55,29.55c.99,4.89,1.13,9.48,3.8,13.36,2.24,3.26,6.56,4.78,9.9,3.67.24-.08.4-.43.64-.71-.93-.24-1.73-.45-2.83-.74q6.71-1.86,8.48-3.7c-2.41.42-4.6.81-6.79,1.19,2.71-2.24,6.77-2.18,8.77-6.18-1.83.38-3.21.71-4.6.95-4.39.78-7-.43-9.18-4.1-.36-.61-.94-1.25-1.57-1.5-1.94-.77-3.95-1.36-6.63-2.25Zm15.68-11.16c.77-3.78,1.53-7.53,2.3-11.33-3.81-1.09-7.26-2.07-10.65-3.04-1.69,3.46-3.38,6.93-5.22,10.7,4.12,2.16,8.21,4.25,13.57,3.67Zm-81.21-55.25c1.48-3.17,2.9-6.02,2.77-9.55-4.05-1.67-8-3.29-11.87-4.89-.97,4.41-1.87,8.55-2.82,12.88,3.9.51,7.73,1.01,11.92,1.56Zm65.27,64.04c3.13,1.64,5.97,3.18,9.34,2.86.88-.08,2.16-.51,2.47-1.16,1.26-2.62,2.22-5.39,3.1-7.63-4.93-1.81-9.34-3.42-14.16-5.19-1.92,3.29.51,7.32-.74,11.12Zm-.43-13.74l.88.21c1.34-2.79,2.8-5.53,4.01-8.37,1.56-3.7,2.81-7.51,2.68-11.61-.12-3.73-1.68-5.75-5.79-7.17-.6,9.06-1.19,18.01-1.78,26.95Zm-62.83-50.04c3.97.84,7.84,1.66,12.23,2.58.54-2.64,1.01-4.95,1.53-7.5-3.87-1.44-7.35-2.74-10.84-4.04-1.02,3.14-1.91,5.87-2.91,8.96Zm71.21,38.71c3.27,2.19,6.63,2.68,10.32,2.77.31-3.54.56-6.78-.37-9.8-3.02.51-5.7.96-8.61,1.45-.4,1.66-.83,3.46-1.33,5.59Zm-55.74-43.09c-.59,2.75-1.09,5.09-1.63,7.59,3.29,1.19,6.46,2.34,9.82,3.56.72-2.95,1.71-5.45.23-8.31-2.68-.91-5.48-1.85-8.42-2.84Zm9.8,11.93c2.66,1.29,5.54,2.69,9.14,4.44-.53-3.94-.95-6.99-1.38-10.2-2.31-.86-4.56-1.69-6.96-2.58-.26,2.75-.49,5.15-.79,8.35Zm36.29-8.46c-5.04,2.54-10.19,1.38-15.42.83-.74,2.31-.04,3.91,1.92,4.79,3.76,1.7,7.54,1.78,11.13-.52,1.77-1.14,2.96-2.62,2.36-5.1Zm16.67,24.02c-2.27,1.01-4.34,1.94-6.54,2.93.38,1.66.79,3.46,1.19,5.22,3.03.47,6.3-.23,7.13-1.74,1.16-2.11-.7-3.72-1.21-5.56-.08-.3-.36-.54-.57-.84Zm-16.78,15.73h-12.41c.05.95.1,2.11.17,3.54,3.98.42,7.64,1.9,11.65,1.01.22-1.66.4-3.08.59-4.55Zm15.75-18.23c-1.57-1.9-3.08-3.73-4.59-5.55-.28,3.38-2.02,5.51-4.43,7.19,3.35,3.18,5.93,2.77,9.02-1.63Zm-29.49-25.07c.5,1.08,1,2.15,1.58,3.4,2.48,0,4.9-.03,7.31,0,2.32.03,3.81-1.12,5.18-3.41h-14.08Zm10.19,12.57c-3.56-.22-7.02-.44-10.51-.66-.66,2.04.77,2.59,2.36,3.04,3.97,1.13,6.26.43,8.14-2.39Zm8.63,13.05c3.33-1.74,4.09-2.99,3.86-6.06-.13-1.76-.91-2.7-2.27-2.84-.56,3.14-1.09,6.09-1.59,8.9Zm-7.51,28.14c-1.09-1.05-1.85-2.32-2.46-2.25-.77.09-1.96,1.27-1.96,1.98,0,.72,1.12,1.73,1.96,2.04.44.16,1.33-.92,2.46-1.77Zm-17.24,112.37c-.09.08-.16.15-.24.21.14.05.28.09.42.14.02-.1.08-.21.05-.28-.02-.05-.16-.06-.22-.07Zm37.07-3.77c-.06.07-.12.14-.18.21.12.05.24.1.36.16.03-.09.1-.2.07-.25-.04-.06-.16-.08-.25-.11Zm-31.39-13.03c-.05-.07-.08-.17-.15-.2-.04-.02-.13.07-.2.11l.25.32c.03-.08.07-.15.1-.23Zm-.47-9.61l.02-.22-.25.09.23.13Z"/>
      <circle class="cls-6" cx="128.99" cy="140.45" r="1.12"/>
      <circle class="cls-6" cx="168.03" cy="145.29" r="1.27"/>
    </g>
  </g>
</svg>