<?xml version="1.0" encoding="UTF-8"?>
<svg id="Layer_2" data-name="Layer 2" xmlns="http://www.w3.org/2000/svg" viewBox="0 0 190.35 315.1">
  <defs>
    <style>
      .cls-1, .cls-2, .cls-3, .cls-4, .cls-5, .cls-6, .cls-7, .cls-8, .cls-9 {
        stroke-width: 0px;
      }

      .cls-2 {
        fill: #43000c;
      }

      .cls-3 {
        fill: #11a64a;
      }

      .cls-4 {
        fill: #23b583;
      }

      .cls-5 {
        fill: #e188b8;
      }

      .cls-6 {
        fill: #a03289;
      }

      .cls-7 {
        fill: #71c070;
      }

      .cls-8 {
        fill: #fff;
      }

      .cls-9 {
        fill: #027d5e;
      }
    </style>
  </defs>
  <g id="Layer_1-2" data-name="Layer 1">
    <g>
      <path class="cls-9" d="m151.41,257.77c-.44,1.05-2.75,3.28-4.38,4.24-2.57,1.49-7.75,2.89-14.38,3.83-1.9.29-3.65.67-3.86.82-.62.53-4.59,11.72-4.59,13.01,0,.5.26.79,1.02,1.17,2.6,1.32,9.59,1.7,11.25.65,2.1-1.35,8.68-9.77,12.83-16.43,2.33-3.68,4.57-7.59,4.57-7.92,0-.12-.47-.18-1.05-.18-.92,0-1.1.09-1.42.82Zm-44.21,23.07c1.64.7,5.03,1.14,8.39,1.02,2.66-.12,3.1-.18,4.53-.91,1.49-.76,1.61-.85,2.31-2.6,1.17-2.92,3.6-10.32,3.6-11.02s-.23-.79-4.47-1.05c-6.49-.47-9.24-1.49-9.97-3.68l-.32-.94-1.72.06c-.97.03-3.25.15-5.03.21l-3.3.15.09.9c.12,1,2.55,10.96,3.42,13.95.77,2.6,1.27,3.36,2.49,3.92Z"/>
      <path class="cls-2" d="m134.95,94.18c.85.26,4.03.29,4.59.09.47-.18.53-1.2.15-1.96-.36-.61-.44-.61-1.43.06-.76.42-1.55.77-2.37,1.05-1.4.53-1.49.61-.94.76Zm-11.43.12c.27-.13.4-.45.29-.73-.2-.44-.36-.47-1.32-.26-1.52.32-1.93.67-2.63,2.22-.41.88-.65,1.64-.59,1.72s.97-.5,1.96-1.26,2.05-1.54,2.28-1.7Z"/>
      <path class="cls-8" d="m150.24,65.18c.2-.36.7-4.82.73-6.56,0-.36-.09-.67-.18-.67-.15,0-1.46.82-2.95,1.84-1.97,1.28-4.01,2.45-6.11,3.51-1.84.96-3.36,1.78-3.36,1.87,0,.36,1.09,2.19,1.32,2.19.12,0,.44-.36.67-.82.55-1.05,2.92-3.57,3.8-4.04.65-.32,1.58-.47,2.92-.41.99.03,2.25,1.2,2.63,2.43.25.81.4.98.54.66Zm-12.15,25.4c-.41-.5-2.46-.47-2.95.06-.44.41-.58,1.99-.26,2.28.2.24,2.13-.76,2.9-1.46.47-.38.53-.62.32-.88Zm-7.9,3.22l3.19.15v-3.14l-1.09-.2c-1.14-.23-2.26-.55-3.36-.93-.9-.33-1.83-.59-2.78-.76-.67.08-1.29.39-1.75.88-.23.36-.26,2.16-.06,2.98.23.65.78.77,5.86,1.03Zm-7.88-1.26c.55-.06.76-.23.79-.82.12-.91-.53-.97-1.09-.12-.6.82-.51,1.02.31.93Zm-2.78-19.79c.12-.09.2-.61.2-1.2,0-.82-.09-1.02-.44-.99-.26,0-2.37.47-4.68,1.05s-5.62,1.25-7.34,1.55c-5.26.88-15.73,1.99-23.04,2.49-1.4.12-2.66.32-2.75.47-.29.5,1.49,1.72,4.77,3.36,3.05,1.54,6.31,2.6,9.68,3.16,2.02.32,9.5.47,9.77.2.12-.09.29-1.02.41-2.08.32-2.52.99-3.8,2.86-5.61,2.72-2.57,5.7-3.48,8.77-2.69.58.19,1.18.29,1.78.29Z"/>
      <path class="cls-5" d="m129.05,88.68c2.55.82,2.75.85,5.93.67l3.3-.15.73.73c.55.69,1,1.46,1.32,2.28.79,1.9.91,1,.15-1.02-.88-2.34-1.46-2.72-4.85-3.04-1.77-.2-3.53-.52-5.26-.94-.91-.29-1.83-.51-2.78-.67-.73,0-3.51,1.52-4.3,2.4l-.79.85,1.14-.82c1.72-1.22,2.4-1.25,5.41-.29Zm-.26,6.4c-3.16-.15-4.36.12-6.7,1.49-1.2.7-2.81,2.22-2.6,2.43.4.03.8-.03,1.17-.18.58-.12,4.82-.32,9.44-.44,8.95-.18,8.97-.18,10.47-1.55,1.29-1.23,1.05-1.29-4.09-1.46-2.65-.09-6.08-.2-7.69-.3Zm-.8,212.42c-1.64-.41-6.08-2.28-8.02-3.33-.79-.47-1.93-1.09-2.52-1.46l-1.09-.62-.5,1.09q-1.02,2.22.36,2.69c1.46.44,6.84,1.99,12.69,3.6,3.62,1,4.38,1.11,6.96,1.11,2.28.03,3.07-.06,3.74-.44,1.72-.94,1.28-1.72-1.82-3.22l-1.58-.73-2.55.82c-2.8.95-3.71,1.01-5.67.49Zm-13.13-.67c.2.29,3.19,1.2,4.74,1.43,1.61.23.5-.32-2.08-1.09-2.28-.66-2.89-.72-2.67-.34Zm-2.89.29c-1.32,1.4-3.31,2.86-3.86,2.86-.32,0-1.58-.59-2.84-1.32-2.57-1.49-3.39-1.64-4.38-.61-1,1.09-2.16,3.28-2.16,4.09,0,1.09.7,1.32,4.18,1.2,2.37-.09,3.3-.21,4.24-.67,1.67-.73,3.16-2.13,4.59-4.33,1.34-1.98,1.43-2.48.23-1.22Z"/>
      <path class="cls-6" d="m100.84,135.93c0,1.05.09,1.55.32,1.55,1.02,0,5.9-.82,7.69-1.29,2.72-.76,6.05-2.34,7.19-3.51l.85-.91-.41-1.28c-.2-.66-.49-1.28-.85-1.87-.47-.67-.29-.7-5.35.23-5.64,1.05-8.86,1.55-10.15,1.55-.61,0-1.2.12-1.28.26s.18.64.55,1.14c1.05,1.23,1.43,2.31,1.43,4.12Zm-3.95,0c.16.74.2,1.5.12,2.25-.23,1.49.06,1.46,1.43-.06.88-1,1.09-1.43,1.09-2.25,0-1.36-.62-2.64-1.7-3.48-1.3-.97-3.05-1.06-4.44-.23-.44.23-.41.29.32.41,1.09.26,2.79,2.05,3.17,3.36Zm-1.14,3.77c-.12,0-1.78,1.43-3.68,3.19s-3.57,3.18-3.74,3.18c-.15-.15,1.82-2.55,4.94-6.02,2.25-2.51,2.75-3.39,1.9-3.71-1.52-.58-6.46.96-10.23,3.19-5.09,3.04-9.53,7.72-13.15,13.89-.76,1.34-2.37,4.5-3.54,6.98s-2.8,5.88-3.65,7.52-1.52,2.98-1.52,3.07c.2.18,5.88-2.4,8.39-3.77,3.39-1.9,5.64-3.62,8.89-6.87,3.33-3.28,5.61-6.11,10.32-12.72,3.79-5.32,5.34-7.69,5.08-7.92Zm-8.33,7.78c-.15,0-.18-.15-.12-.26.09-.18.2-.26.29-.26s.12.09.12.26c-.02.15-.15.26-.29.26Zm-17.89,6.81c1.61-3.39,3.3-5.9,6.08-9.18,1.17-1.37,2.02-2.52,1.87-2.57s-1.61.62-3.36,1.46c-3.58,1.86-6.98,4.03-10.17,6.49-2.48,1.99-2.37,1.93-2.02,1.32.96-1.78,7.57-6.78,11.81-8.92,3.83-1.93,12.01-5.47,14.35-6.2,1.28-.41,3.3-.96,4.44-1.23s2.13-.58,2.19-.73-.26-.47-.7-.73c-1.09-.65-2.92-.56-7.13.36-12.22,2.55-21.55,5.64-25.87,8.57-4.18,2.83-5.99,6.49-10.03,19.79-2.25,7.45-3.01,9.56-3.62,10.29-1,1.05.47.58,4.74-1.58,5.29-2.72,10.5-5.83,12.07-7.16,1.09-1.01,1.25-1.33,5.35-9.98Z"/>
      <path class="cls-4" d="m130.04,146.33c-.88.18-.73.53.36.73s1.29.09,1.09-.53c-.2-.38-.38-.41-1.46-.2Zm-6.96-2.17c1.17.26,1.29-.2.76-2.63-.79-3.57-.41-5.93,1.02-6.32.62-.15.85-.06,1.52.7l.76.85-.09,3.57c-.09,3.04-.06,3.57.29,3.65.58.12,2.63-1.72,2.63-2.37,0-.73-2.25-4.94-3.25-6.08-.73-.85-1.09-1.02-3.18-1.46-1.29-.29-2.55-.53-2.69-.53-.26,0-.36.65-.36,2.4,0,1.46-.09,2.91-.26,4.35-.12,1.02-.18,2.05-.09,2.25.19.48,1.86,1.38,2.94,1.62Zm-6.2,19.58c-1.52.03-5.88,1.29-6,1.72.29,1.07.66,2.11,1.09,3.13l1.11,2.87h1.77c1.31,0,1.84-.09,2.02-.38.82-1.52,2.31-5.17,2.31-5.61-.03-.42-.17-.82-.41-1.17-.34-.49-.61-.56-1.89-.56Zm2.57-19.19c0,.7.47.99,2.49,1.49,2.08.53,2.78,1.09,2.78,2.19-.05.49.26.95.73,1.09.96.47,1.72,2.08,1.52,3.19-.06.47-.85,2.02-1.72,3.45-1.46,2.45-1.93,3.86-1.35,4.21.15.09,1.2-.15,2.31-.53,2.63-.82,4.01-.85,4.74-.06.93,1.02.88,2.45-.18,3.6-.67.7-.91.79-2.17.79-.96-.02-1.9-.15-2.83-.36-2.02-.55-3.33-.5-3.65.09-.26.5.18,6.02.47,6.43.12.09,2.34-.06,4.97-.36l4.77-.59v-17.28l-1.09-.47c-.94-.49-1.84-1.06-2.69-1.7-1.17-.93-1.67-1.17-2.13-1.05-.73.18-.85-.18-.26-.64.41-.38.73-.27,3.39,1.37,1.9,1.14,2.55,1.2,2.55.29,0-.53-.29-.85-1.25-1.4-1.67-1.05-2.69-1.84-2.69-2.17s.15-.36,1.78-.76c1.2-.32,1.4-.79.73-1.72q-.36-.53-1,.03c-1.46,1.32-2.92,1.46-3.33.29-.15-.32-.18-1.84-.12-3.36.09-1.96,0-2.89-.23-3.39-.18-.32-.45-.58-.79-.73-.79-.15-1.09.94-.85,3.07.09,1.09.2,2.78.23,3.71l.03,1.7-.96.09c-.79,0-1.58-.15-2.31-.44-1.67-.7-1.87-.7-1.87-.06Zm2.37,18.07l3.8.18c3.62.18,3.83.18,4.33-.36.7-.7.73-2.02.06-2.37-.79-.41-1.55-.32-3.6.38-2.31.82-2.86.82-3.42,0-.5-.76-.47-.91,1.35-4.88,1.52-3.19,1.7-4.12,1.02-4.8-.63-.57-1.6-.53-2.19.09-.53.53-1.34,2.84-1.34,3.74,0,.79-.82,2.52-1.26,2.69-.64.26-1.64-.67-2.92-2.75-1.4-2.25-2.31-3.01-3.28-2.78-1.99.5-.36,3.54,2.75,5.15,2.05,1.05,2.34,2.37.85,3.68l-.96.85-4.01-.15-3.97-.13.24.82c.09.3.18.6.23.91.18.22.38.42.58.61.73.67,1.9.67,4.35,0,3.75-1.05,5.5-.53,5.76,1.82.09,1.02-.03,1.49-.82,3.01-.53.99-.96,2.05-.96,2.34,0,.44.15.47,1.02.29,1.58-.26,1.7-.53,1.64-3.62-.03-1.99.09-3.07.36-3.74l.39-.97Zm-18.92-11.75c.55,0,.82-.5.82-1.55s.41-2.08.97-2.19c.26-.09,1.11-.2,1.93-.32.82-.06,1.72-.32,1.99-.56.44-.36.36-.36-1.09-.29-.88.09-1.78.03-2.02-.12-.55-.29-.55-1.17-.06-2.05.59-1.02.5-1.82-.23-1.99-.93-.2-1.14,0-1.28,1.35-.18,1.82-.62,1.87-2.22.36-.88-.85-1.55-1.29-2.02-1.29-1.09,0-.79.67.91,1.72,2.4,1.52,2.05,1.78-.85.59-2.13-.88-2.63-2.02-1.23-2.81.93-.53,1.9-.2,3.28,1.09,1.14,1.02,1.17,1.05,1.17.41,0-.48.06-.96.15-1.43.15-.76.12-.82-1.58-1.49-.7-.31-1.44-.55-2.19-.7-.64.03-2.72,1.58-3.65,2.78s-2.45,3.57-2.45,3.83c0,.44,1.25.41,2.6-.03,1.55-.55,3.45-.7,3.45-.26,0,.12-.2.26-.44.26-.52.04-1.03.15-1.52.32l-1.05.26.88.36c.79.36,1.09.32,2.66-.15,2.02-.64,2.37-.67,2.37-.29,0,.15-.53.5-1.2.79-1.35.56-1.4.82-.58,1.58s1.34.64,2.05-.61c.76-1.32,1.05-.79.41.73-.59,1.27-.56,1.68.05,1.68Zm3.95,6.55l1.72,2.95,4.38-.09c3.18-.06,4.44-.18,4.76-.44.85-.7.5-1.26-1.31-2.48-2.37-1.58-3.71-2.98-3.92-4.18-.15-.82-.03-1.05.67-1.78s.96-.82,1.93-.7c1.35.18,2.37,1.17,3.48,3.36.47.93,1.05,1.87,1.28,2.05.47.41.94.18.94-.47,0-1.11,1.05-4.33,1.96-5.94.55-.93.91-1.9.85-2.1-.2-.47-1.82-.9-3.51-.9-1.11,0-1.4.09-1.67.53-.15.29-.44.49-.76.53-.26,0-2.66-1.14-5.35-2.51-2.63-1.35-4.94-2.48-5.06-2.48s-.41.26-.61.58-.55.88-.79,1.23l-.38.64,1.84-.2c2.11-.2,2.57.06,2.4,1.35-.06.82-.53.96-3.39,1.25q-1.52.18-1.67,1.14c-.13.72-.31,1.43-.53,2.13-.36,1.14-.36,1.23.36,2.4.35.7,1.43,2.55,2.36,4.15Zm45.84,29.97c-.47-.73-1.35-.12-2.78,1.99-.55.8-1.16,1.56-1.82,2.28l-.9.97,1.67,1.58c1.7,1.58,3.01,2.25,4.21,2.05,1.67-.2.09-2.05-1.78-2.05-1.23,0-2.69-.64-2.69-1.23,0-.26.79-1.26,1.75-2.16,1.79-1.78,2.58-2.99,2.35-3.42Zm-8.77-5.62c-.73,1.46-.5,4.85.53,7.22.62,1.4.88,1.55,1.11.67.64-2.57.36-6.84-.55-7.86-.53-.59-.79-.59-1.08-.03Zm-29.12,20.61c.06,2.34.32,2.72,1.23,1.82.67-.67.67-1.37,0-2.83-.9-1.86-1.31-1.52-1.23,1.01Zm-1.26-10.64c.23-.26.32-.61.23-.7-.15-.29-.64-.29-1.05-.03-.27.15-.27.32.03.73q.41.5.79,0Zm-4,2.69c-.65.25-1.33.44-2.02.55-2.25.47-3.48.99-4.21,1.9-1.23,1.46-.7,2.84,1.09,2.84.88,0,1.52-.41,3.57-2.28,1.67-1.49,2.16-1.67,3.07-.93.47.36.76,1.23,1.28,3.6.41,1.72.82,3.16.97,3.22.2,0,.47-1.2.73-3.25.26-1.84.59-3.48.73-3.62s1.09.2,2.72,1.05c1.75.91,2.87,1.29,3.86,1.37,1.72.15,3.36-.44,3.36-1.2,0-.93-.73-1.2-3.92-1.37-3.42-.18-4.47-.59-5-1.82-.58-1.37-.2-1.99,2.22-3.45,1.23-.76,2.37-1.52,2.52-1.75.44-.5.15-.44-2.37.44-1.58.55-2.49,1.09-3.28,1.82-1.55,1.52-2.02,1.58-3.16.44-.85-.85-1.87-1.17-2.34-.73-.09.09.09.55.36,1.02.63.97.54,1.78-.19,2.17Zm-9.97,3.96l.41-1.32h-1.09c-1.72,0-1.87.26-.94,1.52.44.61.88,1.09,1,1.09s.39-.57.63-1.3Zm-4.74-.73c.36.06.88.59,1.37,1.43.97,1.64,1.09,1.75,1.46,1.52.18-.09,0-.61-.53-1.55-1.2-2.13-1.14-2.31,1.31-2.63.56-.08,1.1-.24,1.61-.5.5-.36,1.11-1.49.94-1.66-.09-.06-1.09.36-2.22.99-1.78.97-2.17,1.09-2.52.79-.53-.44-.36-.82,1.82-3.51.66-.81,1.26-1.67,1.78-2.57.32-1.32-1.02.06-2.57,2.63-.53.88-1.14,1.58-1.35,1.58s-.36.12-.23.24c.06.15-.23.82-.67,1.52-.94,1.5-.94,1.62-.22,1.72Zm8.89,27.2c0,.73,2.52,2.63,2.9,2.25.47-.47.03-1.37-.76-1.78-.97-.47-2.14-.73-2.14-.47Zm-10.79-10.93c.85,1.28,1.32,1.6,1.32.9,0-.29,2.1-6.99,3.68-11.75.2-.64.12-.76-.67-1.23-.67-.41-1.14-1-1.64-2.13l-.7-1.55-.59.95c-1.4,2.31-2.22,4.38-3.25,7.87l-1.04,3.72,1.05.96c.7.67,1.31,1.43,1.83,2.25Zm-.53,5.7c.23-.06.55-.56.76-1.14.29-.96.26-1.14-.53-2.69-.43-.91-.96-1.77-1.58-2.57-1.23-1.37-1.31-1.29-1.93,1.29-.36,1.64-.36,1.82.06,2.55.62,1.02,2.69,2.65,3.22,2.56Zm2.57,5.5c1.63-.58,1.78-1.14.55-2.13-.32-.32-.71-.56-1.14-.7-.47,0-1.4,3.01-.99,3.25.12.06.82-.12,1.58-.41Zm.12,6.64c.47,0,.88-.73,1.78-3.1.96-2.52,1.37-2.95,2.66-2.95s2.63,1.29,4.09,3.95c1.09,1.96,2.02,3.1,2.25,2.69.15-.62.25-1.26.29-1.9l.18-1.72-1.71-1.52c-1.17-1.05-1.7-1.7-1.7-2.13,0-.76.53-.91,2.66-.76l1.7.15.7-1.05c.4-.63.91-1.2,1.49-1.67.44-.32.79-.67.79-.79,0-.27-1.64.32-3.3,1.17-2.72,1.4-4.41,1.43-5.09.15-.47-.82.24-2.37,2.11-4.68,3.3-4.07,3.92-5.03,3.92-5.91.02-.46-.12-.92-.41-1.28-.53-.56-.85-.53-1.84.06-1.37.85-2.63,3.01-4.21,7.22-1.43,3.92-2.83,4.7-5.44,3.04-1.43-.9-1.49-.9-1.49-.36,0,.26.53,1,1.2,1.7.61.7,1.23,1.58,1.32,1.99.23.82-.12,1.17-2.52,2.55-1.52.88-2.48,2.19-2.25,3.01.16.56,2.26,2.17,2.82,2.17Zm-5.91-1.05c-.67,0-1.7,1.49-1.93,2.75-.18,1.23.32,3.15.82,3.15.32,0,1.14-2.78,1.34-4.56.15-1.11.12-1.35-.23-1.35Zm13.33-.79c-.53-1-1.15-1.94-1.87-2.81-1.4-1.52-1.84-1.23-2.95,2.05-.41,1.2-.93,2.55-1.09,2.95-.32.73-.32.79,1.2,2.19,2.78,2.45,6.14,3.83,7.45,3.01.32-.23.82-1.7.82-2.46,0-.26-.53-1.02-1.23-1.72-.9-.97-1.68-2.05-2.33-3.21Zm7.66,4.91c-.93,2.08-.93,4.1,0,4.21.44.06.64-.06.76-.53.09-.98.11-1.97.06-2.95l-.06-2.37-.76,1.64Zm8.22,14.26c.2-.47.28-.98.26-1.49,0-1.35-.7-1.99-2.72-2.55-.73-.2-1.72-.47-2.16-.55l-.88-.18v3.62l1.55.73c1.72.84,3.6,1.01,3.95.42Zm68.76-21.24c-.88-.47-1.67-.76-1.75-.7-.22.58-.39,1.17-.5,1.78-.36,1.87-.88,2.75-1.84,3.1s-2.45-.36-2.8-1.35c-.36-1.05,0-1.9,1.46-3.51,1.32-1.43,1.35-1.49.88-1.99s-1.49-.94-4.45-1.82c-2.4-.7-3.51-1.4-3.95-2.48-.28-.53-.32-1.16-.12-1.72.53-1.46,1.72-1.32,4.38.5,1.6,1.05,4.62,2.63,5.05,2.63s-.12-.85-2.95-4.68c-1.4-1.9-2.84-3.57-3.16-3.68-.76-.23-1.55-.4-2.34-.5-1.37-.2-2.22-.55-3.68-1.49-.64-.41-1.3-.78-1.99-1.09-.06.03.41,1.17,1.02,2.51,1.35,3.04,1.55,4.21.79,4.97-.82.79-1.72.94-2.83.36-1.23-.61-1.82-1.78-2.31-4.44-.5-2.52-.85-3.45-1.49-3.77-.51-.36-1.21-.31-1.67.12-.67.47-.62.58,2.92,6.23s3.75,5.91,5.44,6.4c.73.2,1.4.55,1.99,1.02.79.82.96,2.43.44,3.98l-.41,1.23,2.28,4.47c1.26,2.45,2.43,4.53,2.63,4.56,1.14.47,8.71-6.31,10.17-9.12q.36-.69-1.21-1.51Zm-8.83-7.31c-1.55-.88-2.89-1.64-2.98-1.64-.44,0-.5,1.09-.12,1.7.55.85,1.84,1.46,4.68,2.34,1.72.53,2.4.85,2.92,1.49.32.33.56.73.7,1.17,0,.2-.61,1.09-1.31,1.99-1.46,1.84-1.58,2.49-.47,3.13,1.02.55,1.55.12,2.11-1.75,1.05-3.3,1.09-3.36,2.6-2.55l.85.44-1.2-1.67q-1.35-1.87-3.45-2.49c-.84-.25-2.77-1.21-4.32-2.15Zm-3.33,16.4c-1.37-2.66-2.75-5.32-2.98-5.67-.18-.26-.94,0-3.45,1.29-1.75.88-3.28,1.52-3.36,1.43-.23-.23.2-.55,2.84-2.19,1.34-.79,2.55-1.7,2.72-1.96.23-.36.15-.76-.44-1.85-.36-.69-.76-1.35-1.2-1.99l-.5-.64-.64,1.02c-.36.55-1.05,1.72-1.55,2.55-.61,1.01-1.31,1.96-2.1,2.84-1.4,1.52-2.31,1.64-3.22.41-.53-.7-.56-1.05-.56-7.1,0-5.55-.06-6.46-.47-7.19-.23-.43-.56-.81-.96-1.09-.28-.15-.59-.24-.91-.26-.47,0-1.4,1.17-1.67,2.05-.29,1.26.2,5.29,1.09,8.83,1.09,4.27,1.17,5.79.36,6.84-1.32,1.67-3.54,1.84-8.42.55-3.77-.99-3.6-1.09-2.92,1.49l.36,1.67,1.9-.23c1.05-.09,3.07-.18,4.5-.18,2.92-.03,4.04.36,4.94,1.61l.53.7-.82,3.36c-1,4.01-1.05,5.03-.26,5.99.5.62.7.7,1.75.59,1.82-.23,2.48-1.05,2.63-3.28.01-1.32-.09-2.64-.29-3.95-.44-2.31-.36-3.07.29-3.83.59-.67,1.87-.56,5.47.61,1.82.58,3.68,1.05,4.12,1.05,1.84,0,2.51-1.4,1.46-2.95-.82-1.09-1.96-1.49-5.29-1.82-1.61-.12-3.01-.29-3.19-.41-.65-.36,1.09-.56,4.12-.36,3.01.23,3.39.3,4.24.94.52.39.96.88,1.28,1.43.62,1.17.59,2.43-.23,3.3-1.35,1.43-2.55,1.4-7.07-.24-1.4-.53-3.04-.93-3.6-.93-.93,0-1.02.06-1.02.73.1,1.09.28,2.18.53,3.25.67,3.13.67,3.74-.03,5.17-1.02,2.08-3.65,3.13-5.29,2.08-1.82-1.23-2.02-3.07-.73-7.22,1-3.25,1.02-3.8.12-4.5-1.05-.82-3.62-.73-8.07.29l-1.26.29.12,1.14c.06.64.88,4.33,1.78,8.24l1.7,7.13,1.32-.2c4.35-.55,9.91-2.28,14.15-4.33,3.38-1.59,6.51-3.66,9.29-6.14l2.08-1.82-.36-.93c-.2-.46-1.52-3.03-2.83-5.6Zm-14.5-36.43c2.4,3.48,2.81,4.21,2.81,5.2,0,.88-.7,1.82-2.08,2.69-.55.36-.55.47-.29.97.26.55.41.58,2.1.44,2.25-.2,2.69.06,3.3,2.22,1.23,4.12,1.49,4.77,2.25,5.41.93.79,1.09.79,1.67.2.55-.53.41-1.43-.64-3.89-.97-2.22-1.05-3.54-.27-3.54.3,0,1.43.47,2.57,1.05,2.08,1.09,4.5,1.67,4.5,1.09,0-.18-.47-.82-1.09-1.46-1.02-1.17-1.32-1.29-3.71-1.58-.81-.09-1.57-.44-2.17-1-1.2-1.02-1.2-1.82,0-2.72,1.67-1.26.94-2.19-.82-1.02-1.2.85-2.43.76-3.42-.18s-1.29-1.67-1.9-4.56c-.76-3.6-1-4.21-1.9-5.26s-1.78-1.17-2.57-.36c-1.06,1.05-.54,3.1,1.65,6.28Zm11.4,7.86c.61,0,1.14-.09,1.23-.23.18-.23-.94-1.84-1.46-2.16-.44-.26-.47-.26-1.32.2-1.5.79-.5,2.19,1.55,2.19Zm.67,19.09c.2-.06.36-.47.41-.9.06-.67-.12-1.02-.73-1.64-.76-.79-1.09-.94-1.4-.62-.26.24,1.4,3.3,1.72,3.16Zm-5.67-23.01c.58,0,2.19-.96,2.19-1.28s-1.9-2.72-3.45-4.42c-.39-.44-.81-.86-1.25-1.26-.41-.26-.38,1.37.15,3.54.44,1.93,1.47,3.42,2.37,3.42Zm-8.8,4.36l-.94.93c-1.14,1.14-1.29,2.31-.36,2.95.88.54,1.99.51,2.84-.09.53-.44.55-.55.26-1.23-.27-.61-.62-1.19-1.05-1.7l-.74-.88Zm-19.73-30.35c-3.8,2.91-7.79,5.56-11.96,7.92-1.51.8-2.92,1.77-4.21,2.89-1.14,1.01-2.37,1.9-3.68,2.66-1.14.62-2.1,1.32-2.16,1.55.05.4.24.77.53,1.05.58.58.93.64,4.03.82,3.68.18,4.45.44,4.74,1.64.29,1.14-.18,2.02-1.46,2.66-1.75.93-3.19.67-6.32-.94-1.43-.73-2.63-1.26-2.72-1.17s.47,1.23,1.2,2.43c1.55,2.72,1.66,3.83.53,5-.34.38-.79.64-1.29.76-.99,0-1.23.7-1.32,3.98-.12,2.98-.12,3.13.41,3.13,1.14.22,2.26.52,3.36.9,5.23,1.72,7.63,2.08,9.03,1.37.58-.32.64-.5.58-1.52-.19-1.27-.44-2.53-.76-3.77-.45-1.73-.72-3.5-.82-5.29-.12-2.34-.06-2.75.44-3.71,1.09-2.1,2.98-2.66,4.45-1.28,1.61,1.52,2.05,3.62,1.49,7.29-.65,4.18-.79,6.56-.36,6.81.91.56,2.66-1.37,3.89-4.27l.53-1.23-1.9-4.94c-1.09-2.69-2.55-6.35-3.3-8.07s-1.55-3.62-1.75-4.21l-.36-1.05.53.67c.65,1.02,1.22,2.09,1.72,3.19,1.09,2.13,2.45,5.15,3.92,8.39l2.03,4.66.85-.38c1.14-.47,2.57-.47,3.51.03.76.36,1.61,1.99,1.61,3.04,0,.97-.73,2.31-1.96,3.48-.65.61-1.2,1.32-1.2,1.52.03.55.82,1.4,2.02,2.16,2.08,1.26,2.6,2.78,1.52,4.38-.31.46-.55.96-.7,1.49,0,.62,1.96,7.84,2.43,9.03.36.82,1.72,1.43,5.15,2.31,4.24,1.02,6.96.93,7.25-.29.2-.73-.12-2.43-1.09-5.83-1.25-4.3-1.46-5.47-1.46-7.54s.65-3.8,1.72-4.56c1.35-.94,2.98-.09,4.04,2.05.79,1.64.79,1.46.23,10.47-.2,3.28-.09,3.89.9,3.89,1.23,0,2.02-.91,3.68-4.15.91-1.7,1.72-3.28,1.9-3.51.32-.41-.88-2.51-4.88-8.59l-1.75-2.66-1.02.53c-.7.33-1.45.51-2.22.53-1.61,0-2.75-1.05-2.75-2.49,0-1.25.36-1.93,1.52-2.92l.94-.82-2.37-3.25c-3.33-4.65-6.31-8.33-6.95-8.5-1-.32-1.14.23-.59,2.02.73,2.48.62,3.54-.53,4.59-1.2,1.11-1.99,1.11-2.9.06-.82-.96-.82-1.05-.15-3.71.82-3.19.56-3.48-2.51-2.92-2.22.44-4.82.47-5.83.06-1.09-.46-1.96-1.3-2.46-2.37-.1-.21-.16-.44-.18-.67.03-.3.16-.57.36-.79.97-1.32,1.32-1.37,3.8-.88,5.94,1.26,7.1,2.22,1.46,1.26-3.48-.62-4.15-.53-4.33.44-.12.64.9,1.67,2.22,2.16,1.11.41,2.95.41,6.35-.06.96-.15,1.23-.09,1.82.44.61.62.64.73.47,2.34-.36,3.42-.32,4.06.32,4.15,1.23.18,1.78-2.13,1.11-4.82-.29-1.09-.26-1.25.26-1.78.22-.23.39-.5.53-.79-.3-.58-.67-1.12-1.09-1.61l-1.09-1.43-.76.76c-.93.99-1.9,1.14-1.05.2,1.17-1.32,1.2-1.32-3.54-6.43-1.64-1.75-2.9-3.25-2.9-3.36.15,0,1.43,1.11,2.95,2.55,1.49,1.37,2.78,2.51,2.92,2.51.09-.09.03-.58-.12-1.14-.22-1.03-.31-2.09-.29-3.14,0-1.99.06-2.17.73-2.81.88-.88,1.64-.9,2.37-.15,1,1.11,1.14,1.96,1.05,6.26l-.09,4.06h.61c.44,0,.9-.5,1.96-2.08.73-1.14,1.67-2.34,2.08-2.6.62-.47.79-.47,1.52-.18.32.11.62.29.88.53.76.73.12,1.82-2.17,4.07-.67.61-1.3,1.28-1.87,1.99,0,.09.79.23,1.75.32,1.96.18,2.9.67,3.48,1.9.32.64.32.82,0,1.4s-.64.7-1.78.82l-1.43.15,3.37,4.19c4.12,5.17,4.82,5.9,5.55,5.9.91,0,1.93-.97,1.93-1.84,0-1.02-.24-1.49-2.22-4.18-.8-1.06-1.52-2.16-2.19-3.3-1.14-2.31-.97-4.3.55-5.47l.82-.67-.5-.55c-.65-.7-2.81-2.78-5.11-4.88s-4.71-4.27-5.83-5.17c-1.51-1.19-3.08-2.31-4.7-3.33-1.2-.73-2.37-1.28-2.57-1.28s-1.31.72-2.4,1.58Zm-1.43,79.25c-.79-.44-1.46-.73-1.46-.64.3.67.66,1.31,1.09,1.9.58.93,1.14,2.13,1.2,2.66.23,1.64.15,1.61,2.37,1.05,3.74-.97,8.19-3.36,9.06-4.91.41-.64.36-.9-.18-3.6-1-4.79-3.01-12.8-3.45-13.83-.23-.57-.69-1.02-1.26-1.25-2.6-.97-4.24-2.19-5-3.77-.53-1.2-.53-1.58.21-2.43.44-.5,1.05-.79,2.16-1.02q1.55-.32,1.49-1.17c-.18-1.4-1.9-7.45-2.25-7.83-.55-.53-7.89-2.95-8.15-2.69-.18.18-.03,1.29.32,2.95.88,4.21.73,5.29-1,6.43s-4.24.65-5.26-1.05c-.93-1.52-.67-3.19.88-5.76.43-.74.78-1.53,1.05-2.34.2-.55.44-1.02.58-.96.5.18.15,1.78-.88,4.06-.61,1.29-1.09,2.6-1.09,2.9,0,.79,1.09,2.25,1.87,2.55.98.3,2.05,0,2.75-.76.79-.79.82-2.11.18-5.41-.36-2.14-.36-2.34,0-2.95.62-.91,1.02-.88,4.5.23,3.57,1.14,3.92,1.14,3.74.18-.17-.67-.39-1.33-.67-1.96l-.53-1.23h-1.82c-3.13,0-3.51-.9-.99-2.51.58-.34,1.12-.74,1.61-1.2.2-.32-.91-3.39-1.23-3.39-.12,0-.22.08-.23.2,0,.47-2.08,3.3-2.75,3.75-1.09.7-2.16.67-2.43-.09-.09-.32-.15-3.13-.12-6.23.06-5.52.06-5.67-.53-6.52-1.09-1.58-2.46-1.58-3.13.03-.58,1.32-.41,5.29.36,9.18.36,1.82.7,3.57.7,3.83s-.36.82-.82,1.25c-.79.73-.88.76-3.48.73-2.34,0-3.01-.12-5.64-1-2.78-.9-4.33-1.2-4.68-.88-.12.36-.2.72-.26,1.09-.2,1.23.36,2.08,1.82,2.81,1.02.53,1.35.55,4.8.41,2.02-.12,4.21-.23,4.94-.32,2.13-.26,1.31.32-1.29.94-3.95.88-6.2.99-8.19.29-.62-.22-1.25-.4-1.9-.53-.2,0-.26,1.26-.2,4.12.05,2.13-.03,4.26-.26,6.37-.24,1.87-.32,3.76-.26,5.64l.06,3.39,1.84-1.72c1.02-.93,2.37-2.13,3.01-2.66,2.25-1.9,4.27-.94,4.27,2.02,0,3.42-3.07,5.67-7.69,5.67-1.75,0-1.82.03-1.82.65,0,.76.2.88,3.07,1.72,3.22.9,4.5,2.6,3.74,4.85-.44,1.37-1.28,1.82-2.95,1.61-.85-.15-1.68-.38-2.49-.7-1.02-.44-1.17-.47-1.28-.09-.2.47.09,9.48.36,11.46.32,2.46,1.75,2.84,11.63,3.01,4.12.03,7.63,0,7.81-.15.26-.15.2-.56-.2-1.7-.28-.89-.45-1.82-.5-2.75-.04-.76-.16-1.52-.36-2.25-.41-1.09-.18-1.46.47-.73.36.36,1.2,4.12,1.2,5.29.13.27.31.52.53.73.67.67,1.9.76,2.52.15.55-.58.36-1.23-.97-3.86-1.58-3.1-1.23-3.39,2.22-1.87,2.78,1.2,4.85,1.46,5.67.67.64-.67.67-1.05.18-1.78-.41-.55-1.84-.64-5.03-.26-1.78.2-1.93.18-2.72-.5-1.69-1.46-1.05-2.55,3.54-5.67,1.52-1.02,3.04-2.19,3.39-2.63.91-1.05.79-1.9-.23-2.02-1.28-.15-1.87.18-4.21,2.25-3.8,3.36-4.97,4.27-5.58,4.27-.36,0-.59-.12-.59-.26s.24-.27.56-.27c.36,0,1.64-1.09,3.86-3.39,2.8-2.86,3.51-3.42,4.47-3.68,1.46-.41,2.55-.12,3.25.82,1.09,1.49.2,2.66-4.21,5.58-3.68,2.4-4.62,3.25-4.38,3.92.3.79,1.67.94,4.24.53,1.32-.24,2.72-.32,3.07-.24,1.12.25,1.93,1.22,1.99,2.37-.01,2.72-3.99,3.17-8.03.88Zm-7.49-10.26c-.29-.99-.76-2.6-1.05-3.6-.64-2.13-1.49-3.48-2.45-3.83-1.2-.44-1.61.03-1.7,1.99-.12,2.11.36,3.25,2.05,5.47,2.49,3.22,3.68,5.11,3.68,5.88,0,.93-.99,1.55-3.8,2.28-2.55.7-3.45,1.09-3.86,1.87-.97,1.82,1.99,3.36,4.33,2.16.8-.5,1.55-1.07,2.22-1.72,1.93-1.84,2.08-1.34.15.62-1.84,1.9-3.1,2.55-4.68,2.55-2.28,0-3.89-2.28-2.92-4.15.62-1.17,1.35-1.55,4.12-2.13,1.37-.3,2.72-.59,3.07-.67,1.26-.26.65-1.61-2.63-5.5-2.08-2.48-2.92-4.27-3.04-6.46-.12-1.63-.06-1.78.73-2.69,2.19-2.48,5,.06,6.17,5.58.23,1.09.7,2.75.94,3.65.29.94.5,1.75.44,1.82-.3.27-1.28-1.49-1.76-3.12Zm11.23-14.12c-.61.36-.58,1.34.12,2.22,1.17,1.52,4.15,2.86,4.15,1.87,0-.76-1.02-3.92-1.37-4.12-.47-.32-2.34-.29-2.9.03Zm2.16-13.89c.03-.59-.19-1.17-.61-1.58-1.14-1.05-1.26-.67-.41,1.29.67,1.55,1.02,1.66,1.02.29Zm-1.9-7.78c.91-.96,1.11-1.37,1.11-2.19,0-.55-.16-1.1-.44-1.58-.29-.44-.65-.58-1.61-.58-2.16.03-2.28.23-1.4,2.6,1.2,3.21,1.08,3.13,2.34,1.75Zm-5.32,4.18l1.55.09c.82.06,1.58.03,1.64-.06s.06-.36-.03-.65c-.23-.73-.79-.7-2.1.03l-1.05.59Zm-15.9,23.3c1.55-1.2,2.17-3.83,1.02-4.62-.24-.19-.5-.34-.79-.44-.38,0-6.43,5.26-6.87,5.96-.15.26.2.36,1.87.36,2.34-.01,3.45-.31,4.76-1.27Zm-20.72-46.48c-.66.78-1.27,1.6-1.84,2.45.5-.17.98-.42,1.4-.73,1.9-1.26,2.89-1.55,3.48-1.14.7.53.53,1.72-.44,3.19-.5.7-1.34,2.6-1.87,4.18-1.32,3.92-3.8,12.63-4.33,15.26-.44,1.99-.44,2.19,0,2.8.74,1.04,1.79,1.81,3.01,2.19.97.2,1.2-.18,2.43-3.98,1.75-5.44,3.16-7.34,5.73-7.8.67-.15,1-.03,1.64.53.67.62.85.97.85,1.78,0,1.58-.67,2.72-3.51,5.93-1.02,1.12-1.97,2.29-2.86,3.51-.47.82-.2,1.37.67,1.61.7.18,1.37-.09,4.68-1.93,1.04-.62,2.27-.82,3.45-.55.5.09.5-.09.67-3.19.06-1.55.21-3.09.44-4.62.18-.73.41-2.49.59-3.92.26-2.48.26-2.66-.26-3.36-.79-1.05-1.23-2.48-1.58-4.97-.32-2.22-.62-3.1-1.09-3.1-.12,0-1.09.85-2.19,1.82-2.81,2.66-4.12,2.98-5.79,1.55-1.02-.91-1.14-1.67-.53-2.84.79-1.58,2.37-2.4,6.4-3.39.38-.04.72-.21,1-.47.2-.58-1.49-2.4-3.33-3.65-1.05-.7-2.6-1.87-3.48-2.55-.56-.47-1.15-.89-1.78-1.26-.15,0-.62.5-1.05,1.11l-.82,1.09,1.09.09c1.97.19,1.81,1.19-.77,4.34Zm12.72,30.72c.12-.79.06-.85-.76-.85-1.93,0-2.9,2.55-3.69,9.68-.58,5.35-.99,6.14-3.28,6.14s-3.57-.61-8.25-4.3c-2.98-2.4-3.54-2.75-3.89-2.37-.26.26-1.78,5.67-1.78,6.4,0,.62,1.23.94,4.85,1.26,5.88.53,7.19.93,8.13,2.69.47.88.47,1.02.09,1.82-.51.92-1.11,1.79-1.78,2.6-1.75,2.13-2.37,3.36-2.55,4.97-.23,1.99.29,2.63,2.16,2.63,2.48,0,3.77-1.2,3.77-3.62,0-4.5.64-5.83,2.84-5.83.74-.02,1.47.16,2.1.53.32.19.65.37.99.53.32,0,.06-1.82-.41-2.72-.26-.42-.43-.89-.53-1.37.06-.28.26-.53.53-.64.7-.41.67-.62-.26-1-.94-.49-1.54-1.45-1.58-2.51,0-1,.76-3.25,1.87-5.55.94-1.96,1.05-2.4,1.17-4.88.12-1.48.23-3.12.26-3.59Zm-.76,37.1l.06-6.43.06-6.44-1.46-1.26c-1.58-1.32-2.4-1.52-3.07-.76-.36.36-.44.97-.36,3.1.06,2.81-.2,3.65-1.64,5.17-1.28,1.48-3.37,1.93-5.15,1.11-1.2-.53-1.72-1.4-1.75-3.01,0-1.78.91-3.6,3.01-6.14,1.82-2.19,2.16-2.75,1.9-3.6-.32-1-1.58-1.35-6.26-1.72-4.56-.36-6.72-.47-6.72-.27,0,.03-.2,1.02-.41,2.14-.53,2.83-1.37,8.92-1.46,10.4s.41,2.14,2.92,3.62c4.06,2.4,10.38,3.77,18.1,4.01l2.24.07Zm-24-23.24c-1.09-1.99-1.23-3.95-.36-5.7.55-1.09,1.84-1.9,2.89-1.9.59,0,.85-.7,2.02-5,.79-2.95.82-3.57.18-3.92-.62-.39-1.21-.83-1.75-1.31-.45-.4-.94-.75-1.46-1.05-.53,0-6.29,26.37-6.29,28.65,0,.91,1.09,2.05,2.69,2.87l.99.5.15-.67c.12-.38.55-2.95.99-5.73l.88-5.06-.93-1.67Z"/>
      <path class="cls-1" d="m167.43,197.96c-5.09-6-14.28-14.91-18.62-18.17-1.46-1.02-3-1.94-4.59-2.75-2.55-1.29-2.69-1.43-2.55-2.02.09-.38.36-1.64.61-2.81s.5-2.25.61-2.31,1.23.55,2.57,1.46c4.85,3.18,7.72,4.01,10.35,2.98,2.13-.79,4.35-3.95,5.82-8.21,1.37-4.12,1.93-7.98,2.6-18.57.5-7.98.79-10.38,1.32-10.82.75-.25,1.52-.41,2.31-.47,6.81-.61,8.59-1.17,10.85-3.42,1.58-1.58,1.75-1.87,2.6-5.06.12-.36.36-.47,2.55-1.23,1.46-.53,1.9-1.14,1.49-2.05s-1.67-1.52-3.74-1.78c-1.37-.2-2.13-.44-2.92-1.02-1.02-.7-1.23-.73-4.94-.88-3.57-.15-3.95-.12-4.38.36-.65.72-1.6,1.11-2.57,1.05-1.49,0-2.48.44-3.07,1.37-.36.58-1.29,1.23-2.89,2.08-2.78,1.46-4.36,3.01-5.56,5.5-.47.91-1.66,4.33-2.72,7.57-2.02,6.26-2.95,8.68-3.39,8.68-.12,0-1.72-1.7-3.51-3.77-7.1-8.09-9.65-9.49-20.71-11.08-5.32-.76-6.17-1.09-7.05-2.84-.32-.67-.53-1.4-.47-1.61.12-.23,1.23-.7,2.49-1.05,6.2-1.82,9.88-3.28,14.5-5.58,5.06-2.55,5.11-2.55,11.14-3.48,19.09-3.01,26.4-8.89,25.14-20.23-.18-1.34-.36-2.55-.5-2.66s-1,.44-1.9,1.23c-1.7,1.43-2.46,1.78-4.8,2.08-1.23.15-1.26.12-1.75-.85-.84-1.88-1.31-3.91-1.37-5.96.1-1.54.3-3.07.59-4.59.55-2.55.64-3.77.64-8.27,0-5.59-.15-6.56-1.49-11-.44-1.43-.73-2.83-.64-3.15s.55-1.9,1.05-3.57l.91-3.01,3.25.12c6.93.29,12.57.15,14.18-.36,1.82-.53,3.25-1.72,3.48-2.84.18-.67.06-.93-.5-1.49l-.67-.67-2.43.58c-3.88.92-7.85,1.42-11.84,1.49-4.18.15-5.41,0-4.77-.64,1.33-.53,2.68-.97,4.07-1.32,7.02-1.93,16.6-5.41,19.33-6.99,1.67-.99,2.72-2.31,2.72-3.39,0-1.37-.41-2.22-1.2-2.4s-1.93.32-7.98,3.71c-5.82,3.25-15.29,7.75-16.34,7.75-.73,0,.73-.82,6.96-3.89,7.86-3.92,12.37-6.75,15.58-9.82,2.46-2.37,3.19-3.54,2.72-4.47-1.2-2.31-2.08-2.08-6.43,1.61-3.62,3.1-6.02,5-8.92,7.05-2.55,1.82-9.09,5.83-9.41,5.83-.09,0-.18-.29-.18-.67,0-.44.61-1.32,1.93-2.78,2.49-2.71,4.79-5.59,6.87-8.62,2.83-4.27,3.1-5.5,1.52-6.81-1.75-1.43-1.93-1.29-5.2,4.3-2.4,4.15-4.74,7.72-5,7.72-.18-1.17-.3-2.35-.36-3.54-.82-9.94-3.39-15.96-9.33-21.75-4.35-4.33-10.29-7.45-19.82-10.58-6.17-2.01-12.49-3.53-18.91-4.54-3.9-.59-15.03-.85-22.19-.5-11.81.65-24.76,2.52-32.82,4.8-5.64,1.58-13.77,4.88-18.62,7.51-4.68,2.57-8.71,6.02-11.37,9.82-1.64,2.31-2.02,2.57-5.38,3.36-3.13.7-4.97,1.64-7.1,3.62-2.66,2.55-4.45,6.4-5.29,11.72-.76,4.62-.47,9.15,1.43,22.57,4.99,35.26,5.49,42.1,3.72,50.58-.65,3.07-1.14,3.86-3.19,4.97l-1.7.91h-4.74c-2.6,0-5.15-.09-5.7-.23-.88-.21-.96-.15-1.37.58-.96,1.9-.23,6.87,1.52,10.12,1.58,2.98,6.02,6.17,10.03,7.13,3.92.93,15.23,1.23,21.25.53,4.38-.5,10.67-1.61,12.28-2.13.96-.32,1.43-.67,2.22-1.75l1-1.37.26,1.02.23.99,1.7-.15c2.4-.26,3.28-.7,4.41-2.28l1-1.37.36.88.36.85,1.49-.15c.82-.09,6.11-1.4,11.72-2.9,12.1-3.22,14.41-3.71,16.43-3.48,1.87.18,6.81,1.37,7.29,1.78.23.33.35.74.32,1.14,0,.64-.2,1.02-.82,1.52-2.02,1.72-2.75,1.96-8.51,2.8-6.7.94-10.47,1.78-14.95,3.28-6.17,2.05-11.14,4.77-13.27,7.16-1.29,1.46-3.92,6.72-4.82,9.71-.36,1.2-1.46,5.15-2.4,8.8-1.93,7.34-2.28,8.56-3.19,10.76-.32.82-.61,1.55-.61,1.64,0,.26.79.15,2.92-.56,2.92-.9,6.14-2.34,10.76-4.85,2.11-1.11,3.89-2.08,4.01-2.08.29,0-.32.97-2.1,3.33-.91,1.2-1.58,2.22-1.58,2.37.23.2,4.62-.97,6.93-1.84,7.89-3.04,14.62-7.95,18.96-13.77.73-1.02,1.37-1.78,1.49-1.78s.23,1.05.36,2.16c.51,4.89,1.95,9.65,4.24,14,2.05,4.01,4.7,8.48,6.34,10.73l1.26,1.7-2.63,5.41c-4.7,9.59-6.55,14.44-8.97,23.53-2.78,10.38-7.63,32.27-7.63,34.44,0,.53.29,1.05,1,1.7,1.05,1.02,2.83,2.05,3.51,2.05.61,0,.9.5,1.09,1.82.12.65.3,1.29.56,1.9.88,1.61,4.82,3.92,9.59,5.47,1.37.47,2.66.99,2.84,1.17s1.2,3.8,2.31,8.07c2.22,8.6,3.48,13.1,5.38,19.12,1.43,4.35,2.34,7.92,2.34,8.89,0,.47-1.31,1.93-4.94,5.52-4.09,4.03-5.08,5.17-5.76,6.56-.39.7-.67,1.44-.85,2.22,0,.85.67,1.7,1.93,2.31,1.96,1.02,6.28.7,9.12-.73,1.72-.85,2.51-1.61,4.18-3.89.79-1.09,1.64-1.99,1.87-1.99.54.1,1.08.27,1.58.5.95.39,1.93.71,2.92.96,1.52.36,2.02.41,3.16.15,1.31-.32,1.55-.26,6.34,1.14,4.3,1.26,5.32,1.52,7.22,1.52,3.8.03,6.84-1.29,6.84-2.98,0-.93-2.02-2.66-4.09-3.48-6.49-2.6-10.94-5.52-11.31-7.37-.32-1.9,1.28-4.38,7.8-11.72,10.09-11.37,12.8-14.95,18.96-25.05,2.51-4.18,2.78-4.5,3.71-4.79,5.9-1.82,9.35-3.1,10.94-3.86,4.56-2.31,10.99-7.49,11.4-9.18.15-.53,0-1.14-.41-2.1-.97-2.22-1-2.1.85-2.78,3.16-1.14,6-3.39,8.6-6.84,1.02-1.4,1.58-2.37,1.58-2.84,0-1.91-13.33-20.06-22.92-31.2Zm18.68,27.19l1.2,1.67-.85-.44c-1.52-.79-1.55-.73-2.6,2.55-.56,1.87-1.09,2.31-2.11,1.75-1.09-.64-.99-1.29.47-3.13.7-.9,1.31-1.78,1.31-1.99-.14-.44-.38-.84-.7-1.17-.53-.65-1.2-.97-2.92-1.49-2.83-.88-4.12-1.49-4.68-2.34-.36-.61-.32-1.7.12-1.7.09,0,1.43.76,2.98,1.64,1.55.94,3.48,1.9,4.33,2.13q2.1.63,3.44,2.51Zm-14.44-19.18c.53.32,1.64,1.93,1.46,2.16-.09.15-.62.23-1.23.23-2.05,0-3.04-1.4-1.55-2.19.85-.47.88-.47,1.32-.21Zm-7.29-8.48c.44.4.86.82,1.25,1.26,1.55,1.7,3.45,4.15,3.45,4.42s-1.61,1.28-2.19,1.28c-.9,0-1.93-1.49-2.37-3.42-.52-2.16-.55-3.8-.13-3.54h-.01Zm-2.95-2.92c.9,1.05,1.14,1.67,1.9,5.26.61,2.89.94,3.65,1.9,4.56s2.22,1.02,3.42.18c1.75-1.17,2.48-.23.82,1.02-1.2.9-1.2,1.7,0,2.72.6.55,1.36.9,2.17,1,2.4.29,2.69.41,3.71,1.58.61.64,1.09,1.29,1.09,1.46,0,.58-2.43,0-4.5-1.09-1.14-.58-2.28-1.05-2.57-1.05-.79,0-.7,1.32.27,3.54,1.05,2.46,1.2,3.36.64,3.89-.58.58-.73.58-1.67-.2-.76-.65-1.02-1.29-2.25-5.41-.62-2.16-1.05-2.43-3.3-2.22-1.7.15-1.82.12-2.1-.44-.26-.5-.26-.61.29-.97,1.37-.88,2.08-1.82,2.08-2.69,0-1-.41-1.72-2.81-5.2-2.19-3.19-2.72-5.23-1.64-6.32.79-.78,1.64-.63,2.57.39h-.01Zm-18.12-16.41c1.63,1.02,3.2,2.14,4.7,3.33,1.14.91,3.57,3.07,5.83,5.17s4.47,4.18,5.11,4.88l.5.55-.82.67c-1.52,1.17-1.7,3.15-.55,5.47.66,1.15,1.39,2.25,2.19,3.3,1.99,2.69,2.22,3.15,2.22,4.18,0,.88-1.02,1.84-1.93,1.84-.73,0-1.43-.73-5.55-5.9l-3.36-4.18,1.43-.15c1.14-.12,1.46-.23,1.78-.82s.32-.76,0-1.4c-.58-1.23-1.52-1.72-3.48-1.9-.96-.09-1.75-.23-1.75-.32.57-.71,1.2-1.37,1.87-1.99,2.28-2.25,2.92-3.33,2.17-4.07-.26-.23-.55-.41-.88-.53-.73-.29-.9-.29-1.52.18-.41.26-1.35,1.46-2.08,2.6-1.05,1.58-1.52,2.08-1.96,2.08h-.61l.09-4.06c.09-4.3-.06-5.15-1.05-6.26-.73-.76-1.49-.73-2.37.15-.67.64-.73.82-.73,2.81-.02,1.05.08,2.1.29,3.13.15.56.21,1.05.12,1.14-.15,0-1.43-1.14-2.92-2.51-1.52-1.43-2.81-2.55-2.95-2.55,0,.12,1.26,1.61,2.9,3.36,4.74,5.11,4.71,5.11,3.54,6.43-.85.93.12.79,1.05-.2l.76-.76,1.09,1.43c.42.49.79,1.03,1.09,1.61-.13.29-.31.55-.53.79-.53.53-.55.7-.26,1.78.67,2.69.12,5-1.11,4.82-.64-.09-.7-.73-.32-4.15.18-1.61.15-1.72-.47-2.34-.59-.53-.85-.58-1.82-.44-3.34.49-5.17.49-6.3.07-1.32-.5-2.34-1.52-2.22-2.16.18-.97.85-1.05,4.33-.44,5.64.96,4.47,0-1.46-1.26-2.48-.5-2.83-.44-3.8.88-.21.22-.34.49-.36.79.02.23.08.46.18.67.5,1.07,1.37,1.91,2.46,2.37.99.41,3.6.36,5.83-.06,3.07-.56,3.33-.27,2.51,2.92-.67,2.66-.67,2.75.15,3.71.91,1.05,1.7,1.05,2.9-.06,1.14-1.05,1.26-2.1.53-4.59-.55-1.78-.41-2.34.59-2.02.64.18,3.62,3.86,6.95,8.5l2.37,3.25-.94.82c-1.17.99-1.52,1.67-1.52,2.92,0,1.43,1.14,2.49,2.75,2.49.77-.02,1.52-.2,2.22-.53l1.02-.53,1.75,2.66c4.01,6.08,5.2,8.18,4.88,8.59-.18.24-1,1.82-1.9,3.51-1.67,3.25-2.45,4.15-3.68,4.15-.99,0-1.09-.62-.9-3.89.55-9,.55-8.83-.23-10.47-1.05-2.14-2.69-2.98-4.04-2.05-1.09.76-1.72,2.43-1.72,4.56s.21,3.25,1.46,7.54c.97,3.39,1.29,5.11,1.09,5.83-.29,1.23-3.01,1.31-7.25.29-3.42-.88-4.8-1.49-5.15-2.31-.47-1.2-2.43-8.42-2.43-9.03.15-.53.39-1.03.7-1.49,1.09-1.61.55-3.13-1.52-4.38-1.2-.76-1.99-1.61-2.02-2.16,0-.2.55-.91,1.2-1.52,1.23-1.17,1.96-2.51,1.96-3.48,0-1.05-.85-2.69-1.61-3.04-.94-.5-2.37-.5-3.51-.03l-.86.38-2.05-4.65c-1.46-3.25-2.83-6.26-3.92-8.39-.5-1.1-1.08-2.17-1.72-3.19l-.53-.67.36,1.05c.2.58,1,2.45,1.75,4.21s2.22,5.38,3.3,8.07l1.9,4.94-.53,1.23c-1.23,2.9-2.98,4.82-3.89,4.27-.41-.23-.26-2.63.36-6.81.55-3.65.12-5.76-1.49-7.29-1.46-1.37-3.36-.82-4.45,1.28-.5.97-.55,1.37-.44,3.71.1,1.79.37,3.56.82,5.29.32,1.24.57,2.5.76,3.77.06,1.02,0,1.2-.58,1.52-1.4.7-3.8.36-9.03-1.37-1.1-.38-2.22-.68-3.36-.9-.53,0-.53-.15-.41-3.13.09-3.28.32-3.98,1.32-3.98.5-.12.94-.38,1.29-.76,1.14-1.17,1.02-2.28-.53-5-.73-1.2-1.26-2.31-1.2-2.43s1.29.44,2.72,1.17c3.13,1.61,4.56,1.87,6.32.94,1.29-.65,1.75-1.52,1.46-2.66-.29-1.2-1.05-1.46-4.74-1.64-3.1-.18-3.45-.23-4.03-.82-.29-.28-.47-.65-.53-1.05.06-.23,1.02-.93,2.16-1.55,1.31-.76,2.55-1.65,3.68-2.66,1.29-1.12,2.7-2.09,4.21-2.9,4.16-2.36,8.16-5.01,11.96-7.92,1.09-.85,2.16-1.58,2.37-1.58s1.39.55,2.58,1.28h0Zm16.36,34.45c-.84.59-1.96.63-2.84.09-.93-.64-.79-1.82.36-2.95l.93-.93.76.88c.43.51.79,1.08,1.05,1.7.28.67.25.79-.27,1.23Zm-8.36-18.42c1.87,0,3.45,1.85,1.78,2.05-1.2.2-2.51-.47-4.21-2.05l-1.67-1.58.9-.97c.66-.71,1.27-1.48,1.82-2.28,1.43-2.1,2.31-2.72,2.78-1.99.23.44-.55,1.64-2.34,3.42-.97.9-1.75,1.9-1.75,2.16-.01.58,1.45,1.23,2.68,1.23Zm-5.73-4.53c-.23.88-.5.73-1.11-.67-1.02-2.37-1.25-5.76-.53-7.22.29-.55.55-.55,1.09.03.89,1.02,1.2,5.29.54,7.86Zm-2.6,64.78c-.36-.09-1.75,0-3.07.24-2.57.41-3.95.26-4.24-.53-.26-.67.67-1.52,4.38-3.92,4.41-2.92,5.29-4.09,4.21-5.58-.7-.94-1.78-1.23-3.25-.82-.96.27-1.67.82-4.47,3.68-2.22,2.28-3.48,3.39-3.86,3.39-.32,0-.56.12-.56.27s.24.26.59.26c.61,0,1.78-.91,5.58-4.27,2.34-2.08,2.92-2.4,4.21-2.25,1.02.12,1.14.97.23,2.02-.36.44-1.87,1.61-3.39,2.63-4.59,3.13-5.23,4.21-3.54,5.67.79.67.94.7,2.72.5,3.19-.36,4.62-.29,5.03.26.5.73.47,1.09-.18,1.78-.82.79-2.9.53-5.67-.67-3.45-1.52-3.8-1.23-2.22,1.87,1.35,2.63,1.52,3.28.97,3.86-.62.61-1.84.53-2.52-.15-.22-.21-.4-.46-.53-.73,0-1.17-.85-4.91-1.2-5.29-.64-.73-.88-.36-.47.73.2.73.33,1.49.36,2.25.05.93.22,1.86.5,2.75.41,1.14.47,1.55.2,1.7-.18.15-3.68.18-7.81.15-9.88-.18-11.31-.55-11.63-3.01-.26-1.96-.55-10.99-.36-11.46.12-.36.26-.36,1.28.09.8.32,1.64.55,2.49.7,1.67.2,2.51-.23,2.95-1.61.76-2.25-.53-3.95-3.74-4.85-2.86-.85-3.07-.97-3.07-1.72,0-.62.06-.65,1.82-.65,4.62,0,7.69-2.25,7.69-5.67,0-2.95-2.02-3.92-4.27-2.02-.65.53-1.99,1.72-3.01,2.66l-1.84,1.72-.06-3.39c-.06-1.89.03-3.77.26-5.64.23-2.12.32-4.24.26-6.37-.06-2.87,0-4.12.2-4.12.65.13,1.28.31,1.9.53,1.99.7,4.24.58,8.19-.29,2.6-.62,3.42-1.2,1.29-.94-.73.09-2.92.2-4.94.32-3.45.15-3.77.12-4.8-.41-1.46-.73-2.02-1.58-1.82-2.81.06-.37.15-.74.26-1.09.36-.32,1.9-.03,4.68.88,2.63.88,3.3,1,5.64,1,2.6.03,2.69,0,3.48-.73.44-.44.82-.99.82-1.25s-.32-1.99-.7-3.83c-.79-3.89-.96-7.87-.36-9.18.67-1.61,2.05-1.61,3.13-.03.58.85.58,1,.53,6.52-.03,3.1.03,5.9.12,6.23.26.76,1.35.79,2.43.09.67-.44,2.75-3.28,2.75-3.75.01-.12.11-.21.23-.2.32,0,1.43,3.07,1.23,3.39-.49.46-1.03.86-1.61,1.2-2.52,1.61-2.13,2.51.99,2.51h1.82l.53,1.23c.28.63.5,1.29.67,1.96.18.97-.18.97-3.74-.18-3.48-1.09-3.89-1.14-4.5-.23-.36.61-.36.82,0,2.95.65,3.3.62,4.62-.18,5.41-.69.76-1.76,1.06-2.75.76-.76-.29-1.87-1.75-1.87-2.55,0-.3.5-1.61,1.09-2.9,1.02-2.28,1.37-3.89.88-4.06-.15-.06-.36.41-.58.96-.27.81-.62,1.6-1.05,2.34-1.55,2.57-1.82,4.24-.88,5.76,1.02,1.7,3.57,2.22,5.26,1.05s1.87-2.22,1-6.43c-.36-1.67-.5-2.78-.32-2.95.26-.26,7.6,2.16,8.15,2.69.36.36,2.08,6.43,2.25,7.83q.06.85-1.49,1.17c-1.09.23-1.72.53-2.16,1.02-.73.85-.73,1.23-.21,2.43.76,1.58,2.4,2.8,5,3.77.57.23,1.02.69,1.26,1.25.44,1.02,2.45,9.04,3.45,13.83.55,2.69.58,2.95.18,3.6-.88,1.55-5.32,3.95-9.06,4.91-2.22.55-2.13.58-2.37-1.05-.06-.53-.62-1.72-1.2-2.66-.43-.59-.8-1.23-1.09-1.9,0-.09.67.2,1.46.64,4.03,2.28,8.02,1.84,8.02-.9-.06-1.14-.87-2.1-1.98-2.35Zm-30.05-6.52v-3.62l.88.18c.44.09,1.43.36,2.16.55,2.02.55,2.72,1.2,2.72,2.55.02.51-.07,1.02-.26,1.49-.36.62-2.22.44-3.95-.41l-1.55-.74Zm.18-7.87c.44-.7,6.49-5.96,6.87-5.96.28.1.55.25.79.44,1.14.79.53,3.42-1.02,4.62-1.31.96-2.43,1.25-4.76,1.25-1.67,0-2.02-.08-1.87-.35Zm-3.3-47.8c-.29-.47-.47-.93-.36-1.02.47-.44,1.49-.12,2.34.73,1.14,1.14,1.61,1.09,3.16-.44.79-.73,1.7-1.26,3.28-1.82,2.51-.88,2.8-.94,2.37-.44-.15.23-1.29.99-2.52,1.75-2.43,1.46-2.8,2.08-2.22,3.45.53,1.23,1.58,1.64,5,1.82,3.19.18,3.92.44,3.92,1.37,0,.76-1.64,1.35-3.36,1.2-.99-.09-2.1-.47-3.86-1.37-1.61-.85-2.57-1.23-2.72-1.05s-.47,1.78-.73,3.62c-.26,2.05-.53,3.25-.73,3.25-.15-.06-.55-1.49-.97-3.22-.53-2.37-.82-3.22-1.28-3.6-.91-.73-1.4-.56-3.07.93-2.05,1.87-2.69,2.28-3.57,2.28-1.82,0-2.34-1.37-1.09-2.84.73-.91,1.96-1.43,4.21-1.9.69-.12,1.36-.3,2.02-.55.69-.38.77-1.2.19-2.17Zm2.95-1.25c.41-.26.9-.26,1.05.03.09.09,0,.44-.23.7q-.36.5-.79,0c-.3-.41-.3-.58-.03-.73Zm3.3,10.35c.67,1.46.67,2.16,0,2.83-.9.91-1.17.53-1.23-1.82-.09-2.52.32-2.86,1.23-1.01Zm22.75,13.88c.09.29.12.59.03.65s-.82.12-1.64.06l-1.55-.09,1.05-.59c1.32-.73,1.89-.76,2.1-.03Zm1.24-7.92c.96,0,1.32.15,1.61.58.28.48.43,1.02.44,1.58,0,.82-.2,1.23-1.11,2.19-1.25,1.37-1.14,1.46-2.34-1.75-.89-2.36-.78-2.57,1.4-2.6Zm2.22,10.55c.42.41.65.99.61,1.58,0,1.37-.36,1.25-1.02-.29-.86-1.96-.75-2.34.39-1.29h.01Zm1.35,15.43c.36.21,1.37,3.36,1.37,4.12,0,.99-2.98-.36-4.15-1.87-.7-.88-.73-1.82-.12-2.22s2.41-.35,2.88-.03h.01Zm36.94-109.51c.26-.41,2.16-.03,3.04.58.29.18.55.41.76.67,0,.23-1.82.88-2.52.88-.53,0-.76-.2-1.05-.9-.23-.53-.32-1.08-.23-1.23Zm-16.29,1.72c.15.17.26.39.3.61-.26.23-.7-.26-.7-.67s.06-.37.41.06h0Zm-33.44,9.85c3.13.88,6.08,2.31,8.71,4.21,1.9,1.49,5.76,5.5,7.66,8.02,1.35,1.82,1.4,2.25.64,5.09-1.02,3.86-1.28,8.1-.5,8.6.44.26.47.09.76-2.78.32-2.98,1.46-7.1,4.47-16.37,3.25-10,4.5-12.57,7.05-14.35,2.05-1.46,2.66-1.52,5.11-.41,2.19.99,2.98,1.82,2.69,2.83-.18.53-.15.56.26.24.88-.76.5-1.82-1.49-4.27-1.99-2.37-1.87-3.71.2-2.05.73.61,2.13,1.7,3.15,2.4,1.85,1.29,1.9,1.35,1.99,2.6.18,1.43.41,1.87.76,1.29s.29-2.46-.15-3.1c-.47-.54-1.01-1.01-1.61-1.4-.61-.41-1.09-.79-1.09-.9.59-.01,1.18.05,1.75.18,1.9.36,3.22,1.31,3.75,2.78.08.34.27.65.53.88.44,0,.18-1.82-.36-2.66-.73-1.09-3.28-2.05-5.5-2.08-1.75,0-2.31-.18-2.31-.7,0-.3.15-.36.62-.23.29.12,2.05.23,3.86.32l3.28.15,1.37,1.43c1.23,1.25,1.9,1.7,1.9,1.28,0-.47-.88-1.75-1.64-2.43-.99-.88-3.1-1.4-5.55-1.4-1.46,0-1.58-.55-.12-.76.97-.18,3.77-.06,5.15.15,3.65.58,4.91,7.45,1.82,10.23-1.82,1.72-5.88,2.78-12.92,3.39-1.75.15-2.02.24-1.52.47s.58.44.58,1.87c-.01,1.1-.11,2.21-.26,3.3-.12.93-.41,4.03-.64,6.84-.97,11.9-2.48,18.1-5.5,22.61-1.26,1.9-2.31,2.57-4.03,2.57s-3.57-.73-6.46-2.69c-2.95-1.96-9.82-7.1-11.52-8.65l-1.28-1.14-.03-7.81c-.06-7.02-.12-7.72-.5-7.4-.32.32-.47.18-.99-1.55-.86-2.66-2.16-5.16-3.83-7.4-1.47-1.9-1.36-1.95,1.74-1.2h0Zm-.41,11.7c-1.09-.2-1.23-.55-.36-.73,1.09-.21,1.26-.18,1.43.2.22.62-.01.7-1.07.53h0Zm-10.14-6.75c.17-1.44.26-2.9.26-4.35,0-1.75.09-2.4.36-2.4.15,0,1.4.24,2.69.53,2.08.44,2.45.61,3.18,1.46,1,1.14,3.25,5.35,3.25,6.08,0,.64-2.05,2.48-2.63,2.37-.36-.09-.36-.61-.29-3.65l.09-3.57-.76-.85c-.67-.76-.9-.85-1.52-.7-1.43.36-1.82,2.75-1.02,6.32.53,2.43.41,2.89-.76,2.63-1.09-.23-2.75-1.14-2.92-1.61-.11-.21-.05-1.23.07-2.26h0Zm1.09,4.3c.74.29,1.52.44,2.31.44l.96-.09-.03-1.7c-.03-.94-.15-2.6-.23-3.71-.23-2.13.06-3.22.85-3.07.34.15.61.4.79.73.23.5.32,1.43.23,3.39-.06,1.52-.03,3.04.12,3.36.41,1.17,1.87,1.02,3.33-.29q.61-.55,1-.03c.67.94.47,1.4-.73,1.72-1.64.41-1.78.47-1.78.76s1.02,1.11,2.69,2.17c.96.55,1.25.88,1.25,1.4,0,.91-.64.85-2.55-.29-2.66-1.64-2.98-1.75-3.39-1.37-.58.47-.47.82.26.64.47-.12.97.12,2.13,1.05.85.64,1.75,1.2,2.69,1.7l1.09.47v17.28l-4.77.59c-2.63.32-4.85.47-4.97.36-.29-.41-.73-5.93-.47-6.43.32-.58,1.64-.64,3.65-.09.93.22,1.88.34,2.83.36,1.26,0,1.49-.09,2.17-.79,1.05-1.14,1.09-2.57.18-3.6-.73-.79-2.1-.76-4.74.06-1.09.36-2.16.61-2.31.53-.59-.36-.12-1.75,1.35-4.21.88-1.43,1.67-2.98,1.72-3.45.2-1.11-.56-2.72-1.52-3.19-.47-.14-.78-.6-.73-1.09,0-1.11-.7-1.67-2.78-2.19-2.02-.5-2.49-.79-2.49-1.49-.01-.63.19-.63,1.86.07h.01Zm-1.9,26.34c-.88.18-1.02.15-1.02-.29,0-.29.44-1.35.96-2.34.79-1.52.91-1.99.82-3.01-.26-2.34-2.02-2.86-5.76-1.82-2.45.67-3.62.67-4.35,0-.21-.19-.4-.4-.58-.61-.06-.31-.14-.61-.23-.91l-.24-.8,3.98.15,4.01.15.96-.85c1.49-1.32,1.2-2.63-.85-3.68-3.13-1.61-4.74-4.65-2.75-5.15.97-.24,1.87.53,3.28,2.78,1.29,2.08,2.28,3.01,2.92,2.75.44-.18,1.26-1.9,1.26-2.69,0-.9.82-3.22,1.34-3.74.59-.62,1.55-.66,2.19-.09.67.67.5,1.61-1.02,4.8-1.82,3.98-1.84,4.12-1.35,4.88.56.82,1.11.82,3.42,0,2.05-.7,2.81-.79,3.6-.38.67.36.65,1.67-.06,2.37-.5.53-.7.53-4.33.36l-3.8-.18-.38.96c-.29.67-.41,1.75-.36,3.74.04,3.09-.08,3.34-1.66,3.61h.01Zm-2.55.15c-.18.3-.7.38-2.02.38h-1.78l-1.11-2.87c-.44-1.02-.8-2.06-1.09-3.13.12-.44,4.47-1.7,6-1.72,1.29,0,1.55.06,1.9.56.24.35.38.75.41,1.17,0,.46-1.48,4.1-2.3,5.62h0Zm-14.47-22.66c-.7,1.25-1.2,1.4-2.05.61s-.76-1.02.58-1.58c.67-.29,1.2-.64,1.2-.79,0-.36-.36-.36-2.37.29-1.58.47-1.87.5-2.66.15l-.88-.36,1.05-.26c.49-.18,1-.29,1.52-.32.23,0,.44-.15.44-.26,0-.44-1.9-.29-3.45.26-1.35.44-2.6.47-2.6.03,0-.26,1.52-2.63,2.45-3.83s3.01-2.75,3.65-2.78c.75.15,1.49.39,2.19.7,1.7.67,1.72.73,1.58,1.49-.09.47-.14.95-.15,1.43,0,.64-.03.61-1.17-.41-1.37-1.29-2.34-1.61-3.28-1.09-1.4.79-.91,1.93,1.23,2.81,2.9,1.2,3.25.93.85-.59-1.7-1.05-2.02-1.72-.91-1.72.47,0,1.14.44,2.02,1.29,1.61,1.52,2.05,1.46,2.22-.36.15-1.35.36-1.55,1.28-1.35.73.18.82.97.23,1.99-.5.88-.5,1.75.06,2.05.24.15,1.14.2,2.02.12,1.46-.09,1.55-.06,1.09.29-.26.24-1.17.5-1.99.56-.82.12-1.67.23-1.93.32-.55.12-.97,1.11-.97,2.19s-.26,1.55-.82,1.55c-.61,0-.64-.41-.09-1.7.68-1.5.4-2.02-.37-.71Zm1.7,2.43c.22-.7.39-1.41.53-2.13q.15-.97,1.67-1.14c2.87-.29,3.33-.44,3.39-1.25.18-1.29-.29-1.55-2.4-1.35l-1.84.2.38-.64c.23-.36.58-.91.79-1.23s.47-.58.61-.58,2.43,1.14,5.06,2.48c2.69,1.37,5.11,2.51,5.35,2.51.32-.04.61-.23.76-.53.26-.44.55-.53,1.67-.53,1.7,0,3.3.44,3.51.9.06.2-.3,1.17-.85,2.1-.9,1.61-1.96,4.82-1.96,5.94,0,.64-.47.88-.94.47-.23-.18-.82-1.09-1.28-2.05-1.11-2.19-2.13-3.19-3.48-3.36-.97-.12-1.2-.06-1.93.7s-.82.97-.67,1.78c.21,1.2,1.55,2.6,3.92,4.18,1.82,1.23,2.16,1.78,1.31,2.48-.32.26-1.58.36-4.76.44l-4.38.09-1.72-2.95c-.93-1.61-2.02-3.45-2.4-4.15-.69-1.16-.71-1.24-.33-2.39h0Zm14.67-18.01c.41.12.82.23.88.26,0,.9-.06,1.8-.2,2.69-.47,4.56-1.58,9.48-2.22,9.73-.2.06-2.43-.88-4.91-2.13-2.69-1.32-5.46-2.48-8.3-3.45-2.05-.67-3.62-1.23-3.62-1.35.06-.09,1.46-.23,3.1-.36,6.32-.53,11.31-2.16,13.49-4.42.89-.94,1.16-1.05,1.8-.97h0Zm-18.65-2.45c1.29,0,4.5-.5,10.15-1.55,5.06-.94,4.88-.91,5.35-.23.36.59.65,1.21.85,1.87l.41,1.28-.85.91c-1.14,1.17-4.47,2.75-7.19,3.51-1.78.47-6.66,1.29-7.69,1.29-.23,0-.32-.5-.32-1.55,0-1.82-.36-2.9-1.43-4.12-.36-.5-.64-.99-.55-1.14s.67-.25,1.28-.25h0s0-.01,0-.01Zm-4.3-2.08c0-.36,1.2-.36,5.5.15,2.08.23,1.11.58-2.22.79-2.85.19-3.25.07-3.27-.93h0Zm68.53-28.39c1.05,0,3.51-.93,4.06-1.58.64-.7.99-.65.79.06-.36,1.2-1.64,3.24-2.28,3.6-.82.47-1.82.23-2.9-.73-.93-.84-.79-1.35.32-1.35Zm-3.42-.09c.76,1.75,1.55,2.69,2.83,3.54,1.9,1.17,3.45,1.02,5.15-.53l.76-.7-.21.67c-.26.94-1.63,3.22-2.83,4.68-2.55,3.1-5.83,4.97-11.35,6.46-5,1.35-12.92,3.3-13.39,3.3-.23,0,.26-.58,1.11-1.25,1.9-1.58,7.45-7.37,8.92-9.3,1.67-2.13,3.45-5.23,5.5-9.5.99-2.1,1.9-3.83,2.02-3.83s.2.32.2.76c0,1.21.73,4.43,1.29,5.71h0s0-.01,0-.01Zm-1.43-40.66c-.15,1.25-.5,1.87-.82,1.55-.09-.06-.23-.79-.36-1.61-.32-1.99-.12-2.37.88-1.63.45.3.45.59.31,1.71h0ZM33.62,19.77c4.97-4.62,18.04-10.7,29.12-13.57,5.44-1.4,16.11-2.95,25.35-3.65,2.02-.15,4.21-.32,4.85-.36,2.08-.2,17.66.09,20.17.36,3.25.36,10.99,1.9,15.05,3.01,4.93,1.49,9.78,3.25,14.53,5.26,6.49,2.95,12.6,8.65,15.38,14.38,1.78,3.74,2.69,8.51,3.04,15.68l.15,3.3-2.13,2.6c-1.14,1.46-2.22,2.63-2.4,2.63s-.64-.82-1.05-1.87c-2.53-6.41-9.97-15.12-17.48-20.5-3.28-2.34-9.56-5.52-12.89-6.56-.62-.18-1.05-.23-.97-.09s1.82,1.12,3.85,2.21c6.46,3.51,10.29,6.31,15.17,11.17,5.88,5.83,10.85,13.19,11.2,16.64.15,1.02.06,1.17-1.09,2.22-.42.43-.9.8-1.43,1.09-.15,0-1.43-1.34-2.84-3.07-6.96-8.27-14.27-14.44-22.13-18.71-3.79-2.05-10.08-5.01-13.15-6.12-5.09-1.93-10.47-2.92-17.87-3.36-6.02-.36-9.88-.09-14.47,1.09-5.88,1.49-8.65,2.92-12.92,6.72l-2.37,2.1-1.72-.79c-2.34-1.02-11.08-3.89-14.44-4.74-4.79-1.2-8.83-1.72-14.82-2.02-3.19-.18-5.82-.32-5.88-.36-.17-.17,2.43-3.1,4.19-4.7Zm122.46,42.36c.26,0,.41.26.41.88,0,1.02-.36,1.46-.64.79-.29-.76-.15-1.67.23-1.67Zm-1.09-1.82c-.41-.64-1.67-3.71-1.67-4.03s1.55,0,2.28.5c.41.26.61.73.73,1.82.12.79.15,1.58.03,1.82-.19.55-1.01.51-1.36-.1h-.01Zm-7.92,1.78c-1.35-.06-2.28.09-2.92.41-.88.47-3.25,2.98-3.8,4.04-.23.47-.55.82-.67.82-.2,0-1.32-1.82-1.32-2.19,0-.09,1.52-.91,3.36-1.87,2.1-1.05,4.14-2.21,6.11-3.49,1.49-1.02,2.81-1.84,2.95-1.84.09,0,.18.32.18.67-.03,1.72-.53,6.17-.73,6.56-.15.32-.3.15-.53-.64-.38-1.25-1.64-2.43-2.63-2.45h-.01Zm1.82,6c-.41,1.05-.82.88-.82-.32,0-1.28-.9-2.22-2.31-2.43-1.05-.12-1.17-.06-2.13.97-.51.49-.92,1.07-1.2,1.72-.44,2.17-.32,2.02-1.05,1.55-1.46-.96-1.05-2.6,1.31-4.97,1.32-1.32,2.78-2.19,3.54-2.22.45.09.88.27,1.26.53,1.58.94,2.19,3.31,1.4,5.19h0Zm-11.84-27.45c0,.15-.53.88-1.17,1.7-.47.5-.87,1.06-1.2,1.67.02.13-.07.24-.2.26-.02,0-.04,0-.06,0-.32,0-.32-2.13.03-3.07.18-.42.42-.81.7-1.17.36-.47.44-.47,1.14-.03.41.27.76.57.76.65h0s0-.01,0-.01Zm-76.01,35.12c2.57-.23,11.08-.23,10.64,0-.53.32-9.56,1.61-11.14,1.61-1.2,0-1.23-.03-1.14-.73s.18-.73,1.63-.88Zm-.99-4.5c.2-.26.29-.26,1.52.09,2.37.65,6.9,2.11,6.9,2.22-.15.18-7.29-.7-8.02-.97-.54-.2-.78-.99-.4-1.35Zm-2.05-14.91c-.15,4.85-.36,8.97-.47,9.15-.18.36-4.38-1.99-10.76-6.02-1.78-1.11-3.45-2.08-3.62-2.08-1.05,0-2.19,1.49-2.19,2.86,0,.29.62,1.14,1.37,1.87,1.02,1,2.37,1.84,5.7,3.51,2.37,1.23,5.55,2.72,7.05,3.3,2.69,1.14,2.69,1.17,2.69,2.05v.94l-1.9-.18c-2.11-.18-11.14-2.34-14.65-3.54-2.1-.7-2.22-.82-2.43-1.64-.23-1-.06-7.87.36-13.36.22-3.68.84-7.33,1.84-10.87,1.58-5.61,3.1-8.86,5.29-11.31,2.46-2.75,3.33-2.95,7.54-1.82,4.15,1.09,8.42,2.48,8.42,2.72-.31.84-.66,1.66-1.05,2.46-2.3,4.71-2.71,7.66-3.21,21.96Zm2.13-12.76c0-1.64.67-5.91,1.2-7.48.36-1.17,1.84-2.84,2.48-2.84.36.07.7.2,1.02.36.62.42,1.16.96,1.58,1.58l.82,1.17-2.19,2.16c-1.29,1.32-2.49,2.74-3.57,4.24l-1.33,2.08-.02-1.27Zm6.75-10.7l1.25-1.09c5.2-4.53,13.8-7.48,22.19-7.69.76,0,3.6.09,6.28.23,4.94.26,7.63.61,12.02,1.61,2.92.7,2.72.85-1.35,1.09-7.78.5-18.39,3.1-26.69,6.56-1.75.73-2.95,1.02-5.76,1.35-1.96.23-4.03.53-4.62.67-1.82.41-1.93.36-2.66-1.23l-.67-1.51Zm32.89-3.93c3.13-.62,7.34-.91,11.81-.85l3.8.03,2.19,1.02c1.17.55,2.13,1.09,2.13,1.23s-.67.67-1.52,1.26c-1.87,1.29-5.47,4.62-5.23,4.88.09.12,1.14-.59,2.37-1.58,2.57-2.05,5.41-3.8,6.17-3.8s4.3,1.82,4.12,2.13c-.35.19-.75.27-1.14.23-1.37,0-5.82,1.35-8.77,2.66-1.32.55-2.72,1.2-3.13,1.34-.61.23-1.23.12-4.21-.79-5.96-1.93-8.71-2.31-19.18-2.66-3.74-.15-6.84-.29-6.9-.36,0-.42,12.69-3.87,17.49-4.75ZM12.17,121.63c.71-.28,1.38-.63,2.02-1.05,1.29-.9,1.4-.85.76.41-.65,1.35-1.49,2.31-1.99,2.31s-1.93-.76-1.93-1.02c0-.1.5-.41,1.14-.64Zm-7.44.64c.64,0,2.02.12,3.04.23,1.03.14,2.05.4,3.01.79.65.26,1.4.58,1.7.67.5.15.5.18-.12.67-.46.32-1.01.5-1.58.5-1.72,0-5.17-1.26-6.72-2.46-.48-.41-.45-.41.67-.41Zm6.81,13.13c-3.33-1.02-6.56-3.51-7.98-6.05-.7-1.32-1.72-4.82-1.72-5.99v-.62l.88.56c1.81,1.15,3.83,1.95,5.93,2.34,2.1.44,2.16.47,1.43.79-1.47.6-3.1.67-4.62.2-1.99-.58-2.31-.53-1.46.24,1.58,1.37,4.91,1.49,7.49.23,3.62-1.75,6.87-8.19,7.98-15.87.47-3.22.36-12.89-.15-18.23-.23-2.46-.97-8.19-1.64-12.72-1.64-11.58-2.9-22.16-3.28-27.57-.36-5.32-.15-12.19.44-14.67.88-3.74,3.62-7.55,6.49-8.97,3.42-1.64,4.3-1.78,12.4-1.82,4.03,0,8.71.12,10.41.23s3.25.32,3.48.44c.36.12-.03.58-1.61,2.16-2.4,2.31-3.92,5-5.44,9.56-1.9,5.64-2.63,10.99-2.92,20.79-.15,4.42-.26,6.37-.47,6.37-1.61-.62-2.25-.15-2.45,1.72-.18,1.52.44,2.63,1.78,3.39l1.09.61-.15,5.11c-.64,18.53-2.22,30.81-4.85,37.68-1.25,3.26-3.14,6.24-5.55,8.77-1.7,1.75-2.31,2.13-4.47,3.1-.92.42-1.87.79-2.84,1.09-.2,0-.26.12-.2.24.2.29,1.72-.03,3.68-.79,4.42-1.64,8.62-6.99,10.9-13.77s3.45-15.76,4.38-32.42c.23-4.38.47-8.02.53-8.1s1.02,0,2.13.18c4.1.64,9.74,1.37,12.8,1.72l3.13.29v1.05c0,1.35-.18,1.4-5.67,1.43-6.32.03-6.7.18-5.32,1.99,1.2,1.58,2.55,2.02,6.7,2.19,3.51.12,3.65.15,3.65.67,0,.76-1.2,8.3-1.67,10.52-1.37,6.43-5.35,16.43-8.97,22.54-2.43,3.88-5.23,7.5-8.39,10.82-5.03,5.03-9.79,7.8-15.41,8.95-2.86.61-7.94.41-10.46-.38h-.01Zm69.29-10.67c-.03.06-1.93.62-4.15,1.2s-7.29,1.99-11.28,3.07l-7.22,1.99-.65-.82c-.96-1.17-1.69-1.09-2.69.3s-2.43,2.31-3.57,2.31c-.76,0-.88-.12-1.14-1.05-.09-.44-.28-.85-.55-1.2-.2-.15-.97.47-1.9,1.52-.68.71-1.4,1.37-2.16,1.99-1.55.82-12.63,2.63-17.42,2.8l-3.28.15,1.61-.61c3.71-1.46,7.92-4.42,12.69-9.03,4.74-4.56,7.07-7.63,10.26-13.49,1.93-3.54,2.31-4.21,2.51-4.21.06,0,1.35.93,2.81,2.08,5.64,4.38,12.16,7.72,21.28,10.96,4.64,1.65,5.11,1.85,4.87,2.05h-.01Zm-3.36-3.45c-9.99-3.33-24.97-11.37-24.97-13.45,0-.26.61-2.16,1.34-4.24,1.68-4.77,2.94-9.69,3.77-14.68,1.23-7.02,1.17-6.84,1.82-7.1.36-.12,2.37-.58,4.53-1.02,2.13-.5,5.9-1.43,8.36-2.14,2.4-.67,4.38-1.2,4.56-1.2,0,.09-.93.67-2.1,1.35-4.97,2.86-5.7,3.28-5.88,3.57-.32.53.79,1.28,2.28,1.6,1.32.27,1.58.24,2.63-.26,1.61-.79,4.12-2.92,5.58-4.74l1.25-1.55,1.2.9c4.92,3.75,15.2,6.32,22.45,5.55,4.88-.47,8.13-1.43,10.61-3.13,3.89-2.69,5.26-4.91,6.28-10.35.03-.32.5-.73,1.02-1l.36-.18c.32-.2.55-.41.55-.55,0-.36-1.31-.32-8.86.41-3.71.36-9.59.82-13.07,1.05-10.94.7-15.32,1.34-19.38,2.72-2.57.91-6.46.67-10.41-.64-1.09-.36-4.03-1.64-6.56-2.81l-4.59-2.19-.15-2.72c-.12-1.52-.18-6-.2-9.97l-.03-7.16.96-1.64c1.18-1.6,2.48-3.1,3.89-4.5,2.69-2.72,2.98-2.95,4.65-3.48,4.18-1.28,14.27-2.08,23.3-1.78,6,.21,8.92.53,15.12,1.72l4.18.82,1.72-.5c.94-.27,3.13-.91,4.85-1.43,2.98-.82,6-1.43,9.06-1.82.85-.09,1.2.09,4.27,2.1,1.4.93,2.55,1.82,2.55,1.96-.11.42-.29.81-.53,1.17-.4.76-.66,1.58-.79,2.43-.36,2.02.06,2.92,1.35,2.92.7,0,.93-.2,1.82-1.67.58-.94,1.23-1.78,1.46-1.82.41-.18,1.82.82,2.8,1.87.5.53.47.58-.96,2.75-.78,1.18-1.49,2.41-2.11,3.68-.7,1.55-1.14,3.36-.85,3.36.43-.6.8-1.25,1.09-1.93,1.2-2.37,3.01-5.15,3.8-5.83l.58-.53,2.78,2.86c3.01,3.16,4.76,5.26,4.76,5.73,0,.18-.36.59-.85.88s-1.99,1.49-3.33,2.63-3.89,3.13-5.61,4.38-3.16,2.45-3.22,2.66c-.15.3,1.26,2.55,2.43,4.12.36.54.78,1.04,1.26,1.49.97.73,3.36,1.6,4.42,1.6.66-.05,1.3-.22,1.9-.5,2.8-1.25,4.62-4.74,5.5-10.41.32-2.28.36-2.31.67-1.55.19.5.31,1.02.36,1.55.05.54.23,1.06.53,1.52.44.81.83,1.64,1.17,2.49.91,2.22,1.4,2.55,2.22,1.55.36-.36.7-.64.76-.5.26.41,1.2,5.32,1.52,8.07.22,2.26.28,4.54.18,6.81-.2,6.25-1.29,10.17-4.65,17.1-2.13,4.36-3.74,6.84-6.34,9.85-7.02,7.98-14,12.6-24.43,16.11-7.13,2.43-9.56,2.8-17.02,2.8-9.84.01-18.84-1.57-29.66-5.19h-.01Zm32.65-40.12c.36.61.36.64-.09.9-.49.2-1,.35-1.52.44-.93.12-1.14.06-1.49-.44-.25-.39-.4-.83-.44-1.28,0-.82,1.05-3.13,1.99-4.33.82-1.09,3.07-2.66,4.47-3.19,1.17-.44,4.41-.36,5.35.15.7.36.64,1.66-.15,2.55-.03.06-.62-.23-1.32-.61-1.17-.73-1.29-.73-2.92-.44-2.75.44-4.01,1.72-4.21,4.1-.08,1.1,0,1.66.31,2.16h0Zm7.6-8.71c-3.07-.79-6.05.12-8.77,2.69-1.87,1.82-2.55,3.1-2.86,5.61-.12,1.05-.29,1.99-.41,2.08-.27.26-7.75.12-9.77-.2-3.37-.56-6.63-1.62-9.68-3.16-3.28-1.64-5.06-2.87-4.77-3.36.09-.15,1.35-.36,2.75-.47,7.31-.5,17.77-1.61,23.04-2.49,1.72-.29,5.03-.96,7.34-1.55s4.41-1.05,4.68-1.05c.36-.03.44.18.44.99,0,.59-.09,1.11-.2,1.2-.6,0-1.2-.1-1.77-.29h-.01Zm-24.34,59.7c1.39-.82,3.14-.73,4.44.23,1.07.84,1.7,2.12,1.7,3.48,0,.82-.2,1.25-1.09,2.25-1.37,1.52-1.67,1.55-1.43.06.08-.75.04-1.51-.12-2.25-.38-1.32-2.08-3.1-3.19-3.36-.71-.12-.75-.18-.31-.41Zm-41.28,39.25c-4.27,2.16-5.73,2.63-4.74,1.58.61-.73,1.37-2.84,3.62-10.29,4.03-13.3,5.83-16.96,10.03-19.79,4.33-2.92,13.65-6.02,25.87-8.57,4.21-.91,6.05-1,7.13-.36.44.26.73.58.7.73s-1.05.47-2.19.73-3.16.82-4.44,1.23c-2.34.73-10.52,4.27-14.35,6.2-4.24,2.13-10.85,7.13-11.81,8.92-.36.61-.47.67,2.02-1.32,3.19-2.46,6.6-4.63,10.17-6.49,1.75-.85,3.25-1.52,3.36-1.46s-.7,1.2-1.87,2.57c-2.78,3.28-4.47,5.79-6.08,9.18-4.09,8.68-4.26,9-5.35,10-1.58,1.34-6.78,4.44-12.07,7.15Zm28.24-11.08c-3.25,3.25-5.5,4.97-8.89,6.87-2.51,1.37-8.18,3.95-8.39,3.77,0-.09.67-1.46,1.52-3.07s2.52-5.03,3.65-7.52c1.13-2.49,2.78-5.64,3.54-6.98,3.62-6.17,8.07-10.85,13.15-13.89,3.77-2.22,8.71-3.77,10.23-3.19.85.32.36,1.2-1.9,3.71-3.13,3.45-5.09,5.88-4.94,6.02.18,0,1.82-1.43,3.74-3.18s3.57-3.19,3.68-3.19c.26.23-1.29,2.6-5.09,7.92-4.7,6.62-6.98,9.43-10.31,12.73h0s0-.01,0-.01Zm12.98,10.61c-3.22-6.46-5.08-12.26-5.08-15.58,0-1.52,2.66-6.56,4.01-7.52.79-.55,2.48-.29,4.59.73,3.24,1.46,6.72,5.58,9.7,11.37.7,1.46,2.34,5.11,3.62,8.07l2.34,5.47h1c2.05,0,19.62-3.48,19.88-3.95.24-.97.41-1.96.5-2.95.18-1.46.44-2.81.56-2.92.36-.36,3.48,1.75,4.74,3.19.55.62,1,1.32,1.35,2.08.67,2.13-.41,6.02-2.22,7.95-2.31,2.4-11.9,7.98-17.5,10.14-4.06,1.55-6.37,2.05-9.65,1.99-4.07,0-4.82-.41-8.68-4.38-3.62-3.72-5.93-7.17-9.15-13.69h0s0-.01,0-.01Zm6.17,16.23c.44-.62.91-1.11,1.05-1.11.63.37,1.23.79,1.78,1.26.88.67,2.43,1.84,3.48,2.55,1.84,1.26,3.54,3.07,3.33,3.65-.27.26-.62.42-1,.47-4.03,1-5.61,1.82-6.4,3.39-.61,1.17-.5,1.93.53,2.84,1.67,1.43,2.98,1.09,5.79-1.55,1.09-1,2.08-1.82,2.19-1.82.47,0,.76.88,1.09,3.1.36,2.48.79,3.92,1.58,4.97.53.7.53.88.26,3.36-.18,1.43-.41,3.19-.59,3.92-.23,1.53-.38,3.07-.44,4.62-.18,3.1-.18,3.28-.67,3.19-1.18-.27-2.41-.07-3.45.55-3.3,1.82-3.98,2.1-4.68,1.93-.88-.23-1.14-.79-.67-1.61.89-1.22,1.85-2.39,2.86-3.51,2.84-3.21,3.51-4.35,3.51-5.93,0-.82-.18-1.17-.85-1.78-.64-.55-.97-.67-1.64-.53-2.57.47-3.98,2.37-5.73,7.8-1.23,3.8-1.46,4.18-2.43,3.98-1.22-.38-2.27-1.15-3.01-2.19-.44-.61-.44-.82,0-2.8.53-2.63,3.01-11.35,4.33-15.26.53-1.58,1.37-3.48,1.87-4.18.97-1.46,1.14-2.66.44-3.19-.59-.41-1.58-.12-3.48,1.14-.43.31-.9.56-1.4.73.57-.85,1.19-1.67,1.84-2.45,2.57-3.16,2.75-4.15.79-4.3l-1.09-.09.79-1.14Zm10.82,44.7c-1.09,2.31-1.87,4.56-1.87,5.55.04,1.06.64,2.02,1.58,2.51.94.36.97.59.26,1-.27.12-.46.36-.53.64.09.49.27.95.53,1.37.47.88.73,2.72.41,2.72-.34-.15-.67-.33-.99-.53-.64-.36-1.37-.55-2.1-.53-2.19,0-2.84,1.32-2.84,5.83,0,2.43-1.29,3.62-3.77,3.62-1.87,0-2.4-.64-2.16-2.63.18-1.61.79-2.84,2.55-4.97.67-.81,1.27-1.68,1.78-2.6.36-.79.36-.93-.09-1.82-.93-1.75-2.25-2.16-8.13-2.69-3.65-.32-4.85-.64-4.85-1.26,0-.73,1.52-6.14,1.78-6.4.36-.38.9-.03,3.89,2.37,4.68,3.68,5.83,4.3,8.25,4.3,2.28,0,2.69-.79,3.28-6.14.79-7.13,1.75-9.68,3.69-9.68.82,0,.88.06.76.85-.03.47-.15,2.1-.23,3.6-.14,2.49-.26,2.93-1.19,4.89h0Zm.65,6.64c-.12.47-.32.59-.76.53-.93-.12-.93-2.14,0-4.21l.76-1.64.06,2.37c.05.98.03,1.97-.06,2.95Zm-16.43-11.93c2.4-1.37,2.75-1.72,2.52-2.55-.09-.41-.7-1.28-1.32-1.99-.67-.7-1.2-1.43-1.2-1.7,0-.55.06-.55,1.49.36,2.6,1.67,4.01.88,5.44-3.04,1.58-4.21,2.84-6.37,4.21-7.22.99-.59,1.31-.62,1.84-.06.29.36.43.82.41,1.28,0,.88-.62,1.84-3.92,5.91-1.87,2.31-2.57,3.86-2.11,4.68.67,1.29,2.37,1.26,5.09-.15,1.67-.85,3.3-1.43,3.3-1.17,0,.12-.36.47-.79.79-.58.47-1.09,1.04-1.49,1.67l-.7,1.05-1.7-.15c-2.13-.15-2.66,0-2.66.76,0,.44.53,1.09,1.7,2.13l1.72,1.52-.18,1.72c-.04.64-.14,1.28-.29,1.9-.23.41-1.17-.73-2.25-2.69-1.46-2.66-2.78-3.95-4.09-3.95s-1.7.44-2.66,2.95c-.91,2.37-1.32,3.1-1.78,3.1-.56,0-2.66-1.61-2.84-2.17-.23-.82.73-2.14,2.25-3.01h0Zm-.12-4.3c.43.15.82.39,1.14.7,1.23.99,1.09,1.55-.55,2.13-.76.29-1.46.47-1.58.41-.41-.23.53-3.24.99-3.24h0s0,0,0,0Zm12.22,4.82c-.36.36-2.9-1.52-2.9-2.25,0-.26,1.17,0,2.14.47.79.42,1.23,1.32.76,1.79h0s0,0,0,0Zm-.55,7.75c0,.76-.5,2.22-.82,2.46-1.31.82-4.68-.56-7.45-3.01-1.52-1.4-1.52-1.46-1.2-2.19.18-.41.7-1.75,1.09-2.95,1.11-3.28,1.55-3.57,2.95-2.05.72.87,1.35,1.81,1.87,2.81.64,1.16,1.41,2.24,2.31,3.21.72.7,1.25,1.46,1.25,1.72Zm-8.1-36.25c-.93-1.26-.79-1.52.94-1.52h1.09l-.42,1.3c-.23.7-.5,1.32-.61,1.32s-.56-.49-1-1.1h0Zm-2.92-2.66c.44-.7.73-1.37.67-1.52-.12-.12.03-.24.23-.24s.82-.7,1.35-1.58c1.55-2.57,2.89-3.95,2.57-2.63-.53.9-1.12,1.77-1.79,2.57-2.16,2.69-2.34,3.07-1.82,3.51.36.32.73.18,2.52-.79,1.14-.61,2.13-1.05,2.22-.99.18.18-.44,1.31-.94,1.66-.5.26-1.05.42-1.61.5-2.45.32-2.51.5-1.31,2.63.53.94.7,1.46.53,1.55-.36.23-.5.12-1.46-1.52-.5-.85-.99-1.37-1.37-1.43-.72-.12-.72-.23.22-1.72h0Zm-3.95,11.05c1.02-3.51,1.84-5.55,3.25-7.87l.59-.96.7,1.55c.5,1.14.96,1.72,1.64,2.13.79.47.88.58.67,1.23-1.58,4.77-3.68,11.46-3.68,11.75,0,.7-.47.36-1.32-.9-.52-.82-1.14-1.58-1.84-2.25l-1.04-.96,1.04-3.71Zm-1.96,7.51c.62-2.57.7-2.66,1.93-1.29.62.8,1.15,1.66,1.58,2.57.79,1.55.82,1.72.53,2.69-.21.58-.53,1.09-.76,1.14-.53.09-2.6-1.55-3.22-2.55-.41-.75-.44-.93-.06-2.56h0Zm-3.13,35.2l-.15.67-.99-.5c-1.61-.82-2.69-1.96-2.69-2.87,0-2.28,5.76-28.65,6.29-28.65.52.31,1.01.66,1.46,1.05.55.49,1.13.92,1.75,1.31.64.36.61.97-.18,3.92-1.17,4.3-1.43,5-2.02,5-1.05,0-2.34.82-2.89,1.9-.88,1.75-.76,3.71.36,5.7l.91,1.67-.86,5.05c-.44,2.78-.88,5.35-.99,5.73Zm3.42-17.66c-.2,1.78-1.02,4.56-1.34,4.56-.5,0-1-1.93-.82-3.15.23-1.26,1.26-2.75,1.93-2.75.35,0,.38.23.23,1.35Zm1.17,24.38c-2.51-1.49-3.04-2.1-2.92-3.62s.94-7.57,1.46-10.4c.2-1.09.41-2.11.41-2.14,0-.2,2.17-.12,6.72.27,4.68.36,5.94.73,6.26,1.72.26.85-.06,1.4-1.9,3.6-2.1,2.55-3.01,4.35-3.01,6.14.03,1.61.55,2.48,1.75,3.01,1.77.82,3.87.36,5.15-1.11,1.43-1.52,1.7-2.37,1.64-5.17-.06-2.13,0-2.72.36-3.1.67-.76,1.49-.55,3.07.76l1.46,1.26-.06,6.43-.06,6.43-2.25-.06c-7.7-.23-14.02-1.61-18.08-4.01h0Zm10.7,6.56l-.09-.9,3.3-.15c1.78-.06,4.06-.18,5.03-.21l1.72-.06.32.94c.73,2.19,3.48,3.22,9.97,3.68,4.24.26,4.47.32,4.47,1.05s-2.43,8.1-3.6,11.02c-.7,1.75-.82,1.84-2.31,2.6-1.43.73-1.87.79-4.53.91-3.36.12-6.75-.32-8.39-1.02-1.23-.55-1.72-1.32-2.48-3.92-.88-3-3.31-12.96-3.42-13.96h0Zm10.44,45.37c-1.43,2.19-2.92,3.6-4.59,4.33-.93.47-1.87.58-4.24.67-3.48.12-4.18-.09-4.18-1.2,0-.79,1.17-2.98,2.16-4.09.99-1.02,1.82-.88,4.38.61,1.26.73,2.52,1.32,2.84,1.32.55,0,2.55-1.46,3.86-2.87,1.21-1.27,1.12-.77-.23,1.21h0Zm.94-3.25c-1.35,1.64-2.95,3.1-4.04,3.6-.55.26-.9.15-2.45-.67-.85-.44-1.67-.93-2.46-1.46l-.58-.53,1.32-1.49c.73-.85,1.82-1.99,2.4-2.57,2.02-1.9,2.63-2.95,2.63-4.38,0-1.05-2.4-11.9-3.42-15.38-.12-.47-.15-.85-.06-.85.03,0,.9.36,1.82.76,3.36,1.46,8.89,1.7,11.98.55.73-.29,1.37-.53,1.4-.53,0,.2-.82,2.95-2.92,9.94-2.39,7.92-3.32,10.06-5.63,12.98h0Zm6.93,3.16c-1.55-.23-4.53-1.14-4.74-1.43-.23-.36.36-.32,2.66.36,2.58.73,3.69,1.29,2.08,1.05h0Zm16.64-2.05l1.58.73c3.1,1.49,3.54,2.28,1.82,3.22-.67.36-1.46.47-3.74.44-2.57,0-3.33-.12-6.96-1.11-5.83-1.61-11.23-3.15-12.69-3.6q-1.4-.47-.36-2.69l.5-1.09,1.09.62c.59.36,1.72.99,2.52,1.46,1.93,1.05,6.37,2.92,8.02,3.33,1.96.53,2.87.47,5.7-.47l2.52-.84Zm-7.64-13.9c-2.72,3.6-3.24,5.67-1.96,7.66.82,1.26,2.98,3.01,5.5,4.53,1.52.93,1.72,1.14,1.43,1.43-.5.53-2.78.82-4.59.62-1.67-.2-5.67-1.82-9.65-3.89l-2.37-1.23.09-1.09c.06-1.67,1.46-5.99,3.6-11.4,1.05-2.66,2.13-5.52,2.4-6.37.15-.51.32-1.01.53-1.49.03,0,.88.41,1.84.91,1.96,1.02,3.89,1.43,6.78,1.49.79-.02,1.58.06,2.35.23.51.19.63-.05-5.95,8.61Zm20.7-27.28c-4.15,6.67-10.73,15.09-12.83,16.43-1.67,1.05-8.65.67-11.25-.65-.76-.36-1.02-.67-1.02-1.17,0-1.29,3.98-12.48,4.59-13.01.2-.15,1.96-.53,3.86-.82,6.63-.94,11.81-2.34,14.38-3.83,1.64-.97,3.95-3.19,4.38-4.24.32-.73.5-.82,1.4-.82.58,0,1.05.06,1.05.18.02.34-2.22,4.24-4.55,7.92Zm26.82-19.76c-2.79,2.48-5.92,4.55-9.3,6.14-4.24,2.05-9.8,3.77-14.15,4.33l-1.32.2-1.7-7.13c-.9-3.92-1.72-7.6-1.78-8.24l-.12-1.14,1.26-.29c4.44-1.02,7.02-1.09,8.07-.29.91.7.88,1.25-.12,4.5-1.28,4.15-1.09,6,.73,7.22,1.64,1.05,4.27,0,5.29-2.08.7-1.43.7-2.05.03-5.17-.25-1.07-.42-2.15-.53-3.25,0-.67.09-.73,1.02-.73.55,0,2.19.41,3.6.93,4.53,1.64,5.73,1.67,7.07.24.82-.88.85-2.14.23-3.3-.33-.56-.77-1.05-1.28-1.43-.85-.64-1.23-.7-4.24-.94-3.04-.18-4.77,0-4.12.36.18.12,1.58.29,3.19.41,3.33.32,4.47.7,5.29,1.82,1.05,1.55.36,2.95-1.46,2.95-.44,0-2.31-.47-4.12-1.05-3.6-1.17-4.88-1.29-5.47-.61-.67.76-.73,1.52-.29,3.83.2,1.31.3,2.63.29,3.95-.15,2.22-.82,3.04-2.63,3.28-1.05.12-1.26.03-1.75-.59-.79-.96-.73-1.99.26-5.99l.82-3.36-.53-.7c-.9-1.26-2.02-1.64-4.94-1.61-1.43,0-3.45.09-4.5.18l-1.9.23-.36-1.67c-.67-2.55-.85-2.48,2.92-1.49,4.88,1.29,7.1,1.09,8.42-.55.82-1.05.73-2.55-.36-6.84-.91-3.54-1.4-7.57-1.09-8.83.26-.88,1.2-2.05,1.67-2.05.32.02.63.11.91.26.4.28.73.66.96,1.09.41.73.47,1.64.47,7.19,0,6.05.03,6.4.56,7.1.9,1.23,1.82,1.09,3.22-.41.79-.88,1.5-1.83,2.1-2.84.5-.85,1.2-2.02,1.55-2.55l.64-1.02.5.64c.44.64.84,1.3,1.2,1.99.58,1.09.67,1.49.44,1.85-.15.26-1.37,1.17-2.72,1.96-2.63,1.64-3.07,1.96-2.84,2.19.09.09,1.61-.55,3.36-1.43,2.51-1.29,3.28-1.55,3.45-1.29.23.36,1.61,3.01,2.98,5.67,1.31,2.55,2.63,5.14,2.83,5.61l.36.93-2.07,1.82Zm-5.29-20.99c.32-.32.65-.18,1.4.62.61.61.79.96.73,1.64-.06.44-.2.85-.41.9-.31.15-1.97-2.92-1.71-3.16h-.01Zm17.54,5.06c-1.46,2.81-9.03,9.59-10.17,9.12-.2-.03-1.37-2.1-2.63-4.56l-2.28-4.47.41-1.23c.53-1.55.36-3.16-.44-3.98-.59-.47-1.27-.82-1.99-1.02-1.69-.5-1.9-.73-5.44-6.4-3.54-5.67-3.6-5.76-2.92-6.23.46-.43,1.15-.48,1.67-.12.64.32.99,1.25,1.49,3.77.5,2.66,1.09,3.83,2.31,4.44,1.09.59,2.02.44,2.83-.36.76-.76.56-1.93-.79-4.97-.61-1.35-1.09-2.48-1.02-2.51.69.32,1.35.68,1.99,1.09,1.46.94,2.31,1.29,3.68,1.49.79.1,1.58.27,2.34.5.32.12,1.75,1.78,3.16,3.68,2.83,3.83,3.39,4.68,2.95,4.68s-3.45-1.58-5.05-2.63c-2.66-1.82-3.86-1.96-4.38-.5-.21.57-.16,1.19.12,1.72.44,1.09,1.55,1.78,3.95,2.48,2.95.88,3.95,1.29,4.45,1.82s.44.55-.88,1.99c-1.46,1.61-1.82,2.45-1.46,3.51.36.97,1.87,1.72,2.8,1.35s1.46-1.23,1.84-3.1c.11-.61.27-1.21.5-1.78.09-.06.88.23,1.75.7q1.58.81,1.23,1.51h-.01ZM119.16,99.29c.23.09,4.36.23,9.12.29,6.43.12,9.03.09,10.03-.18,2.66-.61,4.74-2.83,4.06-4.33-.24-.66-.35-1.35-.32-2.05-.03-1.7-.47-2.98-1.61-4.65l-.84-1.23-3.48-.18c-3.04-.15-3.77-.29-5.5-.96-2.28-.88-3.48-.97-5-.3-2.52,1.17-5.38,4.18-6.4,6.78-1.14,2.95-1.2,6.32-.06,6.78Zm21.4-2.45c-1.49,1.37-1.52,1.37-10.47,1.55-4.62.12-8.86.32-9.44.44-.37.15-.77.2-1.17.18-.2-.2,1.4-1.72,2.6-2.43,2.34-1.37,3.54-1.64,6.7-1.49,1.6.09,5.05.2,7.69.29,5.15.17,5.38.23,4.09,1.46h0Zm-16.17-7.05c.46-.49,1.08-.8,1.75-.88.94.18,1.87.43,2.78.76,1.1.39,2.22.7,3.36.93l1.09.2v3.13l-3.19-.15c-5.09-.26-5.64-.36-5.83-1.02-.23-.82-.2-2.63.03-2.98h0Zm11.49,3.62c.82-.28,1.61-.64,2.37-1.05.99-.67,1.09-.67,1.43-.06.36.76.32,1.78-.15,1.96-.56.2-3.75.18-4.59-.09-.55-.15-.47-.23.94-.76h0Zm-.76-2.78c.5-.53,2.55-.55,2.95-.06.2.26.15.5-.32.88-.76.7-2.69,1.7-2.9,1.46-.31-.29-.18-1.87.26-2.28h0Zm-11.84-1.7c.79-.88,3.57-2.4,4.3-2.4.94.16,1.87.38,2.78.67,1.73.42,3.49.73,5.26.94,3.39.32,3.98.7,4.85,3.04.76,2.02.64,2.92-.15,1.02-.32-.82-.76-1.59-1.32-2.28l-.73-.73-3.3.15c-3.19.18-3.39.15-5.93-.67-3.01-.96-3.68-.93-5.41.29l-1.14.82.79-.85Zm-1.28,2.66c.55-.85,1.2-.79,1.09.12-.03.58-.23.76-.79.82-.84.09-.92-.12-.31-.93h0Zm-2.13,3.92c.7-1.55,1.09-1.9,2.63-2.22.97-.2,1.11-.18,1.32.26.11.28-.02.6-.29.73-.24.15-1.26.91-2.28,1.7s-1.87,1.32-1.96,1.26.18-.85.59-1.72h0Zm11.37-26.05c1.13-.33,2.28-.55,3.45-.67,1.55-.15,1.82-.12,2.31.36.73.7,1,2.81.76,6.2-.18,2.86,0,2.98.85.5.85-2.55.73-5.15-.29-6.84-.15-.28-.34-.53-.55-.76-1.05-1.11-2.19-1.29-4.12-.65-1.32.43-2.59,1.01-3.77,1.72-.26.18-.41.29-.41.36,0,.35-.18.38,1.78-.23Zm-1.4,175.64c-1.17-5.52-3.98-8.07-6.17-5.58-.79.91-.85,1.05-.73,2.69.12,2.19.97,3.98,3.04,6.46,3.28,3.89,3.89,5.23,2.63,5.5-.36.09-1.69.36-3.07.67-2.78.58-3.51.96-4.12,2.13-.96,1.87.65,4.15,2.92,4.15,1.58,0,2.84-.67,4.68-2.55,1.93-1.96,1.78-2.46-.15-.62-.68.65-1.43,1.23-2.22,1.72-2.34,1.2-5.29-.32-4.33-2.16.41-.76,1.32-1.17,3.86-1.87,2.81-.73,3.8-1.35,3.8-2.28,0-.76-1.2-2.66-3.68-5.88-1.7-2.22-2.16-3.36-2.05-5.47.09-1.96.5-2.43,1.7-1.99.97.36,1.82,1.7,2.45,3.83.3,1,.76,2.6,1.05,3.6.47,1.61,1.46,3.39,1.75,3.13.06-.06-.15-.88-.44-1.82-.23-.91-.7-2.57-.93-3.66Zm-10.93-196.25c-.23.23-5.58.88-12.16,1.46-8.24.7-11.6,1.17-15.79,2.22-6.02,1.55-11.25,3.89-15.05,6.7-2.6,1.99-3.62,3.04-3.22,3.48.23.23.41.2.79-.15.85-.76,8.51-4.3,11.72-5.41,5.47-1.9,8.48-2.31,21.2-3.04,8.97-.5,11.37-.94,13.3-2.43.94-.7,1.64-2.05,1.43-2.6-.12-.35-1.93-.53-2.22-.23Zm1.05,1.09c-.12.56-2.87,2.08-4.15,2.28-.55.09-4.41.36-8.6.55-11.63.61-18.68,1.82-25,4.27-.92.4-1.87.74-2.83,1.02,0-.09,1.35-.76,3.04-1.46,7.25-3.1,10.82-3.86,24.07-5.15,6.78-.64,10.82-1.2,12.34-1.67,1.15-.34,1.22-.34,1.15.14h-.01Zm-8.51,7.2c-5.23-.64-9.27-.85-12.19-.55-3.42.42-6.79,1.19-10.06,2.28-2.98,1.02-7.37,3.04-7.63,3.45s.55.15,4.41-1.4c3.71-1.46,7.57-2.47,11.52-3.01,2.43-.32,7.63-.26,16.05.15,4.1.2,3.07-.23-2.1-.91Zm-24.15,90.04c-.06.12-.03.26.12.26.15,0,.27-.12.29-.26,0-.18-.06-.26-.12-.26s-.2.09-.29.26Z"/>
      <path class="cls-7" d="m181.81,125.93c.7,0,2.52-.64,2.52-.88-.22-.27-.47-.49-.76-.67-.88-.61-2.78-.99-3.04-.58-.09.15,0,.7.23,1.23.29.7.53.9,1.05.9Zm-48.94,18.04c.53,1.72.67,1.87.99,1.55.36-.32.44.36.5,7.4l.03,7.81,1.28,1.14c1.7,1.55,8.57,6.7,11.52,8.65,2.9,1.96,4.68,2.69,6.46,2.69s2.78-.67,4.03-2.57c3.01-4.53,4.53-10.73,5.5-22.61.23-2.81.53-5.91.64-6.84.16-1.1.24-2.21.26-3.32,0-1.43-.09-1.64-.58-1.87s-.23-.32,1.52-.47c7.05-.61,11.1-1.67,12.92-3.38,3.07-2.78,1.82-9.65-1.82-10.23-1.37-.2-4.18-.32-5.15-.15-1.46.2-1.34.76.12.76,2.46,0,4.56.53,5.55,1.4.76.67,1.64,1.96,1.64,2.43,0,.41-.67-.03-1.9-1.28l-1.39-1.42-3.28-.15c-1.82-.09-3.57-.2-3.86-.32-.47-.12-.62-.06-.62.23,0,.53.56.7,2.31.7,2.22.03,4.77,1,5.5,2.08.55.85.82,2.66.36,2.66-.26-.23-.44-.54-.53-.88-.53-1.46-1.85-2.43-3.75-2.78-.58-.13-1.16-.19-1.75-.18,0,.12.47.5,1.09.9.59.4,1.13.87,1.61,1.4.44.64.53,2.48.15,3.1s-.58.15-.76-1.29c-.09-1.26-.15-1.32-1.99-2.6-1.02-.7-2.43-1.78-3.15-2.4-2.08-1.67-2.19-.32-.2,2.05,1.99,2.43,2.37,3.51,1.49,4.27-.41.32-.44.29-.26-.24.29-.99-.5-1.84-2.69-2.83-2.43-1.11-3.04-1.05-5.11.41-2.55,1.78-3.8,4.36-7.05,14.35-3.01,9.27-4.15,13.39-4.47,16.37-.29,2.87-.32,3.04-.76,2.78-.79-.5-.53-4.74.5-8.6.76-2.83.7-3.28-.64-5.09-1.9-2.51-5.76-6.52-7.66-8.02-2.63-1.9-5.58-3.33-8.71-4.21-3.1-.76-3.22-.7-1.75,1.2,1.68,2.24,2.98,4.74,3.86,7.4Zm31.66-17.83c-.04-.23-.14-.44-.3-.61q-.36-.44-.41-.06c-.04.38.44.9.7.67Zm-40.4-2.45c10.44-3.51,17.42-8.13,24.43-16.11,2.6-3.01,4.21-5.5,6.34-9.85,3.36-6.93,4.45-10.85,4.65-17.1.1-2.27.04-4.55-.18-6.81-.32-2.75-1.26-7.66-1.52-8.07-.06-.15-.41.12-.76.5-.82,1.02-1.31.67-2.22-1.55-.34-.85-.73-1.68-1.17-2.49-.3-.46-.48-.98-.53-1.52-.05-.53-.17-1.05-.36-1.55-.32-.76-.36-.73-.67,1.55-.88,5.67-2.69,9.15-5.5,10.41-.6.27-1.24.44-1.9.5-1.05,0-3.45-.88-4.42-1.6-.47-.45-.9-.95-1.26-1.49-1.17-1.58-2.55-3.83-2.43-4.12.06-.2,1.52-1.4,3.22-2.66s4.24-3.25,5.61-4.38,2.87-2.31,3.33-2.63.85-.7.85-.88c0-.47-1.75-2.57-4.76-5.73l-2.79-2.87-.58.53c-.79.67-2.6,3.45-3.8,5.83-.3.68-.66,1.33-1.09,1.93-.29,0,.15-1.82.85-3.36.62-1.27,1.32-2.51,2.11-3.68,1.43-2.16,1.46-2.22.96-2.75-.99-1.05-2.4-2.05-2.8-1.87-.24.06-.88.9-1.46,1.82-.91,1.46-1.14,1.67-1.82,1.67-1.29,0-1.72-.91-1.35-2.92.12-.85.39-1.67.79-2.43.24-.36.42-.75.53-1.17,0-.12-1.14-1.02-2.55-1.96-3.07-2.02-3.42-2.19-4.27-2.1-3.06.4-6.09,1.01-9.06,1.82-1.72.53-3.92,1.17-4.85,1.43l-1.72.5-4.18-.82c-6.2-1.2-9.12-1.52-15.12-1.72-9.03-.29-19.12.5-23.3,1.78-1.67.53-1.96.76-4.65,3.48-1.41,1.4-2.71,2.9-3.89,4.5l-.96,1.64.03,7.16c.03,3.98.09,8.45.2,9.97l.15,2.72,4.59,2.19c2.55,1.17,5.5,2.46,6.56,2.81,3.95,1.32,7.84,1.55,10.41.64,4.06-1.37,8.45-2.02,19.38-2.72,3.48-.23,9.35-.7,13.07-1.05,7.55-.73,8.86-.79,8.86-.41,0,.15-.23.36-.55.55l-.36.18c-.53.26-1,.67-1.02,1-1.02,5.44-2.4,7.66-6.28,10.35-2.49,1.7-5.73,2.66-10.61,3.13-7.25.76-17.54-1.82-22.45-5.55l-1.2-.9-1.25,1.55c-1.46,1.82-3.98,3.95-5.58,4.74-1.05.5-1.32.53-2.63.26-1.49-.32-2.6-1.09-2.28-1.6.18-.27.9-.7,5.88-3.57,1.17-.67,2.1-1.26,2.1-1.35-.18,0-2.16.53-4.56,1.2-2.46.7-6.23,1.64-8.36,2.14-2.16.44-4.18.9-4.53,1.02-.65.26-.59.09-1.82,7.1-.83,4.99-2.1,9.9-3.77,14.68-.73,2.08-1.34,3.98-1.34,4.24,0,2.08,14.95,10.12,24.97,13.45,10.82,3.62,19.82,5.2,29.64,5.2,7.49,0,9.92-.38,17.05-2.81Zm-10.58-65.6c-8.42-.41-13.62-.47-16.05-.15-3.95.54-7.81,1.55-11.52,3.01-3.86,1.55-4.68,1.79-4.41,1.4s4.65-2.43,7.63-3.45c3.27-1.09,6.64-1.86,10.06-2.28,2.92-.29,6.96-.09,12.19.55,5.16.67,6.19,1.11,2.09.91h0Zm6.14-6.37c-1.93,1.49-4.33,1.93-13.3,2.43-12.72.73-15.73,1.14-21.2,3.04-3.22,1.11-10.87,4.65-11.72,5.41-.36.36-.55.36-.79.15-.41-.44.61-1.49,3.22-3.48,3.8-2.81,9.03-5.15,15.05-6.7,4.18-1.05,7.55-1.52,15.79-2.22,6.56-.59,11.93-1.23,12.16-1.46.29-.29,2.1-.12,2.22.23.2.55-.5,1.9-1.44,2.6h0Zm9.75,18.04c0-.09.15-.2.41-.36,1.19-.72,2.45-1.3,3.77-1.72,1.93-.64,3.07-.47,4.12.65.22.23.4.48.55.76,1.02,1.7,1.14,4.3.29,6.84-.85,2.48-1.02,2.37-.85-.5.23-3.39-.03-5.5-.76-6.2-.47-.5-.76-.53-2.31-.36-1.17.12-2.32.34-3.45.67-1.95.59-1.78.56-1.78.23Zm-10.21,22.77c1.02-2.6,3.89-5.61,6.4-6.78,1.52-.67,2.72-.58,5,.3,1.72.67,2.45.82,5.5.96l3.48.18.85,1.23c1.14,1.67,1.58,2.95,1.61,4.65-.03.7.08,1.39.32,2.05.67,1.49-1.4,3.71-4.06,4.33-1,.26-3.6.29-10.03.18-4.76-.06-8.89-.2-9.12-.29-1.16-.46-1.1-3.83.05-6.78Zm-8.11,96.48c3.28.06,5.58-.44,9.65-1.99,5.61-2.16,15.2-7.75,17.5-10.14,1.82-1.93,2.9-5.83,2.22-7.95-.34-.75-.8-1.46-1.35-2.08-1.25-1.43-4.38-3.54-4.74-3.19-.12.12-.36,1.46-.56,2.92-.09,1-.25,1.98-.5,2.95-.26.47-17.83,3.95-19.88,3.95h-1l-2.34-5.47c-1.29-2.98-2.92-6.61-3.62-8.07-2.98-5.79-6.46-9.91-9.7-11.37-2.11-1.02-3.8-1.29-4.59-.73-1.35.97-4.01,6-4.01,7.52,0,3.33,1.87,9.15,5.09,15.61,3.21,6.52,5.52,9.97,9.12,13.68,3.88,3.95,4.64,4.37,8.71,4.37Zm23.43,94.74c-.77-.16-1.56-.23-2.34-.2-2.89-.06-4.82-.47-6.78-1.49-.97-.5-1.82-.91-1.84-.91-.2.49-.38.98-.53,1.49-.26.85-1.34,3.71-2.4,6.37-2.13,5.41-3.54,9.73-3.6,11.4l-.09,1.09,2.37,1.23c3.98,2.08,7.98,3.68,9.65,3.89,1.82.2,4.09-.09,4.59-.62.29-.29.09-.5-1.43-1.43-2.51-1.52-4.68-3.28-5.5-4.53-1.28-1.99-.76-4.06,1.96-7.66,6.57-8.68,6.45-8.45,5.94-8.64Zm-13.31-1.57s-.67.23-1.4.53c-3.1,1.14-8.62.91-11.98-.55-.94-.41-1.82-.76-1.82-.76-.09,0-.06.36.06.85,1.02,3.48,3.42,14.32,3.42,15.38,0,1.43-.62,2.48-2.63,4.38-.58.58-1.67,1.72-2.4,2.57l-1.32,1.49.58.53c.79.53,1.61,1.02,2.46,1.46,1.55.82,1.9.93,2.45.67,1.09-.5,2.69-1.96,4.04-3.6,2.31-2.92,3.24-5.06,5.64-13.01,2.09-6.98,2.9-9.73,2.9-9.93Zm-17.75-143.92c-1.64.15-3.04.29-3.1.36,0,.12,1.58.67,3.62,1.35,2.83.98,5.6,2.14,8.29,3.46,2.49,1.26,4.71,2.19,4.91,2.13.64-.26,1.75-5.17,2.22-9.73.14-.89.21-1.79.2-2.69-.06-.03-.47-.15-.88-.26-.64-.09-.91.03-1.82.96-2.14,2.25-7.14,3.89-13.45,4.42Zm-2.16-9.76c-4.3-.5-5.5-.53-5.5-.15.03,1,.41,1.11,3.28.94,3.34-.2,4.29-.55,2.21-.79Zm-41.9-51.84c-.09.7-.06.73,1.14.73,1.58,0,10.61-1.29,11.14-1.61.44-.23-8.07-.23-10.64,0-1.48.15-1.59.21-1.63.88Zm9.04-3.07c0-.12-4.53-1.58-6.9-2.22-1.23-.36-1.32-.36-1.52-.09-.36.36-.15,1.14.41,1.35.7.26,7.87,1.14,8.01.97Z"/>
      <path class="cls-3" d="m157.43,97.22c-2.05,4.27-3.83,7.37-5.5,9.5-1.46,1.93-7.02,7.72-8.92,9.3-.85.67-1.35,1.25-1.11,1.25.47,0,8.39-1.96,13.39-3.3,5.51-1.49,8.8-3.36,11.35-6.46,1.2-1.46,2.55-3.74,2.83-4.68l.21-.67-.76.7c-1.7,1.55-3.25,1.7-5.15.53-1.28-.85-2.08-1.78-2.83-3.54-.56-1.28-1.29-4.5-1.29-5.7,0-.44-.09-.76-.2-.76s-1.03,1.72-2.02,3.83Zm9.5,4.8c.64-.36,1.93-2.4,2.28-3.6.2-.7-.15-.76-.79-.06-.55.64-3.01,1.58-4.06,1.58s-1.26.5-.32,1.35c1.08.97,2.08,1.2,2.9.73ZM50.14,26.85c3.36.85,12.1,3.71,14.44,4.74l1.72.79,2.37-2.1c4.27-3.8,7.05-5.23,12.92-6.72,4.59-1.17,8.45-1.46,14.47-1.09,7.4.44,12.76,1.43,17.87,3.36,3.07,1.09,9.35,4.06,13.16,6.11,7.86,4.27,15.17,10.44,22.13,18.71,1.4,1.72,2.69,3.07,2.84,3.07.53-.3,1.01-.66,1.43-1.09,1.14-1.05,1.23-1.2,1.09-2.22-.36-3.45-5.32-10.79-11.2-16.64-4.88-4.85-8.71-7.66-15.17-11.17-2.05-1.07-3.82-2.08-3.87-2.2s.36-.09.97.09c3.33,1.04,9.61,4.24,12.89,6.58,7.51,5.38,14.95,14.09,17.48,20.47.41,1.05.88,1.87,1.05,1.87s1.26-1.17,2.4-2.63l2.13-2.6-.15-3.3c-.36-7.16-1.26-11.93-3.04-15.68-2.78-5.73-8.89-11.43-15.38-14.38-4.74-2.02-9.59-3.77-14.53-5.26-4.06-1.09-11.81-2.66-15.05-3.01-2.52-.27-18.1-.56-20.17-.36-.64.03-2.83.21-4.85.36-9.24.71-19.91,2.26-25.35,3.68-11.08,2.89-24.15,8.97-29.12,13.59-1.75,1.61-4.35,4.53-4.18,4.68.06.06,2.69.2,5.88.36,5.99.29,10.03.82,14.82,2.01Zm109.08,30.64c-1-.73-1.2-.36-.88,1.63.12.82.26,1.55.36,1.61.32.32.67-.29.82-1.55.13-1.11.13-1.4-.31-1.7Zm-2.84,2.95c.12-.26.09-1.05-.03-1.82-.12-1.09-.32-1.55-.73-1.82-.73-.5-2.28-.79-2.28-.5s1.26,3.39,1.67,4.03c.35.61,1.17.64,1.37.11Zm.12,2.57c0-.62-.15-.88-.41-.88-.36,0-.53.91-.23,1.67.26.67.64.23.64-.79Zm-9-.09c-.38-.26-.81-.44-1.27-.53-.76.03-2.22.91-3.54,2.22-2.37,2.37-2.78,4.01-1.31,4.97.73.47.61.62,1.05-1.55.28-.65.69-1.23,1.2-1.72.96-1.02,1.09-1.09,2.13-.97,1.4.2,2.31,1.14,2.31,2.43,0,1.2.41,1.37.82.32.8-1.87.19-4.24-1.39-5.17Zm-12.34-22.89c-.28.35-.52.75-.7,1.17-.36.94-.36,3.07-.03,3.07.13.02.24-.07.26-.2,0-.02,0-.04,0-.06.33-.61.73-1.16,1.2-1.67.64-.82,1.17-1.55,1.17-1.7,0-.09-.36-.36-.76-.64-.7-.44-.76-.44-1.14.03Zm-26.78-3.3c2.98.9,3.6,1.02,4.21.79.41-.15,1.82-.79,3.13-1.34,2.95-1.32,7.4-2.66,8.77-2.66.39.03.79-.05,1.14-.23.18-.29-3.39-2.13-4.12-2.13s-3.6,1.75-6.17,3.8c-1.23.99-2.28,1.7-2.37,1.58-.23-.26,3.36-3.6,5.23-4.88.85-.58,1.52-1.09,1.52-1.26s-.96-.67-2.13-1.23l-2.19-1.02-3.82-.03c-4.47-.06-8.68.23-11.81.85-4.79.88-17.48,4.33-17.48,4.76.06.06,3.16.2,6.9.36,10.48.34,13.23.72,19.19,2.65Zm-1.9,14.76c-13.24,1.29-16.81,2.05-24.07,5.15-1.69.7-3.04,1.37-3.04,1.46.96-.28,1.91-.63,2.83-1.02,6.32-2.45,13.36-3.65,25-4.27,4.18-.2,8.04-.47,8.6-.55,1.29-.2,4.03-1.72,4.15-2.28.09-.5,0-.5-1.14-.15-1.51.47-5.54,1.03-12.33,1.67Zm7.55,23.45c1.64-.29,1.75-.29,2.92.44.7.36,1.29.67,1.32.61.79-.91.85-2.19.15-2.55-.94-.5-4.18-.59-5.35-.15-1.4.53-3.65,2.11-4.47,3.19-.93,1.2-1.99,3.51-1.99,4.33.04.46.19.9.44,1.28.36.5.56.56,1.49.44.52-.09,1.03-.24,1.52-.44.47-.26.47-.29.09-.9-.32-.5-.41-1.05-.32-2.13.21-2.39,1.47-3.67,4.22-4.11Zm-43.79-39.32c.58-.15,2.66-.44,4.62-.67,2.81-.32,4.01-.61,5.76-1.35,8.3-3.45,18.92-6.05,26.69-6.56,4.07-.26,4.27-.41,1.35-1.09-4.38-1-7.07-1.35-12.02-1.61-2.69-.15-5.52-.23-6.28-.23-8.39.2-16.99,3.16-22.19,7.69l-1.25,1.09.67,1.52c.73,1.56.85,1.63,2.66,1.21Zm5.76,87.06c-9.12-3.25-15.64-6.6-21.28-10.96-1.46-1.14-2.75-2.08-2.81-2.08-.2,0-.58.67-2.51,4.21-3.19,5.83-5.52,8.92-10.26,13.49-4.77,4.62-8.97,7.57-12.69,9.03l-1.61.61,3.28-.15c4.8-.18,15.87-1.99,17.42-2.8.76-.62,1.48-1.28,2.16-1.99.93-1.05,1.7-1.67,1.9-1.52.28.35.47.76.55,1.2.26.94.38,1.05,1.14,1.05,1.14,0,2.6-.97,3.57-2.31s1.72-1.46,2.69-.3l.65.82,7.22-1.99c3.98-1.09,9.03-2.49,11.28-3.07s4.12-1.14,4.15-1.2c.23-.22-.24-.42-4.86-2.06Zm-10.93-84.14l2.19-2.16-.82-1.17c-.42-.62-.95-1.16-1.58-1.58-.32-.17-.67-.29-1.02-.36-.64,0-2.1,1.67-2.48,2.84-.53,1.58-1.2,5.83-1.2,7.48v1.27l1.35-2.08c1.08-1.5,2.28-2.92,3.57-4.24Zm-2.81-6.64c0-.23-4.27-1.64-8.42-2.72-4.21-1.11-5.08-.91-7.54,1.82-2.19,2.45-3.71,5.7-5.29,11.31-1.01,3.55-1.63,7.2-1.84,10.87-.41,5.5-.58,12.37-.36,13.36.2.82.32.93,2.43,1.64,3.51,1.2,12.54,3.36,14.65,3.54l1.9.18v-.94c0-.88,0-.9-2.69-2.05-1.49-.58-4.68-2.08-7.05-3.3-3.33-1.67-4.68-2.51-5.7-3.51-.76-.73-1.37-1.58-1.37-1.87,0-1.37,1.14-2.86,2.19-2.86.18,0,1.84.96,3.62,2.08,6.37,4.03,10.58,6.37,10.76,6.02.09-.18.32-4.3.47-9.15.5-14.3.9-17.25,3.19-21.98.4-.79.75-1.6,1.07-2.43Zm-16.43,84.14c3.62-6.11,7.6-16.11,8.97-22.54.47-2.22,1.67-9.77,1.67-10.52,0-.53-.15-.55-3.65-.67-4.15-.18-5.5-.62-6.7-2.19-1.37-1.82-1-1.96,5.32-1.99,5.5-.03,5.67-.09,5.67-1.43v-1.05l-3.13-.29c-3.07-.36-8.71-1.09-12.8-1.72-1.09-.18-2.08-.27-2.13-.18s-.29,3.71-.53,8.1c-.94,16.66-2.13,25.61-4.38,32.42-2.24,6.81-6.49,12.13-10.9,13.77-1.96.76-3.48,1.09-3.68.79-.06-.12,0-.24.2-.24.97-.31,1.91-.67,2.84-1.09,2.16-.97,2.78-1.35,4.47-3.1,2.41-2.53,4.3-5.51,5.55-8.77,2.63-6.87,4.21-19.15,4.85-37.68l.15-5.11-1.09-.61c-1.35-.76-1.96-1.87-1.78-3.39.2-1.87.85-2.34,2.45-1.72.2,0,.32-1.96.47-6.37.29-9.79,1.02-15.14,2.92-20.79,1.52-4.56,3.04-7.25,5.44-9.56,1.58-1.58,1.96-2.05,1.61-2.16-.23-.12-1.82-.29-3.48-.44s-6.37-.23-10.41-.23c-8.1.03-8.97.18-12.4,1.82-2.87,1.43-5.61,5.23-6.49,8.97-.58,2.48-.79,9.35-.44,14.67.36,5.41,1.64,15.99,3.28,27.57.67,4.53,1.4,10.26,1.64,12.72.53,5.35.61,15.02.15,18.23-1.11,7.69-4.35,14.12-7.98,15.87-2.57,1.25-5.91,1.14-7.49-.23-.85-.76-.53-.82,1.46-.24,1.52.47,3.15.4,4.62-.2.73-.32.67-.36-1.43-.79-2.11-.39-4.12-1.19-5.93-2.34l-.88-.56v.62c0,1.17,1.02,4.68,1.72,5.99,1.4,2.55,4.65,5.03,7.98,6.05,2.51.79,7.6,1,10.46.41,5.62-1.14,10.38-3.92,15.41-8.95,3.16-3.32,5.97-6.96,8.4-10.85Zm-32.86,7.25c.5,0,1.35-.97,1.99-2.31.64-1.25.53-1.31-.76-.41-.63.42-1.31.77-2.02,1.05-.64.23-1.14.53-1.14.64,0,.26,1.43,1.02,1.93,1.02Zm-8.89-.62c1.55,1.2,5,2.46,6.72,2.46.57,0,1.12-.18,1.58-.5.61-.5.61-.53.12-.67-.29-.09-1.05-.41-1.7-.67-.97-.39-1.98-.65-3.01-.79-1.02-.12-2.4-.23-3.04-.23-1.14,0-1.17,0-.67.41Z"/>
    </g>
  </g>
</svg>