<?xml version="1.0" ?><!-- Uploaded to: SVG Repo, www.svgrepo.com, Generator: SVG Repo Mixer Tools -->
<svg width="800px" height="800px" viewBox="0 0 128 128" id="Outlined" version="1.1" xml:space="preserve" xmlns="http://www.w3.org/2000/svg" xmlns:xlink="http://www.w3.org/1999/xlink"><style type="text/css">
	.st0{fill:#F03C33;}
</style><path class="st0" d="M16.7,62.3c0,0,0,0.1,0.1,0.1c0.1,0.2,0.2,0.3,0.3,0.5c0,0,0,0,0,0.1l22.5,27.7c0,0,0,0,0,0l0,0  c0.1,0.1,0.2,0.2,0.3,0.3c0,0,0,0,0,0l22.5,17.6c0.1,0.1,0.3,0.2,0.4,0.2c0,0,0,0,0,0c0,0,0.1,0,0.1,0c0.1,0.1,0.2,0.1,0.4,0.1  c0,0,0.1,0,0.1,0c0.2,0,0.3,0.1,0.5,0.1c0.2,0,0.3,0,0.5-0.1c0,0,0.1,0,0.1,0c0.1,0,0.2-0.1,0.4-0.1c0,0,0.1,0,0.1,0c0,0,0,0,0,0  c0.1-0.1,0.3-0.1,0.4-0.2L88,91.1c0,0,0,0,0,0c0.1-0.1,0.2-0.2,0.3-0.3l0,0c0,0,0,0,0,0L110.9,63c0,0,0,0,0-0.1  c0.1-0.1,0.2-0.3,0.3-0.5c0,0,0-0.1,0.1-0.1c0.1-0.2,0.1-0.4,0.2-0.6l2.5-25.2c0,0,0-0.1,0-0.2c0-0.5-0.1-1-0.4-1.4  c-0.1-0.1-0.1-0.2-0.2-0.3c-0.1-0.1-0.1-0.1-0.2-0.2L95.6,19.4c-0.1-0.1-0.1-0.1-0.2-0.1c0,0-0.1-0.1-0.1-0.1  c-0.2-0.1-0.3-0.2-0.5-0.2c0,0-0.1,0-0.1,0c-0.2,0-0.3-0.1-0.5-0.1c-0.1,0-0.1,0-0.2,0c-0.2,0-0.4,0-0.6,0.1c0,0,0,0,0,0l-17.5,5  c0,0-0.1,0-0.1,0c-0.1,0-0.1,0-0.2,0.1c-0.1,0.1-0.2,0.1-0.3,0.2c0,0-0.1,0.1-0.1,0.1c-0.1,0.1-0.3,0.2-0.4,0.4c0,0,0,0,0,0L64,37.6  L53.3,24.7c0,0,0,0,0,0c-0.1-0.1-0.3-0.3-0.4-0.4c0,0-0.1-0.1-0.1-0.1c-0.1-0.1-0.2-0.1-0.3-0.2c-0.1,0-0.1-0.1-0.2-0.1  c0,0-0.1,0-0.1,0l-17.5-5c0,0,0,0,0,0c-0.2-0.1-0.4-0.1-0.6-0.1c0,0-0.1,0-0.1,0c-0.2,0-0.4,0-0.5,0.1c0,0,0,0-0.1,0  c-0.2,0.1-0.4,0.1-0.5,0.2c0,0-0.1,0.1-0.1,0.1c-0.1,0-0.1,0.1-0.2,0.1L14.9,34.5c-0.1,0.1-0.1,0.1-0.2,0.2  c-0.1,0.1-0.2,0.2-0.2,0.3c-0.3,0.4-0.4,0.9-0.4,1.4c0,0,0,0.1,0,0.2l2.5,25.2C16.6,61.9,16.6,62.1,16.7,62.3z M87.4,84.3l-5.3-15.9  l21.1-3.5L87.4,84.3z M82.1,63.6l3.5-15.7L103,60.1L82.1,63.6z M107.1,57.2L89.5,44.8l19.4-5.3L107.1,57.2z M94.9,25.1l11.7,10.1  l-18.4,5.1L94.9,25.1z M89.8,24.8l-5.7,13l-4.3-10.1L89.8,24.8z M75.9,30.7L80.2,41l-11.6-1.5L75.9,30.7z M81.2,45.9L78,60.1  l-9.5-15.9L81.2,45.9z M82.1,83.3l-13.4-9l8.9-4.5L82.1,83.3z M66.4,50l9.3,15.6l-9.3,4.7V50z M66.4,78.5l16.1,10.8L66.4,102V78.5z   M24.7,64.9l21.1,3.5l-5.3,15.9L24.7,64.9z M25,60.1l17.4-12.2l3.5,15.7L25,60.1z M61.6,102L45.5,89.3l16.1-10.8V102z M45.9,83.3  l4.5-13.5l8.9,4.5L45.9,83.3z M61.6,70.2l-9.3-4.7L61.6,50V70.2z M50,60.1l-3.2-14.3l12.6-1.6L50,60.1z M52.1,30.7l7.3,8.8L47.8,41  L52.1,30.7z M48.2,27.7l-4.3,10.1l-5.7-13L48.2,27.7z M33.1,25.1l6.7,15.2l-18.4-5.1L33.1,25.1z M38.5,44.8L20.9,57.2l-1.8-17.7  L38.5,44.8z"/></svg>