<?xml version="1.0" encoding="UTF-8"?>
<svg id="Layer_2" data-name="Layer 2" xmlns="http://www.w3.org/2000/svg" viewBox="0 0 267.02 439.76">
  <defs>
    <style>
      .cls-1, .cls-2, .cls-3, .cls-4, .cls-5, .cls-6 {
        stroke-width: 0px;
      }

      .cls-2 {
        fill: #f8b7b7;
      }

      .cls-3 {
        fill: #3684c6;
      }

      .cls-4 {
        fill: #fff;
      }

      .cls-5 {
        fill: #f0cd86;
      }

      .cls-6 {
        fill: #e9e868;
      }
    </style>
  </defs>
  <g id="Layer_1-2" data-name="Layer 1">
    <g>
      <path class="cls-6" d="m250.88,292.86c-.75-3.42-2.28-2.28-2.47-3.87-.81-8.39-1.76-3.05-4.91.07-.42-1.4,3.51-7.19,2.28-7.64-1.66.46-3.19,2.08-4.85.94,1.07-1.36,3.87-.91,4.39-2.63-1.27-3.45-6.54-2.31-7.32-5.99,2.11.16,3.77,2.12,5.69,3.05-6.11-18.91-17.34-36.9-33.23-49.33-2.76-1.1-8.79,3.78-11.52,5.09-7.29,4.65-14.35,9.7-21.57,14.51-1.73,1.14-3.61,2.04-5.47,3-1.73.65-.45,2.55-.59,3.94.16,1.47.03,3.05.59,4.36,1.5,5.5.81,10.69.91,16.43.39,17.6-3.84,34.69-6.96,51.92-1.4,8.42-3.87,16.63-5.76,24.94-.51,1.99-.36,3.39,1.5,4.75,8.79,7.59,19.27,7.43,29.96,4.79,2.7-1.07,11.42-2.11,11.71-5.17,3.97-16.5,10.28-32.58,12.85-49.38,1.3-5.66,1.02-11.45.98-17.21.1-1.37-.75-2.9.33-4.04,1.17,1.2.72,3.09.91,4.65.51,13.47-1.1,26.98-5.24,39.83-1.11,4.58-2.55,9.05-3.94,13.54-1.14,4.85-2.18,9.67-3.97,14.39-.1,1.14-1.39,3.84-.19,4.36,5.44-.29,10.61-1.33,15.39-3.97,12.37-5.69,22.49-15.07,32.28-24.28,12.53-14.71,14.29-5.76,5.7-23.14-2.56-5.95-4.99-11.94-7.47-17.92Zm-15.62,25.64c.11-.03.21-.05.33-.07.51-.13,1.02-.26,1.59-.39-.63,1.28-1.95,2.08-3.39,2.04.36-.61.94-.96,1.47-1.58Zm-23.14-45.39c.13-.91.75-1.34,1.4-1.95s1.33-1.47,1.95-.78c.85,1.17-2.31,2.73-3.35,2.73Zm-.85-4.2c.95-1.43,1.79-2.83,2.73-4.16.23-.36.81-.46,1.27-.69-.43,3.22-3.26,5.7-4.72,8.53-.13.23-.55.23-.81.36-.07-1.47.98-2.62,1.53-4.04Zm-8.85-7.59c1.53,1.4,1.56,3.75,2.51,5.6.42,1.24.85,2.41,1.17,3.56.05.3.05.61,0,.91-1.59-.47-4.62-8.54-3.68-10.07Zm2.41,10.81c-1.89.36-6.41-3.35-6.35-5.34,2.41,1.33,4.39,3.42,6.35,5.34Zm-5.44-1.17c1.43.75,2.73,1.5,4.04,2.28.19.1.29.39.45.62-2.64.51-5.21-1.37-6.48-3.52.81-.39,1.36.1,1.99.62Zm4.49,4.23c-1.02,2.24-6.62,2.86-8.95,4.07-.85.29-1.69.59-2.5,0,1.76-2.09,8.62-4.01,11.45-4.07Zm-12.62,36.02c-.51.1-1.04.13-1.56.1.81-1.82,2.93-2.34,4.36-3.56.91-.88,1.92-1.85,3.35-1.33-.68,1.82-3.05,2.41-4.53,3.78-.51.39-1.05.73-1.62,1.02Zm2.18,3.56c-1.63.58-3.43.46-4.98-.32.75-.98,1.85-.69,2.93-.69.42.2.81.26,1.14.42.32.17.63.37.91.6v-.02Zm-2.41-11.2c.19-.18.41-.32.65-.42.07.36.29.78.13,1.07-1.39,2.12-2.18,4.98-4.07,6.62-.59-2.04,1.47-3.94,2.15-5.89.43-.48.75-.97,1.15-1.36v-.02Zm-12.59-2.79c1.73.45,6.51,8.42,5.89,10.18-2.11-1.95-3.35-4.79-5.09-7.23-.33-.81-.68-1.46-.94-2.21-.09-.17.11-.46.14-.72v-.02Zm-6.54,5.27c3.42,1.07,6.11,3.32,8.92,5.37.33.23.45.78.68,1.17-3.56-.62-6.41-3.56-9.63-5.21-.46-.27-1.04-.79.03-1.31v-.02Zm-2.34,6.67c.36-.06.71-.08,1.07-.07,2.73.65,5.79.03,8.14,1.69-2.55.75-5.21-.1-7.81-.19-.8.02-1.18-.7-1.41-1.41v-.02Zm2.99,7.48c1.76-1.59,4.49-2.99,6.96-3.02-.16.42-.33,1.02-.72,1.2-1.99.64-4.13,2.43-6.25,1.83h0Zm4.82,1.82c-.51-1.07,2.64-2.6,3.35-3.64.13-.13.16-.23.22-.26l1.76-.39c-1.21,1.58-3.22,4.67-5.34,4.32v-.02Zm7.68,2.47c-.62,1.59,0,3.64-1.17,5.09-1.3-1.86-.2-4.04-.75-6.19-.3-1.27.55-2.73.94-4.2,1.5-1.98,1.63,4.5.98,5.31v-.02Zm.51-14.35c.59-1.56.72-5.99,2.12-6.62,1.43.39-1.02,6.31-1.7,7.16-.12-.18-.26-.36-.41-.52v-.02Zm6.25,18.22c-1.92-1.04-2.21-3.56-3.35-5.27-.51-1.47-2.15-2.76-1.63-4.39,1.07.39,1.3,1.47,1.95,2.41,1.73,1.82,2.38,4.1,3.16,6.31.03.33-.02.66-.12.97v-.02Zm-3.09-9.53c.33-.91,1.92.68,2.73.81.3.2.55.33.65.51.14.45.25.9.33,1.36-1.68.13-2.49-1.72-3.7-2.66v-.02Zm3.16-1.11c-.94-.36-1.79-.62-2.64-.94-.22-.1-.33-.51-.51-.75,2.21.07,8.79,1.17,9.44,3.48-2.18.15-4.13-1.12-6.28-1.77v-.02Zm6.96-4.85c-1.73.22-3.39.42-5.04.55-.19,0-.42-.33-.62-.45.53-.91,7.11-2.13,5.67-.08v-.02Zm-2.83-25.58c1.27-3.94,5.33-6.11,8.2-8.82.16-.13,1.02-.98.91.39-2.86,2.89-5.23,7.28-9.1,8.45v-.02Zm5.63,3.64c.04-.48.1-.96.19-1.43,1.56-3.05,1.95-6.73,4.39-9.16-.42,3.62-1.23,8.69-4.58,10.61v-.02Zm5.97-27.24c.19-.85.29-1.62.51-2.37.15-.32.37-.61.62-.85.19.29.62.62.59.85-.51,1.79.06,5.04-1.47,6.11-.9-1.08-.22-2.35-.25-3.74Zm.13,8.73c-.06-.19-.09-.39-.1-.59.26-1.47.51-2.96,1.95-3.91.18,1.54-.32,3.09-1.37,4.24-.1.15-.33.19-.49.28v-.02Zm2.38,16.4c-1.95.13-2.64-11.56-.51-6.48.06,2.3,1.03,4.38.51,6.5v-.02Zm0-7.94c-.07-.2-.16-.26-.16-.33-.03-.51-.03-1.02-.03-1.59,1.82,1.39,3.35,3.56,2.96,5.95-1.37.02-1.92-2.89-2.77-4.01v-.02Zm1.7-2.93c-1.79-3.19,9.57,1.04,9.73,2.24-3.32.35-6.67-.86-9.73-2.24Zm4.39-3.28c-1.4.33-2.73,1.14-4.1.33,1.14-1.33,2.87-1.44,4.46-2.08,1.69-.91,3.45-.88,5.17-.98.3,0,.55.33.81.51-1.79,1.4-4.26,1.5-6.34,2.24v-.02h0Zm8.65,44.8c.94.26,1.82.62,2.73.88.19.1.42-.07.65-.1-.39-1.02-1.43-1.92-1.14-3.05,1.1.29,1.73,1.53,2.38,2.38.51.78-1.37,2.9-2.04,2.79-.36-.1-.62-.51-.94-.75-.5-.49-3.3-1.47-1.64-2.12v-.03h0Zm1.47,4.3c1.14-.16,2.73-.62,3.42.62-.91.68-1.82.51-2.99.51-.62.03-1.14.1-1.7.13.42-.44.75-1.09,1.27-1.23v-.03Zm1.36,3.56c-.42.23-.81.46-1.17.65.03-.42-.16-1.02.07-1.21.43-.31.92-.52,1.43-.65-.07.41-.18.81-.32,1.21h-.01Zm1.24,2.04c-.85-1.1.26-2.04.55-3.22.19-.27.41-.52.65-.75.11,1.17.11,3.51-1.21,3.98h0Zm1.85-11.22c0-.07.55-.1.81-.19,1.04-.07,1.53-1.92,1.89-.26,0,1.82-1.59,1.76-2.5,2.84-.1-.79-.16-1.6-.2-2.38h0Zm1.24,6.34c.33.26.65.51.95.78.14.18.23.39.26.62-1.76,4.91-2.98.88-1.21-1.41h0Zm2.64.75c-.65-.43-1.2-.72-1.76-1.02-.17-.2-.29-.43-.36-.68,1.53-.07,4.42.45,5.4,1.73-1.01.72-2.1.13-3.29-.03h0Zm3.05-3.35c-1.17.23-2.41.36-3.74.51-.29-.25-.53-.53-.75-.85,1.57-.66,3.32-.8,4.98-.39-.16.27-.29.69-.48.72h0Zm1.76-41.49c-.19,0-.36-.19-.51-.29,1.1-1.43,3.68-1.27,4.98-.3-.47.44-1.11.66-1.76.59-.98,0-1.83.03-2.71,0h0Zm-68.04-32.32c8.27-3.56,15.1-9.7,22.49-14.71,1.95-1.41,4-2.69,6.11-3.84,2.55-1.33,5.17-2.44,7.74-3.56.81-.36.78-.78.39-1.37-5.79-8.33-10.64-17.31-15.39-26.26-1.79,2.28-3.12,4.94-5.89,6.22.2-2.55,2.87-4.3,4.13-6.41,2.44-3.05-9.16-16.2-11.2-19.56-2-2.19-3.52-5.39-5.91-7.01-6.31,1.18-6.48,5.83-10.42,9.38-.29-1.3.95-2.21,1.37-3.32.81-1.95,2.31-3.19,3.74-4.65-5.96-1.46-4.68-2.57-6.38,2.31-1.59-.16.75-4.49-.59-5.14-6.17-4.39-10.74-10.69-12.99-17.91-.29-1.02-.88-.07-1.1.51-1.14,3.22-2.31,6.41-3.42,9.67-.36,2.31,1.79,4.3,2.47,6.41,1.88,4.33,2.57,8.91,3.09,13.51.16,1.27.55,1.56,1.79,1.3,1.92-.22,4-1.1,5.92-.65-1.43,1.86-4.46,1.53-6.57,2.25-3.68,1.5.85,5.27-9.16,9.92-10.77,4.43-9.96-3.32-11.88,11,.1,2.08-2.18,6.15.88,6.67,4.07.85,9.34-.2,12.04,3.64,3.02,4.88,6.87,8.72,10.84,13.02,4.23,4.42,5.69,1.27,9.31,3.02-1.3.55-2.87.19-4.2.85,1.07,1.5,2.38.16,3.71.51-.13.07-.36.07-.39.16-.19.51-.39,1.07-.55,1.63.91-.3,1.66-.91,2.64-.85-.63.64-1.02,1.48-1.11,2.37,1.17-.26,1.24-1.79,2.44-1.79-.51,3.35-2.77,1.14,1.53,5.79.55-1.47-.94-3.13.07-4.46,1.9,1.17,1.66,12.56,4.44,11.36Zm18.33-29.55c-.59-1.82-2.15-3.56-1.88-5.5.63.3,1.12.84,1.36,1.5.59,1.46,1.21,2.8,1.76,4.13.07.16.07.39.13.59-.54-.04-1.03-.3-1.37-.72h0Zm-2.04-9.16c1.85-.07,7.88,4.19,8.2,6.02-1.71-.01-7.6-4.37-8.19-6l-.02-.02Zm8.04-.51c-2.67-.13-5.76,0-8.04-1.43,2.34-.88,5.21.29,7.68.36.99.2.99.4.37,1.11l-.02-.04Zm-5.45-4.2c1.13-.09,2.26-.11,3.39-.07.36.07.7.2,1.02.39-1.27,1.43-3.25.68-4.95.85-.75-.07-1.56.16-2.28-.23.74-.7,1.81-.58,2.82-.94Zm-10.42,11.36c-.19-.3-.39-.59-.62-1.02.51-1.24,1.02-2.35,1.53-3.45.16-.2.34-.37.55-.51.33.82-.59,4.66-1.47,4.99h0Zm-.36-8.56c-.98,1.64-2.83,2.56-4.72,2.34-1.36.23-2.64.51-3.9.75-.16.03-.36-.1-.59-.13,1.07-1.72,7.42-4.06,9.21-2.95h0Zm-5.44-5.53c1.14-.39,5.37,1.92,5.6,3.13-.62.09-1.25,0-1.82-.26-1.17-.68-2.28-1.27-3.39-1.92-.23-.15-.23-.61-.39-.93h0Zm5.01,8.23c.23-.26.72-.23,1.07-.33-.07.26-.1.55-.19.91-2.09,2.28-3.22,6.38-6.67,6.62,1.04-2.8,3.99-4.79,5.79-7.19h0Zm6.22,2.08c-.1-.62-.78-2.9.36-2.08,1.47,1.48.75,6.85-.36,2.09h0Zm1.2-21.83c.3.88.59,1.53.46,2.47-.65,3.19-1.3,6.28-2.04,9.34-.04.23-.43.42-.65.62-1.22-.58,1.19-11.51,2.23-12.43Zm-3.42,20.17c1.76,1.53,1.33,4.2,1.4,6.41,0,1.02.03,1.95,0,2.86-.1.32-.25.62-.45.88-1.66-2.15-.59-5.47-1.02-8.07-.28-.67-.25-1.43.07-2.07h0Zm-3.35-19.91c1.53,2.76,1.69,6.11,2.5,9.16.04.51-.01,1.03-.13,1.53-1.92-1.99-2.57-6.05-2.86-8.95.19-.69.33-1.21.49-1.73h0Zm-1.66,9.37c.32.43.61.89.85,1.37.11.3.19.6.23.91-2.08-.51-3.56-3.22-4.82-4.88,1.69.01,2.47,1.67,3.74,2.61h0Zm-8.27-21.31c-.68,1.66-2.38,1.79-3.84,2.47-.98-.94,2.9-2.86,3.84-2.46h0Zm6.22,2.64c-1.14,1.1-3.13.85-4.62,1.33-1.73.39-3.25.75-5.09,1.02-.35-.17-.68-.38-.98-.62,3.21-1.34,7.37-2.87,10.69-1.72h0Zm-10.61,12.27c-.45-.51-.88-.85-1.02-1.53-.36-1.62-2.24-3.81-1.3-5.17,1.77,1.5,3.3,4.5,2.32,6.71h0Zm-2.24-17.57c1.53.45-.81,2.96-1.07,4-.23.33-.68-.07-.72-.33-.1-1.58.85-2.49,1.79-3.67h0Zm-1.33,13.11c.16.16.51.33.51.55-.19,1.82.88,5.63-.26,6.9-1.06-2.27-1.49-5.23-.25-7.44h0Zm-4.75-20.63c1.17,3.36,2.01,6.83,2.5,10.35-.26-.19-.5-.41-.72-.65-.36-2.72-4.16-7.73-1.79-9.69h0Zm-4.3,5.5c1.72,1.02,2.96,2.83,4.45,4.17.51.42.51,1.2.75,1.79-1.36-.42-2.21-1.36-3.28-2.31-.42-.9-3.48-3.18-1.92-3.63h0Zm-1.86,3.52c2.64.13,4.53,2.47,6.67,3.81-2.77.56-5.18-1.75-6.67-3.8h0Zm-2.31,16.8c-1.46-.91,8.2-8.49,9.47-8.33-.26,1.59-1.6,2.24-2.73,3.35-2.35,1.54-4.01,4.39-6.74,4.98h0Zm5.44,4.01c-.3-.62,5.56-12.73,5.27-9.24-1.53,2.44-2.47,8.72-5.27,9.24h0Zm3.56,30.1c-.3-.32-.58-.67-.81-1.04,1.5-.33,5.89,1.89,6.28,3.39-2.04.33-3.53-1.59-5.45-2.34h-.02Zm6.62,1.46c-.75-.94-2.18-3.16-1.24-4.19.88.78.98,1.95,1.5,3.05-.04.39-.11.77-.22,1.14h-.04Zm1.17-1.46c-.19-.26-.51-.51-.59-.75-.13-.88-.16-1.76-.26-2.73.2-.41.43-.8.68-1.17.81,1.43.89,3.16.2,4.65h-.04Zm-.03-42.05c-.36-.16-.55-.59-.81-.91,2.38-1.11,4.53.32,6.44,1.5,1.17.78,2.73.97,3.74,2.04-1.4.85-3.16-.3-4.65-.65-1.59-.7-3.19-1.29-4.68-1.98h-.04Zm2.12,41c1.02-1.3,1.23-3.61,2.99-3.87.81,1.56-4.59,8.49-2.96,3.87h-.04Zm.88,2.83c1.89-1.02,3.48-3.09,5.63-3.16-.42,1.99-2.83,2.47-4.26,3.81-.61.49-2.13.3-1.33-.65h-.04Zm-.03,2.96c.29-.85,7.51-1.02,8.14-.33-.3.26-.55.72-.91.75-2.2.54-4.48.67-6.73.36.42,1.66,3.56,1.66,3.12,3.64-.85-.3-1.43-1.02-2.31-1.21.46,1.3,1.89,2.15,1.86,3.61-.3-.07-.55-.1-.91-.2-2.26-2.41-2.68-3.48-2.22-6.64h-.04Z"/>
      <path class="cls-2" d="m117.62,164.67c-.51,4.43.16,8.85.59,13.24,2.8-3.51,5.76-7.58,5.83-12.33-.26-2.99-.85-10.38-3.05-12.17-1.41,3.79-2.61,7.24-3.36,11.27Z"/>
      <path class="cls-1" d="m265.49,316.45c-6.62-14.32-12.62-28.9-18.84-43.41-7.03-17.41-16.4-35.41-32.44-46.08-5.79-3.68-7.78-10.35-10.81-16.11-2.7-5.82-5.5-11.65-8.95-17.05-4.69-8.41-10.37-16.23-16.92-23.3-2.08-2.15-4.07-4.27-5.01-7.1-2.12-4.36-1.18-8.76.33-13.11,2.28-6.96,5.27-13.64,7.88-20.47,7.32-22.23,15.06-44.52,18.71-67.71,1.14-5.47,2.47-10.87,3.45-16.34.88-3.35.85-7.19,2.64-10.22,2.93-4.5,18.48-20.36,16.8-24.41,2.51-4.79-.65-12.56-6.83-10.93-3.29.46-5.3,3.71-7.71,5.76-1.5,1.62-1.76,1.76-2.87-.04-.76-1.38-2.49-1.88-3.87-1.11-.53.3-.96.76-1.22,1.31-.49,1.21-1.09,2.38-1.79,3.48-2.37,3.19-5.85,6.15-6.02,10.38,0,6.9-.65,13.67-2.8,20.24-1.95,7.84-3.94,15.65-6.51,23.3-5.89,17.46-12.69,34.6-20.36,51.35-5.53,12.46-12.5,24.18-17.96,36.65-1.64,3.32-2.8,6.86-3.45,10.51-1.04,2.67-3.05-1.27-3.39-2.41-1.14-5.53-1.7-11.2-3.09-16.63-1.7-6.08-4.39-11.78-6.84-17.57-1.73-4.82-5.4-8.52-7.74-12.95-.81-2.67-1.7-5.21-3.45-7.55-6.25-8.53-15.91-14.02-26.06-16.53-4.36-.33-1.37-4.65-5.3-3.68-10.84,3.05-21.84-3.81-32.51.26-2.18.81-4.45,1.6-6.41,2.84-1.76,1.1-2.41.42-2.6-1.02-.2-1.14-.98-1.59-2.04-1.07-2.5,1.73-3.35,5.18-6.54,6.19-2.18.55-8.07,4.16-7.32-.45.51-2.51,1.14-4.98,1.82-7.45.78-1.82-1.43-3.16-2.8-1.76-6.73,5.37-3.64,14.13-10.38,2.18-1.53-2.57-3.56-.55-3.56,1.56-.16.78-.46,1.39-1.4,1.2-3.05-.85-8.33-2.47-6.05,2.67,5.33,6.93.45,2.73-.04,7.45.07,2.21,1.11,3.94,2.44,5.56,2.28,2.7-2.93,2.8-3.05,5.41-.51,1.56-1.3,3.05-1.56,4.68,2.15.51,4.3-.1,6.41.51,4.66,4.07-3.42,10.42-7.58,11.49-1.5.51-2.38,1.63-1.59,2.93,1.02,2.7,5.56,1.63,5.66,3.9-3.45,9.47-6.22,19.34-4.2,29.45.39,2.37,1.27,4.58,2.04,6.83.46,1.17,1.14,2.31,2.64,2.67.57.22,1.02.65,1.27,1.21,2.5,10.48,8.4,19.43,13.54,28.8.97,1.79,1.24,1.95,3.16,1.37.61-.27,1.32,0,1.59.61.01.03.02.05.03.07,3.1,5.53,8.04,10.51,14.62,11.49,6.41.62-.26-5.99.13-8.59.23-.12.5-.14.75-.07,2.67,1.3,5.47,2.47,8.01,4.04,5.04,3.16,9.93,6.57,14.19,10.84.62.6,1.61.58,2.2-.04.29-.3.45-.71.43-1.13.39-1.33-1.89-5.21.19-5.3,1.7.13,1.95-.98,2.34-2.12.59-2.9,5.18,2.57,6.67,3.13,3.74,2.08,1.24-4.3,5.01-2.96,2.31.26,6.28.39,7.16-2.21.23-.94.81-1.1,1.53-1.4,3.03-1.02,5.93-2.6,8.82-3.9,9.73-2.7,18.61-8.2,26.16-14.8,9.5-11.1,3.78,4.49,2.83,9.31-4,16.08,1.53,32.12,5.96,47.51,4.53,23.2,9.83,46.28,12.63,69.81-.13,3.51,1.17,6.67-1.3,9.6-5.24,6.05-16.21,5.89-18.62,14.76-1.82,4,.88,4.65-.26,7.35-3.16,5.3-3.61,9.73,3.78,7.81,2.6-1.02,15.27-13.74,16.46-8.79,0,5.33,6.64,6.96,8.17,1.72.1-3.9,1.73-7.45,3.13-11,.63-1.42,1.1-2.91,1.4-4.43.48-2.6.56-5.25.22-7.88-.03-10.28-.81-20.5-.51-30.82-.59-13.11-1.1-26.23-2.47-39.24,0-6.9-2.41-13.74-2.34-20.66,3.51,1.2,5.92,4.75,9.02,6.77,3.45,2.77,5.24,6.44,5.99,10.69.33,6.74,1.53,13.47,1.24,20.28-.78,12.99-2.08,26.07-4.95,38.82-1.43,7.49-2.64,15.04-4.26,22.45-.65,2.99-1.37,5.96-2.18,8.92-2.7,12.82-4.94,13.51,7.55,21.05.58.19.96.75.91,1.36.16,14.76-.85,29.68,1.69,44.29,1.79,13.24,3.87,24.77,18.33,29.16,5.09,1.46,10.31,1.2,15.46.88,3.16-.68,5.43-4.23,5.09-7.35-.09-1.32-.71-2.54-1.73-3.39-1.03-.75-2.22-1.27-3.48-1.5-5.85-1.04-10.69-5.01-14.42-9.5-4.85-5.99-1.39-20.08-.62-27.66,1.14-7.22,2.08-14.48,3.77-21.57.43-4.46,3.78-3.9,7.07-5.47,3.09-1.79,1.5,3.02,4.36,2.76,1.25-.06,2.49-.04,3.74.04,3.71.36,7.13-.91,10.58-1.86,1.43-.36,2.04,0,2.08,1.44.07,1.56-.23,3.28.33,4.68,1.07,2.8.42,5.7,1.07,8.5.62,8.07.94,16.34,1.07,24.47.65,9.05-1.99,18.48-9.24,24.4-1.14,1.16-1.7,2.77-1.53,4.39.08.92.38,1.8.88,2.57,2.63,3.87,12.82,3.26,16.11.1,4.72-4.33,4.16-11.39,5.47-17.12,2.5-12.14,5.4-24.18,7.64-36.41,2.06-10.33,2.94-20.86,2.63-31.38,0-3.29,9.44-9.63,12.01-12.79,3.83-3.69,7.41-7.64,10.69-11.82,2.34-2.64,1.23-5.96-.17-8.59Zm-115.79-167.99c1.92-3.81,3.94-7.49,5.86-11.3,6.9-14.94,14.65-29.58,20.28-45.13,7.09-18.41,12.95-37.27,17.54-56.45,1.99-12.22-.85-18.62,9.34-28.38,1.36,2.96-.59,6.15-2.41,8.46-.23.26-.23.75-.36,1.17,3.48-1.46,5.43-5.24,8.3-7.64,2.08-2.08,4.26-4.07,6.38-6.11.78-.91,2.04-.55,3.05-.62-1.53,2.67-8.14,7.48-8.01,9.96,3.1-1.06,7.59-9.36,9.84-8.51.71,1.1-.65,1.72-1.24,2.47-1.99,2.87-5.01,5.3-6.38,8.46,3.28-.75,5.56-7.51,8.62-8.04.55,1.27.03,2.15-.95,2.96-2.55,2.57-5.66,4.85-7.48,8.01,2.96-.72,5.04-4.79,7.59-6.62.13,3.16-2.25,5.56-4.1,7.91-3.94,4.65-7.88,9.37-11.49,14.28-3.25,5.41-3.77,11.97-5.41,18.01-1.82,6.57-2.57,13.37-4.2,19.98-3.51,16.7-8.88,32.77-14.22,48.91-1.92,5.04-3.84,10.09-5.6,15.23-2.44,5.99-5.09,11.94-6.38,18.35-2.55,8.53,4.2,11.16,3.68,16.44-8.85,4.1-20.28-12.33-22.68-19.59-.25-.55.11-1.56.43-2.21h0Zm-13.7,14.1c1.47.97,1.56,2.9,3.42,3.56,5.44,1.79,2.35-6.62,6.77,6.51,1.66,7.98,3.81,17.25-5.6,20.99-1.23.55-9.21,3.56-8.82.97.33-1.98.55-3.97.94-5.95.33-5.18-4.19-6.15-2.63-8.07,3.42-4.63,5.4-10.17,5.69-15.91-.16-.76-.42-1.42.23-2.1Zm-86.34,37.84c1.66.91,3.35,1.73,4.95,2.73,3.05,2.7,5.09,7.1,6.54,10.81-6.83-6.62-15.78-10.25-23.72-15.42-4.31-3.03-7.9-6.96-10.54-11.52-.51-.91-.55-2.12-1.95-2.44-.68-.16-.65.19-.51.46,2.37,5.47,5.53,10.18,10.05,14.12,1.27,2.12,1.1,4.91,1.92,7.29.2,1.07,1.3,1.89,1.14,3.05-8.27-4.95-12.73-16.4-16.66-24.94-.46-.91-.85-2.04-2.08-2.04.65,2.83,1.53,5.6,2.21,8.43.2,1.07.98,2.18.39,3.25-4.95-8.14-9.16-17.64-10.97-27.3-.3-1.56-.51-3.16-.68-4.72-.26-3.49.54-6.97,2.31-9.99.62-.68.39-1.66.51-2.5-4.04,3.25-3.94,9.02-6.31,13.18-3.13-7.36-1.34-15.62.75-23.04,1.71-5.68,4.37-11.01,7.9-15.78.68-.55,1.33-1.02,1.4-1.99-1.76-.55-3.39,2.76-4.75,3.84-.3.37-.53.77-.71,1.21-1.18,1.56-3.81.51-5.3.03,3.35-2.57,7.81-4.26,8.62-9.08.97-4.92-2.51-8.4-7.13-7.59,1.85-2.9,5.89-3.97,9.28-3.42.48.01.96-.09,1.39-.3-.26-.36-.51-.97-.88-1.02-2.15-.42-3.45-2.24-5.27-3.16-.6-.41-.98-1.07-1.02-1.79.72.19,6.96,3.25,5.33.94-1.43-.94-3.32-1.02-3.38-3.16-.27-2.71-1.11-5.33-2.44-7.71,1.63-.42,5.4,3.61,5.7,5.3.23.81,1.17.95,1.79,1.3.1-2.38-1.95-4.36-1.43-6.7,1.47,1.92,4.43,3.16,5.18,5.47-.88,3.32.06,6.54.42,9.86.1.46.45,1.24.65,1.24.78-.03.59-.75.55-1.27-.03-4.3-.98-9.47,1.63-13.05.33,3.48.39,7.78,2.86,10.42,1.21-1.56-.62-3.61-.68-5.37-.23-2.86,4.88.36,9.47-2.73,2.31-.68,3.13-3.05,5.09-4.23-.04,1.59-1.24,2.76-1.07,4.36,2.04-.46,3.39-2.21,5.14-3.19,5.66-3.68,12.98-6.05,19.72-4.52,2.99.19,5.99.42,8.98.51,2.08.23,4.39-.75,6.31.19-3.19,2.25-6.78,3.87-10.57,4.79-1.76.55-4.01.07-5.34,1.56.39.13.72.51,1.07.45,5.79.16,10.69-2.9,15.85-4.98,5.6-.33,10.64,2.24,15.75,4.2,5.96,2.5,11.62,6.54,15.56,11.55-1.73.3-3.48-1.24-4.95-2.04-1.85-1.37-2.99-3.68-5.4-4.26,2.31,4.29,5.76,7.88,7.75,12.4.37.41.44,1.01.19,1.5-5.43-3.76-11.42-6.66-17.74-8.59-1.99-.42-4.13-2.34-5.96-1.14.2.26.36.65.59.71,3.48,1.33,7.19,3.05,9.86,5.63-.39,0-.81.23-1.1.1-2.49-1.09-5.18-1.67-7.91-1.72-2.12-.07-4.3-.65-6.35-.36-2.41.51-5.14-.55-7.26.51.91,1.95,6.05.33,7.71,2.15-.48.42-1.13.59-1.76.45-2.31-.45-4.42.46-6.57,1.02-7.13,1.7-12.27,7.68-19,9.9-1.33.29-11.52-.98-10.93.39-.04.85.68.55,1.17.62,7.03,1.43,14.22.59,21.18-.36-3.68,4.85-9.08,8.59-14.38,11.65-1.5.94-3.42,1.5-4.53,2.96,3.87.81,7.81-.36,11.59-.55-.88,1.82-5.5,4.07-7.58,4.53-3.03.06-6.19-.78-9.24-1.04-9.21-1.3-12.92-1.07-18.55-9.16,1.63,12.3,19.53,9.57,28.31,13.34,1.69.51,9.44,5.4,6.02,6.96-2.15.71-3.75,2.67-6.19,2.8-.23,0-.39.51-.62.81,2.5,1.47,5.85.81,8.68,1.47-5.82,4.26-13.54,4.85-20.24,6.93-3.29,1.17-6.73.88-10.09,1.36-2.18.59-4.98-1.59-6.96-.13,2.41,1.92,9.7,2.11,12.92,1.92,3.81,0,8.65-3.35,11.65-.04-12.27-.81-21.54,11.71-28.38,7.23-4.42-2.51-5.4-8.24-5.85-12.96.22-1.27.39-2.37-.59-3.42-.84,2.92-.98,6-.42,8.98.94,5.47,4.03,10.55,9.6,10.61,1.79.2,4.43-1.46,5.57.51,4.92,7.64,11.8,13.83,19.91,17.93,4.1,2.6,13.96,5.33,15.03,9.89-.42-.06-1.02,0-1.24-.22-1.88-2.21-4.45-3.32-6.93-4.58-3.29-1.46-6.62-3.64-10.12-4.39,1.12,2.26,4.18,2.71,6.1,4.11Zm20.57-74.1c-4.58,3.32-5.41,9.63-3.39,14.58-.38-.03-.75-.1-1.11-.19-.51-.2-.94-.51-1.46-.75-4.95-2.64-.2-2.93.33-6.62-2.31-.42-4.33,2.31-6.44.51,1.27-2.7,4.62-3.78,6.54-5.99,2.41-2.34,4.65-4.88,6.25-7.91,1.5-1.99-9.4,2.41-10.51,1.5,3.84-2.7,8.76-4.23,12.89-6.62,9.99-5.09,20.47,6.11,18.77,16.01-4.98-6.09-15.1-9.76-21.86-4.52h0Zm16.53,16.05c-3.13,3.02-8.17,2.38-12.04,1.14-2.67-.62-6.22-.65-6.84-4.07-4.23-15.43,14.51-18.1,22.88-8.3,3.29,1.5-2.18,9.67-4,11.23Zm-30.59-7.32c.01.26-.11.52-.33.68-1.3.1-2.93,1.17-4.1.39.14-.14.3-.27.45-.39.51-.23,1.1-.51,1.66-.75.88-.26,1.85-.91,2.31.07Zm-.88,44.13c4.46,6.57,13.41,7.64,20.57,5.66-6.67,11.39-23.98,6.74-32.21-.71-3.44-2.94-5.77-6.95-6.62-11.39-.39-1.59.13-2.18,1.56-2.6,3.77-1.33,7.68-2.61,11.59-.88-.1-2.04-2.57-3.19-3.68-4.85.3-.13.62-.23.91-.33,2.12-.68,4.2-1.4,6.31-2.12,2.61-1.08,5.54-1.08,8.14,0-8.52,2-12.17,9.9-6.57,17.22Zm8.3-15.98c7.19.16,16.05,8.01,14.76,15.68-.85,5.6-5.14,5.01-8.91,5.53-6.74-.23-14.03-3.84-15.2-11.1-1.09-5.59,4.31-9.7,9.35-10.12h0Zm14.97,45.31c-2.41.19-4.49-1.47-6.77-2.08-.41-.14-.86-.07-1.2.19-.85,1.02-3.71-1.1-5.04-1.27-1.3-.33-1.76-1.04-2.38-2.12,2.51.19,4.88,1.07,7.29,1.63,5.37,1.4,11-.26,16.29.59-.96,1.88-13.52-.14-8.19,3.06h0Zm40.18-18.88c-9.29,7.31-20.43,11.91-32.17,13.28-8.76,1.56-17.74-.39-26.03-3.16-9.53-3.81-19.01-8.65-26.2-16.17-.91-1.5-6.9-6.62-5.53-8.01,10.83-7.84.85,3.26,17.34,13.41,7.88,4.95,19.2,6.9,27.27,1.4,7.58-5.33,9.73-17.54,1.73-23.53-4.62-4.2-10.77-5.89-16.66-7.09,1.95-1.63,4.62-2.73,5.7-5.27-2.8-.51-5.83,1.2-8.47.33,1.3-1.86,6.58-1.89,5.14-4.85-1.56-3.38-4.68-4.94-7.39-7.16,1.86-.75,5.99-3.84,7.59-2.55,6.57,4.01,14.32,6.19,22,5.7,11.39-2.34,14.16-20.54,6.7-28.21-1.73-2.04-3.42-3.81-5.99-4.39-.16-.04-.3-.33-.46-.46,1.33-.62,2.87-.13,4.23-.75-.75-1.33-2.55-.98-3.48-2.11,1.44-.65,2.93.13,4.36.36,3.05.75,6.11,1.47,9.16,2.28,1.5.33,2.77,1.56,4.39,1.07-.51-2.11-2.93-2.9-4-4.68,5.82.88,11.36,7.42,16.5,10.28.46-2.12-1.02-4.2-1.69-6.19-.85-2.04-2.55-3.74-2.96-5.99,8.53,3.09,17.12,25.06,19.98,33.75,6.25,20,6.65,34.76-11.06,48.72Zm15.97,145.76c-.09.19-.21.36-.36.51-.42.45-.88.88-1.3,1.33-1.43,1.73-3.05,3.09-3.56,5.24-.13.51-.88.88-1.33,1.3-.49-2.92,3.74-8.19,6.54-8.38h.02Zm20.17-37.54c.39,10.54.59,21.09,1.02,31.63.16,3.16-.71,6.11-1.92,8.88-1.19,2.6-2.06,5.33-2.57,8.14-.29.68-.51,3.02-1.66,2.5-3.68-2.57,1.92-11.42-.55-12.82-.81-.23-.51.51-.51.88.36,6.11-6.77,6.31-10.84,9.01-1.86,1.37-3.56,2.55-5.3,3.84-2.15,1.27-3.78,3.87-6.44,3.81,2.04-4.33,7.26-6.48,9.99-10.42-2.38.07-3.87,2.5-5.73,3.78-.04-3.56,5.33-5.44,6.28-8.43-2.57.1-3.35,3.56-5.76,3.9.51-2.93,5.04-6.41,6.9-9.08,3.03-1.1,5.99-2.28,8.14-4.78,4.07-4.23,2.24-10.87,1.72-16.11.16-7.32-1.95-14.48-2.99-21.74-.91-9.05-3.32-17.82-4.72-26.75-1.92-13.74-6.02-27.07-9.4-40.48-.51-2.67-.75-5.44-1.04-8.17-.1-1.27.46-1.59,1.7-1.33,2.21.51,4.72.33,6.87,1.04,4.29,2.64,6.62,7.74,9.86,11.48,1.2,2.61.85,5.76,1.46,8.59,3.58,20.68,4.91,41.61,5.51,62.61Zm12.07-61.15c-1.02,1.33.51,2.99-.07,4.46-4.3-4.66-2.04-2.44-1.53-5.79-1.21,0-1.27,1.53-2.44,1.79.09-.9.48-1.73,1.11-2.37-.98-.07-1.73.55-2.64.85.16-.55.36-1.11.55-1.63.04-.1.26-.1.39-.16-1.33-.33-2.64,1.02-3.71-.51,1.33-.65,2.9-.29,4.2-.85-3.61-1.76-5.09,1.4-9.31-3.02-3.97-4.3-7.81-8.14-10.84-13.02-2.7-3.84-7.97-2.8-12.04-3.64-3.05-.51-.78-4.58-.88-6.67,1.92-14.32,1.1-6.57,11.88-11,9.99-4.65,5.47-8.42,9.16-9.92,2.11-.72,5.14-.39,6.57-2.25-1.92-.45-4,.43-5.92.65-1.24.26-1.63-.03-1.79-1.3-.51-4.58-1.21-9.16-3.09-13.51-.69-2.12-2.83-4.1-2.47-6.41,1.1-3.25,2.28-6.44,3.42-9.67.23-.55.81-1.5,1.1-.51,2.25,7.24,6.81,13.54,12.99,17.93,1.33.65-1.02,4.98.59,5.14,1.7-4.88.42-3.77,6.38-2.31-1.43,1.47-2.93,2.7-3.74,4.65-.42,1.11-1.66,2.04-1.37,3.32,3.94-3.56,4.1-8.2,10.42-9.38,2.38,1.63,3.9,4.82,5.89,7.03,2.04,3.35,13.64,16.5,11.2,19.56-1.27,2.12-3.94,3.87-4.13,6.41,2.77-1.27,4.1-3.94,5.89-6.22,4.75,8.95,9.6,17.93,15.39,26.26.39.59.42,1.02-.39,1.37-2.55,1.1-5.2,2.21-7.74,3.56-2.11,1.15-4.15,2.43-6.11,3.84-7.39,5.01-14.22,11.16-22.49,14.71-2.75,1.23-2.51-10.16-4.4-11.4h-.02Zm21.12,129c-2.96,10.28-4.23,20.99-5.6,31.6-.33,7.55-1.76,15.75,2.96,22.36,4.2,4.88,9.21,9.79,15.62,11.2,1.11.46,2.24.88,2.31,2.35-1.14,7.42-20.87,1.27-24.5-2.35-4.5-4.3-5.53-10.18-6.35-16.08-1.92-9.79-2.15-19.88-2.24-29.84-.75-6.34-.07-12.69-.46-19-.48-3.48,5.21-.23,7.19-.75,2.7.07,5.4-.1,8.1-.19.93.08,3.41-1.03,2.98.7h-.02Zm41.13,57.46c-.69,2.63-1.18,5.4-2.8,7.64-1.14,3.02-15.33,4.26-11.62-.81,3.97-3.13,5.09-7.97,7.03-12.37,2.61-6.41,2.93-13.28,2.67-20.11-.42-9.57-.98-19.17-1.95-28.7.13-3.05-2.83-7.97.75-9.47,3.78-1.44,6.9-3.87,10.12-6.15,2.12-1.17,3.74-3.56,6.22-3.84.88,24.48-6.85,49.51-10.41,73.82Zm23.42-89.2c-9.79,9.21-19.91,18.59-32.28,24.28-4.79,2.64-9.96,3.68-15.39,3.97-1.2-.51.1-3.22.19-4.36,1.79-4.69,2.84-9.54,3.97-14.39,1.4-4.49,2.83-8.95,3.94-13.54,4.13-12.85,5.73-26.36,5.24-39.83-.19-1.56.26-3.45-.91-4.65-1.07,1.14-.23,2.67-.33,4.04.04,5.76.33,11.55-.98,17.21-2.57,16.8-8.88,32.87-12.85,49.38-.29,3.05-9.02,4.07-11.71,5.17-10.69,2.64-21.15,2.8-29.94-4.75-1.86-1.36-1.99-2.76-1.5-4.75,1.88-8.33,4.36-16.53,5.76-24.94,3.13-17.25,7.36-34.34,6.96-51.92-.1-5.73.59-10.93-.91-16.43-.55-1.3-.42-2.9-.59-4.36.13-1.4-1.14-3.29.59-3.94,1.86-.98,3.74-1.86,5.47-3,7.22-4.82,14.28-9.86,21.57-14.51,2.73-1.3,8.76-6.18,11.52-5.09,15.88,12.43,27.11,30.43,33.23,49.33-1.92-.94-3.56-2.9-5.69-3.05.78,3.68,6.05,2.55,7.32,5.99-.51,1.72-3.32,1.27-4.39,2.63,1.66,1.14,3.19-.48,4.85-.94,1.24.42-2.7,6.22-2.28,7.64,3.16-3.13,4.1-8.46,4.91-.07.2,1.59,1.73.46,2.47,3.87,2.47,5.99,4.91,11.97,7.45,17.93,8.59,17.33,6.83,8.36-5.7,23.09Zm-8.72-54.12c-1.3-.97-3.87-1.14-4.98.3.16.1.33.29.51.29.88.04,1.73,0,2.7,0,.65.07,1.29-.14,1.77-.59Zm-10.71,41.75c.21.31.46.6.75.85,1.33-.16,2.55-.29,3.74-.51.19-.03.33-.45.51-.72-1.66-.41-3.42-.28-5,.38Zm3.97-3.51c-.55.13-1.07.26-1.59.39-.11.02-.22.04-.33.07-.51.62-1.11.98-1.47,1.59,1.43.04,2.76-.76,3.39-2.05Zm-4.3,6.15c.55.33,1.1.62,1.76,1.02,1.17.16,2.28.75,3.29,0-.98-1.27-3.87-1.79-5.4-1.73.06.26.18.5.36.71Zm.59-6.53c-.36-1.66-.85.2-1.89.26-.26.1-.81.13-.81.19.04.78.1,1.59.2,2.38.91-1.06,2.5-1,2.5-2.84Zm-1.47,6.82c-1.79,2.28-.55,6.32,1.21,1.4-.03-.22-.12-.44-.26-.62-.3-.26-.62-.52-.95-.78Zm-2.54,1.66c-.3,1.2-1.4,2.11-.55,3.22,1.3-.45,1.33-2.79,1.21-3.97-.24.23-.46.48-.65.75Zm-2.05-3.75c.68.1,2.55-2.04,2.04-2.79-.65-.85-1.27-2.09-2.38-2.38-.29,1.14.75,2.04,1.14,3.05-.23.03-.46.19-.65.1-.91-.26-1.79-.62-2.73-.88-1.66.65,1.14,1.63,1.63,2.15.34.23.6.66.96.75Zm2.31,2.02c-.68-1.24-2.28-.78-3.42-.62-.51.13-.85.78-1.27,1.24.55-.03,1.07-.1,1.7-.13,1.18,0,2.09.19,2.99-.49Zm-3.22,3.58c.36-.19.75-.42,1.17-.65.14-.39.25-.79.33-1.2-.51.12-1,.34-1.43.65-.23.2-.04.78-.07,1.21Zm-9.96-55.06c-1.59.65-3.32.75-4.46,2.08,1.37.81,2.7,0,4.1-.33,2.08-.75,4.58-.85,6.34-2.21-.26-.19-.51-.51-.81-.51-1.73.09-3.48.06-5.17.97Zm-4.75,5.02c3.05,1.37,6.41,2.57,9.73,2.24-.16-1.18-11.52-5.41-9.73-2.24Zm1.72-6.81c-.65.62-1.27,1.02-1.4,1.95,1.04,0,4.2-1.56,3.35-2.73-.62-.69-1.37.13-1.95.78Zm1.76-7.1c-.46.23-1.02.33-1.27.69-.94,1.33-1.79,2.73-2.73,4.16-.55,1.4-1.59,2.55-1.53,4.04.26-.13.68-.13.81-.36,1.46-2.83,4.29-5.31,4.72-8.53Zm-5.37,14.93c0,.55,0,1.07.03,1.59,0,.07.1.13.16.33.85,1.14,1.4,4.03,2.77,4.03.39-2.39-1.14-4.54-2.96-5.95Zm.19,9.88c.51-2.12-.45-4.2-.51-6.48-2.13-5.08-1.44,6.61.51,6.48Zm-.52-20.9c-1.47.95-1.7,2.44-1.95,3.91,0,.2.04.4.1.59.16-.1.39-.13.51-.26,1.04-1.15,1.54-2.69,1.35-4.24Zm-.26-6.6c.03-.23-.39-.55-.59-.85-.25.24-.47.53-.62.85-.23.75-.33,1.53-.51,2.37.03,1.37-.65,2.64.26,3.75,1.52-1.07.98-4.33,1.46-6.12Zm-7.68,29.61c3.35-1.92,4.13-6.99,4.58-10.58-2.44,2.41-2.83,6.11-4.39,9.16-.09.47-.16.94-.19,1.42Zm4.46-19.59c.05-.3.05-.61,0-.91-.33-1.14-.75-2.31-1.17-3.56-.95-1.85-.98-4.2-2.51-5.6-.94,1.55,2.09,9.62,3.68,10.07Zm-1.89,7.13c-2.87,2.7-6.93,4.88-8.2,8.82,3.87-1.17,6.25-5.56,9.11-8.43.1-1.36-.75-.52-.91-.39Zm.62-6.38c-1.95-1.92-3.94-4.01-6.35-5.34-.07,2.01,4.46,5.7,6.35,5.34Zm-9.9,7.13c2.31-1.21,7.94-1.82,8.95-4.07-2.83.06-9.67,1.99-11.45,4.07.81.59,1.65.29,2.5,0Zm8.95-5.4c-.16-.23-.26-.51-.45-.62-1.3-.78-2.61-1.53-4.04-2.28-.62-.51-1.17-1.02-1.99-.62,1.26,2.15,3.84,4,6.48,3.52Zm-10.71,39.15c.19.13.42.45.62.45,1.66-.13,3.32-.33,5.04-.55,1.44-2.05-5.14-.83-5.66.1Zm-4.46,3.06c.19.23.3.65.51.75.85.33,1.7.59,2.64.94,2.15.65,4.1,1.92,6.28,1.79-.64-2.31-7.21-3.4-9.43-3.48Zm8.69-9.67c-1.43-.51-2.44.46-3.35,1.33-1.44,1.24-3.56,1.76-4.36,3.56.52.04,1.05,0,1.56-.1.57-.29,1.11-.63,1.62-1.02,1.47-1.37,3.84-1.96,4.53-3.78Zm-9.7-98.93c2.28,1.43,5.37,1.3,8.04,1.43.62-.72.62-.91-.36-1.07-2.47-.07-5.34-1.24-7.68-.36Zm2.02-1.63c1.7-.16,3.68.59,4.95-.85-.32-.19-.66-.32-1.02-.39-1.13-.04-2.26-.02-3.39.07-1.02.36-2.08.23-2.83.94.72.39,1.55.16,2.29.23Zm-1.24,108.63c1.55.78,3.34.9,4.98.32-.29-.22-.59-.42-.91-.59-.33-.16-.72-.22-1.14-.42-1.1,0-2.2-.29-2.93.69Zm2.97,5.2c-.81-.13-2.41-1.72-2.73-.81,1.21.94,2.04,2.79,3.71,2.7-.08-.46-.19-.92-.33-1.36-.1-.2-.36-.33-.65-.52Zm-3.74-110.28c.59,1.62,6.48,5.99,8.2,6.02-.3-1.82-6.35-6.08-8.2-6.02Zm-.88,109.34c-.51,1.63,1.11,2.93,1.63,4.39,1.14,1.69,1.43,4.23,3.35,5.27.11-.31.15-.63.13-.95-.78-2.21-1.43-4.49-3.16-6.31-.65-.92-.88-2.02-1.95-2.41Zm.91-7.88c1.89-1.63,2.67-4.49,4.07-6.62.16-.29-.06-.71-.13-1.07-.24.1-.46.24-.65.42-.39.39-.72.88-1.14,1.37-.69,1.96-2.74,3.85-2.15,5.9Zm1.47-96.32c-.24-.66-.73-1.2-1.36-1.5-.26,1.92,1.3,3.68,1.88,5.5.34.42.83.68,1.37.72-.07-.2-.07-.42-.13-.59-.55-1.33-1.17-2.67-1.76-4.13Zm-1.53,89.03c-1.4.62-1.53,5.04-2.12,6.62.16.17.3.36.42.55.68-.86,3.13-6.78,1.7-7.17Zm-2.73-101.34c.71-3.05,1.36-6.15,2.04-9.34.13-.95-.16-1.6-.46-2.47-1.02.91-3.45,11.85-2.21,12.43.2-.2.61-.39.63-.62Zm.36,10.02c1.1,4.75,1.82-.62.36-2.08-1.14-.81-.45,1.47-.36,2.08Zm-1.24,107c-.39,1.47-1.24,2.93-.94,4.2.55,2.15-.55,4.33.75,6.19,1.17-1.47.55-3.52,1.17-5.09.65-.83.52-7.31-.98-5.29Zm-.03-98.5c.2-.26.36-.56.45-.88.03-.91,0-1.82,0-2.86-.07-2.21.36-4.88-1.4-6.41-.34.65-.37,1.41-.1,2.08.46,2.61-.62,5.93,1.04,8.07Zm.29,90.24c.62-1.76-4.16-9.73-5.89-10.18-.03.26-.23.55-.13.75.26.75.62,1.4.94,2.21,1.73,2.44,2.96,5.25,5.08,7.22Zm-3.61,7.42c-.72,1.02-3.87,2.55-3.35,3.64,2.12.36,4.13-2.73,5.34-4.3l-1.76.39c-.06.04-.09.13-.22.26Zm1.53-118.59c-.81-3.05-.98-6.38-2.5-9.16-.16.51-.3,1.02-.51,1.73.29,2.9.94,6.96,2.86,8.95.13-.49.18-1,.15-1.51Zm-1.47,11.75c-.51,1.1-1.02,2.21-1.53,3.45.23.42.42.71.62,1.02.88-.33,1.79-4.16,1.47-4.98-.21.14-.4.31-.55.51Zm-8.91,95.84c3.22,1.63,6.08,4.58,9.63,5.21-.23-.39-.36-.94-.68-1.17-2.8-2.04-5.5-4.3-8.92-5.37-1.07.52-.49,1.04-.03,1.33Zm8.1-96.64c.1-.36.13-.65.19-.91-.36.1-.85.07-1.07.33-1.82,2.41-4.75,4.39-5.79,7.22,3.45-.27,4.59-4.37,6.67-6.64Zm-.3-5.71c-.23-1.21-4.46-3.52-5.6-3.13.13.33.16.78.39.94,1.11.65,2.21,1.24,3.39,1.92.57.26,1.2.35,1.82.26Zm-.52-2.73c-.04-.31-.12-.62-.23-.91-.24-.48-.52-.94-.85-1.37-1.27-.94-2.04-2.6-3.74-2.6,1.27,1.66,2.73,4.39,4.82,4.88Zm.36,114.87c-2.47.03-5.21,1.43-6.96,3.02,2.12.59,4.26-1.2,6.25-1.82.39-.16.55-.78.72-1.2Zm-9.21-106.78c.23.04.42.16.59.13,1.27-.26,2.55-.51,3.9-.75,1.89.21,3.74-.7,4.72-2.34-1.79-1.11-8.13,1.23-9.21,2.96Zm8.46,103.94c-2.34-1.66-5.4-1.02-8.14-1.69-.36-.01-.72.01-1.07.07.23.71.59,1.43,1.4,1.43,2.61.1,5.28.95,7.82.19Zm-7.22-74.32c.03-1.47-1.4-2.31-1.86-3.61.88.19,1.47.91,2.31,1.21.42-1.99-2.7-1.99-3.12-3.64,2.25.31,4.53.18,6.73-.36.36-.03.62-.51.91-.75-.62-.71-7.84-.51-8.14.33-.46,3.16-.04,4.23,2.24,6.62.37.12.63.15.92.22Zm-.13-57.34c1.5-.51,3.48-.23,4.62-1.33-3.35-1.17-7.48.36-10.69,1.72.3.24.63.45.98.62,1.84-.26,3.36-.62,5.09-1.01Zm3.39,6.31c-1.02-1.02-2.57-1.24-3.74-2.04-1.92-1.18-4.07-2.61-6.44-1.5.26.32.46.75.81.91,1.5.69,3.09,1.27,4.72,1.95,1.5.38,3.25,1.52,4.65.67Zm-4.26,34.53c-1.76.26-1.95,2.55-2.99,3.87-1.63,4.62,3.77-2.31,2.99-3.87Zm-.75,7.35c1.43-1.33,3.84-1.82,4.26-3.81-2.15.07-3.74,2.15-5.63,3.16-.8.95.73,1.14,1.37.65Zm.03-52.16c-.94-.39-4.82,1.53-3.84,2.47,1.46-.69,3.17-.81,3.84-2.47Zm-5.21,46.24c.1.98.13,1.85.26,2.73.07.26.39.51.59.75.7-1.49.64-3.22-.16-4.65-.25.37-.48.76-.68,1.17Zm-.19-32.87c.13.68.55,1.04,1.02,1.53.98-2.21-.55-5.21-2.31-6.7-.95,1.37.93,3.55,1.29,5.18Zm-.13,37.81c.12-.37.21-.75.26-1.14-.51-1.11-.62-2.28-1.5-3.05-.94,1.03.5,3.25,1.24,4.19Zm-2.18-49.85c.26-1.04,2.6-3.56,1.07-4-.94,1.17-1.89,2.08-1.79,3.68.04.26.49.65.72.33Zm-5.27,47.35c.24.37.51.72.81,1.04,1.92.75,3.42,2.67,5.47,2.34-.39-1.5-4.79-3.71-6.28-3.39Zm5.53-37.68c-.03-.23-.36-.39-.51-.55-1.24,2.21-.81,5.17.26,7.45,1.13-1.27.06-5.08.25-6.9Zm-8.3,8.62c2.8-.51,3.74-6.8,5.27-9.24.29-3.48-5.57,8.62-5.27,9.24Zm5.53-19.46c-.49-3.52-1.33-6.99-2.5-10.35-2.38,1.95,1.43,6.96,1.79,9.7.21.24.45.46.72.65Zm-1.5,7.13c-1.27-.16-10.93,7.42-9.47,8.33,2.73-.59,4.39-3.42,6.74-4.98,1.14-1.1,2.47-1.76,2.73-3.35Zm-7.16-8.46c1.5,2.04,3.9,4.36,6.67,3.81-2.15-1.33-4.04-3.69-6.67-3.81Zm7.06,2.44c-.26-.59-.26-1.36-.75-1.79-1.5-1.34-2.73-3.16-4.45-4.17-1.56.46,1.5,2.73,1.92,3.64,1.07.95,1.92,1.89,3.28,2.31Zm-48.65-45.13c-1.95-1.02.03-2.21.48-3.56-.51-.03-1.2-.16-1.59.3-.65,1.07-2.34,2.47-1.95,3.81,1.14.88,1.07,2.11,1.17,3.39,1.99,12.17.68,24.83-4.62,36.06-2.04,4.3-4.36,8.33-7.52,11.88-.71.85-.62,1.4.46,1.73,4.91,1.17,9.63-.85,14.09-2.7,10.74-3.9,17.6-14.16,15.68-25.64-1.87-10.22-7.69-19.29-16.2-25.24Zm-8.56,47.51c6.93-11.52,10.51-25.12,9.11-38.56-.36-2.61-1.17-5.18-1.17-7.78,9.67,12.62,6.7,38.59-7.94,46.34h0Zm17.41-4.46c-.42-4.39-1.1-8.82-.59-13.24.75-4.03,1.95-7.48,3.35-11.26,2.21,1.79,2.79,9.16,3.05,12.17-.06,4.74-3.02,8.81-5.82,12.32h0Zm-31.3-24.28c1.33-1.02,3.28-1.24,4.33-2.67-4.3-.46-9.99,4-9.9,8.62-.55,3.61,2.64,9.99,6.44,9.5-4.85-4.39-7.58-11.16-.88-15.46Zm-10.58-21.67c-3.13,1.33-3.71,2.6-3.42,6.05.36,3.81,5.66,4.62,9.16,4.42,12.24-2.8,3.17-14.84-5.75-10.48Zm-3.61,46.34c3.05-.95,3.52-5.5,1.56-7.55-3.02-2.93-8.42-4.13-11.94-1.66-7.21,5.52,3.84,13.21,10.38,9.21Z"/>
      <path class="cls-4" d="m109.91,143.82c1.4,13.44-2.18,27.04-9.11,38.56,14.65-7.75,17.61-33.72,7.94-46.32,0,2.59.81,5.16,1.17,7.76Zm-36.58-29.06c-4.13,2.41-9.05,3.94-12.89,6.62,1.11.91,12.01-3.48,10.51-1.5-1.59,3.02-3.84,5.56-6.25,7.91-1.92,2.21-5.27,3.29-6.54,5.99,2.11,1.82,4.13-.91,6.44-.51-.51,3.71-5.27,4-.33,6.62.51.26.94.55,1.46.75.36.1.73.16,1.11.19-2.04-4.95-1.21-11.26,3.39-14.58,6.77-5.24,16.89-1.59,21.89,4.46,1.67-9.83-8.81-21.02-18.8-15.95Zm-19.59,47.18c-2.11.72-4.19,1.44-6.31,2.12-.29.1-.62.19-.91.33,1.11,1.66,3.56,2.79,3.68,4.85-3.9-1.73-7.81-.45-11.59.88-1.43.42-1.95,1.02-1.56,2.6.85,4.44,3.18,8.46,6.62,11.39,8.23,7.45,25.54,12.11,32.21.71-7.16,1.95-16.11.91-20.57-5.66-5.6-7.32-1.95-15.23,6.62-17.22-2.62-1.09-5.57-1.09-8.19,0Z"/>
      <path class="cls-3" d="m67.9,139.42c.62,3.42,4.17,3.45,6.84,4.07,3.87,1.24,8.91,1.88,12.04-1.14,1.82-1.56,7.29-9.73,4-11.23-8.36-9.8-27.11-7.13-22.88,8.3Zm14.2,3.02c-3.51.19-8.82-.62-9.16-4.42-.3-3.45.29-4.72,3.42-6.05,8.89-4.36,17.96,7.68,5.75,10.48Zm-11.63,62.39c-2.41-.55-4.78-1.44-7.29-1.63.62,1.07,1.07,1.79,2.38,2.12,1.33.16,4.2,2.31,5.04,1.27.34-.26.79-.34,1.2-.19,2.28.62,4.36,2.28,6.77,2.08-5.33-3.19,7.22-1.17,8.2-3.05-5.3-.85-10.93.81-16.31-.59Zm-16.24-31.54c1.17,7.26,8.46,10.87,15.2,11.1,3.77-.51,8.07.07,8.91-5.53,1.3-7.68-7.55-15.52-14.76-15.68-5.02.42-10.43,4.53-9.35,10.12Zm8.1-4.19c3.52-2.47,8.92-1.27,11.94,1.66,1.95,2.04,1.5,6.62-1.56,7.55-6.54,4-17.59-3.69-10.38-9.21h0Zm-1.73,36.22c.23.22.81.16,1.24.22-1.07-4.56-10.93-7.29-15.03-9.89-8.11-4.1-14.99-10.29-19.91-17.93-1.14-1.99-3.78-.33-5.57-.51-5.56-.06-8.65-5.14-9.6-10.61-.56-2.98-.42-6.06.42-8.98.97,1.04.81,2.15.59,3.42.45,4.72,1.43,10.45,5.85,12.96,6.84,4.49,16.11-8.04,28.38-7.23-2.99-3.32-7.84.04-11.65.04-3.22.19-10.51,0-12.92-1.92,1.99-1.47,4.79.71,6.96.13,3.35-.51,6.8-.19,10.09-1.36,6.7-2.08,14.42-2.67,20.24-6.93-2.83-.65-6.18,0-8.68-1.47.22-.29.39-.81.62-.81,2.44-.13,4.04-2.09,6.19-2.8,3.42-1.56-4.33-6.48-6.02-6.96-8.79-3.78-26.69-1.04-28.31-13.34,5.63,8.07,9.34,7.84,18.55,9.16,3.05.26,6.22,1.1,9.24,1.04,2.08-.46,6.7-2.7,7.58-4.53-3.77.19-7.71,1.37-11.59.55,1.11-1.47,3.03-2.04,4.53-2.96,5.3-3.05,10.69-6.8,14.38-11.65-6.96.95-14.15,1.79-21.18.36-.51-.07-1.21.23-1.17-.62-.59-1.36,9.6-.1,10.93-.39,6.73-2.21,11.88-8.2,19-9.9,2.15-.55,4.26-1.46,6.57-1.02.63.13,1.27-.04,1.76-.45-1.66-1.82-6.8-.2-7.71-2.15,2.12-1.07,4.85-.04,7.26-.51,2.04-.29,4.23.3,6.35.36,2.72.05,5.41.63,7.91,1.72.29.13.72-.1,1.1-.1-2.67-2.57-6.38-4.3-9.86-5.63-.22-.06-.39-.45-.59-.71,1.82-1.21,3.97.71,5.96,1.14,6.32,1.93,12.3,4.83,17.74,8.59.25-.49.17-1.08-.19-1.5-1.99-4.52-5.44-8.1-7.75-12.4,2.41.59,3.56,2.89,5.4,4.26,1.47.78,3.22,2.31,4.95,2.04-3.94-5.01-9.6-9.05-15.56-11.55-5.09-1.95-10.15-4.53-15.75-4.2-5.14,2.08-10.05,5.14-15.85,4.98-.36.04-.68-.33-1.07-.45,1.33-1.5,3.56-1.02,5.34-1.56,3.8-.91,7.38-2.54,10.57-4.79-1.92-.94-4.23.04-6.31-.19-2.99-.1-5.99-.33-8.98-.51-6.74-1.53-14.06.85-19.72,4.52-1.76.98-3.13,2.73-5.14,3.19-.16-1.6,1.02-2.77,1.07-4.36-1.95,1.17-2.77,3.56-5.09,4.23-4.58,3.09-9.7-.13-9.47,2.73.07,1.76,1.89,3.81.68,5.37-2.47-2.64-2.55-6.93-2.86-10.42-2.61,3.56-1.66,8.76-1.63,13.05.04.51.23,1.24-.55,1.27-.2,0-.55-.78-.65-1.24-.36-3.32-1.3-6.54-.42-9.86-.75-2.31-3.71-3.56-5.18-5.47-.51,2.34,1.53,4.33,1.43,6.7-.62-.36-1.56-.51-1.79-1.3-.3-1.69-4.07-5.73-5.7-5.3,1.33,2.38,2.17,5,2.44,7.71.06,2.12,1.95,2.21,3.38,3.16,1.63,2.31-4.62-.75-5.33-.94.04.72.42,1.38,1.02,1.79,1.82.91,3.13,2.73,5.27,3.16.36.07.62.68.88,1.02-.44.2-.91.31-1.39.3-3.39-.55-7.42.51-9.28,3.42,4.62-.81,8.1,2.67,7.13,7.59-.81,4.82-5.27,6.51-8.62,9.08,1.5.51,4.13,1.53,5.3-.03.18-.43.42-.84.71-1.21,1.37-1.07,2.99-4.39,4.75-3.84-.07.98-.72,1.43-1.4,1.99-3.51,4.76-6.17,10.08-7.88,15.75-2.09,7.42-3.87,15.68-.75,23.04,2.37-4.16,2.28-9.93,6.31-13.18-.13.85.1,1.82-.51,2.5-1.76,3.02-2.57,6.51-2.31,9.99.16,1.56.39,3.16.68,4.72,1.82,9.67,6.02,19.17,10.97,27.3.59-1.07-.19-2.18-.39-3.25-.68-2.83-1.56-5.6-2.21-8.43,1.24,0,1.62,1.14,2.08,2.04,3.94,8.56,8.39,20.01,16.66,24.94.16-1.17-.94-1.99-1.14-3.05-.81-2.38-.65-5.17-1.92-7.29-4.53-3.94-7.68-8.65-10.05-14.12-.13-.26-.16-.62.51-.46,1.4.33,1.43,1.53,1.95,2.44,2.64,4.56,6.24,8.49,10.54,11.52,7.94,5.17,16.89,8.82,23.72,15.42-1.47-3.71-3.5-8.13-6.56-10.84-1.59-1.02-3.29-1.82-4.95-2.73-1.92-1.4-4.98-1.85-6.11-4.07,3.51.75,6.83,2.93,10.12,4.39,2.46,1.28,5.05,2.41,6.93,4.6Z"/>
      <path class="cls-5" d="m233.41,353.16c-3.22,2.28-6.34,4.72-10.12,6.15-3.56,1.5-.62,6.41-.75,9.47.98,9.53,1.53,19.14,1.95,28.7.26,6.84-.07,13.7-2.67,20.11-1.95,4.39-3.05,9.24-7.03,12.37-3.71,5.09,10.48,3.84,11.62.81,1.62-2.24,2.11-5.01,2.8-7.64,3.56-24.31,11.29-49.34,10.41-73.81-2.47.25-4.1,2.66-6.22,3.83Zm-61.47-182.89c.51-5.27-6.22-7.91-3.68-16.44,1.3-6.41,3.94-12.37,6.38-18.35,1.76-5.14,3.68-10.18,5.6-15.23,5.33-16.14,10.69-32.21,14.22-48.91,1.63-6.62,2.38-13.41,4.2-19.98,1.66-6.02,2.18-12.59,5.43-18,3.61-4.91,7.55-9.63,11.49-14.28,1.85-2.35,4.23-4.75,4.1-7.91-2.55,1.82-4.62,5.89-7.59,6.62,1.82-3.16,4.91-5.44,7.48-8.01.98-.81,1.5-1.69.95-2.96-3.05.51-5.34,7.29-8.62,8.04,1.36-3.16,4.39-5.6,6.38-8.46.59-.75,1.95-1.36,1.24-2.47-2.25-.86-6.74,7.44-9.83,8.48-.13-2.47,6.48-7.29,8.01-9.96-1.04.07-2.28-.3-3.05.62-2.12,2.04-4.3,4.04-6.38,6.11-2.87,2.41-4.82,6.19-8.3,7.64.13-.42.13-.91.36-1.17,1.82-2.31,3.77-5.5,2.41-8.46-10.18,9.76-7.36,16.17-9.34,28.38-4.59,19.19-10.45,38.05-17.54,56.46-5.63,15.56-13.38,30.2-20.28,45.13-1.92,3.81-3.94,7.49-5.86,11.3-.33.65-.68,1.66-.45,2.21,2.4,7.28,13.83,23.71,22.68,19.61Zm13.21,194.67c-2.7.1-5.4.26-8.1.19-1.99.51-7.68-2.73-7.19.75.39,6.31-.29,12.66.46,19,.1,9.96.33,20.05,2.24,29.84.81,5.89,1.85,11.78,6.35,16.08,3.61,3.61,23.36,9.76,24.5,2.35-.07-1.47-1.2-1.89-2.31-2.35-6.41-1.4-11.42-6.31-15.62-11.2-4.72-6.62-3.29-14.8-2.96-22.36,1.37-10.61,2.64-21.31,5.6-31.6.42-1.72-2.05-.61-2.96-.71Zm-37.16-138.34c-3.26-3.74-5.57-8.85-9.86-11.48-2.15-.72-4.66-.51-6.87-1.04-1.24-.26-1.79.07-1.7,1.33.3,2.73.51,5.5,1.04,8.17,3.39,13.41,7.48,26.72,9.4,40.48,1.4,8.95,3.81,17.71,4.72,26.75,1.04,7.26,3.16,14.42,2.99,21.74.51,5.24,2.35,11.88-1.72,16.11-2.18,2.5-5.14,3.68-8.14,4.78-1.85,2.67-6.38,6.15-6.9,9.08,2.41-.33,3.19-3.81,5.76-3.9-.94,2.99-6.31,4.85-6.28,8.43,1.85-1.27,3.35-3.71,5.73-3.78-2.73,3.94-7.94,6.11-9.99,10.42,2.67.06,4.3-2.55,6.44-3.81,1.73-1.27,3.45-2.47,5.3-3.84,4.07-2.7,11.2-2.9,10.84-9.01,0-.36-.33-1.11.51-.88,2.47,1.4-3.12,10.25.55,12.82,1.17.51,1.37-1.82,1.66-2.5.51-2.81,1.38-5.55,2.57-8.14,1.21-2.79,2.08-5.73,1.92-8.88-.42-10.54-.62-21.09-1.02-31.63-.62-20.99-1.95-41.92-5.47-62.61-.66-2.83-.3-5.98-1.5-8.59Zm-15.27-37.94c-.39,1.99-.62,3.97-.94,5.95-.39,2.61,7.59-.42,8.82-.97,9.41-3.74,7.26-13.02,5.6-20.99-4.42-13.14-1.33-4.72-6.77-6.51-1.85-.68-1.95-2.61-3.42-3.56-.65.68-.39,1.33-.23,2.11-.29,5.75-2.27,11.29-5.69,15.91-1.56,1.9,2.96,2.88,2.63,8.06Zm-3.25,153.79c.51-2.15,2.15-3.51,3.56-5.24.42-.45.88-.88,1.3-1.33.14-.15.26-.32.36-.51-2.79.19-7.03,5.47-6.57,8.39.47-.43,1.22-.79,1.35-1.31Zm.33-201.57c-2.86-8.69-11.45-30.66-19.98-33.75.42,2.24,2.12,3.94,2.96,5.99.65,1.99,2.15,4.07,1.69,6.19-5.14-2.87-10.69-9.41-16.5-10.28,1.07,1.79,3.48,2.57,4,4.68-1.62.51-2.9-.75-4.39-1.07-3.02-.81-6.08-1.53-9.16-2.28-1.43-.23-2.93-1.02-4.36-.36.95,1.14,2.73.78,3.48,2.11-1.36.62-2.9.13-4.23.75.16.13.3.42.46.46,2.57.59,4.26,2.37,5.99,4.39,7.45,7.68,4.69,25.87-6.7,28.21-7.68.51-15.42-1.69-22-5.7-1.59-1.3-5.73,1.79-7.59,2.55,2.7,2.21,5.83,3.78,7.39,7.16,1.44,2.96-3.84,2.99-5.14,4.85,2.64.88,5.67-.85,8.47-.33-1.07,2.55-3.75,3.64-5.7,5.27,5.89,1.2,12.04,2.89,16.66,7.09,8,5.99,5.85,18.19-1.73,23.53-8.07,5.5-19.4,3.56-27.27-1.4-16.47-10.16-6.49-21.25-17.32-13.41-1.37,1.4,4.62,6.51,5.53,8.01,7.19,7.52,16.67,12.37,26.2,16.17,8.3,2.76,17.28,4.72,26.03,3.16,11.74-1.37,22.88-5.97,32.17-13.28,17.72-13.96,17.31-28.72,11.04-48.72Zm-42.01,28.22c-3.81.51-6.99-5.89-6.44-9.5-.1-4.62,5.6-9.08,9.9-8.62-1.04,1.43-2.99,1.63-4.33,2.67-6.7,4.3-3.97,11.07.88,15.46Zm22.1,16.63c-4.46,1.86-9.16,3.87-14.09,2.7-1.07-.33-1.17-.88-.46-1.73,3.16-3.56,5.5-7.58,7.52-11.88,5.3-11.23,6.62-23.89,4.62-36.06-.1-1.27-.04-2.51-1.17-3.39-.39-1.33,1.3-2.73,1.95-3.81.39-.46,1.07-.33,1.59-.3-.45,1.37-2.44,2.55-.48,3.56,8.51,5.95,14.33,15.01,16.2,25.22,1.92,11.5-4.95,21.76-15.68,25.66Zm-56.01-50.76c-.55.26-1.14.51-1.66.75-.16.12-.31.25-.45.39,1.17.78,2.79-.29,4.1-.39.21-.16.34-.42.33-.68-.46-.98-1.43-.33-2.31-.07Z"/>
    </g>
  </g>
</svg>