<?xml version="1.0" encoding="UTF-8"?>
<svg id="Layer_2" data-name="Layer 2" xmlns="http://www.w3.org/2000/svg" viewBox="0 0 234.28 317.68">
  <defs>
    <style>
      .cls-1 {
        fill: none;
      }

      .cls-1, .cls-2, .cls-3, .cls-4, .cls-5, .cls-6, .cls-7, .cls-8, .cls-9, .cls-10 {
        stroke-width: 0px;
      }

      .cls-3 {
        fill: #81d1e5;
      }

      .cls-4 {
        fill: #224180;
      }

      .cls-5 {
        fill: #126ab3;
      }

      .cls-6 {
        fill: #23afe5;
      }

      .cls-7 {
        fill: #c7e9f8;
      }

      .cls-8 {
        fill: #fff;
      }

      .cls-9 {
        fill: #f27c7b;
      }

      .cls-10 {
        fill: #031b37;
      }
    </style>
  </defs>
  <g id="Layer_1-2" data-name="Layer 1">
    <g>
      <path class="cls-1" d="m104.49,28.39c3.16-.29,6.35-.59,9.52-.65,3.52-.07,7,.1,10.52.19,1.31.03,2.61.1,3.91.23.78.07,1.56.26,2.35.37,1.66.26,3.36.49,5.02.74.65.1.42-.37.26-.49-.72-.58-1.4-1.24-2.21-1.6-3.22-1.47-6.45-2.9-10.17-3.31-.91-.07-1.86-.19-2.8-.19-2.35-.03-4.7-.07-7.04,0-1.36.01-2.72.18-4.04.49-2.13.53-4.24,1.19-6.29,1.99-1.43.62-2.8,1.35-4.11,2.18-.23.1-.23.52-.37.82.29.1.6.15.92.13,1.5-.27,3-.73,4.53-.89Z"/>
      <path class="cls-10" d="m78.29,108.43c-1.7,4.66-2.28,9.52-2.8,14.37-.1.85-.39,1.73-.33,2.54.37,2.77.78,5.54,1.7,8.18.39,1.21.72,1.33,1.89.94,1.33-.46,2.67-1.04,4.04-1.3,2.49-.57,5.02-.96,7.56-1.18,1.9-.06,3.81.19,5.64.74,2.12.59,4.14,1.21,5.93,2.41.69.49,1.34.91,2.12,1.47.16.29.35.55.58.78.46.37.94.94,1.43.94,1.22.03,2.45-.13,3.62-.49,1.98-.66,4.1-.83,6.16-.49,2.77.49,5.57.98,8.09,2.54,2.28,1.37,4.6,2.67,6.29,4.78,2.25,2.77,4.04,5.77,4.78,9.32.32,1.56.58,1.73,1.84.72,1.99-1.6,3.85-3.26,5.02-5.74,1.48-3.05,2.27-6.39,2.31-9.78,0-1.73-.1-3.52-.23-5.28-.17-2.29-.48-4.56-.94-6.81-.78-3.13-1.84-6.22-2.87-9.29-.94-2.74-1.99-5.52-3.49-8.05-1.86-3.06-4.34-5.47-7.01-7.69-1.07-.85-1.63-.62-2.57.39-1.6,1.63-3.31,3.26-5.02,4.76-.78.69-1.89,1.18-2.9.74-1.92-.78-3.68-1.84-5.57-2.74-.46-.19-1.24-.46-1.43-.23-1.21,1.07-2.18.29-3.2-.19-1.27-.62-2.45-1.43-3.68-2.09-1.37-.72-2.12-1.7-1.95-2.64.26-1.17.46-2.31.68-3.49.46-2.35.88-4.69,1.37-7,.33-1.53-.55-2.87-2.05-3-.46-.07-.94-.16-1.4-.19-1.04-.1-2.09-.39-3.06-.23-2.38.39-4.66,1.28-6.68,2.61-2.15,1.35-4.03,3.08-5.54,5.12-1.73,2.31-3.55,4.56-4.99,7.14-1.3,2.38-2.42,4.85-3.34,7.4Z"/>
      <path class="cls-9" d="m127.66,144.8c-2.07-1.96-4.57-3.43-7.3-4.27-1.76-.56-3.65-.68-5.47-1.01-2.63-.42-5.32-.34-7.92.23-1.04.19-2.05.46-3.06.65-.18.03-.37.03-.56,0,.08-.13.16-.26.23-.39.65-1.04.43-2.08-.72-2.71-1.36-.67-2.75-1.26-4.17-1.79-1.6-.37-3.2-1.01-4.78-1.08-3.22-.06-6.55-.39-9.74.42-1.62.46-3.21,1.01-4.76,1.66-1.04.39-.98,1.24-.33,1.89,1.57,1.6,3.1,3.26,4.86,4.66,2.64,2.12,5.54,4.01,8.28,6.06,3.23,2.48,6.79,4.5,10.58,6,4.71,1.71,9.63,2.76,14.63,3.13,2.08.16,4.21,0,6.32.03,2.4.01,4.78-.28,7.1-.88,2.67-.68,3.45-1.73,2.54-4.07-1.25-3.24-3.21-6.15-5.74-8.54Z"/>
      <path class="cls-8" d="m114.56,104.22c1,.72,2.1,1.29,3.26,1.7.96.31,2,.31,2.96,0,.94-.33,1.63-1.24,2.57-2.02.68-.59,1.37-1.18,2.02-1.79,1.14-1.1,1.07-1.6-.39-2.31-2.18-1.08-4.36-2.15-6.55-3.26-1.1-.55-1.4-.46-1.99.69-.85,1.63-1.6,3.31-2.47,4.89-.52.94-.2,1.66.58,2.12Zm-5.71-1.43c2.28,1.21,2.35,1.34,3.78-.94,1.1-1.75,2.1-3.57,3-5.44.09-.38,0-.78-.26-1.07-.72-.69-1.5-1.34-2.31-1.92-1.63-1.17-3.31-2.28-4.96-3.46-.65-.46-.98-.13-1.14.49-.32,1.27-.55,2.57-.91,3.97-.24,1.18-.41,2.38-.52,3.58-.1,1.08-.49,2.35.74,3.13.83.6,1.7,1.15,2.59,1.66Z"/>
      <path class="cls-4" d="m180.29,264.82c-4.66,2.64-9.35,5.28-14.31,7.46-3.68,1.6-7.49,2.9-11.34,4.14-1.84.58-3.75,1.17-5.64,1.69-1.4.43-2.8.82-4.2,1.1-1.63.37-3.29.52-4.85,1.01-2.28.69-4.62,1.17-6.99,1.43-3.29.43-6.62.62-9.91.95-2.08.16-4.17.39-6.22.58-.29.05-.57.11-.85.19.29.23.56.65.91.74,2.35.72,4.73,1.37,7.14,1.92.49.07.99-.04,1.4-.32.88-.65,1.79-.59,2.51.26,2.12,2.57,3.68,5.54,5.28,8.51.65,1.1,1.6,1.99,2.74,2.57,4.01,1.84,8.28,2.61,12.64,2.94,2.74.23,5.5.29,8.25.19,1.5-.03,3.03-.52,4.46-1.04.85-.29,1.56-1.04,2.41-1.7,1.33-1.79,2.83-3.52,4.01-5.38,1.5-2.35,2.77-4.78,4.14-7.2,1.08-1.92,2.21-3.81,3.26-5.77.91-1.76,1.72-3.61,2.54-5.41,1.24-2.7,2.45-5.4,3.62-8.11.13-.29,0-.68,0-1.04-.34.06-.68.15-1,.27Zm-43.05,36.66c-.9-.83-2.29-.83-3.2,0-1.69,1.47-2.83,3.47-3.22,5.67-.18,1.16.3,2.33,1.24,3.03,1.14.88,2.41,1.3,3.91,1.63,1.43,0,2.9,0,4.34.03.49.03.74-.07.72-.59-.04-.99-.13-1.98-.26-2.96-.58-2.54-1.63-4.92-3.52-6.81Zm-16.85-14.63c-2.28,0-4.21-1.01-6.22-1.92-2.15-.94-4.27-1.96-6.55-2.48-2.35-.55-4.82-.37-7.2-.78-3.72-.65-7.35-1.47-11.03-2.35-2.41-.62-4.72-1.47-7.14-2.18-.74-.23-1.24-.03-1.07.81.23,1.01.58,1.99.85,3.2,1.66,3.75,3.22,7.53,4.99,11.21.45.91,1.21,1.63,2.15,2.02,1.89.65,3.91.94,5.86,1.4,3.06.76,6.2,1.13,9.35,1.08,2.25-.1,4.46-.65,6.71-.85,2.41-.19,4.34-1.33,6-3.03,1.37-1.43,2.77-2.87,4.1-4.41.28-.4.39-.89.29-1.37.01-.15-.7-.34-1.09-.34Zm-8.31,15.87c-.62-.23-1.34-.16-2.25-.26-.07-.07-.13-.19-.23-.19-3.54-.44-7.1.63-9.81,2.94-.46.39-1.04,1.24-.91,1.66.3.66.87,1.16,1.57,1.37,1.83.5,3.69.86,5.57,1.1,1.16.2,2.35.16,3.49-.13,2.02-.56,3-2.18,3.33-4.17.16-.82.26-1.86-.75-2.32Z"/>
      <path class="cls-6" d="m148.55,65.31c-.26.42-.58.85-.85,1.33-2.45,4.34-3.26,9.09-3.31,13.97-.07,2.21.23,4.43.42,6.62.23,2.9,1.17,5.57,2.41,8.14,1.03,2.15,2.35,4.16,3.91,5.96,2.06,2.45,4.5,4.53,7.25,6.17,3.2,1.89,6.62,3.31,10.3,3.58,3.45.29,6.94.19,10.36-.78,3.16-.88,3.95-1.89,3.88-5.31-.07-3.91-.23-7.82-.42-11.73-.07-1.97-.31-3.93-.72-5.86-.73-2.9-1.62-5.77-2.67-8.57-.56-1.5-1.24-3.06-2.94-3.78-5.02-2.15-9.12-5.67-13.1-9.32-2.12-1.92-4.24-3.85-6.45-5.7-.58-.52-1.27-1.27-2.31-.68s-1.24,1.43-1.3,2.47c-.1,2.06.81,3.85,1.72,5.54,1.26,2.51,2.72,4.92,4.37,7.2,1.86,2.67,3.97,5.15,5.96,7.92,1.63,1.72,2.51,3.84,3.36,5.96.46,1.24.85,2.48,1.24,3.78.06.23-.13.55-.17.81-.21-.11-.39-.26-.52-.46-.59-.88-1.04-1.89-1.7-2.74-1.53-2.06-3.13-4.07-4.72-6.06-.63-.81-1.32-1.57-2.06-2.28-.13-.17-.46-.17-.68-.23.04.21.12.4.23.58.23.49.56,1.01.78,1.47.08.18.14.36.19.56-.2-.04-.39-.11-.56-.23-3.19-2.94-6.37-5.91-9.56-8.9-.24-.25-.45-.54-.62-.85-.08-.2-.11-.41-.1-.62.18.04.35.1.52.16.44.23.85.51,1.24.82,1.53,1.43,3.03,2.9,4.56,4.3.36.26.76.46,1.17.62-.16-.39-.19-.88-.46-1.21-.94-1.24-2.02-2.41-2.97-3.68-2.04-2.64-3.58-5.61-4.56-8.8-.24-.8-.63-.89-1.15-.2Zm6.46,28.12c-.16-.1-.42-.2-.52-.37-.88-1.3-1.66-2.67-2.61-3.91-1.43-1.92-2.96-3.71-4.46-5.6-.03-.24-.04-.49-.03-.74.26.07.65.03.78.19,1.5,1.76,3.06,3.46,4.41,5.31.97,1.37,1.66,2.97,2.47,4.46.08.16-.02.42-.04.65Zm.68-12.13c2.8,2.5,4.56,5.95,4.92,9.68.23,2.05.32,4.14.46,6.19-.03.21-.11.41-.23.58-.13-.16-.37-.32-.42-.52-.52-2.06-.94-4.17-1.6-6.22-.85-2.93-2.37-5.63-4.43-7.89-.42-.39-.91-.74-1.4-1.14-1.43-.65-2.83-1.28-4.2-1.86-.29-.13-.57-.29-.82-.49-.1-.1-.18-.21-.26-.32.16-.1.29-.26.42-.29,2.83-.22,5.4.3,7.55,2.29h0Zm-71.8-24.92c-.56-1.01-1.21-.78-1.84-.39-4.66,2.82-9.01,6.13-12.97,9.87-2.67,2.51-5.15,5.25-7.56,7.99-2.85,3.27-5.32,6.86-7.35,10.69-2.96,5.34-5.44,10.95-7,16.85-.82,3.09-1.44,6.22-1.86,9.39-.29,2.54-.13,5.21,0,7.82.07,2.63.29,5.25.65,7.85.42,2.74,1.07,5.44,1.76,8.09,1.63,6.13,4.41,11.8,7.85,17.04,1.96,2.96,4.09,5.8,6.39,8.5,1.71,2.13,3.63,4.1,5.7,5.88,2.42,2.06,5.06,3.86,7.86,5.38,2.68,1.5,5.47,2.8,8.34,3.88,3.36,1.17,6.75,2.35,10.23,3.31,3.22.9,6.48,1.64,9.78,2.21,2.74.42,5.5.65,8.28.68,2.71.06,5.38-.07,8.09-.2s5.38-.37,8.09-.74c2.25-.26,4.6-.49,6.78-1.1,4.89-1.43,9.74-3,14.57-4.69,5.55-1.9,10.85-4.49,15.77-7.69,1.63-1.07,2.18-2.31,2.35-4.07.13-1.37.23-2.77.49-4.17s0-1.86-1.34-2.35c-2.54-.85-4.95-1.92-6.81-3.98-.42-.42-.59-.78-.13-1.3.62-.72,1.14-1.57,1.84-2.21,2.83-2.83,5.52-5.74,7.59-9.16,2.18-3.68,4.53-7.34,6.58-11.12,1.63-3.1,2.94-6.39,4.24-9.61.56-1.35.94-2.76,1.14-4.21.16-1.27-.26-1.4-1.57-1.14-1.99.49-4.02.82-6.07.99-1.67.13-3.36-.23-5.05-.39-3.33-.35-6.58-1.25-9.61-2.67-4.95-2.25-9.19-5.83-12.25-10.33-3.88-5.57-5.9-11.7-5.84-18.48.07-1.84.23-3.65.46-5.47.26-2.05.68-4.11,1.04-6.16.19-1.14.39-2.21-.1-3.39-1.17-2.83-4.76-3.88-7.35-2.54-1.7.91-3.29,1.96-4.95,2.83-2.79,1.45-5.73,2.58-8.77,3.39-3.03.87-6.14,1.37-9.29,1.5-2.03.04-4.06-.11-6.06-.46-2.76-.51-5.45-1.4-7.97-2.65-1.47-.74-3-1.4-4.41-2.25-2.51-1.47-4.89-3.1-6.42-5.67-1.11-1.84-2.28-3.67-3.29-5.56Zm37.48,18.15c.27-.36.57-.7.91-1,1.38-1.34,3.13-2.24,5.02-2.57,2.05-.39,3.94-.42,5.64,1.21,1.79,1.71,3.03,3.93,3.55,6.35.1.33-.13.74-.23,1.1-.22-.21-.43-.44-.62-.69-.74-1.24-1.31-2.54-2.15-3.68-1.79-2.45-4.47-3.03-6.99-2.15-1.53.56-3.03,1.4-4.56,2.12-.25.1-.51.17-.78.19.01-.31.08-.61.21-.89h0Zm5.99,8.56c-.14.07-.3.13-.46.16-1.43.17-2.57-.55-3.71-1.4-.42-.43-.81-.89-1.17-1.37-.16-.26-.1-.65-.16-.98.26.16.52.29.78.49,1.14.74,2.25,1.5,3.39,2.25.35.16.71.3,1.08.42.13.06.16.27.26.42Zm-34.54,2.9c3.65-2.38,7.53-2.94,11.47-1.08,2.12.98,4.04,2.48,6.03,3.75.29.19.59.42.91.68,3.01,2.19,6.19,4.13,9.52,5.8,3.96,1.92,7.78,4.11,11.44,6.55,2.48,1.7,4.37,4.24,5.96,6.94,2.14,3.74,3.86,7.71,5.12,11.83,1.14,3.58,2.18,7.2,2.61,10.95.29,2.61.74,5.28.62,7.85-.13,2.38-.98,4.72-1.47,7.04-.66,2.86-2.13,5.47-4.24,7.53-2.83,2.87-6.39,4.46-10.3,5.31-3.36.77-6.82,1.06-10.27.85-4.22-.24-8.42-.92-12.5-2.02-3.94-1.1-7.79-2.41-11.34-4.43-3.49-2.02-6.91-4.24-10.23-6.52-2.61-1.84-5.05-3.85-7.46-5.88s-3.43-4.89-4.21-7.86c-1.21-4.6-1.1-9.32-.85-14.01.39-6.8,2.38-13.41,5.8-19.29,1.33-2.31,3.1-4.34,4.72-6.42,2.4-3.06,5.43-5.47,8.66-7.56h0s0,0,0,0Zm62.21,217.4c-2.38-.26-4.78-.29-7.17-.49-2.28-.23-4.53-.62-6.78-.91-.42-.03-.85-.03-1.27-.03.1.42.1.91.33,1.27.94,1.79,1.92,3.55,2.18,5.8.16.69.26,1.37.46,2.06s.46,1.3,1.4,1.17c1.05-.09,2.1-.24,3.13-.46,3.75-.91,6.62-3.13,8.82-6.19,1.15-1.54.26-2.08-1.1-2.22Zm-14.21-241.44c1.37.62,2.38,1.56,3.42,2.57.43.42.98.42,1.43-.23.69-.91,1.4-1.84,2.18-2.77,1.21-1.34,2.48-2.61,3.72-3.91.55-.62.58-1.27-.03-1.84s-1.37-.94-2.21-1.57c-.65-.42-1.3-.88-1.99-1.3-.79-.49-1.83-.25-2.32.54,0,.01-.02.03-.03.04-1.47,2.15-2.94,4.27-4.41,6.39-.66.93-.75,1.65.23,2.07Zm9.03,196.99c-1.25-.59-2.54-1.11-3.85-1.57-3.39-1.24-6.5-3.15-9.16-5.61-1.31-1.24-2.54-2.57-3.88-3.85-.16-.16-.56-.16-.85-.16-1.4.16-2.83.37-4.27.42-1.72.13-3.45.16-5.15.26-1.07.07-1.53.88-1.37,2.08.03.76.67,1.35,1.42,1.32.14,0,.28-.03.42-.08.88-.26,1.73-.68,2.61-.94.3-.07.61-.09.91-.07-.16.33-.23.74-.46.92-.76.45-1.56.85-2.38,1.2-1.86.78-3.75,1.4-5.54,2.32-1.1.58-2.05,1.5-3.03,2.35-.26.37-.39.82-.37,1.27,0,.1.68.32,1.04.29.63-.05,1.25-.15,1.86-.32,1.43-.23,2.9-.46,4.36-.74.94-.19,1.01.29.94,1.01-.16,2.15-.37,4.27-.42,6.42.03.69.18,1.38.46,2.02.13.33.62.56.94.82.26-.37.68-.68.78-1.08.37-1.66.52-3.36.94-4.99.26-.85.91-1.63,1.43-2.41.07-.1.29-.16.46-.23,0,.19.13.37.1.52-.2.68-.37,1.33-.62,1.99-.46,1.3-.98,2.67-.68,4.04.23,1.08.65,2.1,1.24,3.03.65,1.01,2.12.42,2.47-1.08.43-1.69.62-3.45.94-5.21.1-.52.46-1.01.69-1.5.13.62.26,1.27.39,1.89,0,.03-.07.06-.07.1-.23,1.86-.37,3.75.56,5.45.26.49.74,1.07,1.24,1.17.29.06.91-.62,1.1-1.1.41-.91.74-1.86.98-2.83.23-.88.65-1.5,1.6-1.53,1.6-.03,3.2-.03,4.99-.03.33-.09.67-.16,1.01-.19,2.64-.07,4.76-1.27,6.55-3.1.94-.96.85-1.68-.35-2.27Zm-7.6-207.59c-.07-.56-.42-1.04-.91-1.3-1.63-.42-3.31-.91-4.99-.88-4.72,0-9.48.23-14.21.39-.5.04-1,.12-1.5.23-.31.12-.6.26-.88.42.33.23.65.62.98.65,2.48.2,4.92.33,7.63.46.72.1,1.4.17,2.12.26,1.4.17,2.77.37,4.17.46,2.15.17,4.27.37,6.39.37.55-.13,1-.52,1.21-1.05Zm-29.07.29c-3.49.78-6.91,1.99-10.33,3.06-4.01,1.21-7.79,3.1-12.02,3.55-1.04.13-1.56.85-1.08,1.57.41.6.89,1.15,1.43,1.63,1.66,1.3,3.31,2.61,5.12,3.75,4.43,2.87,9.29,4.53,14.57,4.63,1.92,0,3.84-.14,5.74-.43,1.04-.11,2.04-.42,2.96-.91,1.1-.67,2.39-.98,3.68-.88.44-.08.83-.34,1.07-.72.13-.19-.19-.74-.46-1.04-2.51-2.77-5.93-3.58-9.45-3.75-3.13-.16-6.25.13-9.42.16-.3-.05-.59-.16-.85-.32.2-.19.43-.35.68-.46,2.54-.74,5.12-1.63,7.79-1.63,1.52.01,3.04.16,4.54.43,3.42.52,6.36,1.96,8.18,5.08.11.14.2.28.29.43.52.78,1.17.62,1.72.13.4-.35.7-.8.88-1.3.94-3.1-.42-5.35-3.68-6.55-1.17-.46-2.51-.62-3.75-.94-.2-.08-.39-.19-.56-.33.19-.14.42-.24.65-.29,1.69-.03,3.35-.07,4.99.62,2.08.88,4.07,3.68,3.94,5.88-.01.42.01.83.07,1.24.45-.16.88-.36,1.3-.58,1.29-.88,2.54-1.84,3.72-2.87,1.15-1.02,2.21-2.15,3.16-3.36.65-.88.46-1.24-.62-1.4-1.66-.26-3.42-.33-5.05-.74-3.85-.82-7.59-1.76-11.63-2.67-.94-.19-1.89-.46-2.87-.59-1.6-.21-3.27-.72-4.73-.4Zm5.15,14.47c.07,0,.13.1.17.13.42.23.85.42,1.24.65-.49.1-1.04.33-1.5.26-1.5-.23-2.97-.52-4.43-.88-.23-.07-.39-.43-.55-.72,1.79-.56,3.42.24,5.08.55Zm-18.12,237.08c1.69-1.24,3.42-2.38,5.7-2.31,1.95.03,3.88-.03,5.73.65.2.07.62-.29.72-.56.37-.85-.46-1.89-1.4-1.86-2.57.03-5.11.16-7.69.19-1.17,0-2.32-.13-3.72-.23-.37,0-.74.03-1.07,0-1.7-.19-3.31-.46-4.99-.65-.91-.1-1.14.26-.82,1.17.77,2.03,1.89,3.9,3.31,5.54.78.85,1.4.91,2.15.07.62-.74,1.32-1.42,2.07-2.02Zm-4.56-252.83c-.26-.03-.52-.19-.78-.13-.4.1-.78.26-1.14.46-1.99.85-3.98,1.7-5.88,2.67-.33.23-.43.94-.62,1.43.46.03.98.19,1.4.07.63-.2,1.24-.49,1.79-.85.72-.37,1.43-.74,2.12-1.14.94-.56,1.89-1.14,2.8-1.76.14-.23.25-.49.31-.75Zm-22.98,198.87c.39,1.14.65,2.31,1.14,3.42.29.59.82,1.43,1.34,1.5.85.13.98-.91,1.27-1.53.04-.14.06-.28.03-.43.23-4.53-1.01-8.41-4.72-11.31-2.51-1.92-5.52-2.35-8.46-2.41-1.4-.07-2.94.52-4.3,1.07-3.2,1.24-5.61,3.42-6.81,6.75-.68,1.91-.85,3.97-.48,5.96.32,2.09,1.07,4.08,2.21,5.86.98,1.04,1.86,2.09,2.87,3.03.33.29.88.26,1.33.39.1-.49.29-1.01.2-1.43-.17-.74-.56-1.47-.78-2.21-.03-.25,0-.5.07-.74.23.06.46.14.68.23,1.53.58,3.06,1.2,4.63,1.76.37.1.82-.03,1.24-.03-.16-.42-.23-.98-.52-1.27-.65-.74-1.43-1.27-2.08-1.96-.33-.33-.46-.85-.68-1.27.48.06.94.17,1.4.33,1.31.49,2.54,1.04,3.85,1.53.38.05.76.05,1.14,0-.07-.42-.03-.91-.23-1.27-.42-.82-.98-1.53-1.4-2.35-1.01-1.99-1.79-4.07-1.86-6.36,0-.26.23-.49.37-.74.2.17.38.37.52.59.42.65.74,1.43,1.21,2.02.62.69,1.43,1.5,2.38,1.1.42-.17.65-1.27.65-1.92-.03-1.37-.29-2.74-.42-4.07.05-.29.13-.57.23-.85.26.23.48.51.65.81.33.76.59,1.54.78,2.35.26.91.59,1.86.52,2.77-.1,1.7-.56,2.7-2.15,3-.72.16-1.1.56-.91,1.31.16.81,1.01.62,1.33.46.83-.39,1.57-.95,2.15-1.66.46-.59.49-1.5.74-2.25.1-.37.33-.62.46-.98.17.25.32.51.44.79Z"/>
      <path class="cls-7" d="m190.31,246.53c.29.52.58,1.04.88,1.53.19.28.4.56.62.81.26-.32.68-.65.74-1.04.09-.88.1-1.76.03-2.64-.03-.26-.26-.74-.43-.74-.37,0-.88.07-1.07.29-.33.56-.6,1.15-.77,1.78Zm0,2.9c-.11-.5-.25-.99-.42-1.47-.37-.74-.91-.88-1.57-.32-.78.71-1.56,1.5-2.41,2.18-1.99,1.73-3,3.58-1.4,6.16.56.94.98,1.31,1.79.59,1.21-1.08,2.35-2.23,3.42-3.45.9-.97,1.16-2.15.59-3.68Zm-111.66,15.06c2.13.96,4.33,1.74,6.59,2.35,2.34.62,4.71,1.11,7.1,1.47,2.31.39,4.66.65,7,.88,3.13.29,6.29.59,9.42.65,3.84.07,7.72-.1,11.53-.23.29,0,.78-.37.78-.58,0-1.4-.1-2.77-.19-4.41.21-1.04.35-2.1.42-3.16.06-.59-.1-1.18-.46-1.66-.19-.23-1.01.03-1.5.17-1.01.29-1.96.65-2.94.98-1.02.39-2.18.06-2.83-.82-.78-.94-.65-2.05-.03-3.06,1.14-1.89,2.9-3.03,4.99-3.75.55-.22.98-.66,1.2-1.21.17-.56,0-1.27-.13-1.92-.31-1.35.53-2.69,1.87-3,.17-.04.33-.06.51-.06,2.35-.03,4.69-.03,7.01-.03,2.61,0,2.77,0,2.57-2.51-.19-2.61.68-4.89,2.08-6.94,1.17-1.76,2.57-3.39,4.92-3.68.9-.08,1.66-.68,1.96-1.53.3-.81.51-1.65.65-2.51.74-3.31,1.34-6.62,2.06-9.91.74-3.49,1.56-6.99,2.47-10.46.49-1.92.94-3.98,3.36-4.56.16-.04.3-.12.42-.23,3.52-2.83,7.3-4.92,11.83-5.7,2.61-.48,5.29-.44,7.89.13,4.36,1.04,8.05,3.42,10.36,7.4,1.17,2.02,2.12,4.2,3.2,6.29.16.32.37.91.98.32.37-.37.58-.39.68-.16.08.18.1.39.06.58-.13,1.37-.29,2.77-.42,4.17-.29,3.26-1.24,6.35-2.35,9.38-1.53,4.24-3.49,8.31-6.16,11.96-2.77,3.78-5.76,7.33-9.89,9.79-1.01.65-2.21,1.4-2.32,2.77-.1,1.18-.49,2.32-1.14,3.31-1.1,1.95-2.38,3.68-4.72,4.04-1.24.19-2.48.16-3.68.37-.55.07-1.27.33-1.53.74-.67,1.02-1.25,2.1-1.73,3.22-.08.36-.13.73-.13,1.1.36.01.72-.01,1.07-.07,3.1-.98,6.25-1.89,9.35-3.03,3.81-1.4,7.69-2.77,11.4-4.5,3.05-1.47,5.98-3.18,8.77-5.12,3.74-2.43,7.09-5.39,9.97-8.8.34-.41.5-.94.42-1.47-1.1-3.26-1.3-6.65-1.76-10-.43-3.1-.68-6.22-1.1-9.35-.39-2.64-.68-5.31-1.37-7.89-.16-.62-.33-1.21-.49-1.84-1.37-5.02-2.8-10.07-4.5-14.99-1.21-3.52-3-6.88-4.63-10.23-.43-.92-1.14-1.96-2.48-1.7-.65.14-1.27.37-1.86.68-3.42,2.02-6.88,4.01-10.3,6.09-2.87,1.73-5.7,3.65-8.57,5.41s-5.8,3.58-8.8,5.18c-3.44,1.97-6.99,3.75-10.62,5.34-3.46,1.43-7.1,2.41-10.69,3.52-3.46,1.04-7.04,1.53-10.59,1.86-1.79.19-3.62.06-5.41.03s-3.65-.06-5.47-.26c-1.98-.14-3.95-.44-5.88-.92-4.17-1.07-8.28-2.31-12.35-3.61-2.28-.74-4.5-1.76-6.74-2.57-4.68-1.68-9.14-3.93-13.27-6.71-.97-.65-1.86-1.43-2.83-2.12-.31-.16-.63-.26-.97-.29.11.25.23.5.37.74,1.33,1.95,2.64,3.91,4.04,5.8.85,1.17,1.84,2.18,2.02,3.75.16,1.67.58,3.26.85,4.89.39,2.71.82,5.41,1.1,8.11.26,2.45.19,4.89.52,7.3.11,1.46.6,2.87,1.43,4.07,1.45,1.94,2.33,4.24,2.57,6.65.15,1.21.6,2.36,1.31,3.36,2.31,3.16,3.71,6.58,3.29,10.56-.18,1.13-.59,2.2-1.21,3.16-.62,1.04-2.21.98-3.62.03-.33-.18-.68-.32-1.04-.42-.08.28-.11.56-.1.85.76,3.82,2.65,6.92,6.37,8.52Zm102.23-10.27c-1.34.85-2.64,1.66-3.98,2.47-1.7,1.01-2.08,1.57-1.76,2.77.26.85.58,1.7.88,2.51.39,1.1.74,1.31,1.73.74,1.33-.82,2.61-1.76,3.94-2.61.88-.58,1.6-1.3,1.7-2.64-.13-.85-.26-1.66-.46-2.47-.26-1.36-.88-1.55-2.05-.77Zm-17.08-5.8c.93-.65,1.78-1.4,2.54-2.25,1.47-1.5,2.9-3.03,4.41-4.66.13-.19.26-.42.39-.62,2.13-2.17,3.84-4.71,5.05-7.5,1.84-3.94,3.52-7.92,5.15-11.93.61-1.56.97-3.21,1.07-4.89,0-1.33-.59-2.74-1.07-4.01-1.27-3.2-3.13-6.13-5.88-8.25-4.27-3.26-9.29-4.04-14.44-3.16-3.75.68-7.1,2.45-10.43,4.41-2.77,1.6-3.78,3.81-4.07,6.68-.19,1.96-.37,3.91-.68,5.84-.37,2.31-.92,4.56-1.31,6.84-.54,3.39-1.51,6.7-2.9,9.84-.39.81-.39,2.25.52,2.96.74.56,1.37,1.17,2.05,1.79,2.57,2.28,5.46,4.18,8.57,5.64,2.94,1.4,5.96,2.51,8.99,3.62.7.16,1.43.03,2.02-.38Zm10.27-64.33c.65-.07,1.24-.39,2.06-.62.1-.07.16-.16.26-.19,2.74-1.17,2.94-3.65,1.67-5.96-.82-1.47-2.35-1.92-3.75-2.57-.36-.08-.73-.13-1.1-.13.03.37-.03.72.03,1.04.65,2.57.91,5.12.19,7.72-.07.2.45.78.65.72Zm-1.5,75.02c-2.31,1.04-4.66,1.84-6.99,2.83-1.14.46-2.48.74-3.16,2.21.31,1.32.68,2.62.89,3.89.2,1.43.82,1.99,2.12,1.37,2.61-1.27,5.25-2.61,7.79-4.04,1.07-.59,1.76-1.53,1.5-2.94-.19-.85-.26-1.72-.58-2.54-.19-.64-.56-1.23-1.57-.77Zm-10.78-71.04c.39,1.66.81,1.84,2.41,1.1,1.95-.91,3.84-1.84,5.77-2.8.92-.49,1.73-1.08,2.09-2.21.91-3.1.94-6.19-.23-9.19-.74-1.96-1.79-3.78-2.71-5.67-1.14-2.32-1.31-2.38-3.39-.98-1.63,1.1-3.29,2.28-4.89,3.52-.31.39-.4.9-.26,1.37,1.14,1.73.94,3.62.56,5.35-.49,2.21-.94,4.34.16,6.62.16.97.26,1.95.49,2.89Zm-2.12,75.99c-2.67.78-5.35,1.7-8.02,2.41-.88.26-1.17.74-1.04,1.53.19,1.47.42,2.94.65,4.41s.74,1.86,2.05,1.47c2.12-.62,4.21-1.33,6.52-2.02.37-.13.72-.26,1.08-.42.78-.37,1.53-.69,1.3-1.84-.26-1.43-.42-2.87-.68-4.27-.23-1.25-.72-1.6-1.86-1.28Zm-1.99-7.36c1.84-.68,2.8-2.35,4.07-3.91.07-.23.23-.49.19-.68-.07-.49-.13-1.21-.42-1.37-.71-.29-1.48-.46-2.25-.49-.42.01-.82.21-1.07.55-.65,1.6-1.24,3.23-1.79,4.82-.1.33-.03.91.17,1.04.23.19.75.13,1.11.03Zm-8.18-59.08c2.94-1.73,5.88-3.46,8.9-5.31.31-.16.6-.34.88-.56.56-.65,1.5-1.3,1.5-1.95-.03-1.6-.52-3.2-.72-4.78-.23-1.37-.65-2.81-.42-4.11.32-2.05.68-4.04.56-6.13-.1-1.43-1.08-2.06-2.38-1.53-.59.26-1.1.56-1.7.78-2.94,1.3-5.84,2.64-8.77,3.88-1.89.78-2.31,1.63-2.15,3.55.17,1.7.03,3.42.03,5.15,0,1.14-.06,2.31.2,3.39.58,2.31,1.43,4.59,2.15,6.91.43,1.2.85,1.36,1.92.71Zm6.88,51.85c-1.99-1.17-3.98-2.25-5.96-3.31-.74-.37-1.21-.23-1.57.55-.37.85-.8,1.67-1.3,2.45l-2.21,3.31c-.62.94-.49,1.89.33,2.21.74.29,1.5.56,2.35.88,1.14.37,2.28.62,3.39.98,1.57.46,2.64.16,3.42-1.17s1.4-2.64,2.06-3.94c.41-.81.25-1.52-.5-1.95Zm-9.16,17.92c-2.18.37-4.37.71-6.55.88-1.84.19-3.31.58-4.41,2.31-.94,1.63-1.3,3.13-.88,4.95.62,2.51.55,2.54,3.26,2.35.11-.08.24-.14.37-.19,3.39-.91,6.74-1.86,10.13-2.64.94-.23,1.04-.81.98-1.47-.07-1.33-.26-2.64-.42-3.94-.16-1.69-1.07-2.44-2.47-2.24Zm-6.88-27.51c-1.17,1.57-2.25,3.23-3.31,4.86-1.33,2.02-1.31,2.87.42,4.5,1.21,1.1,2.51,2.05,3.75,3.1.98.81,1.79.85,2.57-.13,1.37-1.66,2.64-3.42,3.88-5.21.59-.85.85-1.89,0-2.67-1.04-1.01-2.25-1.86-3.52-2.9-.68-.62-1.37-1.21-2.05-1.84s-1.35-.22-1.74.31Zm-11.41-33.61c.13,1.31.19,1.31,1.53.92,5.05-1.6,9.61-4.14,14.24-6.55,1.6-.85,2.18-1.99,1.84-3.13-.52-1.7-1.17-3.39-1.7-5.11-.39-1.34-.85-2.74-.91-4.14-.13-2.21.16-4.5.13-6.71,0-1.76-.62-2.08-2.31-1.6-.91.26-1.86.52-2.9.88-.15-.02-.31,0-.46.03-3.22.65-6.42,1.31-9.65,1.99-.68.16-1.27.49-1.17,1.4.1,1.37.16,2.71.23,4.07.13,3.62.26,7.23.46,10.85.15,2.36.44,4.71.67,7.1Zm9.48,28.99c-2.67,1.27-4.04,3.49-4.78,6.35.13,1.14.26,2.28.49,3.42.03.26.46.59.78.65.16,0,.49-.39.65-.65,1.31-1.84,2.54-3.78,3.88-5.6.85-1.1,1.14-2.21.65-3.49-.31-.78-.76-1.14-1.67-.68Zm-8.21,35.97c-1.2.74-2.28.49-3.39-.23-1.4-.88-2.9-.52-4.41-.23-.13.03-.26.37-.42.74.1.94.19,1.89.23,2.8.1,1.43.13,2.87.26,4.27.1.85.52,1.31,1.5,1.14,1.04-.23,2.12-.17,3.13-.29,2.08-.19,4.17-.39,6.22-.65.56-.1,1.08-.33.98-1.14-.15-.69-.23-1.4-.23-2.12.17-1.7-.52-2.94-1.76-3.97-.67-.6-1.39-.8-2.11-.31Zm-22.45-62.83c.1,2.12.94,2.9,3.06,2.74,2.47-.15,4.92-.46,7.35-.91,2.83-.52,5.67-1.31,8.54-1.96,1.01-.23,1.21-.94,1.1-1.79-.23-1.92-.52-3.84-.65-5.77-.23-2.87-.32-5.77-.49-8.86-.06-2.41-.16-4.86-.16-7.27-.03-.88-.26-1.14-1.14-1.1-5.02.03-10.04,0-15.06.03-.8,0-1.6.07-2.38.23-.39.17-.69.49-.85.88-.26.65-.39,1.35-.39,2.06-.08,1.47-.07,2.95.03,4.41.16,1.84.65,3.58.74,5.38.19,3.96.12,7.97.29,11.94Zm12.25,62.6c-1.7-.06-3.36-.03-5.25-.03-1.79.1-3.58.13-5.41.26-1.27.07-1.63.46-1.63,1.7,0,1.57-.03,3.13.03,4.69,0,1.04.29,1.96,1.43,2.25.58.17,1.18.26,1.79.26,3.03-.03,6.03-.13,9.03-.26.39,0,1.08-.49,1.08-.74,0-2.51-.07-4.99-.23-7.49,0-.24-.56-.64-.85-.64Zm-30.53-63.19c1.5.39,3.03.72,4.56,1.14,3.81.98,7.63,2.08,11.63,2.05,1.1,0,1.33-.13,1.17-1.21-.32-1.85-.53-3.72-.62-5.6-.1-2.57.13-5.15.17-7.72.04-.79-.05-1.58-.28-2.34-.86-2.95-.93-6.07-.19-9.06.32-1.33-.17-2.08-1.43-2.25-1.02-.07-2.03-.19-3.03-.37-.31.01-.61-.02-.91-.1-3.26-.82-6.49-1.63-9.71-2.45-1.4-.37-2.05.07-2.28,1.5-.14.86-.22,1.73-.23,2.61-.03,1.73-.03,3.49.1,5.25.02.45.07.89.16,1.33,0,.03.03.19.07.42.1.68.23,1.34.33,1.99-.02.14-.07.26-.14.38.1,1.4.17,2.83.17,2.87,0,.94.06,1.89,0,2.81-.19,2.38-.46,4.72-.65,7.1-.16.74.31,1.46,1.04,1.63.03,0,.06.01.09.01Zm16.23,63.22c-2.97-.23-5.9-.49-8.82-.46-1.86.03-1.89.26-1.86,2.25.03.94.1,1.87.23,2.8.33,2.05.82,2.51,2.94,2.96.56.08,1.1.22,1.63.43,1.4.19,2.83.37,4.21.65,1.6.33,2.57-.13,2.61-1.47.03-2.02.06-4.01-.03-6-.05-.42-.57-1.14-.89-1.17Zm-13.07-1.14c-2.44-.52-4.89-.98-7.33-1.33-1.04-.17-1.56.46-1.43,1.53.1,1.01.26,2.02.46,3.06.16,1.2,1.02,2.19,2.18,2.51,1.92.62,3.85,1.24,5.74,1.79,1.43.39,1.92,0,1.86-1.43,0-.91-.13-1.79-.23-2.94-.07-.69,0-1.43-.23-2.12-.18-.47-.55-.86-1.01-1.06Zm-19.58-68.37c3.19,1.47,6.45,2.77,9.71,4.04,1.18.41,2.41.7,3.65.88.23.03.74-.37.74-.62.2-1.76.29-3.58.49-5.38.17-1.4.43-2.8.68-4.17,0-.06.03-1.6.1-3.03-.04-.04-.07-.08-.1-.13-.25-.65-.47-1.31-.68-1.96-1.17-3.38-1.17-7.05,0-10.43.56-1.66.29-1.6-1.24-2.35-2.15-1.04-4.43-1.92-6.62-2.87-2.47-1.1-4.89-2.28-7.35-3.31-.39-.16-1.4.07-1.47.29-.7,2.58-.73,5.29-.1,7.89.42,1.76.94,3.49,1.4,5.25.03.1.13,1.07.26,2.08.13.29.29.59.39.88.05.23.05.46,0,.69-.52,2.94-.91,5.93-1.63,8.82-.44,1.9.21,2.69,1.77,3.4Zm9.87,71.73c0-1.57-.07-3.13-.23-4.69-.14-.53-.53-.97-1.04-1.17-1.73-.74-3.52-1.37-5.31-1.96-.51-.22-1.11.02-1.33.54-.03.08-.06.16-.07.24-.62,2.18.06,4.21,1.72,5.09,1.34.72,2.67,1.5,4.01,2.18.47.22.98.36,1.5.39.26-.19.75-.42.75-.62Zm-10.49-10.17c.07,1.04.03,2.12.13,3.16.06.48.18.95.37,1.4.16.17.35.32.56.43.07-.13.23-.29.23-.46.07-1.7,1.4-3.49-.46-5.12-.43,0-.89-.13-.83.59Zm-14.66-24.51c2.12-1.04,4.3-1.14,6.62-1.14,2.26-.02,4.5.46,6.55,1.4.29.13.85.26,1.04.1.25-.3.33-.7.23-1.07-.38-1.99-1.4-3.79-2.9-5.15-2.83-2.57-6.35-2.8-9.93-2.54-.81.03-1.6.39-2.64.62-1.17.62-2.38,1.1-3.49,1.84-2.12,1.43-3.68,3.36-3.94,5.96-.15,1.83-.15,3.68,0,5.52.03.59.55,1.1.88,1.66.42-.49.98-.91,1.3-1.5,1.42-2.67,3.64-4.36,6.28-5.7Zm14.27-50.02c.03-.11.07-.23.13-.33-.26-1.04-.52-2.18-.58-2.31-.32-.73-.58-1.48-.78-2.25-.58-1.72-1.3-3.42-1.63-5.21-.37-2.12.1-4.2.88-6.19.33-.78.19-1.24-.37-1.7-2.38-2.02-4.82-3.94-7.04-6.09-1.37-1.3-2.65-2.7-3.83-4.17-.39,1.08-.98,2.54-1.04,2.71-.88,3.62-1.07,7.2.37,10.75.97,2.24,1.38,4.67,1.18,7.1-.1,1.04-.2,2.02-.2,3.03-.06,1.7,0,3.36-.03,5.02-.08,1.33.35,2.63,1.21,3.65,1.17,1.31,2.46,2.51,3.85,3.58,1.43,1.13,2.95,2.14,4.53,3.03,1.1.65,1.57.29,1.57-.98.03-.78-.1-1.6.06-2.35.53-2.46,1.13-4.89,1.75-7.31Zm-20.04,42.56c2.35-2.02,5.05-3.16,8.21-3,1.56.06,3.13,0,4.69,0s2.02-.37,1.99-2.02c-.07-2.05-.13-4.11-.23-6.16s-.07-4.04-.26-6.03c-.14-1.47-.42-2.94-.82-4.36-1.07-3.66-2.84-7.09-5.21-10.07-1.14-1.5-2.4-2.92-3.75-4.24-.78-.74-1.37-.56-1.73.39-.98,2.41-1.89,4.89-2.74,7.35-1.08,3.26-2.09,6.55-3.13,10.07-.59,3.03-1.5,6.03-1.7,9.06-.26,4.04.06,8.14.13,12.19.04.25.12.49.23.71.26-.08.5-.21.72-.39,1.21-1.15,2.31-2.43,3.58-3.51Zm4.04-38.22c.1.29.1.68.29.91.58.49,1.21.85,1.76,1.33.65.52.52-.03.52-.62-.47-.51-.97-.99-1.5-1.43-.27-.19-.72-.13-1.08-.19Zm-1.86-13.33c.07,1.17.03,2.41.39,3.49.62,2.02,1.5,4.01,2.28,6,.13.25.29.48.49.68.17-.25.31-.53.39-.82.03-1.4-.03-2.83.03-4.24-.02-1.02.04-2.04.18-3.04.37-1.79.42-3.58-.23-5.28-1.27-3.31-2.67-6.58-1.76-10.27.27-1.14.61-2.26,1.01-3.36.48-.93,1.01-1.83,1.6-2.7-.37-.46-.74-.88-1.04-1.31-1.5-1.92-2.83-3.97-4.27-5.93-.46-.59-.98-.56-1.1.26-.24,1.08-.39,2.18-.43,3.29,0,1.86.07,3.72.2,5.57.11,1.24.3,2.46.55,3.68.46,2.41,1.1,4.78,1.43,7.2.27,2.24.17,4.52.27,6.77Z"/>
      <path class="cls-5" d="m194.7,101.11c-.13.17-.26.34-.37.52-.59.98-1.21,1.96-1.92,3.03-.08.13-.18.24-.29.33-1.69,1.66-3.29,3.42-5.05,4.99-1.1,1.01-2.25,1.96-2.57,3.52-.86,4.09-2.22,8.06-4.04,11.83-1.47,3.13-3.1,6.16-4.69,9.23-2.18,4.14-5.09,7.79-8.31,11.14-1.56,1.66-3.31,3.16-4.92,4.76-1.01.98-.88,1.92.37,2.31,3.03.91,6.1,1.7,9.16,2.61.39.1.72.46,1.07.65-.33.29-.62.78-1.01.85-2.15.49-2.18.72-2.31,3-.2,2.05.03,4.11.65,6.07,1.14,3.36,2.84,6.22,6.52,7.23,1.84.49,3.71.78,5.47-.42.17-.13.33-.27.49-.42-.18-.19-.4-.33-.65-.42-2.21-.56-4.47-1.17-6.22-2.64-2.64-2.14-4.39-5.18-4.92-8.54-.03-.26.2-.59.29-.85.21.18.41.38.59.59.1.16.13.39.23.56.64,1.93,1.65,3.72,2.96,5.28,2.12,2.35,4.86,3.23,7.89,3.62,1.17.13,2.71.07,2.61,2.02-.03.26.72.81,1.1.81,1.27-.03,2.53-.15,3.78-.37,1.27-.29,1.4-.85.68-1.89-1.27-1.73-2.35-3.52-2.51-5.67-.12-2.62.42-5.23,1.57-7.59,1.66-3.75,3.52-7.4,5.08-11.18,1.66-3.91,3.58-7.79,4.3-12.06.62-3.39,1.31-6.81,1.73-10.2.29-2.38.19-4.78.26-7.17,0-.56-.19-1.1-.23-1.7-.07-1.89,0-3.85-.26-5.74-.29-2.54-.78-5.08-1.3-7.59-.52-2.38-1.17-4.72-1.79-7.07-.06-.2-.16-.39-.29-.56-.16.17-.46.29-.52.52-.42,1.17-.85,2.31-1.17,3.52s-.59,2.38-.23,3.62c.26.92.4,1.88.43,2.83,0,2.64-.19,5.31-.19,7.95.05,3.13-.33,6.25-1.14,9.28-.94,3.36-1.92,6.78-3.1,10.07-1.1,3.13-2.67,6.13-3.78,9.26-1.53,4.41-3.19,8.8-4.11,13.39-.58,2.94-1.21,5.84-.46,8.86.07.26-.26.62-.42.98-.19-.23-.49-.42-.56-.68-.29-1.04-.74-2.12-.68-3.13.1-2.57.2-5.15.68-7.66.6-2.63,1.38-5.21,2.35-7.72,1.24-3.31,2.74-6.52,3.97-9.84,1.75-4.39,3.24-8.88,4.43-13.46.83-3.28,1.38-6.63,1.63-10,.23-2.97.23-5.96.26-8.93-.01-.39-.09-.78-.23-1.14-.07-.21-.17-.4-.29-.58Zm-7.11-28.01c-.87-1.04-1.79-2.04-2.77-3-.21-.16-.47-.23-.74-.2-.31.42-.54.88-.68,1.37-.49,1.7-1.21,3.13-3.03,3.75-.92.33-1.04,1.04-.59,1.89.59,1.01,1.12,2.05,1.57,3.13,1.43,3.68,2.77,7.3,3.42,11.24.71,3.85,1.07,7.75,1.1,11.67,0,.94.13,1.86.19,2.8.07.74.65.42.81.26,1.47-1.99,3.03-3.95,4.3-6.03,1.79-2.97,2.8-6.32,3.55-9.68.39-1.86.46-3.85-.46-5.67-1.3-2.57-2.64-5.15-4.07-7.86-.85-1.2-1.66-2.51-2.61-3.68Zm-1.14,100.76c-1.04-.39-1.84-.1-2.67.46-.47.31-.9.67-1.3,1.07-.26.26-.65.62-.59.82.16.36.45.64.82.78.89.23,1.79.39,2.71.46,3.13.26,5.88-.81,8.54-2.25.23-.1.26-.52.39-.82-.22-.11-.45-.19-.68-.26-.39-.03-.82-.03-1.43-.03-1.91.36-3.91.46-5.77-.22Zm-4.17-109.46c.68,1.63,1.56,3.19,2.87,4.33,2.55,2.31,4.85,4.88,6.88,7.66.29.41.6.81.94,1.17.29.19.74.19,1.07.33-.01-.31-.05-.61-.1-.91-.15-.5-.32-.99-.52-1.47-.82-1.96-1.63-3.91-2.57-5.84-1.4-2.96-3.39-5.6-5.67-8.18-1.47-1.14-2.9-2.32-4.36-3.42-.33-.23-.88-.16-1.34-.23.07.42.03.91.23,1.27.81,1.79,1.78,3.49,2.57,5.28Zm-23.43-7.46c-.54.17-.84.74-.67,1.28.05.16.14.3.25.42,1.3,1.27,2.61,2.54,3.97,3.75,2.25,1.96,4.53,3.88,6.88,5.74,2.38,1.92,4.72,3.97,7.85,4.76.94.23,1.89.42,3.03-.1.29-.31.56-.64.78-1.01.88-1.73.52-3.52.07-5.25-.85-3.16-2.45-5.96-4.37-8.67-1.21-1.7-2.7-2.54-4.76-2.47-2.67.06-5.38,0-8.05.29-1.7.13-3.36.78-4.99,1.27Zm-11.19-13.3c.13,1.47-.07,2.94-.19,4.41-.1,1.14.49,1.63,1.4,1.99.72.25,1.41.56,2.08.91.2.1.23.49.33.74h-.68c-.59-.1-1.14-.23-1.76-.33-.07.18-.08.37-.03.56,1.72,1.07,3.39,2.21,5.18,3.2.56.26,1.2.26,1.76,0,4.01-1.99,8.25-2.81,12.68-2.87.45-.03.9-.1,1.33-.23,1.1-.26,1.21-.39.33-1.14-1.7-1.47-3.39-3-5.21-4.33-5.28-3.81-10.72-7.4-16.55-10.3-.52-.26-1.18-.26-1.76-.37.07.56.1,1.1.19,1.63.27,2.06.72,4.07.9,6.13Zm10.96,34.31c.4.25.83.44,1.27.58-.14-.37-.3-.73-.49-1.07-1.92-3.03-3.97-6-5.7-9.13-.94-1.76-1.34-3.81-2.02-5.74-.05-.19-.12-.38-.19-.56-.16.2-.42.33-.42.52-.03.85-.23,1.73.03,2.51,1.24,4.17,3.45,7.82,6.29,11.27.43.56.78,1.12,1.24,1.6Zm-70.36-27.04c1.66-.42,3.29-.91,4.92-1.33,2.05-.49,4.17-.91,6.25-1.34.29-.06.58-.1.88-.16-.1.37-.1.82-.32,1.04-1.18,1.17-2.38,2.28-3.62,3.36-1.08.88-2.21,1.66-3.31,2.51-.43.33-.2.59.19.59.42.01.84-.05,1.24-.19.68-.29,1.37-.65,2.08-.88,5.18-1.66,10.39-3.29,15.58-4.99,2.77-.91,5.54-1.73,8.46-1.92,3.26-.23,6.52-.37,9.74-.46,1.33-.03,2.71.16,4.04.19,2.61.03,5.21-.03,7.82.68,1.14.29,1.63-.03,1.66-1.27.1-2.41.39-4.89-.07-7.24-.62-3.16-1.69-6.32-5.57-7.1-3.06-.62-6.13-1.27-9.22-1.76-1.82-.28-3.66-.44-5.5-.49-2.87-.13-5.77-.42-8.6-.32-3.38.17-6.76.51-10.1,1.04-2.94.43-5.83,1.08-8.73,1.76-1.99.49-3.62,1.6-4.5,3.55-.09.23-.02.49.16.65.82-.1,1.63-.23,2.41-.39,3.06-.68,6.13-1.47,9.22-2.02,2.74-.49,5.57-.74,8.38-1.01.36,0,.73.04,1.08.16-.28.23-.59.43-.92.59-1.1.26-2.25.46-3.39.68-2.25.39-4.53.68-6.78,1.21-2.83.62-5.67,1.37-8.46,2.15-1.96.52-3.95,1.1-4.66,3.36-.29.91-.68,1.79-.88,2.67-.42,1.78-.74,3.59-.96,5.41-.18,1.21.29,1.53,1.47,1.27Zm47.58,2.67c-1.63-.13-3.29-.29-4.92-.42-.2-.03-.43.13-.65.19.17.1.34.17.52.23,1.31.29,2.61.65,3.97.88,1.19.16,2.39.24,3.58.23.19,0,.42-.23.62-.32-.19-.22-.41-.4-.65-.56-.4-.12-.82-.19-1.24-.23-.43,0-.82.03-1.24,0Zm-102.82,37.67c2.42-.45,4.8-1.11,7.1-1.99,2.48-.91,4.89-2.02,7.27-3.16,1.4-.68,3-1.37,3.98-2.47,1.86-2.18,3.29-4.72,5.02-7.04,2.31-2.96,4.63-5.93,7.14-8.73,1.6-1.79,3.49-3.31,5.31-4.92,3.58-3.2,7.35-6.19,11.64-8.46,1.2-.62,2.47-1.4,2.64-2.77.37-2.48.39-4.95.49-7.43.07-1.27-.29-1.5-1.3-.78-2.45,1.7-4.95,3.36-7.14,5.38-2.65,2.53-5.18,5.2-7.56,7.98-2.45,2.63-4.43,5.65-5.88,8.93-.21.47-.5.92-.85,1.3-.13.17-.42.19-.62.29,0-.23-.17-.52-.07-.68.72-1.6,1.47-3.2,2.25-4.76,2.18-4.41,5.25-8.11,8.8-11.7,1.34-1.14,2.57-2.35,3.95-3.42,2.15-1.7,4.34-3.33,6.62-4.82,1.53-.98,2.97-2.06,3.94-3.55.52-.85,1.01-1.7,1.47-2.54.26-.49.26-.91-.49-.58-2.15.85-4.34,1.6-6.42,2.57-3.62,1.7-7.17,3.45-10.39,5.88-2.15,1.66-4.5,3.1-6.45,5.02-3.03,2.92-5.9,6-8.6,9.22-2.57,3.02-4.91,6.22-7.21,9.38-2.06,2.77-3.88,5.74-6.03,8.41-1.99,2.44-4.27,4.66-6.45,6.94-2.87,3.12-6.37,5.6-10.27,7.27-.49.19-.85.74-1.3,1.14.58.19,1.17.59,1.72.56,2.59-.07,5.2-.07,7.71-.46Zm17.11,58.92c-.99,1.08-1.9,2.22-2.74,3.42-.39.62-1.47,1.1-.97,1.96.37.62,1.17,1.07,1.89,1.3.37.1,1.07-.37,1.37-.78.42-.62.62-1.43.91-2.38s.56-1.84.74-2.8c.1-.39-.1-.85-.13-1.27-.34.2-.8.26-1.06.56Zm-.68-3.97c-.46-1.27-1.08-2.51-1.53-3.81-1.01-2.83-1.99-5.74-2.9-8.6-.53-1.82-.96-3.65-1.3-5.52-.46-2.7-.91-5.44-1.14-8.21-.17-2.57-.07-5.18,0-7.79,0-1.5.15-2.99.46-4.46.56-2.47,1.33-4.89,1.96-7.33,1.23-4.66,2.94-9.18,5.11-13.49.14-.38.22-.77.23-1.17-.34.1-.67.23-.98.39-4.06,2.78-8.5,4.94-13.2,6.42-1.79.56-3.68.72-5.54,1.14-1.73.5-3.55.58-5.31.23-2.44-.49-4.69-1.27-6.52-3.13-1.43-1.33-2.49-3.02-3.06-4.89-.07-.26-.46-.42-.69-.65-.19.22-.32.49-.37.78-.07.56.07,1.14-.03,1.66-.58,2.85-.27,5.81.91,8.48.78,1.79.52,2.28-1.43,2.21-1.04-.06-2.08-.29-3.13-.46-.78-.13-.97.26-.78.85.77,2.41,2.15,4.57,4.01,6.29,1.3,1.17,2.71,2.21,4.07,3.36.16.13.23.39.37.59-.24.07-.49.09-.74.07-.62-.2-1.21-.49-1.76-.85-1.6-1.3-3.13-2.71-4.72-4.01-.25-.18-.51-.35-.78-.49-.07.29-.26.59-.23.85.29,1.1.56,2.21.91,3.31.82,2.48,1.84,4.73,4.07,6.36,3.55,2.54,7.63,3.19,11.83,3.52,1.66.13,3.31,0,5.02.07.42,0,.81.2,1.08.52.09.39.02.81-.19,1.14-1.1,2.15-2.97,3.45-4.99,4.53-2.61,1.4-5.34,1.01-8.02.42-1.01-.26-1.21.13-1.21.85-.03,2.32.52,2.64,2.71,3.65,2.57,1.17,5.34,1.33,8.15,1.37.32,0,.62.29.94.42-.29.21-.63.36-.98.43-3.2.16-6.42.16-9.35-1.34-.56-.29-.82-.13-.82.33.03,1.07-.06,2.21.29,3.16,1.53,3.91,3.31,7.69,6.65,10.49.5.43,1.07.76,1.7.97,2.83.59,5.67.13,8.46-.23.91-.13,1.84-.29,2.77-.42.24.05.47.14.68.26-.19.19-.37.56-.55.59-2.28.49-4.53.91-6.81,1.4-.24.06-.47.15-.68.26.19.29.26.68.52.81.73.38,1.49.68,2.28.91,2.06.37,4.07.88,6.13,1.08,2.54.18,5.08-.18,7.46-1.08,1.05-.33,1.4-1.08.98-2.22Z"/>
      <path class="cls-2" d="m234.22,309.5c-.49-1.51-1.47-2.81-2.8-3.68-1.4-.93-3.03-1.47-4.71-1.57-2.96-.33-5.93-.74-8.9-1.14-.85-.13-1.84-.26-2.44-.78-2.08-1.89-4.66-2.25-7.2-2.25-4.5-.07-8.99.13-13.52.42-1.45.13-2.86.58-4.11,1.34-1.7,1.07-3.06,2.96-1.5,5.02.98.74,1.84,1.47,2.77,2.08,1.14.81,2.25,1.47,2.38,3.16.1,1.01.88,2.08,1.63,2.83,1.43,1.33,3.31,1.99,5.21,2.21,2.79.32,5.59.47,8.4.46,5.54,0,11.14.39,16.65-.65,3.19-.58,5.77-2.15,7.49-4.85.46-.75.86-1.83.65-2.61Zm-5.47,2.28c-1.74,1.05-3.71,1.68-5.73,1.84-.95.1-1.92.17-2.9.23-3.31.1-6.42.33-9.48.2-3.31-.17-6.65.13-9.84-.85-.82-.28-1.59-.66-2.31-1.14-.74-.49-.59-1.17-.03-1.76.42-.39.81-.78,1.21-1.17.55-.62.37-1.27-.43-1.5-1.63-.46-3.31-.85-4.92-1.37-.49-.16-.88-.68-1.33-1.01.46-.26.85-.65,1.3-.78,1.34-.26,2.67-.49,4.07-.62,1.59-.17,3.18-.25,4.78-.23,2.8.07,5.64.23,8.41.46.65.07,1.27.56,1.84.88.91.42,1.76,1.07,2.7,1.27,1.76.33,3.52.29,5.28.52,2.41.33,4.89.59,7.1,1.7.62.29,1.43,1.01,1.47,1.53.03.57-.59,1.48-1.18,1.81Zm-25.65-250.99c-.72.23-1.66,1.17-1.73,1.89-.1.94.69,1.86,1.86,2.08.41.07.81.2,1.17.39,2.31,1.08,4.59,2.18,6.94,3.31,1.27.85,2.47,1.63,3.68,2.35,2.48,1.4,4.95,2.77,7.46,4.1,2.21,1.14,4.69.91,7.04.72,2.08-.16,5.21-3.97,3.95-7.35-.98-2.64-2.77-4.46-5.15-5.83-4.24-2.38-8.89-3.1-13.6-3.46-1.63-.13-3.31.17-4.95.43-2.25.32-4.47.78-6.67,1.37Zm15.35,2.18c3.06.52,5.99,1.47,8.54,3.22,1.21.82,2.8,1.76,2.61,3.78-.03,1.16-.96,2.1-2.12,2.15-1.53.16-2.87-.39-4.21-.91-1.24-.52-2.41-1.17-3.61-1.79-3.58-2.15-7.11-4.2-10.59-6.25-.19-.1-.29-.42-.46-.62.29-.16.59-.46.85-.42,1.5,0,3,.07,4.47.19,1.53.13,3,.39,4.53.65Zm6.68,24.34c.06-3.45-1.66-5.88-4.3-7.82-2.71-1.99-5.84-3.06-9.03-4.04-1.86-.56-3.72-1.01-5.67-.88-.88.07-1.3.37-1.33,1.37-.03.94.59,1.47,1.08,1.99,2.18,2.25,3.31,5.05,4.53,7.85,1.47,3.39,2.28,7,4.43,10.1,1.1,1.63,2.51,2.67,4.53,2.77s4.11-1.53,5.15-3.95c.78-2.47.59-4.95.62-7.39Zm-4.47,6.16c-.1.18-.2.36-.32.52-1.08.74-1.79.65-2.35-.37-.88-1.66-1.7-3.39-2.45-5.12-1.04-2.38-2.02-4.82-3.03-7.23-.17-.46-.43-.94-.56-1.43-.1-.39-.1-.82-.16-1.21.42.03.91-.1,1.27.06,2.54,1.31,5.09,2.64,7.04,4.78,1.01,1.1,1.27,2.51,1.4,3.88.26,2.08-.03,4.19-.85,6.11Zm.1,89.33c2.38-.46,4.01-3.2,3.45-5.57-.64-3.07-2.18-5.88-4.41-8.09-1.5-1.33-2.94-2.67-4.46-3.91-.23-.23-.78-.23-1.14-.13-1.24.33-1.33,1.47-1.33,2.41.07,2.28.23,4.53.42,6.81.29,2.94,1.31,5.57,3.85,7.3,1.09.72,2.33,1.41,3.63,1.18Zm-1.96-4.89c-.64-.47-1.15-1.11-1.47-1.84-.55-1.3-.91-2.7-1.37-4.11-.07-.68-.19-1.17-.19-1.66.05-.34.13-.68.23-1.01.29.16.74.26.91.55.61.79,1.15,1.63,1.63,2.51.82,1.53,1.7,3.03,1.47,4.85-.1.86-.52,1.22-1.21.7Zm-6.44,4.84c-1.01-1.5-2.44-2.7-3.71-4.01-.82-.85-1.89-.23-2.02.72-.19,1.63-.32,3.23-.46,4.95-.03,3.46-.03,6.85.91,10.1.78,2.77,2.18,5.11,4.99,6.45,2.21,1.07,5.35-.46,5.71-2.54.55-2.77.58-5.44-.74-7.92-1.43-2.66-2.99-5.25-4.68-7.76Zm1.21,13.95c-1.1.39-1.5-.74-2.02-1.4-1.27-1.5-1.31-3.42-1.79-5.18-.13-.42-.16-.88-.26-1.37-.13-1.66-.29-3.13-.42-4.6.04-.22.11-.44.19-.65.23.16.59.23.68.42,1.73,3.31,3.58,6.59,4.21,10.3.12.81.57,2.04-.6,2.47h.01Zm-34.39-148.78c.26.85,1.63,1.3,2.64.98.85-.26,1.66-.82,2.51-.85,3.49-.16,7.01-.1,10.43.72,4.01.94,8.05,1.73,12.22,1.79,1.96,0,3.68-1.4,4.76-3.46.49-1.43.25-3-.62-4.24-1.63-2.51-4.2-3.55-7.07-3.78-4.2-.28-8.41.11-12.48,1.14-4.17.98-8.09,2.67-11.47,5.41-.72.59-1.19,1.34-.91,2.28Zm10.33-4.37c1.84-.32,3.68-.62,5.54-.88,1.01-.16,2.05-.26,3.06-.37,2.02-.07,4.05-.02,6.06.17,1.37.16,2.64.78,3.31,2.21.55,1.14.13,2.18-1.5,2.15-2.18-.03-4.37-.46-6.58-.74-1.84-.26-3.65-.69-5.47-.98-1.47-.23-2.94-.29-4.37-.46-.29-.03-.56-.37-.82-.56.28-.16.46-.49.76-.55Zm5.94,209.43c1.47-2.61,1.01-5.57.59-8.34-.42-2.94-1.6-5.77-1.73-8.86s-.56-6.29-.85-9.42c-.2-1.73-.23-3.49-.49-5.18-.26-1.86-.74-3.65-1.1-5.44-.52-2.71-.94-5.41-1.63-8.05-.83-3.25-1.87-6.44-3.1-9.56-1.33-3.23-3.1-6.29-4.69-9.42-.82-1.63-2.02-3.13-.62-5.02.24-.25.43-.54.58-.85.65-1.63,1.37-1.79,3.23-1.76,1.17,0,2.31.19,3.49.19,2.97.04,5.83-1.16,7.89-3.31,2.83-2.8,3.68-6.35,3.36-10.2-.07-.77-.76-1.34-1.53-1.26-.16.01-.31.06-.46.13-.85.37-1.67.82-2.45,1.33-1.24.78-1.99.82-2.67-.19-.74-1.14-1.27-2.51-.85-3.81,1.01-3.18,2.19-6.3,3.52-9.35,1.76-4.07,3.78-8.05,5.54-12.09,1.02-2.31,1.83-4.71,2.41-7.17.74-3.22,1.14-6.52,1.6-9.84.39-2.77.74-5.52.88-8.31.07-1.76-.26-3.52-.42-5.28-.13-1.34-.23-2.64-.46-3.95-.32-1.84-.72-3.65-1.1-5.47-.56-2.47-1.08-4.95-1.73-7.43-.56-2.15-1.37-4.27-1.79-6.49-.65-3.23-1.01-6.49-1.63-9.71-.78-4.08-2.19-8.02-4.17-11.67-2.27-4.16-5.34-7.84-9.03-10.82-1.79-1.47-3.68-2.8-5.93-3.52-2.8-.91-5.15-2.64-7.35-4.5s-4.41-3.81-6.59-5.67c-3.64-2.97-7.52-5.64-11.6-7.97-.74-.46-.74-.94.07-1.43.62-.42,1.2-.9,1.73-1.43,1.84-1.89,2.8-4.3,3.45-6.84.49-1.96.85-3.97.37-6.03-.29-1.2-2.35-2.77-3.46-2.41-1.76.52-3.2,1.63-3.62,3.39-.51,2.31-.82,4.65-.94,7.01-.1,1.5.17,3.06.19,4.6,0,1.43-.46,1.79-1.72,1.24-1.82-.74-3.57-1.62-5.25-2.64-1.63-1.07-3.06-2.51-4.63-3.68-2.57-1.92-5.34-3.54-8.28-4.82-3.27-1.51-6.8-2.39-10.39-2.61-3.72-.13-7.46-.16-11.21.33-2.77.39-5.52.88-8.15,1.86-3.61,1.33-6.95,3.31-9.86,5.83-1.53,1.33-3.06,2.64-4.99,3.31-5.57,1.92-11.01,4.1-16.13,7.14-4.27,2.5-8.23,5.47-11.83,8.86-3.94,3.81-7.75,7.72-10.88,12.25-2.64,3.81-5.31,7.66-7.79,11.6-1.89,3-3.68,6.03-6.25,8.46-1.01.94-2.06,1.84-3.13,2.7-2.88,2.36-6.16,4.21-9.68,5.44-1.07.39-1.86.03-2.15-1.1-.59-2.48-1.14-4.99-1.53-7.5-.16-1.07-1.14-1.99-2.31-1.17-2.02,1.39-3.56,3.38-4.41,5.67-1.14,2.77-.85,5.73-1.14,8.63-.1,1.21-.37,1.43-1.5,1.04-2.35-.78-3.45-.03-3.39,2.51.06,2.54.03,5.15.23,7.72.14,1.9.45,3.79.91,5.64.78,3.29,2.31,6.19,4.92,8.41.94.85,2.02,1.53,2.94,2.31.32.33.51.75.55,1.21-.16,1.76-.49,3.52-.62,5.31-.01,1.05.05,2.09.19,3.13.16,1.4.16,2.9.49,4.27.62,2.69,1.61,5.27,2.94,7.69,1.59,2.93,3.84,5.45,6.58,7.35,3.97,2.83,8.41,4.73,13.43,4.76,1.37,0,1.79.69,1.4,2.06-.3,1.03.13,2.14,1.04,2.7,1.58,1.1,3.33,1.91,5.18,2.41.74.19,1.43.59,1.56,1.7.21,1.8.57,3.58,1.1,5.31,1.14,3.26,1.43,6.58,1.57,9.97.03,2.21-.13,4.43.29,6.58s1.4,4.24,2.05,6.39c.25.75.26,1.56.03,2.32-.62,1.66-1.5,3.22-2.21,4.89-1.21,2.87-2.51,5.77-3.49,8.7-1.22,3.45-2.14,6.99-2.77,10.59-.61,3.27-.97,6.58-1.07,9.91,0,1.21-.07,2.41,0,3.58.14,1.85.38,3.69.72,5.52.29,1.53.85,3,1.27,4.46.62,2.06,1.21,4.07,1.79,6.1.56,1.84,1.1,3.65,1.57,5.47.29,1.27.42,2.57.68,3.88.49,2.2,1.5,4.26,2.94,5.99,1.43,1.84,2.81,3.85,5.31,4.27,1.4.26,2.94.56,3.97-.65,1.73-1.99,3.95-2.25,6.29-2.35.78-.03,1.1.33,1.14,1.1.03,1.24.1,2.48.23,3.72.33,3.19,1.92,5.57,4.63,7.3,1.56.95,2.71,2.45,3.22,4.2,1.07,3.55,2.33,7.04,3.78,10.46,1.43,3.46,3.49,6.52,6.81,8.51,1.1.65,1.69,1.63,2.08,2.83s.74,2.41,1.21,3.62c.91,2.35,2.61,4.1,4.5,5.54,1.62,1.21,3.38,2.22,5.25,3,1.4.55,3.03.52,4.56.85,2.47.49,4.92.33,7.2-.78,3.52-1.69,5.31-6.52,4.21-10.62-.33-1.21-.43-2.54.49-3.58,2.44-2.83,4.95-5.6,7.46-8.41.78-.85,1.37-.78,1.96.26,1.14,2.12,2.28,4.3,3.31,6.52.62,1.33.52,2.61-.49,3.91-1.99,2.47-2.94,5.38-2.38,8.6.33,1.86,1.04,3.46,2.74,4.56,2.9,1.89,6.19,2.41,9.52,2.61,1.98.1,3.96.03,5.93-.19,1.92-.18,3.81-.51,5.67-1.02,2.9-.88,5.11-2.81,6.88-5.22.85-1.14,1.73-2.35,2.18-3.65s1.24-2.02,2.38-2.32c2.7-.68,4.69-2.31,6.25-4.5,3.14-4.38,5.95-9,8.38-13.82,2.15-4.2,4.04-8.5,6.03-12.81.12-.28.21-.58.26-.88.42-1.1.88-2.18,1.3-3.36.29-1.3.43-2.57.85-3.75.74-1.96,2.25-3.36,3.78-4.66,2.58-2.2,4.86-4.62,6.57-7.56ZM155.95,21.64c.04-.15.12-.3.23-.42.21-.24.43-.47.67-.68.16.29.46.62.42.88-.1,1.24-.33,2.51-.49,3.78-.07.37-.1.74-.16,1.04,0,.42-.08.84-.23,1.24-.21.32-.46.61-.74.88-.19-.33-.59-.74-.56-1.04.19-1.89.55-3.78.85-5.67Zm36.17,222.82c.17.03.39.49.43.74.07.88.06,1.76-.03,2.64-.03.39-.46.74-.74,1.04-.22-.26-.43-.53-.62-.81-.29-.49-.58-1.01-.88-1.53.16-.63.41-1.23.74-1.79.23-.23.76-.29,1.11-.29h0s0,.01,0,.01Zm1.53-70.33c.24.07.46.15.68.26-.13.29-.16.74-.39.82-2.67,1.43-5.41,2.51-8.54,2.25-.92-.07-1.82-.22-2.71-.46-.36-.14-.66-.42-.82-.78-.06-.2.33-.56.59-.82.39-.4.83-.76,1.3-1.07.82-.56,1.63-.85,2.67-.46,1.84.68,3.85.58,5.77.23.62-.01,1.03-.01,1.43.02h0s0,.01,0,.01Zm1.56-71.3c-.03,2.97-.03,5.96-.26,8.93-.25,3.38-.79,6.72-1.63,10-1.19,4.57-2.68,9.07-4.43,13.46-1.24,3.31-2.74,6.52-3.97,9.84-.97,2.51-1.75,5.09-2.35,7.72-.49,2.51-.58,5.09-.68,7.66-.03,1.01.39,2.08.68,3.13.07.26.37.46.56.68.16-.37.49-.72.42-.98-.74-3.03-.13-5.93.46-8.86.92-4.59,2.57-8.99,4.11-13.39,1.1-3.13,2.67-6.13,3.78-9.26,1.17-3.29,2.15-6.71,3.1-10.07.81-3.02,1.19-6.13,1.14-9.25,0-2.64.19-5.31.19-7.95-.03-.96-.17-1.91-.43-2.83-.37-1.24-.13-2.41.23-3.62s.74-2.35,1.17-3.52c.07-.23.37-.37.52-.52.14.16.24.35.29.56.62,2.35,1.27,4.69,1.79,7.07.52,2.51,1.01,5.05,1.3,7.59.26,1.89.19,3.85.26,5.74.03.59.23,1.14.23,1.7-.07,2.38.03,4.78-.26,7.17-.42,3.39-1.1,6.81-1.73,10.2-.74,4.27-2.64,8.15-4.3,12.06-1.56,3.78-3.42,7.43-5.08,11.18-1.15,2.36-1.68,4.97-1.57,7.59.17,2.15,1.24,3.95,2.51,5.67.74,1.04.58,1.6-.68,1.89-1.25.22-2.51.34-3.78.37-.39,0-1.14-.55-1.1-.81.1-1.96-1.43-1.89-2.61-2.02-3.03-.39-5.77-1.27-7.89-3.62-1.32-1.56-2.32-3.35-2.96-5.28-.1-.17-.13-.39-.23-.56-.18-.21-.38-.41-.59-.59-.1.26-.32.59-.29.85.54,3.35,2.29,6.39,4.92,8.54,1.76,1.47,4.01,2.08,6.22,2.64.25.09.47.24.65.42-.15.15-.32.29-.49.42-1.76,1.21-3.62.91-5.47.42-3.68-1.01-5.38-3.88-6.52-7.23-.63-1.96-.85-4.02-.65-6.06.13-2.28.16-2.51,2.31-3,.39-.07.68-.56,1.01-.85-.37-.19-.68-.55-1.07-.65-3.06-.91-6.13-1.7-9.16-2.61-1.24-.39-1.37-1.33-.37-2.31,1.63-1.6,3.36-3.1,4.92-4.76,3.22-3.36,6.13-7.01,8.31-11.14,1.6-3.06,3.23-6.1,4.69-9.23,1.82-3.77,3.18-7.74,4.04-11.83.33-1.56,1.47-2.51,2.57-3.52,1.76-1.56,3.36-3.31,5.05-4.99.11-.09.21-.2.29-.33.72-1.07,1.33-2.05,1.92-3.03.11-.18.24-.36.37-.52.12.17.22.36.29.56.14.36.21.74.22,1.12h0s0,.01,0,.01Zm-21.99,72.82c-.07-.33,0-.68-.03-1.04.37,0,.74.05,1.1.13,1.4.65,2.94,1.1,3.75,2.57,1.27,2.31,1.07,4.78-1.67,5.96-.1.03-.16.13-.26.19-.82.23-1.4.56-2.06.62-.19.06-.74-.52-.65-.72.72-2.61.46-5.15-.19-7.73Zm-103.01,22.55c0,1.27-.46,1.63-1.57.98-1.58-.89-3.1-1.9-4.53-3.03-1.39-1.08-2.68-2.28-3.85-3.58-.86-1.02-1.29-2.32-1.21-3.65.03-1.66-.03-3.31.03-5.02,0-1.01.1-1.99.2-3.03.2-2.43-.2-4.87-1.18-7.1-1.43-3.55-1.24-7.14-.37-10.75.07-.16.65-1.63,1.04-2.71,1.19,1.47,2.47,2.87,3.84,4.17,2.21,2.15,4.66,4.07,7.04,6.09.55.46.68.92.37,1.7-.78,1.99-1.24,4.07-.88,6.19.33,1.79,1.04,3.49,1.63,5.21.21.77.47,1.52.78,2.25.07.13.32,1.27.58,2.31-.06.1-.1.21-.13.33-.62,2.41-1.24,4.85-1.76,7.3-.16.75-.03,1.57-.06,2.35Zm-12.13-3.06c-.56-.49-1.18-.85-1.76-1.33-.19-.23-.19-.62-.29-.91.37.06.82,0,1.08.19.53.44,1.03.92,1.5,1.43.01.58.14,1.14-.51.62h-.01ZM134.67,52.05c-1.4-.1-2.77-.29-4.17-.46-.72-.1-1.4-.16-2.12-.26-2.7-.13-5.15-.26-7.63-.46-.32-.03-.65-.42-.98-.65.28-.16.58-.3.88-.42.49-.11.99-.19,1.5-.23,4.73-.16,9.49-.39,14.21-.39,1.66-.03,3.36.46,4.99.88.5.26.84.75.91,1.3-.2.53-.65.92-1.21,1.04-2.12,0-4.24-.19-6.39-.36Zm4.3,2.32c-.2.1-.43.32-.62.32-1.2,0-2.4-.07-3.58-.23-1.37-.23-2.67-.58-3.97-.88-.18-.06-.36-.13-.52-.23.23-.07.46-.23.65-.19,1.63.13,3.29.29,4.92.42.42.03.81,0,1.24,0,.42.03.83.11,1.24.23.25.15.47.34.65.56Zm-18.19-1.7c4.04.91,7.79,1.84,11.63,2.67,1.63.39,3.39.46,5.05.74,1.07.16,1.27.52.62,1.4-.95,1.21-2.01,2.33-3.16,3.36-1.18,1.03-2.42,1.99-3.72,2.87-.42.23-.85.42-1.3.58-.06-.41-.08-.82-.07-1.24.13-2.21-1.86-5.02-3.94-5.88-1.63-.68-3.31-.65-4.99-.62-.24.05-.46.15-.65.29.17.14.35.25.56.33,1.24.33,2.57.49,3.75.94,3.26,1.21,4.63,3.46,3.68,6.55-.18.5-.49.95-.88,1.3-.55.49-1.21.65-1.72-.13-.09-.15-.19-.29-.29-.43-1.84-3.13-4.76-4.56-8.18-5.08-1.5-.27-3.01-.41-4.53-.42-2.67,0-5.25.88-7.79,1.63-.25.11-.49.26-.68.46.26.16.54.27.85.32,3.16-.03,6.29-.32,9.42-.16,3.52.16,6.94.98,9.45,3.75.26.29.59.85.46,1.04-.24.38-.63.64-1.07.72-1.29-.1-2.57.21-3.68.88-.92.49-1.93.8-2.96.91-1.9.28-3.81.42-5.73.41-5.28-.1-10.14-1.76-14.57-4.63-1.79-1.14-3.46-2.45-5.12-3.75-.54-.48-1.03-1.03-1.43-1.63-.49-.74.03-1.43,1.08-1.57,4.24-.46,8.02-2.35,12.02-3.55,3.42-1.07,6.85-2.28,10.33-3.06,1.47-.33,3.13.19,4.72.42.97.11,1.92.38,2.86.57Zm-30.37,1.38c-.56.36-1.16.65-1.79.85-.42.13-.94-.03-1.4-.07.19-.49.29-1.21.62-1.43,1.92-.98,3.91-1.84,5.88-2.67.36-.2.74-.35,1.14-.46.26-.07.52.1.78.13-.07.26-.18.51-.33.74-.91.62-1.86,1.21-2.8,1.76-.67.42-1.39.79-2.1,1.15Zm3.19,13.6c1.4.85,2.94,1.5,4.41,2.25,2.51,1.24,5.19,2.13,7.95,2.64,2,.35,4.03.5,6.06.46,3.14-.13,6.26-.63,9.29-1.5,3.04-.81,5.98-1.94,8.77-3.39,1.66-.88,3.26-1.92,4.95-2.83,2.61-1.33,6.19-.29,7.35,2.54.49,1.17.29,2.25.1,3.39-.37,2.05-.78,4.11-1.04,6.16-.23,1.84-.39,3.65-.46,5.47-.07,6.78,1.96,12.91,5.84,18.48,3.06,4.5,7.3,8.07,12.25,10.33,3.03,1.42,6.28,2.32,9.61,2.67,1.7.16,3.39.52,5.05.39,2.04-.15,4.07-.47,6.06-.94,1.31-.26,1.73-.13,1.57,1.14-.2,1.45-.58,2.86-1.14,4.21-1.3,3.22-2.61,6.52-4.24,9.61-2.05,3.78-4.41,7.43-6.58,11.12-2.08,3.42-4.76,6.32-7.59,9.16-.68.65-1.21,1.5-1.84,2.21-.46.52-.29.88.13,1.3,1.86,2.06,4.27,3.13,6.81,3.98,1.34.49,1.57.98,1.34,2.35s-.37,2.8-.49,4.17c-.17,1.76-.74,3-2.35,4.07-4.92,3.2-10.22,5.79-15.77,7.69-4.82,1.7-9.68,3.26-14.57,4.69-2.18.62-4.53.85-6.78,1.1-2.7.37-5.38.56-8.09.74s-5.38.26-8.09.2c-2.77-.03-5.54-.26-8.28-.68-3.29-.57-6.56-1.31-9.78-2.21-3.49-.98-6.88-2.15-10.23-3.31-2.87-1.1-5.65-2.42-8.32-3.95-2.81-1.52-5.45-3.33-7.89-5.41-2.08-1.78-3.99-3.75-5.7-5.88-2.29-2.71-4.43-5.55-6.39-8.5-3.45-5.25-6.22-10.92-7.85-17.04-.68-2.64-1.33-5.35-1.76-8.09-.37-2.6-.58-5.22-.65-7.85-.13-2.61-.29-5.28,0-7.82.42-3.17,1.04-6.3,1.86-9.39,1.56-5.88,4.04-11.5,7-16.85,2.04-3.83,4.5-7.42,7.35-10.69,2.41-2.74,4.89-5.47,7.56-7.99,3.96-3.75,8.31-7.06,12.97-9.87.65-.39,1.3-.62,1.84.39,1.01,1.89,2.18,3.72,3.31,5.57,1.54,2.61,3.92,4.24,6.43,5.7v.03h0Zm60.65,6.68c.94,1.27,2.02,2.45,2.97,3.68.26.33.29.82.46,1.21-.42-.15-.81-.36-1.17-.62-1.53-1.4-3.03-2.87-4.56-4.3-.39-.31-.8-.58-1.24-.82-.17-.07-.34-.12-.52-.16-.02.21.01.42.1.62.17.31.38.59.62.85,3.19,3,6.37,5.96,9.56,8.9.17.11.36.19.56.23-.05-.19-.12-.38-.19-.56-.23-.46-.56-.98-.78-1.47-.11-.18-.18-.38-.23-.58.23.06.56.06.68.23.74.71,1.42,1.47,2.06,2.28,1.6,1.99,3.19,4.01,4.72,6.06.65.85,1.1,1.84,1.7,2.74.13.19.31.35.52.46.03-.26.23-.58.17-.81-.39-1.31-.78-2.54-1.24-3.78-.85-2.12-1.73-4.24-3.36-5.96-1.99-2.77-4.11-5.25-5.96-7.92-1.64-2.28-3.1-4.69-4.37-7.2-.91-1.7-1.84-3.49-1.72-5.54.06-1.04.26-1.92,1.3-2.47s1.73.16,2.31.68c2.21,1.84,4.34,3.78,6.45,5.7,3.98,3.65,8.09,7.17,13.1,9.32,1.7.74,2.38,2.28,2.94,3.78,1.06,2.81,1.95,5.67,2.67,8.57.4,1.93.64,3.89.72,5.86.19,3.91.37,7.82.42,11.73.07,3.42-.74,4.43-3.88,5.31-3.42.97-6.91,1.07-10.36.78-3.68-.29-7.1-1.7-10.3-3.58-2.75-1.63-5.21-3.71-7.27-6.16-1.57-1.8-2.88-3.81-3.91-5.96-1.24-2.57-2.18-5.25-2.41-8.14-.19-2.18-.49-4.41-.42-6.62.07-4.89.88-9.64,3.31-13.97.26-.49.59-.91.85-1.33.52-.68.92-.59,1.14.19.99,3.17,2.54,6.14,4.58,8.77v.03h0Zm-3.19-11.73c0-.19.26-.32.42-.52.08.18.14.36.19.56.68,1.92,1.08,3.97,2.02,5.74,1.73,3.13,3.78,6.09,5.7,9.13.19.35.35.71.49,1.07-.44-.14-.88-.34-1.27-.58-.46-.49-.81-1.04-1.24-1.6-2.83-3.45-5.05-7.1-6.29-11.27-.26-.81-.07-1.69-.03-2.54v.03h0Zm-79.79,135.57c.72-2.9,1.1-5.88,1.63-8.82.05-.23.05-.46,0-.69-.1-.29-.26-.58-.39-.88-.13-1.01-.23-1.99-.26-2.08-.46-1.76-.98-3.49-1.4-5.25-.64-2.6-.6-5.31.1-7.89.07-.23,1.08-.46,1.47-.29,2.48,1.01,4.89,2.18,7.35,3.31,2.18.94,4.47,1.84,6.62,2.87,1.53.74,1.79.68,1.24,2.35-1.17,3.38-1.17,7.05,0,10.43.2.65.43,1.31.68,1.96.03.05.06.09.1.13-.07,1.43-.1,2.97-.1,3.03-.26,1.37-.52,2.77-.68,4.17-.19,1.79-.29,3.62-.49,5.38,0,.26-.52.65-.74.62-1.24-.18-2.46-.47-3.65-.88-3.26-1.27-6.52-2.57-9.71-4.04-1.57-.76-2.22-1.56-1.76-3.43v.03Zm17.7.94c.06-.92,0-1.86,0-2.81,0-.03-.07-1.47-.17-2.87.08-.12.14-.25.17-.39-.1-.65-.23-1.31-.33-1.99-.03-.23-.07-.39-.07-.42-.09-.44-.14-.89-.16-1.33-.13-1.76-.13-3.52-.1-5.25.01-.88.09-1.75.23-2.61.23-1.43.88-1.86,2.28-1.5,3.22.82,6.45,1.63,9.71,2.45.3.08.6.11.91.1,1,.18,2.01.3,3.03.37,1.27.16,1.76.91,1.43,2.25-.74,2.97-.67,6.09.19,9.03.22.76.31,1.56.26,2.35-.03,2.57-.26,5.15-.17,7.72.1,1.88.31,3.75.64,5.6.16,1.08-.07,1.21-1.17,1.21-4.01.03-7.82-1.07-11.63-2.05-1.53-.42-3.07-.74-4.56-1.14-.75-.11-1.26-.8-1.16-1.54,0-.03,0-.06.01-.08.19-2.38.46-4.72.65-7.1v.03Zm17.76-8.02c-.11-1.47-.12-2.94-.03-4.41,0-.7.14-1.4.39-2.06.15-.39.46-.71.85-.88.78-.16,1.58-.24,2.38-.23,5.02-.03,10.04,0,15.06-.03.88-.03,1.1.23,1.14,1.1,0,2.41.1,4.86.16,7.27.17,3.1.26,6,.49,8.86.13,1.92.43,3.85.65,5.77.1.85-.1,1.57-1.1,1.79-2.87.65-5.7,1.43-8.54,1.96-2.43.45-4.89.76-7.35.91-2.12.16-2.97-.62-3.06-2.74-.17-3.97-.1-7.98-.26-11.96-.11-1.81-.6-3.56-.76-5.39v.03Zm21.09-2.77c-.07-1.37-.13-2.71-.23-4.07-.1-.91.49-1.24,1.17-1.4,3.23-.68,6.42-1.34,9.65-1.99.15-.04.3-.05.46-.03,1.04-.37,1.99-.62,2.9-.88,1.7-.49,2.31-.16,2.31,1.6.03,2.21-.26,4.5-.13,6.71.07,1.4.52,2.8.91,4.14.52,1.72,1.17,3.42,1.7,5.11.32,1.14-.26,2.28-1.84,3.13-4.63,2.41-9.19,4.95-14.24,6.55-1.33.39-1.4.39-1.53-.92-.23-2.38-.52-4.72-.65-7.1-.21-3.65-.33-7.25-.46-10.88v.03Zm17.6,1.7c-.26-1.08-.2-2.25-.2-3.39,0-1.73.13-3.45-.03-5.15-.16-1.92.26-2.77,2.15-3.55,2.94-1.24,5.84-2.57,8.77-3.88.58-.23,1.1-.52,1.7-.78,1.3-.52,2.28.1,2.38,1.53.13,2.08-.23,4.07-.56,6.13-.23,1.3.19,2.74.42,4.11.19,1.6.68,3.19.72,4.78,0,.65-.94,1.3-1.5,1.95-.27.2-.56.38-.87.53-3.02,1.86-5.96,3.59-8.9,5.32-1.07.65-1.5.49-1.92-.74-.71-2.3-1.56-4.59-2.15-6.89v.03Zm15.71-11.44c.39-1.73.58-3.62-.56-5.35-.14-.47-.05-.98.26-1.37,1.6-1.24,3.26-2.41,4.89-3.52,2.08-1.4,2.25-1.34,3.39.98.91,1.89,1.96,3.71,2.71,5.67,1.17,3,1.14,6.09.23,9.19-.37,1.14-1.17,1.73-2.09,2.21-1.92.98-3.81,1.89-5.77,2.8-1.6.74-2.02.56-2.41-1.1-.23-.94-.33-1.92-.49-2.9-1.1-2.31-.64-4.42-.15-6.64v.03Zm33.6-88.24c-.74,3.36-1.76,6.71-3.55,9.68-1.27,2.08-2.83,4.04-4.3,6.03-.16.16-.74.49-.81-.26-.07-.94-.19-1.86-.19-2.8-.01-3.92-.36-7.84-1.06-11.7-.65-3.95-1.99-7.56-3.42-11.24-.45-1.08-.97-2.12-1.57-3.13-.46-.85-.33-1.56.59-1.89,1.84-.62,2.54-2.05,3.03-3.75.15-.49.38-.96.68-1.37.26-.03.53.04.74.2.97.95,1.9,1.95,2.77,3,.94,1.17,1.76,2.48,2.61,3.68,1.43,2.71,2.77,5.28,4.07,7.86.89,1.83.83,3.81.43,5.67v.03Zm-13.9-32.25c1.47,1.1,2.9,2.28,4.36,3.42,2.28,2.57,4.27,5.21,5.67,8.18.94,1.92,1.76,3.88,2.57,5.84.2.48.38.97.52,1.47.05.3.08.61.1.91-.37-.13-.78-.13-1.07-.33-.34-.37-.66-.76-.94-1.17-2.01-2.79-4.32-5.36-6.86-7.68-1.31-1.14-2.18-2.7-2.87-4.33-.78-1.79-1.76-3.49-2.57-5.28-.2-.37-.17-.85-.23-1.27.45.07,1,0,1.33.25Zm-4.17-.23c1.92,2.71,3.52,5.52,4.37,8.67.46,1.72.82,3.52-.07,5.25-.22.36-.49.7-.78,1.01-1.14.52-2.09.33-3.03.1-3.13-.78-5.47-2.83-7.85-4.76-2.35-1.86-4.63-3.78-6.88-5.74-1.37-1.21-2.67-2.48-3.97-3.75-.4-.4-.39-1.05,0-1.45.12-.11.26-.2.42-.25,1.63-.49,3.29-1.14,4.99-1.27,2.67-.29,5.38-.23,8.05-.29,2.06-.08,3.55.76,4.76,2.46v.02h0Zm-28.35-21.61c5.83,2.9,11.27,6.49,16.55,10.3,1.84,1.33,3.52,2.87,5.21,4.33.88.74.78.88-.33,1.14-.43.13-.88.2-1.33.23-4.41.06-8.67.88-12.68,2.87-.56.26-1.2.26-1.76,0-1.79-.98-3.46-2.12-5.18-3.2-.05-.18-.04-.38.03-.56.62.1,1.17.23,1.76.33h.68c-.1-.26-.13-.65-.33-.74-.67-.36-1.37-.66-2.08-.91-.91-.37-1.5-.85-1.4-1.99.13-1.47.33-2.94.19-4.41-.16-2.06-.62-4.07-.91-6.13-.1-.52-.13-1.08-.19-1.63.59.08,1.25.08,1.77.35v.02Zm-.95,16.69c.69.42,1.34.88,1.99,1.3.85.62,1.57,1.04,2.21,1.57s.58,1.21.03,1.84c-1.24,1.31-2.51,2.57-3.72,3.91-.78.91-1.5,1.86-2.18,2.77-.46.65-1.01.65-1.43.23-1.04-1.01-2.05-1.96-3.42-2.57-.98-.42-.91-1.14-.26-2.06,1.5-2.12,2.96-4.24,4.41-6.39.45-.81,1.48-1.1,2.29-.65.03.02.06.03.08.05Zm-47.94-24.59c1.32-.84,2.7-1.57,4.13-2.18,2.05-.79,4.15-1.45,6.29-1.99,1.33-.31,2.68-.47,4.04-.49,2.35-.07,4.7-.03,7.04,0,.94,0,1.89.13,2.8.19,3.71.39,6.94,1.84,10.17,3.31.82.37,1.5,1.01,2.21,1.6.16.13.39.59-.26.49-1.66-.26-3.36-.49-5.02-.74-.78-.1-1.56-.29-2.35-.37-1.31-.13-2.61-.19-3.91-.23-3.52-.1-7-.26-10.52-.19-3.16.06-6.36.37-9.52.65-1.53.16-3.03.62-4.53.91-.31.02-.62-.03-.92-.13.12-.32.12-.74.35-.84Zm-10.79,13.19c.72-2.25,2.71-2.84,4.66-3.36,2.8-.78,5.64-1.53,8.46-2.15,2.25-.52,4.53-.82,6.78-1.21,1.14-.23,2.28-.42,3.39-.68.33-.16.63-.36.92-.59-.35-.12-.71-.17-1.08-.16-2.8.29-5.64.52-8.38,1.01-3.1.55-6.16,1.33-9.22,2.02-.78.16-1.6.29-2.41.39-.18-.16-.25-.42-.16-.65.88-1.96,2.51-3.06,4.5-3.55,2.9-.68,5.8-1.33,8.73-1.76,3.36-.52,6.74-.87,10.13-1.03,2.83-.1,5.74.19,8.6.32,1.83.05,3.66.21,5.47.49,3.1.49,6.16,1.14,9.22,1.76,3.88.78,4.95,3.94,5.57,7.1.46,2.35.17,4.82.07,7.24-.03,1.24-.52,1.56-1.66,1.27-2.61-.72-5.21-.65-7.82-.68-1.33-.03-2.71-.23-4.04-.19-3.22.1-6.49.23-9.74.46-2.9.19-5.67,1.01-8.46,1.92-5.18,1.7-10.39,3.31-15.58,4.99-.72.23-1.4.59-2.08.88-.4.14-.82.21-1.24.19-.39,0-.62-.26-.19-.59,1.1-.85,2.25-1.63,3.31-2.51,1.24-1.08,2.44-2.18,3.62-3.36.23-.23.23-.68.32-1.04-.29.07-.58.1-.88.16-2.08.43-4.21.85-6.25,1.34-1.63.42-3.26.91-4.92,1.33-1.17.26-1.63-.06-1.47-1.27.22-1.82.53-3.63.94-5.41.21-.88.6-1.76.9-2.68Zm-63.74,48.46c3.9-1.68,7.39-4.16,10.27-7.28,2.18-2.28,4.46-4.5,6.45-6.94,2.15-2.67,3.97-5.64,6.03-8.41,2.31-3.16,4.66-6.35,7.2-9.39,2.71-3.22,5.58-6.3,8.6-9.22,1.96-1.92,4.3-3.36,6.45-5.02,3.23-2.45,6.78-4.2,10.39-5.88,2.08-.98,4.27-1.73,6.42-2.57.74-.33.74.1.49.58-.46.85-.94,1.7-1.47,2.54-.97,1.5-2.41,2.57-3.94,3.55-2.28,1.5-4.46,3.13-6.62,4.82-1.37,1.07-2.61,2.28-3.95,3.42-3.55,3.58-6.62,7.3-8.8,11.7-.78,1.56-1.53,3.16-2.25,4.76-.1.16.07.46.07.68.19-.1.49-.13.62-.29.35-.39.64-.83.85-1.3,1.45-3.28,3.44-6.3,5.88-8.93,2.38-2.79,4.9-5.45,7.56-7.98,2.18-2.02,4.69-3.68,7.14-5.38,1.01-.72,1.37-.49,1.3.78-.1,2.48-.13,4.95-.49,7.43-.16,1.37-1.43,2.15-2.64,2.77-4.27,2.28-8.05,5.28-11.64,8.46-1.84,1.6-3.71,3.13-5.31,4.92-2.51,2.8-4.82,5.77-7.14,8.73-1.73,2.32-3.16,4.86-5.02,7.04-.98,1.1-2.57,1.79-3.98,2.47-2.38,1.14-4.78,2.25-7.27,3.16-2.3.88-4.68,1.54-7.1,1.99-2.51.39-5.12.39-7.72.46-.55.03-1.14-.37-1.72-.56.48-.37.83-.93,1.32-1.12Zm16.1,59.51c-2.05-.19-4.07-.72-6.13-1.08-.79-.23-1.55-.53-2.28-.91-.26-.13-.33-.52-.52-.81.22-.11.44-.2.68-.26,2.28-.49,4.53-.91,6.81-1.4.19-.03.37-.39.55-.59-.21-.12-.44-.21-.68-.26-.94.13-1.86.29-2.77.42-2.77.37-5.61.82-8.46.23-.62-.22-1.19-.55-1.7-.97-3.31-2.81-5.11-6.59-6.65-10.49-.37-.94-.26-2.09-.29-3.16,0-.46.26-.62.82-.33,2.94,1.5,6.16,1.5,9.35,1.34.35-.07.69-.22.98-.43-.33-.13-.62-.42-.94-.42-2.81-.03-5.57-.19-8.15-1.37-2.18-1.01-2.74-1.33-2.71-3.65,0-.74.19-1.1,1.21-.85,2.67.58,5.41.98,8.02-.42,2.02-1.08,3.88-2.38,4.99-4.53.21-.34.29-.75.19-1.14-.27-.32-.66-.51-1.08-.52-1.7-.07-3.36.06-5.02-.07-4.2-.33-8.28-.98-11.83-3.52-2.21-1.63-3.26-3.88-4.07-6.36-.37-1.1-.62-2.21-.91-3.31-.03-.26.16-.55.23-.85.27.14.53.31.78.49,1.6,1.3,3.13,2.71,4.72,4.01.54.36,1.14.65,1.76.85.25.02.5,0,.74-.07-.13-.19-.19-.46-.37-.59-1.37-1.14-2.77-2.18-4.07-3.36-1.86-1.71-3.24-3.88-4.01-6.29-.19-.59,0-.98.78-.85,1.04.17,2.09.39,3.13.46,1.96.07,2.21-.42,1.43-2.21-1.18-2.66-1.5-5.63-.91-8.48.1-.52-.03-1.1.03-1.66.05-.29.18-.56.37-.78.23.23.62.39.69.65.57,1.87,1.63,3.56,3.06,4.89,1.84,1.86,4.07,2.64,6.52,3.13,1.76.35,3.58.27,5.31-.23,1.84-.42,3.75-.58,5.54-1.14,4.69-1.48,9.14-3.64,13.2-6.42.31-.16.64-.29.98-.39,0,.4-.08.8-.23,1.17-2.17,4.31-3.89,8.83-5.11,13.49-.62,2.45-1.4,4.86-1.96,7.33-.3,1.47-.45,2.96-.46,4.46-.07,2.61-.17,5.21,0,7.79.23,2.77.68,5.52,1.14,8.21.34,1.86.77,3.7,1.3,5.52.92,2.87,1.89,5.77,2.9,8.6.46,1.3,1.08,2.54,1.53,3.81.42,1.14.07,1.89-1.01,2.25-2.38.88-4.91,1.24-7.43,1.05Zm9.61,4.17c-.29.94-.49,1.76-.91,2.38-.29.43-1.01.88-1.37.78-.72-.23-1.53-.68-1.89-1.3-.49-.85.58-1.34.97-1.96.83-1.2,1.75-2.35,2.74-3.42.26-.29.72-.37,1.07-.56.03.43.23.88.13,1.27-.19.96-.49,1.89-.75,2.8Zm1.89,11.93c-.25-1.21-.44-2.44-.55-3.68-.13-1.86-.2-3.72-.2-5.57.04-1.11.18-2.21.43-3.29.13-.82.65-.85,1.1-.26,1.43,1.96,2.77,4.01,4.27,5.93.33.42.68.85,1.04,1.31-.59.87-1.12,1.77-1.6,2.7-.4,1.1-.74,2.22-1.01,3.36-.92,3.68.49,6.94,1.76,10.27.65,1.7.59,3.49.23,5.28-.15,1-.21,2.01-.19,3.03-.07,1.4,0,2.83-.03,4.24-.08.29-.22.57-.39.82-.19-.21-.36-.43-.49-.68-.78-1.99-1.66-3.98-2.28-6-.37-1.08-.32-2.31-.39-3.49-.1-2.25,0-4.53-.26-6.75-.32-2.42-.97-4.79-1.43-7.21h0Zm-4.07,69.02c-.21.18-.46.31-.72.39-.11-.23-.18-.47-.23-.71-.07-4.04-.39-8.15-.13-12.19.19-3.03,1.1-6.03,1.7-9.06,1.04-3.52,2.05-6.81,3.13-10.07.85-2.47,1.76-4.95,2.74-7.35.37-.94.94-1.1,1.73-.39,1.35,1.32,2.6,2.74,3.75,4.24,2.38,2.99,4.14,6.41,5.21,10.07.4,1.42.67,2.88.82,4.35.19,1.99.19,4.01.26,6.03s.16,4.11.23,6.16c.03,1.66-.37,2.02-1.99,2.02s-3.13.06-4.69,0c-3.16-.17-5.88.97-8.21,3-1.27,1.07-2.38,2.36-3.58,3.52Zm1.76,11.11c-.33-.55-.85-1.07-.88-1.66-.15-1.83-.15-3.68,0-5.52.26-2.61,1.84-4.53,3.94-5.96,1.1-.72,2.31-1.21,3.49-1.84,1.04-.23,1.84-.58,2.64-.62,3.58-.26,7.1-.03,9.93,2.54,1.5,1.35,2.52,3.16,2.9,5.15.1.38.02.77-.23,1.07-.19.16-.74.03-1.04-.1-2.06-.94-4.29-1.42-6.55-1.4-2.31,0-4.5.1-6.62,1.14-2.64,1.33-4.86,3.03-6.29,5.67-.31.61-.87,1.02-1.29,1.52Zm20.89,5.88c-.58.71-1.32,1.28-2.15,1.66-.33.16-1.17.37-1.33-.46-.19-.74.19-1.14.91-1.31,1.6-.29,2.05-1.3,2.15-3,.07-.91-.26-1.86-.52-2.77-.19-.81-.45-1.59-.78-2.35-.17-.31-.39-.58-.65-.81-.1.27-.18.56-.23.85.13,1.33.39,2.71.42,4.07,0,.65-.23,1.76-.65,1.92-.94.39-1.76-.42-2.38-1.1-.49-.58-.78-1.37-1.21-2.02-.15-.22-.32-.42-.52-.59-.13.26-.37.49-.37.74.06,2.28.85,4.37,1.86,6.36.42.81.98,1.53,1.4,2.35.19.37.16.85.23,1.27-.38.05-.76.05-1.14,0-1.31-.49-2.54-1.04-3.85-1.53-.46-.16-.92-.27-1.4-.33.23.42.37.94.68,1.27.65.68,1.43,1.24,2.08,1.96.29.29.37.85.52,1.27-.42,0-.88.13-1.24.03-1.56-.56-3.1-1.17-4.63-1.76-.22-.09-.45-.17-.68-.23-.07.24-.09.49-.07.74.23.74.62,1.47.78,2.21.1.42-.1.94-.2,1.43-.46-.13-1.01-.1-1.33-.39-1.01-.94-1.89-1.99-2.87-3.03-1.14-1.78-1.89-3.78-2.21-5.86-.38-1.99-.21-4.05.46-5.96,1.2-3.31,3.61-5.52,6.81-6.75,1.37-.55,2.9-1.14,4.3-1.07,2.96.07,5.96.49,8.46,2.41,3.72,2.9,4.95,6.78,4.72,11.31.02.14.01.29-.03.43-.29.62-.42,1.66-1.27,1.53-.52-.07-1.04-.91-1.34-1.5-.49-1.1-.74-2.28-1.14-3.42-.11-.29-.26-.56-.42-.82-.13.37-.37.62-.46.98-.25.8-.28,1.71-.74,2.3v-.02h0Zm2.64,15.97c0,.16-.16.32-.23.46-.21-.11-.4-.25-.56-.43-.19-.45-.31-.92-.37-1.4-.1-1.04-.07-2.12-.13-3.16-.06-.72.39-.59.82-.59,1.87,1.65.52,3.44.47,5.14v-.02Zm-1.42-11.62c-.01-.29.02-.57.1-.85.36.1.71.24,1.04.42,1.4.94,3,1.01,3.62-.03.62-.96,1.03-2.03,1.21-3.16.42-3.98-.98-7.4-3.29-10.56-.7-1-1.15-2.15-1.31-3.36-.24-2.41-1.13-4.71-2.57-6.65-.83-1.21-1.33-2.61-1.43-4.07-.33-2.41-.26-4.85-.52-7.3-.29-2.71-.74-5.41-1.1-8.11-.26-1.63-.68-3.22-.85-4.89-.2-1.56-1.18-2.57-2.02-3.75-1.4-1.89-2.71-3.85-4.04-5.8-.14-.24-.26-.49-.37-.74.34.04.67.14.97.29.98.68,1.86,1.47,2.83,2.12,4.12,2.78,8.57,5.04,13.25,6.71,2.25.82,4.46,1.86,6.74,2.57,4.07,1.3,8.18,2.54,12.35,3.61,1.93.47,3.9.78,5.88.92,1.84.19,3.65.19,5.47.26s3.62.17,5.41-.03c3.55-.33,7.14-.82,10.59-1.86,3.58-1.1,7.23-2.08,10.69-3.52,3.63-1.59,7.18-3.37,10.62-5.34,3-1.6,5.88-3.39,8.8-5.18s5.7-3.68,8.57-5.41c3.42-2.08,6.88-4.07,10.3-6.09.58-.32,1.21-.55,1.86-.68,1.33-.26,2.05.78,2.48,1.7,1.63,3.35,3.42,6.71,4.63,10.23,1.7,4.92,3.13,9.97,4.5,14.99.16.62.33,1.2.49,1.84.68,2.57.98,5.25,1.37,7.89.43,3.13.68,6.25,1.1,9.35.46,3.36.65,6.75,1.76,10,.07.53-.08,1.06-.42,1.47-2.88,3.4-6.24,6.37-9.97,8.8-2.78,1.93-5.71,3.65-8.77,5.12-3.72,1.72-7.59,3.1-11.4,4.5-3.1,1.14-6.25,2.05-9.35,3.03-.36.06-.71.08-1.07.07,0-.37.05-.74.13-1.1.48-1.13,1.06-2.2,1.73-3.22.26-.39.98-.65,1.53-.74,1.21-.19,2.45-.16,3.68-.37,2.35-.37,3.62-2.09,4.72-4.04.65-.99,1.04-2.13,1.14-3.31.1-1.37,1.31-2.12,2.32-2.77,4.14-2.45,7.13-6,9.91-9.78,2.67-3.65,4.63-7.72,6.16-11.96,1.1-3.03,2.05-6.13,2.35-9.38.13-1.4.29-2.8.42-4.17.04-.2.01-.4-.06-.58-.1-.23-.33-.19-.68.16-.62.59-.82,0-.98-.32-1.08-2.09-2.02-4.27-3.2-6.29-2.31-3.97-6-6.35-10.36-7.4-2.6-.57-5.28-.61-7.89-.13-4.53.78-8.31,2.87-11.83,5.7-.12.11-.26.18-.42.23-2.41.58-2.87,2.64-3.36,4.56-.91,3.49-1.72,6.99-2.47,10.46-.72,3.29-1.34,6.58-2.06,9.91-.14.86-.35,1.7-.65,2.51-.3.85-1.06,1.45-1.96,1.53-2.35.29-3.75,1.92-4.92,3.68-1.4,2.05-2.28,4.33-2.08,6.94.19,2.51.03,2.51-2.57,2.51-2.32,0-4.66,0-7.01.03-1.38.03-2.47,1.18-2.44,2.56,0,.17.03.34.06.51.13.65.29,1.37.13,1.92-.22.55-.65.98-1.2,1.21-2.09.72-3.85,1.84-4.99,3.75-.62,1.01-.74,2.12.03,3.06.66.88,1.81,1.21,2.83.82.98-.33,1.92-.68,2.94-.98.49-.13,1.31-.39,1.5-.17.35.48.51,1.07.46,1.66-.08,1.06-.22,2.12-.42,3.16.1,1.63.19,3,.19,4.41,0,.23-.49.58-.78.58-3.81.13-7.69.29-11.53.23-3.13-.06-6.29-.37-9.42-.65-2.35-.23-4.69-.49-7-.88-2.39-.36-4.77-.85-7.1-1.47-2.25-.6-4.46-1.39-6.59-2.35-3.72-1.62-5.61-4.72-6.37-8.53Zm100.96,9.39c-2.54,1.43-5.18,2.77-7.79,4.04-1.3.62-1.92.07-2.12-1.37-.23-1.27-.58-2.57-.91-3.88.68-1.5,2.02-1.76,3.16-2.21,2.35-.98,4.69-1.79,6.99-2.83,1.01-.46,1.37.13,1.57.78.32.82.39,1.7.58,2.54.26,1.39-.42,2.33-1.5,2.92h.02Zm-12.35,6.06c-.37.16-.72.29-1.08.42-2.31.68-4.41,1.4-6.52,2.02-1.33.39-1.84.03-2.05-1.47s-.46-2.94-.65-4.41c-.13-.78.16-1.27,1.04-1.53,2.67-.74,5.35-1.63,8.02-2.41,1.14-.32,1.63.03,1.86,1.27.26,1.4.42,2.83.68,4.27.24,1.16-.51,1.49-1.3,1.85Zm-17.24-7.14c-.34.04-.68.1-1.01.19-1.79,0-3.39,0-4.99.03-.94.03-1.37.65-1.6,1.53-.24.97-.57,1.92-.98,2.83-.19.49-.82,1.17-1.1,1.1-.49-.1-.98-.69-1.24-1.17-.91-1.7-.78-3.58-.56-5.45,0-.03.07-.06.07-.1-.13-.62-.26-1.27-.39-1.89-.23.49-.59.98-.69,1.5-.32,1.76-.52,3.52-.94,5.21-.37,1.5-1.84,2.09-2.47,1.08-.59-.93-1.01-1.95-1.24-3.03-.29-1.37.23-2.74.68-4.04.26-.65.42-1.31.62-1.99.03-.16-.1-.33-.1-.52-.16.07-.39.13-.46.23-.52.78-1.17,1.57-1.43,2.41-.42,1.63-.59,3.31-.94,4.99-.1.39-.52.74-.78,1.08-.32-.26-.81-.49-.94-.82-.28-.64-.43-1.32-.46-2.02.07-2.15.26-4.27.42-6.42.07-.72,0-1.21-.94-1.01-1.47.29-2.94.52-4.36.74-.61.17-1.23.28-1.86.32-.37.03-1.04-.19-1.04-.29-.03-.45.11-.9.37-1.27.98-.85,1.92-1.76,3.03-2.35,1.79-.91,3.68-1.53,5.54-2.32.82-.35,1.61-.75,2.38-1.2.23-.17.29-.59.46-.92-.31-.03-.61,0-.91.07-.88.26-1.73.68-2.61.94-.71.26-1.5-.11-1.76-.82-.05-.13-.08-.28-.08-.42-.16-1.21.29-2.02,1.37-2.08,1.7-.1,3.42-.13,5.15-.26,1.43-.07,2.87-.26,4.27-.42.29,0,.69,0,.85.16,1.33,1.27,2.57,2.61,3.88,3.85,2.65,2.46,5.77,4.38,9.17,5.63,1.31.46,2.6.98,3.85,1.57,1.21.59,1.3,1.31.37,2.25-1.81,1.82-3.93,3.03-6.57,3.1h-.01Zm5.47,10.75c-3.39.78-6.75,1.73-10.13,2.64-.13.05-.25.12-.37.19-2.71.2-2.64.17-3.26-2.35-.42-1.84-.07-3.31.88-4.95,1.08-1.73,2.57-2.12,4.41-2.31,2.18-.17,4.36-.52,6.55-.88,1.4-.2,2.31.55,2.48,2.25.16,1.31.37,2.61.42,3.94.07.65-.03,1.24-.98,1.47Zm-14.83,2.61c.1.82-.42,1.04-.98,1.14-2.05.26-4.14.46-6.22.65-1.01.13-2.09.07-3.13.29-.98.16-1.4-.29-1.5-1.14-.13-1.4-.16-2.83-.26-4.27-.03-.91-.13-1.86-.23-2.8.16-.39.29-.74.42-.74,1.5-.29,3-.65,4.41.23,1.1.74,2.18.98,3.39.23.74-.49,1.44-.29,2.12.33,1.24,1.04,1.92,2.28,1.76,3.97,0,.71.07,1.41.23,2.1h-.01Zm22.09-22.03c.56-1.6,1.14-3.23,1.79-4.82.26-.34.65-.54,1.07-.55.77.03,1.54.19,2.25.49.29.17.37.88.42,1.37.03.19-.13.46-.19.68-1.27,1.56-2.21,3.22-4.07,3.91-.37.1-.88.17-1.1-.03-.19-.13-.25-.72-.16-1.04h-.01Zm-1.6-.26c-.78,1.33-1.86,1.63-3.42,1.17-1.1-.37-2.25-.62-3.39-.98-.85-.32-1.6-.58-2.35-.88-.82-.33-.94-1.27-.33-2.21.74-1.1,1.5-2.21,2.21-3.31.5-.78.93-1.6,1.3-2.45.37-.78.85-.91,1.57-.55,1.99,1.07,3.97,2.15,5.96,3.31.74.42.91,1.14.49,1.96-.63,1.29-1.28,2.64-2.03,3.93h-.01Zm7.01-6.58c-3.03-1.1-6.06-2.21-8.99-3.62-3.11-1.46-6-3.36-8.57-5.64-.68-.62-1.33-1.24-2.05-1.79-.91-.74-.91-2.15-.52-2.96,1.39-3.14,2.36-6.45,2.9-9.84.39-2.28.94-4.53,1.31-6.84.32-1.92.49-3.88.68-5.84.29-2.87,1.3-5.08,4.07-6.68,3.31-1.95,6.68-3.71,10.43-4.41,5.15-.88,10.17-.1,14.44,3.16,2.74,2.12,4.6,5.05,5.88,8.25.49,1.27,1.07,2.67,1.07,4.01-.1,1.68-.46,3.32-1.07,4.89-1.63,4.01-3.31,7.99-5.15,11.93-1.21,2.79-2.92,5.33-5.05,7.5-.13.19-.26.42-.39.62-1.53,1.63-2.97,3.16-4.41,4.66-.76.84-1.61,1.6-2.54,2.25-.59.4-1.32.53-2.01.38h-.01Zm-19.75-9.19c.68.62,1.37,1.21,2.05,1.84,1.27,1.04,2.48,1.89,3.52,2.9.85.78.59,1.84,0,2.67-1.24,1.79-2.51,3.55-3.88,5.21-.78.98-1.6.94-2.57.13-1.24-1.04-2.54-1.99-3.75-3.1-1.73-1.63-1.76-2.48-.42-4.5,1.07-1.63,2.15-3.31,3.31-4.86.41-.53,1.03-.96,1.75-.31h-.01Zm-2.64-.16c-1.34,1.84-2.57,3.75-3.88,5.6-.16.26-.49.65-.65.65-.33-.07-.74-.39-.78-.65-.23-1.14-.37-2.28-.49-3.42.74-2.87,2.12-5.09,4.78-6.35.91-.46,1.37-.1,1.66.68.51,1.27.22,2.38-.63,3.49h-.01Zm-18.35,39.71c0,.26-.68.74-1.08.74-3,.13-5.99.23-9.03.26-.61,0-1.21-.09-1.79-.26-1.14-.29-1.43-1.21-1.43-2.25-.07-1.56-.03-3.13-.03-4.69,0-1.24.37-1.63,1.63-1.7,1.84-.13,3.62-.16,5.41-.26,1.89,0,3.55-.03,5.25.03.29,0,.85.39.85.62.17,2.5.24,4.98.24,7.49v.02Zm-14.47-.91c-.03,1.33-1.01,1.79-2.61,1.47-1.37-.29-2.81-.46-4.21-.65-.53-.21-1.07-.35-1.63-.43-2.12-.46-2.61-.91-2.94-2.96-.13-.93-.2-1.86-.23-2.8-.03-1.99,0-2.21,1.86-2.25,2.94-.03,5.86.23,8.82.46.32.03.85.74.88,1.17.12,1.97.09,3.96.06,5.97v.02Zm-12.5-2.18c.07,1.43-.42,1.84-1.86,1.43-1.89-.55-3.81-1.17-5.74-1.79-1.17-.32-2.03-1.31-2.18-2.51-.19-1.04-.37-2.05-.46-3.06-.13-1.07.39-1.7,1.43-1.53,2.45.37,4.89.81,7.33,1.33.47.21.83.6,1.01,1.07.23.69.16,1.43.23,2.12.1,1.12.22,2,.22,2.91v.02Zm-17.44-4.72c-1.66-.88-2.35-2.9-1.72-5.09.08-.56.6-.93,1.16-.85.08.01.17.04.24.07,1.79.58,3.58,1.21,5.31,1.96.51.21.9.64,1.04,1.17.16,1.56.24,3.13.23,4.69,0,.19-.49.42-.74.62-.52-.03-1.03-.17-1.5-.39-1.36-.7-2.69-1.49-4.03-2.2v.02Zm19.35,33.86c-1.42-1.64-2.54-3.52-3.31-5.54-.32-.91-.1-1.27.82-1.17,1.66.19,3.29.46,4.99.65.32.03.72,0,1.07,0,1.4.1,2.54.23,3.72.23,2.57-.03,5.11-.16,7.69-.19.94-.03,1.76,1.01,1.4,1.86-.1.26-.52.62-.72.56-1.86-.68-3.78-.62-5.73-.65-2.28-.07-4.01,1.07-5.7,2.31-.75.61-1.44,1.28-2.06,2.02-.76.83-1.38.76-2.17-.07Zm16.82-.13c-.33,1.99-1.31,3.62-3.33,4.17-1.14.29-2.33.33-3.49.13-1.88-.24-3.74-.61-5.57-1.1-.69-.21-1.26-.71-1.57-1.37-.13-.43.46-1.27.91-1.66,2.71-2.31,6.27-3.38,9.81-2.94.1,0,.16.13.23.19.91.1,1.63.03,2.25.26,1.01.44.91,1.49.75,2.3v.02Zm8.37-16.45c-1.33,1.53-2.74,2.96-4.1,4.41-1.66,1.7-3.58,2.83-6,3.03-2.25.19-4.46.74-6.71.85-3.15.05-6.29-.32-9.35-1.08-1.96-.46-3.97-.74-5.86-1.4-.94-.39-1.7-1.11-2.15-2.02-1.76-3.68-3.31-7.46-4.99-11.21-.26-1.21-.62-2.18-.85-3.2-.17-.85.37-1.04,1.07-.81,2.41.72,4.72,1.56,7.14,2.18,3.65.88,7.3,1.7,11.03,2.35,2.38.43,4.85.23,7.2.78,2.28.52,4.41,1.53,6.55,2.48,2.02.91,3.94,1.92,6.22,1.92.39,0,1.1.19,1.1.37.08.47-.03.94-.31,1.33v.02Zm19.09,23.25c-1.43-.03-2.9-.03-4.34-.03-1.5-.33-2.77-.74-3.91-1.63-.94-.71-1.42-1.87-1.24-3.03.4-2.2,1.54-4.2,3.23-5.67.9-.83,2.29-.83,3.2,0,1.89,1.89,2.94,4.27,3.52,6.81.14.98.22,1.97.26,2.96.03.52-.23.62-.72.59Zm15.84-6.22c-2.21,3.06-5.09,5.28-8.82,6.19-1.03.22-2.08.37-3.13.46-.94.13-1.21-.52-1.4-1.17s-.29-1.37-.46-2.06c-.26-2.25-1.24-4.01-2.18-5.8-.23-.37-.23-.85-.33-1.27.42,0,.85,0,1.27.03,2.25.29,4.5.68,6.78.91,2.38.19,4.78.23,7.17.49,1.36.13,2.25.68,1.11,2.22h0Zm25.16-40.05c-1.17,2.7-2.38,5.4-3.62,8.11-.82,1.79-1.63,3.65-2.54,5.41-1.04,1.96-2.18,3.85-3.26,5.77-1.37,2.41-2.64,4.86-4.14,7.2-1.17,1.84-2.67,3.58-4.01,5.38-.85.65-1.57,1.4-2.41,1.7-1.43.52-2.97,1.01-4.46,1.04-2.75.1-5.5.03-8.25-.19-4.37-.33-8.64-1.1-12.64-2.94-1.14-.58-2.08-1.47-2.74-2.57-1.6-2.97-3.16-5.93-5.28-8.51-.72-.85-1.63-.91-2.51-.26-.41.28-.91.4-1.4.32-2.41-.55-4.78-1.21-7.14-1.92-.37-.06-.62-.49-.91-.74.28-.08.56-.15.85-.19,2.05-.19,4.14-.42,6.22-.58,3.31-.33,6.62-.52,9.91-.95,2.37-.26,4.71-.74,6.99-1.43,1.56-.49,3.22-.65,4.85-1.01,1.4-.29,2.8-.68,4.2-1.1,1.89-.52,3.78-1.1,5.64-1.69,3.85-1.24,7.66-2.54,11.34-4.14,4.95-2.18,9.65-4.82,14.31-7.46.33-.13.67-.23,1.01-.29,0,.38.12.76,0,1.06h0Zm.39-5.44c-1.33.85-2.61,1.79-3.94,2.61-.98.56-1.34.37-1.73-.74-.29-.81-.62-1.66-.88-2.51-.33-1.21.06-1.76,1.76-2.77,1.34-.81,2.64-1.63,3.98-2.47,1.17-.78,1.79-.59,2.05.78.19.81.33,1.63.46,2.47-.1,1.32-.8,2.04-1.69,2.63h0Zm4.6-3.55c-.82.74-1.24.37-1.79-.59-1.6-2.57-.58-4.43,1.4-6.16.85-.68,1.63-1.47,2.41-2.18.65-.56,1.21-.43,1.57.32.18.48.32.97.42,1.47.58,1.53.33,2.71-.59,3.68-1.06,1.22-2.21,2.38-3.42,3.46h0Zm-18.57-230.53c2.28-1.66,4.43-3.52,6.71-5.31.37-.29.68-.52.98-.78,1.92-1.84,3.94-3.61,5.73-5.6,1.07-1.21,1.99-2.56,2.71-4.01,1.33-2.41-.78-5.05-2.61-5.57-2.28-.62-4.56-.19-6.75.74-2.51,1.01-4.1,3.03-5.8,5.05-3.36,3.99-4.12,8.68-3.98,13.6.03,2.28,1.73,2.77,3,1.89Zm2.54-11.31c1.5-2.57,3.52-4.76,6.25-6.13.67-.32,1.39-.5,2.13-.52.42-.03,1.17.17,1.31.49.16.53.1,1.11-.17,1.6-.84,1.25-1.79,2.43-2.83,3.52-1.76,1.84-3.65,3.55-5.47,5.28-1.01.92-1.92,1.7-2.87,2.41-.19.13-.68.26-.78.13-.21-.23-.3-.54-.23-.85.85-1.99,1.6-4.04,2.67-5.93h0Zm-22.55,64.59c.08.11.17.22.26.32.25.19.53.36.82.49,1.37.59,2.77,1.21,4.2,1.86.49.42.98.74,1.4,1.14,2.06,2.25,3.58,4.95,4.43,7.89.65,2.05,1.08,4.17,1.6,6.22.06.19.29.37.42.52.12-.18.19-.38.23-.58-.13-2.06-.23-4.14-.46-6.19-.37-3.73-2.13-7.18-4.92-9.68-2.15-1.99-4.72-2.51-7.56-2.28-.13.02-.26.19-.42.29Zm4.86,8.99c-1.34-1.84-2.9-3.55-4.41-5.31-.13-.16-.52-.13-.78-.19,0,.25,0,.49.03.74,1.5,1.89,3.03,3.68,4.46,5.6.95,1.24,1.73,2.61,2.61,3.91.1.16.37.26.52.37.03-.23.13-.49.03-.65-.8-1.49-1.49-3.09-2.46-4.46Zm-68.4,5.25c-1.63,2.08-3.39,4.11-4.72,6.42-3.42,5.89-5.41,12.49-5.8,19.29-.26,4.69-.37,9.42.85,14.01.78,2.97,1.84,5.8,4.2,7.85s4.86,4.07,7.46,5.88c3.31,2.28,6.74,4.5,10.23,6.52,3.55,2.02,7.4,3.31,11.34,4.43,4.08,1.11,8.28,1.78,12.5,2.02,3.45.21,6.9-.08,10.27-.85,3.91-.85,7.46-2.44,10.3-5.31,2.1-2.04,3.58-4.65,4.25-7.5.49-2.31,1.34-4.66,1.47-7.04.13-2.57-.33-5.25-.62-7.85-.43-3.75-1.47-7.35-2.61-10.95-1.26-4.12-2.97-8.09-5.12-11.83-1.6-2.71-3.49-5.25-5.96-6.94-3.66-2.44-7.48-4.63-11.44-6.55-3.32-1.68-6.5-3.63-9.5-5.83-.32-.26-.62-.49-.91-.68-1.99-1.27-3.91-2.77-6.03-3.75-3.94-1.84-7.82-1.3-11.47,1.08-3.25,2.1-6.28,4.51-8.69,7.57Zm46.7,63.84c-2.32.6-4.7.89-7.1.88-2.12-.03-4.24.13-6.32-.03-5-.36-9.92-1.42-14.63-3.13-3.79-1.5-7.36-3.52-10.59-6-2.74-2.05-5.64-3.94-8.28-6.06-1.76-1.4-3.29-3.06-4.86-4.66-.65-.65-.74-1.5.33-1.89,1.55-.65,3.14-1.2,4.76-1.66,3.2-.81,6.52-.49,9.74-.42,1.6.07,3.2.72,4.78,1.08,1.42.53,2.81,1.13,4.17,1.79,1.14.62,1.37,1.66.72,2.71-.07.13-.15.26-.23.39.18.03.37.03.56,0,1.01-.19,2.02-.46,3.06-.65,2.6-.57,5.29-.64,7.92-.23,1.84.33,3.71.46,5.47,1.01,2.73.84,5.22,2.31,7.3,4.27,2.53,2.38,4.49,5.29,5.75,8.53.91,2.35.13,3.4-2.54,4.08h0Zm-12.41-60.88c2.18,1.1,4.37,2.18,6.55,3.26,1.47.74,1.53,1.21.39,2.31-.65.62-1.34,1.21-2.02,1.79-.94.78-1.63,1.69-2.57,2.02-.96.31-2,.31-2.96,0-1.17-.4-2.26-.97-3.26-1.7-.78-.46-1.1-1.17-.58-2.12.88-1.6,1.63-3.26,2.47-4.89.59-1.14.88-1.25,1.99-.69Zm-12.91,1.47c.11-1.2.29-2.4.52-3.58.37-1.4.59-2.7.91-3.97.16-.62.49-.94,1.14-.49,1.63,1.17,3.31,2.28,4.96,3.46.82.58,1.59,1.23,2.31,1.92.25.29.35.69.26,1.07-.9,1.87-1.9,3.69-3,5.44-1.43,2.28-1.5,2.15-3.78.94-.89-.51-1.75-1.06-2.57-1.66-1.24-.78-.85-2.06-.75-3.13h0s0,0,0,0Zm-13.42-9.19c2.02-1.32,4.3-2.21,6.68-2.61.97-.16,2.02.13,3.06.23.46.03.94.13,1.4.19,1.5.13,2.38,1.47,2.05,3-.49,2.31-.91,4.66-1.37,7-.23,1.17-.42,2.31-.68,3.49-.17.94.58,1.92,1.95,2.64,1.24.65,2.41,1.47,3.68,2.09,1.01.49,1.99,1.27,3.2.19.19-.23.98.03,1.43.23,1.89.91,3.65,1.96,5.57,2.74,1.01.43,2.12-.06,2.9-.74,1.7-1.5,3.42-3.13,5.02-4.76.94-1.01,1.5-1.24,2.57-.39,2.67,2.21,5.15,4.63,7.01,7.69,1.5,2.54,2.54,5.31,3.49,8.05,1.04,3.06,2.08,6.16,2.87,9.29.46,2.25.78,4.52.94,6.81.13,1.76.23,3.55.23,5.28-.04,3.39-.83,6.73-2.31,9.78-1.17,2.48-3.03,4.14-5.02,5.74-1.24,1.01-1.5.85-1.84-.72-.74-3.55-2.51-6.55-4.78-9.32-1.69-2.12-4.01-3.42-6.29-4.78-2.51-1.56-5.31-2.05-8.09-2.54-2.06-.34-4.18-.17-6.16.49-1.17.36-2.39.52-3.62.49-.49,0-.98-.59-1.43-.94-.23-.23-.43-.5-.58-.78-.78-.56-1.43-.98-2.12-1.47-1.79-1.21-3.81-1.84-5.93-2.41-1.83-.54-3.73-.79-5.64-.74-2.54.21-5.07.61-7.56,1.18-1.37.26-2.71.85-4.04,1.3-1.17.39-1.5.26-1.89-.94-.92-2.64-1.34-5.41-1.7-8.18-.07-.81.23-1.69.33-2.54.52-4.85,1.1-9.71,2.8-14.37.93-2.55,2.05-5.02,3.36-7.4,1.43-2.57,3.26-4.82,4.99-7.14,1.51-2.04,3.38-3.77,5.53-5.12Zm48.81-71.47c.68-.61,1.3-1.28,1.84-2.02,1.56-1.84,2.35-4.07,3.13-6.39.23-2.02.68-3.95.62-5.84s-1.74-3.36-3.53-3.06c-1.51.22-2.78,1.26-3.29,2.71-.46,1.21-.62,2.51-.94,3.75-.72,3.16-.52,6.35-.2,9.52.1.98,1.5,2.12,2.38,1.33Zm.26-8.96c.33-1.4.59-2.57.94-3.71.07-.26.49-.43.78-.65.16.33.49.59.49.91.19,2.54-.65,4.89-1.37,7.3-.07.23-.33.37-.52.49-.16-.19-.52-.42-.49-.65.03-1.24.1-2.44.16-3.68Zm-14.66,64.72c2.51-.88,5.18-.29,6.99,2.15.85,1.14,1.4,2.45,2.15,3.68.19.24.39.47.62.69.1-.37.33-.78.23-1.1-.52-2.43-1.76-4.64-3.56-6.36-1.7-1.63-3.58-1.6-5.64-1.21-1.9.33-3.65,1.24-5.03,2.59-.34.3-.65.64-.91,1.01-.12.28-.18.58-.19.88.27-.03.53-.1.78-.19,1.53-.73,3.03-1.58,4.56-2.13Zm-3.87,6.91c-.26-.19-.52-.33-.78-.49.06.33,0,.72.16.98.36.48.75.94,1.17,1.37,1.14.85,2.28,1.57,3.71,1.4.16-.03.31-.09.46-.16-.1-.16-.13-.37-.26-.42-.37-.12-.72-.26-1.08-.42-1.15-.75-2.26-1.53-3.39-2.25Zm-8.82-13.72c1.47.37,2.94.65,4.43.88.46.07,1.01-.16,1.5-.26-.39-.23-.81-.42-1.24-.65-.03-.03-.1-.13-.17-.13-1.66-.32-3.29-1.1-5.08-.55.14.29.31.65.55.72Zm-36.45,231.05c-3.33-1.79-7.01-2.28-10.72-2.67-2.18-.23-4.43-.26-6.65-.49-1.23-.12-2.45-.31-3.65-.59-1.89-.42-3.78-1.01-5.67-1.4-3-.55-6.03-1.04-9.06-1.56-2.15-.33-4.27-.74-6.42-.85-3.16-.13-6.32-.13-9.48,0-1.96.07-3.91.29-5.84.65-2.54.49-4.63,1.89-5.8,4.1-.74,1.4-1.5,1.92-3.03,1.89-1.5.17-2.94.37-4.36.46-2.08.07-4.04.99-5.41,2.54-1.33,1.43-1.76,4.01-.65,5.6,1.46,2.22,3.61,3.9,6.13,4.78,4.03,1.42,8.28,2.1,12.55,2.02,3.71-.13,7.4-.1,11.08-.23,3.58-.17,7.17-.56,10.75-.65,2.25-.03,4.5.43,6.75.39,8.24-.13,16.52.62,24.73-.85,2.35-.42,4.66-.88,6.75-2.02,2.35-1.31,3.06-2.87,2.9-4.6-.36-3.05-2.26-5.14-4.89-6.54Zm.65,8.18c-1.73.58-3.53.96-5.35,1.13-2.83.43-5.67.65-8.54.92-1.3.13-2.61.23-3.91.23-4.37.1-8.74.13-13.1.26-4.99.1-9.97.29-14.96.42-3.22.07-6.45.29-9.64.19-4.3-.16-8.57-.62-12.74-1.76-.43-.13-.85-.29-1.27-.46-1.17-.74-2.38-1.14-3.23-1.92-1.95-1.89-.94-3.26.88-3.84,1.21-.34,2.46-.57,3.71-.69,2.45-.26,4.89-.46,7.33-.68.98-.1.91-.81.72-1.5-.49-1.86-.29-2.12,1.53-3,2.41-1.21,4.95-1.47,7.53-1.5,2.77-.03,5.54,0,8.28.23,2.51.19,4.99.68,7.46,1.1,2.8.42,5.57.85,8.34,1.33,2.12.39,4.2.91,6.29,1.31,1.72.29,3.45.46,5.18.68,1.63.23,3.31.37,4.99.68,2.51.56,5.02,1.04,7.49,1.84,1.27.43,2.48,1.27,3.62,2.02,1.08.71,1.27,2.34-.62,2.99h0ZM52.87,26.99c3.39.39,6.78-.03,10.2-.46,3.31-.39,6.62-.98,9.91-1.53.95-.1,1.9-.25,2.83-.46.78-.13,1.21-.62.88-1.47-.94-2.51-3-3.85-5.28-5.05-2.61-1.47-5.45-1.84-8.21-2.12-2.83-.26-5.68-.04-8.44.64-2.54.56-4.82,1.98-6.45,4.01-.73.82-.89,1.99-.42,2.98.9,1.97,2.81,3.3,4.98,3.46Zm-.65-5.18c.56-.65,1.47-1.08,2.28-1.47,3.16-1.5,6.58-1.17,9.91-1.1,2.18.1,4.41.37,6.45,1.34.14.03.26.1.37.19.26.29.56.58.78.88-.32.21-.67.37-1.04.46-1.89.19-3.75.33-5.64.49-.1,0-.19.13-.37.19-3.77.57-7.59.79-11.4.69-1.05-.04-1.9-1.04-1.35-1.67h0Zm-4.5,15.33c1.08.46,2.41.39,3.65.39,3-.07,5.7-1.21,8.14-2.84.76-.5,1.36-1.21,1.73-2.05.39-1.04-.37-1.96-1.63-2.71-1.39-.88-3.03-1.26-4.66-1.1-1.27.07-2.54.13-3.95.19-1.72.62-3.31,1.31-4.41,2.77-1.39,1.9-1.26,4.35,1.12,5.34Zm2.54-4.07c.77-.51,1.59-.95,2.44-1.3.62-.23,1.34-.17,1.99-.26.65-.03,1.31-.01,1.96.03.16,0,.39.32.39.52-.04.24-.18.44-.37.58-1.72,1.15-3.74,1.75-5.8,1.73-.35-.02-.68-.2-.88-.49-.09-.18.11-.67.27-.83h0s0,.01,0,.01Zm-25.32,20.78c1.85.35,3.76.17,5.52-.52,1.27-.91,2.51-1.7,3.68-2.61,2.62-1.91,4.59-4.59,5.64-7.66.49-1.37-.07-2.77-1.1-2.83-2.02-.13-4.07-.13-5.96.62-1.95.82-3.82,1.8-5.6,2.94-2.35,1.43-3.75,3.72-4.37,6.36-.37,1.49.22,3.25,2.21,3.7Zm2.02-4.63c.71-1.11,1.53-2.14,2.45-3.1,1.43-1.3,2.9-2.54,4.82-3.06.52-.07,1.04-.12,1.56-.13-.13.58-.06,1.3-.42,1.7-1.37,1.47-2.87,2.87-4.34,4.27-.88.63-1.8,1.18-2.77,1.66-.42.19-.98.06-1.5.06.07-.46-.06-1.04.19-1.4Zm-4.56,157.27c-1.43,2.57-2.64,5.28-2.38,8.34.16,2.41,2.08,4.34,5.05,3.75s4.63-2.74,5.57-5.21c1.84-4.53,3.26-9.29,4.76-13.95.25-.83.18-1.72-.19-2.51-.49-.78-1.53-.62-2.35-.23-1.04.49-2.25.88-3.1,1.6-1.79,1.47-3.39,3.16-5.12,4.82-.82,1.08-1.57,2.21-2.25,3.39Zm7.88-5.47c.1-.1.17-.19.26-.23.32-.13.64-.24.98-.32-.06.26-.06.49-.13.78s-.13.59-.23.88c-1.43,3.45-2.74,6.84-4.17,10.17-.37.82-1.07,1.5-1.7,2.15-.26.21-.61.29-.94.23-.31-.18-.5-.49-.52-.85.17-1.31.23-2.64.69-3.85,1.25-3.37,3.22-6.43,5.77-8.96h0Zm-2.57-24.88c-2.64-.07-4.82,1.08-6.91,2.48-2.31,1.6-3.91,3.65-3.71,6.68.07,1.01,1.14,2.57,1.99,2.67,2.25.2,4.43-.1,6.22-1.84.99-1.03,1.91-2.12,2.77-3.26,1.1-1.51,1.56-3.4,1.27-5.25-.03-.85-.75-1.52-1.6-1.49-.01,0-.02,0-.03,0Zm-1.39,3.57c-1.07,1.37-2.21,2.71-3.39,4.01-.28.31-.62.54-1.01.68-.42.02-.83-.02-1.24-.13.52-2.35,2.15-3.58,3.78-4.76.36-.28.75-.51,1.17-.68.29-.03.57,0,.85.1-.04.26,0,.62-.16.78Z"/>
      <path class="cls-3" d="m208.61,62.54c.16.2.26.52.46.62,3.49,2.05,7.01,4.1,10.59,6.25,1.2.62,2.38,1.27,3.61,1.79,1.34.52,2.67,1.07,4.21.91,1.16-.05,2.09-.99,2.12-2.15.19-2.02-1.4-2.96-2.61-3.78-2.54-1.76-5.47-2.71-8.54-3.22-1.53-.26-3-.52-4.53-.65-1.47-.13-2.97-.19-4.47-.19-.26-.03-.55.26-.85.43Zm19.88,245.88c-2.21-1.1-4.69-1.37-7.1-1.7-1.76-.23-3.52-.19-5.28-.52-.94-.19-1.79-.85-2.7-1.27-.59-.33-1.21-.82-1.84-.88-2.77-.23-5.61-.39-8.41-.46-1.6-.02-3.19.06-4.78.23-1.4.13-2.74.37-4.07.62-.46.13-.85.52-1.3.78.46.32.85.85,1.33,1.01,1.63.52,3.31.91,4.92,1.37.78.23.98.88.43,1.5-.39.39-.78.78-1.21,1.17-.56.59-.68,1.27.03,1.76.72.48,1.5.86,2.31,1.14,3.19.98,6.55.68,9.84.85,3.06.13,6.16-.1,9.48-.2.98-.06,1.95-.13,2.9-.23,2.03-.16,3.99-.79,5.73-1.84.59-.33,1.21-1.24,1.21-1.84-.06-.49-.88-1.21-1.5-1.5Zm-8.37-224.92c-1.96-2.15-4.5-3.49-7.04-4.78-.37-.16-.85-.03-1.27-.06.06.39.06.81.16,1.21.13.49.39.98.56,1.43,1.01,2.41,1.99,4.85,3.03,7.23.74,1.73,1.56,3.46,2.45,5.12.55,1.01,1.27,1.1,2.35.37.12-.17.23-.34.32-.52.81-1.92,1.11-4.02.85-6.09-.13-1.39-.39-2.79-1.4-3.9Zm-1.57,88.87c-.47-.88-1.02-1.72-1.63-2.51-.19-.29-.62-.39-.91-.55-.1.33-.18.67-.23,1.01,0,.49.13.98.19,1.66.46,1.4.82,2.81,1.37,4.11.32.73.83,1.37,1.47,1.84.68.52,1.1.16,1.21-.69.22-1.84-.67-3.33-1.47-4.86Zm-8.6,11.53c-.1-.19-.46-.26-.68-.42-.09.21-.15.43-.19.65.13,1.47.29,2.94.42,4.6.1.49.13.94.26,1.37.49,1.76.52,3.68,1.79,5.18.52.65.91,1.79,2.02,1.4,1.17-.43.74-1.66.59-2.48-.62-3.71-2.48-6.97-4.21-10.3Zm-16-138.79c1.84.29,3.65.72,5.47.98,2.21.29,4.41.74,6.58.74,1.63.03,2.05-1.01,1.5-2.15-.68-1.43-1.96-2.05-3.31-2.21-2.01-.18-4.04-.24-6.06-.17-1.01.1-2.05.2-3.06.37-1.84.26-3.71.56-5.54.88-.29.07-.49.39-.74.56.26.19.52.52.82.56,1.4.16,2.87.22,4.34.45Zm-25.36-23.73c.94-.72,1.84-1.5,2.87-2.41,1.84-1.72,3.72-3.45,5.47-5.28,1.04-1.09,1.99-2.27,2.83-3.52.26-.49.32-1.06.17-1.6-.13-.32-.88-.52-1.31-.49-.74.03-1.46.2-2.12.52-2.74,1.37-4.76,3.55-6.25,6.13-1.07,1.89-1.84,3.95-2.67,5.93-.07.31.02.62.23.85.09.13.58,0,.78-.13Zm-12.22,6.1c.15-.4.23-.82.23-1.24.06-.33.1-.68.16-1.04.16-1.27.39-2.54.49-3.78.03-.26-.26-.58-.42-.88-.24.21-.45.44-.65.68-.11.12-.18.27-.23.42-.29,1.89-.65,3.78-.88,5.67-.03.33.37.74.56,1.04.28-.26.54-.56.75-.88Zm-14.86-14.76c.19-.13.46-.26.52-.49.74-2.41,1.56-4.76,1.37-7.3,0-.32-.33-.58-.49-.91-.29.23-.74.39-.78.65-.37,1.14-.62,2.31-.94,3.71-.06,1.24-.13,2.45-.16,3.68-.03.24.33.46.49.66Zm-62.86,289.81c-1.14-.74-2.35-1.6-3.62-2.02-2.47-.78-4.99-1.27-7.49-1.84-1.66-.33-3.36-.46-4.99-.68-1.73-.23-3.46-.39-5.18-.68-2.09-.39-4.17-.91-6.29-1.31-2.77-.49-5.54-.91-8.34-1.33-2.48-.42-4.95-.91-7.46-1.1-2.74-.23-5.52-.26-8.28-.23-2.57.03-5.11.29-7.53,1.5-1.84.88-2.02,1.14-1.53,3,.19.68.26,1.4-.72,1.5-2.44.23-4.89.43-7.33.68-1.26.11-2.5.35-3.71.69-1.84.58-2.83,1.95-.88,3.84.85.78,2.06,1.21,3.23,1.92.42.17.85.33,1.27.46,4.17,1.14,8.44,1.6,12.74,1.76,3.2.1,6.42-.13,9.64-.19,4.99-.13,9.98-.33,14.96-.42,4.36-.13,8.73-.17,13.1-.26,1.3,0,2.61-.1,3.91-.23,2.87-.26,5.7-.49,8.54-.92,1.82-.18,3.61-.56,5.35-1.14,1.89-.64,1.7-2.27.62-2.99ZM53.56,23.47c3.81.11,7.63-.12,11.4-.69.16-.06.26-.19.37-.19,1.89-.16,3.75-.29,5.64-.49.37-.09.72-.24,1.04-.46-.23-.29-.52-.58-.78-.88-.1-.1-.23-.17-.37-.19-2.05-.98-4.27-1.24-6.45-1.34-3.31-.06-6.75-.39-9.91,1.1-.82.39-1.73.81-2.28,1.47s.3,1.63,1.35,1.67Zm3.13,9.16c.19-.14.32-.35.37-.58,0-.2-.23-.52-.39-.52-.65-.05-1.31-.06-1.96-.03-.65.1-1.37.03-1.99.26-.85.35-1.67.79-2.44,1.3-.17.17-.37.65-.26.82.2.29.53.47.88.49,2.06.02,4.08-.58,5.79-1.73Zm-28.42,17.92c.97-.48,1.89-1.03,2.77-1.66,1.47-1.4,2.97-2.8,4.34-4.27.37-.39.29-1.1.42-1.7-.52.01-1.04.06-1.56.13-1.92.52-3.39,1.76-4.82,3.06-.91.95-1.73,1.99-2.45,3.1-.26.37-.13.94-.19,1.4.52,0,1.08.13,1.5-.06Zm-4.43,163.27c.02.35.22.67.52.85.33.07.68-.01.94-.23.62-.65,1.34-1.33,1.7-2.15,1.43-3.31,2.74-6.71,4.17-10.17.1-.29.16-.59.23-.88s.07-.52.13-.78c-.33.08-.66.19-.98.32-.1.03-.16.13-.26.23-2.54,2.54-4.51,5.6-5.77,8.96-.46,1.21-.52,2.55-.69,3.85Zm.62-34.32c-1.63,1.17-3.26,2.41-3.78,4.76.4.11.82.15,1.24.13.39-.15.73-.38,1.01-.68,1.17-1.3,2.32-2.64,3.39-4.01.16-.16.13-.52.16-.78-.27-.09-.56-.13-.85-.1-.42.17-.82.4-1.17.68Z"/>
    </g>
  </g>
</svg>